<svg id="Layer_1" data-name="Layer 1" xmlns="http://www.w3.org/2000/svg" viewBox="0 0 183.62 101.53"><title>logo--slogan</title><path d="M18.28,61a14.61,14.61,0,0,0-4.59-10.62,15.19,15.19,0,0,0-11.23-4A15,15,0,0,0-8.25,51l-2.12,2.21,6.17,5.32,2.07-2.24a6.36,6.36,0,0,1,4.79-2.17A6.6,6.6,0,0,1,7.84,56a7.43,7.43,0,0,1,2,5.27,7.39,7.39,0,0,1-1.71,5.36,6.61,6.61,0,0,1-5.08,2.09,6.47,6.47,0,0,1-4.93-1.9l-2.1-2-6.1,5.36,2.36,2.19a15.07,15.07,0,0,0,11,4.11,15.1,15.1,0,0,0,11-4.62A14.63,14.63,0,0,0,18.28,61Z" transform="translate(34.78 -46.3)" fill="#a7b241"/><path d="M-12.28,73.56l-2.07,2.24A6.37,6.37,0,0,1-19.15,78a6.6,6.6,0,0,1-5.18-1.82,7.37,7.37,0,0,1-2-5.27,7.36,7.36,0,0,1,1.7-5.36,6.59,6.59,0,0,1,5.08-2.08,6.45,6.45,0,0,1,4.93,1.89l2.1,2L-6.43,62l-2.36-2.19a15.08,15.08,0,0,0-11-4.11,15.11,15.11,0,0,0-11,4.62,14.59,14.59,0,0,0-4,10.85,14.6,14.6,0,0,0,4.59,10.62,15.15,15.15,0,0,0,11.24,4,14.86,14.86,0,0,0,10.7-4.72l2.12-2.2Z" transform="translate(34.78 -46.3)" fill="#67714d"/><path d="M12.55,84.37l-1.18,1a7.49,7.49,0,0,0-5.5-2.27A7.51,7.51,0,0,0,.15,85.34a8.75,8.75,0,0,0,0,11.28,7.48,7.48,0,0,0,5.72,2.26,7.41,7.41,0,0,0,5.5-2.31l1.14,1a9.12,9.12,0,0,1-6.65,2.74A9.29,9.29,0,0,1-1,97.71,9,9,0,0,1-3.64,91,9.1,9.1,0,0,1-1,84.31a9.29,9.29,0,0,1,6.86-2.64A9.21,9.21,0,0,1,12.55,84.37Z" transform="translate(34.78 -46.3)" fill="#f1f1f2"/><path d="M33.33,91a9.07,9.07,0,0,1-2.62,6.7,9.19,9.19,0,0,1-6.85,2.63A9.29,9.29,0,0,1,17,97.71a9.82,9.82,0,0,1,0-13.4,9.29,9.29,0,0,1,6.86-2.64,9.24,9.24,0,0,1,6.88,2.66A9.08,9.08,0,0,1,33.33,91ZM31.6,91a7.91,7.91,0,0,0-2.06-5.64,7.39,7.39,0,0,0-5.68-2.26,7.52,7.52,0,0,0-5.72,2.26,8.78,8.78,0,0,0,0,11.28,7.48,7.48,0,0,0,5.72,2.26,7.41,7.41,0,0,0,5.66-2.27A7.9,7.9,0,0,0,31.6,91Z" transform="translate(34.78 -46.3)" fill="#f1f1f2"/><path d="M54.11,91a9.1,9.1,0,0,1-2.62,6.7,9.21,9.21,0,0,1-6.85,2.63,9.29,9.29,0,0,1-6.86-2.64,9.82,9.82,0,0,1,0-13.4,9.29,9.29,0,0,1,6.86-2.64,9.25,9.25,0,0,1,6.88,2.66A9.12,9.12,0,0,1,54.11,91Zm-1.73,0a7.91,7.91,0,0,0-2.06-5.64,7.39,7.39,0,0,0-5.68-2.26,7.52,7.52,0,0,0-5.72,2.26,8.78,8.78,0,0,0,0,11.28,7.48,7.48,0,0,0,5.72,2.26,7.41,7.41,0,0,0,5.66-2.27A7.94,7.94,0,0,0,52.38,91Z" transform="translate(34.78 -46.3)" fill="#f1f1f2"/><path d="M71.81,100H69.87L62,91.69l-4.44,4.6V100H55.91V73.34h1.64v21L69.72,81.69h1.94l-8.71,9Z" transform="translate(34.78 -46.3)" fill="#f1f1f2"/><path d="M99.65,82,93.19,98.56c-.48,1.22-1.17,1.83-2.08,1.83s-1.62-.61-2.1-1.83l-2.36-6-2.39,6c-.48,1.21-1.17,1.82-2.08,1.82s-1.63-.61-2.11-1.83L73.62,82h1.76l6.1,15.8q.33.84.66.84c.27,0,.51-.28.71-.82l2.93-7.62L82.57,82h1.74l6.1,15.8c.23.56.45.84.67.84s.51-.28.72-.82L97.9,82Z" transform="translate(34.78 -46.3)" fill="#f1f1f2"/><path d="M118.44,100h-1.63V96.66a9.27,9.27,0,0,1-4.28,3.08,9.88,9.88,0,0,1-3.48.61,9.36,9.36,0,0,1-6.9-2.6A9.08,9.08,0,0,1,99.55,91a9.52,9.52,0,0,1,17.26-5.37V82h1.63Zm-1.63-5.65V91.93a9.69,9.69,0,0,0-1.87-6.17,7,7,0,0,0-5.88-2.68,7.52,7.52,0,0,0-5.73,2.24,8.92,8.92,0,0,0,0,11.34,7.52,7.52,0,0,0,5.76,2.22,8.19,8.19,0,0,0,3.48-.76A9.8,9.8,0,0,0,116.81,94.37Z" transform="translate(34.78 -46.3)" fill="#f1f1f2"/><path d="M130.49,83.71h-.11c.13,0-.61-.09-2.2-.26a5.63,5.63,0,0,0-4.57,2.27A9.71,9.71,0,0,0,121.84,92V100h-1.59V82h1.59v3.52a7.31,7.31,0,0,1,6.57-3.59c.22,0,.91.11,2.08.28Z" transform="translate(34.78 -46.3)" fill="#f1f1f2"/><path d="M148.84,90.7a3.21,3.21,0,0,1-.09.82H131.64A7.59,7.59,0,0,0,134,96.86a7.88,7.88,0,0,0,5.62,2,12.16,12.16,0,0,0,3.67-.58,7.41,7.41,0,0,0,3.19-1.73l1.21,1.1q-2.73,2.68-8.07,2.68a9.69,9.69,0,0,1-7-2.6A9,9,0,0,1,129.91,91a9.1,9.1,0,0,1,2.64-6.71,10.25,10.25,0,0,1,13.63-.09A8.6,8.6,0,0,1,148.84,90.7Zm-1.73-.65a7.57,7.57,0,0,0-2.39-5,7.49,7.49,0,0,0-5.32-1.93,7.43,7.43,0,0,0-7.76,7Z" transform="translate(34.78 -46.3)" fill="#f1f1f2"/><path d="M12.53,105.77l-1.19,1a7.45,7.45,0,0,0-5.49-2.27,7.55,7.55,0,0,0-5.73,2.26A8.76,8.76,0,0,0,.12,118a7.53,7.53,0,0,0,5.73,2.25A7.37,7.37,0,0,0,11.34,118l1.15,1a9.12,9.12,0,0,1-6.65,2.74A9.32,9.32,0,0,1-1,119.12a9.83,9.83,0,0,1,0-13.41,9.29,9.29,0,0,1,6.86-2.64A9.21,9.21,0,0,1,12.53,105.77Z" transform="translate(34.78 -46.3)" fill="#f1f1f2"/><path d="M33.31,112.42a9.1,9.1,0,0,1-2.62,6.7,9.21,9.21,0,0,1-6.85,2.63A9.32,9.32,0,0,1,17,119.12a9.81,9.81,0,0,1,0-13.41,9.29,9.29,0,0,1,6.86-2.64,9.25,9.25,0,0,1,6.88,2.66A9.12,9.12,0,0,1,33.31,112.42Zm-1.74,0a7.91,7.91,0,0,0-2.05-5.64,7.39,7.39,0,0,0-5.68-2.26,7.51,7.51,0,0,0-5.72,2.26,8.76,8.76,0,0,0,0,11.29,7.51,7.51,0,0,0,5.72,2.25A7.41,7.41,0,0,0,29.5,118,7.94,7.94,0,0,0,31.57,112.38Z" transform="translate(34.78 -46.3)" fill="#f1f1f2"/><path d="M61,121.42H59.31V109.9a5.44,5.44,0,0,0-1.38-3.85,5.57,5.57,0,0,0-7.75,0,5.44,5.44,0,0,0-1.38,3.85v11.52H47.2V109.9a5.44,5.44,0,0,0-1.38-3.85A5,5,0,0,0,42,104.48a5,5,0,0,0-5.16,4.36v12.58H35.11v-18h1.68v1.83A6.55,6.55,0,0,1,42,103.07a6.59,6.59,0,0,1,6,3.5,6.74,6.74,0,0,1,6-3.5,6.61,6.61,0,0,1,5.21,2.08A7.61,7.61,0,0,1,61,110.39Z" transform="translate(34.78 -46.3)" fill="#f1f1f2"/><path d="M102.36,121.42h-1.63v-3.36a9.24,9.24,0,0,1-4.27,3.08,10,10,0,0,1-3.48.61,9.33,9.33,0,0,1-6.9-2.6,9.07,9.07,0,0,1-2.61-6.73,8.8,8.8,0,0,1,9.43-9.35,9.09,9.09,0,0,1,7.83,4v-3.67h1.63Zm-1.63-5.65v-2.44a9.75,9.75,0,0,0-1.86-6.17A7,7,0,0,0,93,104.48a7.52,7.52,0,0,0-5.73,2.24,8.9,8.9,0,0,0,0,11.34A7.56,7.56,0,0,0,93,120.28a8,8,0,0,0,3.47-.76A9.68,9.68,0,0,0,100.73,115.77Z" transform="translate(34.78 -46.3)" fill="#f1f1f2"/><path d="M119.47,121.42h-1.59V110.74a6.29,6.29,0,0,0-1.6-4.43,5.73,5.73,0,0,0-4.45-1.83,6,6,0,0,0-4.39,1.6,5.66,5.66,0,0,0-1.63,4.25v11.09h-1.64v-18h1.64v2.47a7.07,7.07,0,0,1,6-2.77,7.15,7.15,0,0,1,5.73,2.36,8.49,8.49,0,0,1,1.91,5.79Z" transform="translate(34.78 -46.3)" fill="#f1f1f2"/><path d="M136.75,120.86a9.22,9.22,0,0,1-2.39,6.67,9,9,0,0,1-6.8,2.57,12,12,0,0,1-6.28-1.79l.56-1.56a9.54,9.54,0,0,0,3.56,1.52,10.92,10.92,0,0,0,2.23.26,7.21,7.21,0,0,0,5.58-2.14,7.79,7.79,0,0,0,1.91-5.53V119a8.1,8.1,0,0,1-11.76.37,8.5,8.5,0,0,1-1.89-5.81V103.4h1.6v10.69a6.34,6.34,0,0,0,1.57,4.46,5.77,5.77,0,0,0,4.47,1.8,5.67,5.67,0,0,0,4.43-1.82,6.35,6.35,0,0,0,1.58-4.44V103.4h1.63Z" transform="translate(34.78 -46.3)" fill="#f1f1f2"/><path d="M26.88,68.87H23.81v7.76c0,.88.33,1.33,1,1.33h.68v.88H25a1.88,1.88,0,0,1-2.14-2.11V64.91h1V68h3.07Z" transform="translate(34.78 -46.3)" fill="#f1f1f2"/><path d="M36.75,78.84h-1V72.4a4,4,0,0,0-.88-2.62,3.15,3.15,0,0,0-2.56-1.13,3.53,3.53,0,0,0-2.89,1.29,4.53,4.53,0,0,0-1,3v5.91h-1V62.76h1v7.16a4.32,4.32,0,0,1,3.86-2.16,4.06,4.06,0,0,1,3.33,1.41,5.2,5.2,0,0,1,1.07,3.42Z" transform="translate(34.78 -46.3)" fill="#f1f1f2"/><path d="M49.25,73.23a1.73,1.73,0,0,1-.06.49H38.88a4.58,4.58,0,0,0,1.42,3.22,4.75,4.75,0,0,0,3.38,1.22,7.55,7.55,0,0,0,2.22-.35,4.48,4.48,0,0,0,1.92-1l.73.66a6.67,6.67,0,0,1-4.87,1.62,5.84,5.84,0,0,1-4.22-1.57,5.41,5.41,0,0,1-1.62-4.06,5.48,5.48,0,0,1,1.59-4,5.57,5.57,0,0,1,4.14-1.6,5.7,5.7,0,0,1,4.08,1.54A5.19,5.19,0,0,1,49.25,73.23Zm-1-.39a4.63,4.63,0,0,0-1.44-3,4.53,4.53,0,0,0-3.21-1.17,4.48,4.48,0,0,0-4.68,4.21Z" transform="translate(34.78 -46.3)" fill="#f1f1f2"/><path d="M79.16,105.67a9.24,9.24,0,0,0-6.91-2.6,9.15,9.15,0,0,0-7.85,4v-4.23H62.75v27.29H64.4V118.06a9.12,9.12,0,0,0,4.28,3.08,9.88,9.88,0,0,0,3.48.61,9.34,9.34,0,0,0,6.91-2.6,10.2,10.2,0,0,0,.09-13.48ZM77.9,118a7.56,7.56,0,0,1-5.75,2.24,8,8,0,0,1-3.48-.76,9.73,9.73,0,0,1-4.27-3.75v-2.44a9.76,9.76,0,0,1,1.85-6.18,7,7,0,0,1,5.9-2.67,7.48,7.48,0,0,1,5.72,2.24,8.86,8.86,0,0,1,0,11.32Z" transform="translate(34.78 -46.3)" fill="#f1f1f2"/><rect x="104.79" y="91.57" width="0.69" height="9.79" fill="#a7b241"/><path d="M78.9,146.85c0,.17-.07.2-.14.2s-.1,0-.14-.12l-4-8.44a1,1,0,0,0-.88-.69c-.55,0-.83.31-.83.92v8.95h.7v-9c0-.19.07-.21.14-.21s.11,0,.14.12l4,8.45a1,1,0,0,0,.89.69c.55,0,.83-.31.83-.91v-8.91h-.7Z" transform="translate(34.78 -46.3)" fill="#a7b241"/><path d="M87.79,146.85c0,.17-.08.2-.14.2s-.1,0-.14-.12l-4-8.44a1,1,0,0,0-.89-.69c-.54,0-.82.31-.82.92v8.95h.69v-9c0-.19.08-.21.14-.21s.11,0,.15.12l4,8.45a1,1,0,0,0,.89.69c.54,0,.82-.31.82-.91v-8.91h-.69Z" transform="translate(34.78 -46.3)" fill="#a7b241"/><path d="M95.35,137.72a4.7,4.7,0,0,0-3.53,1.45,6.33,6.33,0,0,0,0,7.19,4.73,4.73,0,0,0,3.55,1.48,4.68,4.68,0,0,0,3.33-1.36,4.91,4.91,0,0,0,1.3-3.71,5.05,5.05,0,0,0-1.11-3.58A4.69,4.69,0,0,0,95.35,137.72Zm0,9.45a4,4,0,0,1-3-1.3,5.84,5.84,0,0,1,0-6.23,4.21,4.21,0,0,1,6.06,0,4.5,4.5,0,0,1,.89,3.1,4.56,4.56,0,0,1-.89,3.12A4,4,0,0,1,95.35,147.17Z" transform="translate(34.78 -46.3)" fill="#a7b241"/><path d="M105.62,146.92c-.07.21-.17.21-.2.21s-.14-.07-.19-.22l-2.85-9h-.71l2.87,9c.19.61.49.93.88.93s.71-.32.91-.93l2.84-9,0-.06h-.7Z" transform="translate(34.78 -46.3)" fill="#a7b241"/><path d="M114.64,137.72a3,3,0,0,0-2.45,1.05,3.91,3.91,0,0,0-.81,2.58v6.32h.69v-4.82h5.13v4.82h.69v-6.32a3.92,3.92,0,0,0-.81-2.57A3,3,0,0,0,114.64,137.72Zm0,.64c1.72,0,2.56,1,2.56,3.2v.66h-5.13v-.66C112.07,139.41,112.91,138.36,114.64,138.36Z" transform="translate(34.78 -46.3)" fill="#a7b241"/><polygon points="154.11 92.22 156.84 92.22 156.84 101.37 157.53 101.37 157.53 92.22 160.28 92.22 160.28 91.57 154.11 91.57 154.11 92.22" fill="#a7b241"/><rect x="162.49" y="91.57" width="0.69" height="9.79" fill="#a7b241"/><path d="M135.28,137.72a4.72,4.72,0,0,0-3.53,1.45,6.31,6.31,0,0,0,0,7.19,4.88,4.88,0,0,0,6.88.12,5,5,0,0,0,1.3-3.71,5.05,5.05,0,0,0-1.12-3.58A4.69,4.69,0,0,0,135.28,137.72Zm0,9.45a4,4,0,0,1-3-1.3,5.84,5.84,0,0,1,0-6.23,4.21,4.21,0,0,1,6.06,0,4.5,4.5,0,0,1,.89,3.1,4.56,4.56,0,0,1-.89,3.12A4,4,0,0,1,135.28,147.17Z" transform="translate(34.78 -46.3)" fill="#a7b241"/><path d="M148.11,137.88v9c0,.17-.07.2-.14.2s-.1,0-.14-.12l-4-8.44a1,1,0,0,0-.89-.69c-.54,0-.82.31-.82.92v8.95h.69v-9c0-.19.08-.21.14-.21s.11,0,.15.12l4,8.45a1,1,0,0,0,.89.69c.55,0,.82-.31.82-.91v-8.91Z" transform="translate(34.78 -46.3)" fill="#a7b241"/><polygon points="36.84 95.92 31.72 95.92 31.72 91.57 31.03 91.57 31.03 101.37 31.72 101.37 31.72 96.54 36.84 96.54 36.84 101.37 37.55 101.37 37.55 91.57 36.84 91.57 36.84 95.92" fill="#fff"/><path d="M9.63,137.72a4.73,4.73,0,0,0-3.53,1.45,6.31,6.31,0,0,0,0,7.19,4.71,4.71,0,0,0,3.54,1.48A4.69,4.69,0,0,0,13,146.48a5,5,0,0,0,1.3-3.71,5.05,5.05,0,0,0-1.12-3.58A4.67,4.67,0,0,0,9.63,137.72Zm0,9.45a4,4,0,0,1-3-1.3,5.87,5.87,0,0,1,0-6.23,4,4,0,0,1,3-1.28,4,4,0,0,1,3,1.29,4.5,4.5,0,0,1,.88,3.1,4.56,4.56,0,0,1-.88,3.12A4,4,0,0,1,9.63,147.17Z" transform="translate(34.78 -46.3)" fill="#fff"/><path d="M22.3,144c0,2.16-.84,3.21-2.56,3.21s-2.57-1-2.57-3.21v-6.08h-.69v6.32a4,4,0,0,0,.8,2.59,3,3,0,0,0,2.46,1.05,3,3,0,0,0,2.44-1.07A4,4,0,0,0,23,144.2v-6.32H22.3Z" transform="translate(34.78 -46.3)" fill="#fff"/><path d="M30.47,143.25a7,7,0,0,0-1.67-.84l-1-.37a5.89,5.89,0,0,1-1.36-.69,1.55,1.55,0,0,1-.59-1.28c0-1.06.74-1.57,2.25-1.57h.81c1.2,0,1.78.63,1.78,1.92v.43h.62v-.43c0-1.69-.79-2.54-2.34-2.54h-.69c-2.07,0-3.12.75-3.12,2.22a2.17,2.17,0,0,0,.78,1.77,7.31,7.31,0,0,0,1.78.91l.62.25a7.75,7.75,0,0,1,1.53.74,1.68,1.68,0,0,1,.72,1.4,1.52,1.52,0,0,1-1,1.55,4.25,4.25,0,0,1-1.65.28h-.21c-1.2,0-1.78-.62-1.78-1.9v-.43h-.61v.43c0,1.7.79,2.57,2.34,2.57h.65a3.62,3.62,0,0,0,2.1-.56,2.27,2.27,0,0,0,.95-2A2.38,2.38,0,0,0,30.47,143.25Z" transform="translate(34.78 -46.3)" fill="#fff"/><path d="M33.93,138.2a1.15,1.15,0,0,0-.35.83h0v7.44a1.12,1.12,0,0,0,.36.86,1.27,1.27,0,0,0,.89.34h3.65V147h-3.7a.51.51,0,0,1-.51-.55v-3.4h3.62v-.63H34.27v-3.38a.51.51,0,0,1,.5-.55h3.71v-.64H34.83A1.3,1.3,0,0,0,33.93,138.2Z" transform="translate(34.78 -46.3)" fill="#fff"/><path d="M50.7,137.72a4.73,4.73,0,0,0-3.53,1.45,6.31,6.31,0,0,0,0,7.19,4.88,4.88,0,0,0,6.88.12,5,5,0,0,0,1.3-3.71,5.05,5.05,0,0,0-1.12-3.58A4.67,4.67,0,0,0,50.7,137.72Zm0,9.45a4,4,0,0,1-3-1.3,5.9,5.9,0,0,1,0-6.23,4,4,0,0,1,3-1.28,3.92,3.92,0,0,1,3,1.29,4.5,4.5,0,0,1,.89,3.1,4.56,4.56,0,0,1-.89,3.12A3.93,3.93,0,0,1,50.7,147.17Z" transform="translate(34.78 -46.3)" fill="#fff"/><path d="M57.89,138.2a1.15,1.15,0,0,0-.35.87v8.6h.7v-4.59h3.54v-.63H58.24v-3.38a.51.51,0,0,1,.5-.55h3.71v-.64H58.8A1.33,1.33,0,0,0,57.89,138.2Z" transform="translate(34.78 -46.3)" fill="#fff"/></svg>