<svg xmlns="http://www.w3.org/2000/svg" xmlns:xlink="http://www.w3.org/1999/xlink" viewBox="0 0 148.12 118.05"><defs><symbol id="logo--chop-grill-greenpan" data-name="logo--chop-grill-greenpan" viewBox="0 0 148.12 118.05"><path d="M41,13.67c0,.05,0,.13-.13.22a.76.76,0,0,0-.18.18.67.67,0,0,1-.09.22c0,.13-.21.35-.3.56s-.09.57-.18.88a.65.65,0,0,1-.08.26c0,.35,0,.7,0,1.1A7.83,7.83,0,0,1,40,18c0,.39,0,.79,0,1.22s-.09.66-.09,1a3.83,3.83,0,0,1,0,.74c0,.31-.09.57-.09.87a5.18,5.18,0,0,1,.18.7,3.07,3.07,0,0,1-.18.88,4.59,4.59,0,0,1,0,.83,1.77,1.77,0,0,0,.49.05l0,0c.09,0,.26-.09.39-.09s.31.09.48.09.27,0,.4,0,.13.08.17,0,.09,0,.13,0a4.08,4.08,0,0,0,.7,0c.18,0,.4-.09.57-.09s.22.09.35.09a2.61,2.61,0,0,0,.79,0c.09,0,.26.08.39,0a1.4,1.4,0,0,0,.4-.09c.48,0,1,.09,1.44.05a3.78,3.78,0,0,1,.7-.05s0,.05.09.05,0-.05.09-.05a.83.83,0,0,0,.48.05,1.38,1.38,0,0,0,.39-.09.75.75,0,0,0,.44-.05,8.36,8.36,0,0,1-.09-1.22c0-.18,0-.35,0-.53s.13-.35.13-.57-.09-.43-.09-.65,0-.35,0-.53a3.17,3.17,0,0,1,0-.87,4.57,4.57,0,0,0,0-.79c0-.61.09-1.7,0-2.27,0-.26-.13-.57-.17-.83s0-.44,0-.61-.09-.35-.14-.48-.17-.22-.21-.35a2.36,2.36,0,0,1-.18-.35c-.09-.13-.26-.27-.35-.4s-.26-.22-.22-.39.26-.13.35-.13a3.94,3.94,0,0,1,1,0c.09,0,.17,0,.26,0s.13.09.18.09.3,0,.48,0c.43,0,1,0,1.4,0A7,7,0,0,1,52,13.1a12.77,12.77,0,0,1,1.75,0,1.36,1.36,0,0,1,.43.09c.18,0,.35,0,.53,0s.3-.13.39,0c0,.48-.39.66-.61,1.09-.09.22-.13.53-.22.83s-.17.53-.22.79a23.86,23.86,0,0,0-.09,2.53v1.32c0,.3.05.61.05.87,0,.09-.05.18-.05.26s.09.35.09.53a9.26,9.26,0,0,0-.09,1.14c.05.17.09.39.14.57a7.51,7.51,0,0,0,.3,1.22c.09.22.13.48.22.66s.09.08.13.17.05.18.09.22l.17.13c0,.09,0,.22.09.22.18.17.48.22.57.44s-.17.26-.35.26a7,7,0,0,1-.52.61c-.05.13-.18.18-.22.26a2.35,2.35,0,0,0-.13.62c0,.08-.09.13-.09.26v.31s-.09.13-.09.26a1,1,0,0,1,0,.35,2.47,2.47,0,0,0-.13.52c0,.22,0,.48,0,.75v.92a6,6,0,0,1,.09.61s0,.13,0,.17-.21.4-.21.57.13.31.17.48c-.17.27,0,.88,0,1.27v.79c0,.39.17.7.22,1.18,0,.13,0,.31,0,.39s-.09.35-.09.53c0,.52.44,1.09.4,1.71.08.13.21.3.13.43-1,.09-2.15-.08-3.24,0-.26,0-.48.09-.74.09-.53,0-1-.09-1.49,0a1.72,1.72,0,0,1-.44.09c-.26,0-.44-.13-.66,0-.21,0-.48-.09-.56-.26s.3-.48.48-.75c0,0,0-.08.08-.13a3.2,3.2,0,0,0,.44-1.79c0-.18,0-.39,0-.57a1.1,1.1,0,0,1,.09-.39,4.11,4.11,0,0,1,0-.7.19.19,0,0,0,0-.09,7.65,7.65,0,0,1,0-1.36c0-.17,0-.3,0-.43a1,1,0,0,1,0-.18s0-.13,0-.17c0-.35.09-.57.09-1,0,0-.05-.13-.05-.18v-.48c0-.48,0-1.35,0-2.05a1.63,1.63,0,0,0-.79-.05,3.34,3.34,0,0,0-.74.18c-.44,0-1-.18-1.45-.18-.26,0-.52.05-.74.05s-.61-.27-1-.18c-.13,0-.22.09-.31.13a2.26,2.26,0,0,0-.52,0c-.26,0-.48.13-.7.13s-.31-.08-.48-.08-.66.08-.83,0c0-.05,0-.27-.22-.18s-.48.31-1,.22c-.13,0-.13.26-.31.35a2.06,2.06,0,0,1,.13.53c0,.17-.13.3-.17.52s0,.35,0,.57a25.46,25.46,0,0,1,0,3.15c0,.22-.09.39-.09.61s.13.31.13.48a10.13,10.13,0,0,1,.09,1.18,2.21,2.21,0,0,1,.18.53,1,1,0,0,1,0,.35c0,.09.08.22.13.35a8.23,8.23,0,0,0,.39.79.19.19,0,0,1,.09,0,1.11,1.11,0,0,0,.3.31c.18.08.49.17.44.39s-.22.13-.52.13-.44.09-.61.09a11.8,11.8,0,0,1-1.19,0,24.39,24.39,0,0,1-2.93.09c-.17,0-.39-.09-.52-.09s-.31.13-.53.13a1.77,1.77,0,0,1-.65,0,.51.51,0,0,1-.44-.17c0-.22.22-.44.31-.71s.08-.43.13-.65a4.5,4.5,0,0,0,.13-.61,6.45,6.45,0,0,0,0-.88,7,7,0,0,0,.13-.92c0-.65-.09-1.31-.09-2s0-1.13.05-1.75c0-.21,0-.35,0-.52s-.09-.31-.09-.44a14.05,14.05,0,0,0-.09-2.4A2.45,2.45,0,0,0,34,27.8c-.22-.26-.39-.57-.57-.79s-.57-.3-.74-.57c.08-.35.26-.26.48-.39s.3-.26.48-.44a2.55,2.55,0,0,0,.57-.7s0-.09.09-.17.13-.18.21-.31a4,4,0,0,0,.22-2.14,4.82,4.82,0,0,1-.13-.79c0-.39.09-.83.09-1.36,0-.17,0-.35,0-.52s.13-.31.13-.48a2.4,2.4,0,0,0,0-.79c0-.22-.08-.91-.08-1.13s.08-.31.08-.44a3.08,3.08,0,0,0-.13-.66,4.8,4.8,0,0,1-.09-.7,3.27,3.27,0,0,0,0-.7,1.41,1.41,0,0,0-.13-.43,3.36,3.36,0,0,0-.3-.75c0-.22-.27-.13-.18-.35s.48,0,.75,0c.43,0,.91-.09,1.4-.09s1,0,1.44,0c.74,0,1.49,0,2.1,0,.09,0,.09,0,.13,0a.71.71,0,0,1,.31.08c.39.05.87-.08,1.22.09C41.34,13.41,41.17,13.5,41,13.67Z" fill="#323031"/><path d="M82.73,26.88a1.63,1.63,0,0,1-.39.35.42.42,0,0,1-.13.39,2,2,0,0,1-.22.31c-.13.31-.27.66-.4,1s-.13.87-.22,1.31a7.35,7.35,0,0,0-.13,1c0,.14-.22.22-.26.49s0,.43,0,.65a1,1,0,0,1-.26.48c0,.13,0,.27-.09.44s0,.31-.09.44a1.12,1.12,0,0,1-.3.35v.44a4.77,4.77,0,0,0-.44,1l-.53.52c-.17.18-.39.31-.52.48s-.13.31-.22.44-.22.18-.31.26-.17.22-.26.31-.43.35-.61.52-.17.22-.26.31-.18,0-.22.09l-.13.13A4.14,4.14,0,0,1,76,39a1.59,1.59,0,0,0-1,.26c-.14.09-.22.18-.31.22s-.35,0-.53,0-.26.17-.39.22-.22,0-.31,0a.56.56,0,0,1-.21.09,7.06,7.06,0,0,1-.92,0c-.35,0-.66.13-1,.13s-.3,0-.48,0c-.48-.05-1-.05-1.53-.05-.13,0-.26.05-.35.05a2.71,2.71,0,0,1-.61-.09,3.55,3.55,0,0,1-.83-.09s0-.09-.09-.09h-.17s0-.08-.09-.08a1,1,0,0,0-.39,0,1.09,1.09,0,0,0-.36,0c0-.13-.21-.17-.39-.26a1.13,1.13,0,0,0-.66-.31c-.08-.22-.35-.3-.52-.48s-.18-.13-.31-.22-.13,0-.17,0,0,0-.09-.09a.22.22,0,0,1-.13,0s0-.13,0-.13a1.06,1.06,0,0,0-.22-.18c-.09,0-.18,0-.27-.08s-.21-.27-.35-.4A1.16,1.16,0,0,0,63,37c0-.14,0-.35,0-.44s-.35-.26-.53-.4-.09-.21-.17-.3a.87.87,0,0,0-.18-.26c-.17-.22-.39-.31-.57-.53a1.05,1.05,0,0,0-.08-.52c0-.14-.09-.31-.13-.44a.76.76,0,0,0-.27-.35c0-.09-.13-.09-.17-.13s0-.09,0-.13-.08-.05-.08-.05,0-.22-.09-.3-.13-.22-.13-.27c0-.26,0-.48,0-.74a5.74,5.74,0,0,0-.3-.74c0-.14-.09-.27-.13-.4a4.26,4.26,0,0,1-.27-.87c0-.4-.08-.75-.13-1.14a2.73,2.73,0,0,0,0-.57c-.05-.17-.22-.31-.31-.52L59,27.36a3.28,3.28,0,0,1-.61-.79c0-.13.13-.17.22-.3a1,1,0,0,0,.17-.35s.09,0,.09-.05,0-.17.09-.3.17-.4.3-.7.13-.48.26-.75a1.19,1.19,0,0,0,.18-.3,1.47,1.47,0,0,0,0-.44,1.1,1.1,0,0,0,.09-.39,3.2,3.2,0,0,1,0-.62c0-.22.18-.52.22-.78s.13-.31.17-.48,0-.31.09-.53a4.58,4.58,0,0,1,.4-.92,3.78,3.78,0,0,1,.48-.87c.22-.22.3-.75.48-1.05,0,0,.09,0,.09,0a1.57,1.57,0,0,1,.48-.48s.22-.09.22-.13a.34.34,0,0,1,.13-.17.16.16,0,0,0,0-.09h.09a2.53,2.53,0,0,0,.26-.44c0-.09.13-.13.18-.18s0-.17.08-.21.31-.27.44-.4c.31-.3.26-.39.7-.43a1.26,1.26,0,0,0,1-.7c.3-.14.65-.22.92-.35a6.48,6.48,0,0,1,1.13-.35l.48-.14a1.18,1.18,0,0,1,.4-.13c.22,0,.48,0,.7,0a2.23,2.23,0,0,1,.3-.13.82.82,0,0,1,.31-.13c.13,0,.35,0,.61,0s.31-.13.48-.09c.35,0,.79.13,1.23.18a4.58,4.58,0,0,1,.83,0c.35,0,.66.35,1,.26.09,0,.13-.17.18,0,.43.22.61.65,1.35.57.26.21.48.43.74.65a2,2,0,0,1,.88.18c.44.08.57.39.74.78a3.65,3.65,0,0,1,.66.22c.13.18.17.4.31.57a.86.86,0,0,0,.21.22s.14,0,.18,0,.17.27.26.4.13.22.22.35l0,0c0,.05,0,.13,0,.18l.09,0a.34.34,0,0,1,.08.22c0,.17,0,.39,0,.57a3.15,3.15,0,0,0,.3.48,1.52,1.52,0,0,0,.18.22.47.47,0,0,1,.22.17,7.8,7.8,0,0,0,.48,1.8c0,.13.17.26.22.43s.08.62.13.92.09.66.13.92.13.26.17.4a3.58,3.58,0,0,1,.14.65,7,7,0,0,0,.26.66,2.78,2.78,0,0,0,.26.52c.18.26.39.4.61.66A1.59,1.59,0,0,1,82.73,26.88Zm-7.22-1.4a.64.64,0,0,0,.13-.22.7.7,0,0,0,.18-.17,3.2,3.2,0,0,0,.13-.75c0-.17-.09-.39-.09-.65s0-.53,0-.7-.26-.4-.22-.7c-.35-.22-.31-.66-.44-1s-.35-.35-.48-.57a1,1,0,0,1-.17-.3.46.46,0,0,1-.18-.31,3.29,3.29,0,0,1-1.09-1c-.27,0-.4-.18-.57-.22a3.85,3.85,0,0,0-1.44-.18c-.14,0-.22.09-.31.09h-.44a.43.43,0,0,1-.26-.09,1.63,1.63,0,0,0-.92.09c-.09,0-.13.09-.17.13s-.22,0-.31,0a.7.7,0,0,0-.18.14c-.26.13-.56.13-.7.3a1.21,1.21,0,0,0-.17.4l-.22.22a.18.18,0,0,1,0,.13c-.13.13-.44.26-.57.39s0,0-.09.09a3.91,3.91,0,0,0-.61.61.19.19,0,0,1-.09,0c0,.05,0,.09,0,.09a.14.14,0,0,1-.09.05.27.27,0,0,1,0,.17.21.21,0,0,1-.09.13c-.09.26-.13.48-.22.7a2,2,0,0,1-.13.35A5.6,5.6,0,0,0,65.45,24a4.49,4.49,0,0,0,.26,1.27c.13.26.4.31.53.66.22.17.61.35.52.57s-.43.22-.61.35-.17.39-.31.61-.17.44-.26.65a4.61,4.61,0,0,0,0,1.89.56.56,0,0,1,.09.21,1,1,0,0,1,.22.62A.22.22,0,0,1,66,31a3.28,3.28,0,0,1,.21.57,1.53,1.53,0,0,1,.14.39c.13.18.26.27.35.4s.08.17,0,.35.13,0,.18.13.08.17.08.22.26.17.35.3.26.22.4.31.26.13.39.26a3.32,3.32,0,0,0,.39.31c.09,0,.27,0,.44.09s.35.22.53.3a.39.39,0,0,1,.21.05,2.7,2.7,0,0,0,.79,0,1.2,1.2,0,0,1,.4,0c.08,0,.17,0,.26,0a1.6,1.6,0,0,1,.48-.13c.17,0,.44,0,.57,0s.13-.14.26-.18.26,0,.35-.09a4.31,4.31,0,0,0,.79-.43,2,2,0,0,1,.44-.35l.26-.14c.09-.08.22-.26.35-.39l.44-.44c.13-.22.21-.48.34-.7s.14-.26.18-.35a1,1,0,0,1,.17-.35,8.33,8.33,0,0,1,.14-1.05c0-.21.21-.43.21-.61a3.79,3.79,0,0,0-.08-.61c-.05-.18-.05-.44-.09-.61s-.22-.27-.31-.44a2.52,2.52,0,0,1-.3-.48c-.13-.13-.35-.18-.35-.4s-.35-.13-.4-.35.18-.21.31-.35S75.29,25.74,75.51,25.48Z" fill="#323031"/><path d="M104.27,25.13A11.85,11.85,0,0,1,104,26.4a1.56,1.56,0,0,1-.13.26c0,.09,0,.22,0,.31s-.09.17-.13.26,0,.22,0,.31-.13.17-.17.26-.09.3-.18.39-.22.31-.3.4,0,.08,0,.08a3.84,3.84,0,0,0-.35.35c-.13.18-.09.44-.17.62a.56.56,0,0,0-.18.17s0,.09,0,.13a10.91,10.91,0,0,0-1,1,.4.4,0,0,0-.39.22c-.53-.05-.62.35-.79.65a1.28,1.28,0,0,0-.66.35,2.05,2.05,0,0,1-.52.22,4.81,4.81,0,0,0-.83.35,3,3,0,0,0-.66.18s-.13.08-.13.08-.13,0-.18,0a.35.35,0,0,0-.26.14,2.91,2.91,0,0,0-.66,0,1.75,1.75,0,0,0-.35.13.47.47,0,0,0-.21,0,1,1,0,0,1-.7-.09c-.18,0-.31.18-.53.27a.43.43,0,0,0-.26,0s-.09.08-.18.08-.35-.13-.57,0-.08.39-.13.66a1.36,1.36,0,0,1-.08.39,2.71,2.71,0,0,1,0,.57,6.88,6.88,0,0,0,0,1,7,7,0,0,0,.26.88,3.42,3.42,0,0,1,.18.61,3.15,3.15,0,0,0,.17.43c.05,0,.09,0,.09.09.18.31.31.61.53.92.08.13.35.18.22.4s-.53-.09-.84,0c-.08,0-.21,0-.43,0s-.22,0-.35,0-.18,0-.31,0a9.26,9.26,0,0,1-1.14.09c-.08,0-.17,0-.26,0s-.26.09-.39.09c-.48,0-.92-.17-1.45-.13a2.72,2.72,0,0,1-1,0,4.53,4.53,0,0,0-.74,0,1.64,1.64,0,0,1-.44,0c0-.22.13-.35.18-.57s0-.35,0-.53.13-.21.18-.39v-.26c0-.09.08-.13.08-.18s0-.35,0-.48.13-.35.17-.52a2.77,2.77,0,0,0,0-.66c0-.13,0-.3,0-.44s.09-.26.09-.39a10.3,10.3,0,0,0,0-1.09v-1.1c0-.3,0-.61,0-.87s.09-.4.09-.57a5,5,0,0,0-.13-.83c0-.83.13-1.45,0-2.1a2.64,2.64,0,0,0-.26-.7,6.24,6.24,0,0,0-.74-1.05,1.54,1.54,0,0,1-.44-.35c0-.18.26-.22.39-.35a1.75,1.75,0,0,0,.53-.66,5.43,5.43,0,0,0,.22-.7,13,13,0,0,0,.3-1.57c0-.22-.13-.26-.17-.48s.08-.44.13-.7c0-.44,0-.92,0-1.45s0-1,0-1.4c0-.26-.13-.52-.13-.74s.08-.44.08-.61a8.21,8.21,0,0,0-.17-1c0-.35,0-.7-.09-1a4.66,4.66,0,0,0-.3-1.14c-.05-.17-.14-.35-.18-.52a1.22,1.22,0,0,1-.17-.53c.3-.22,1-.09,1.44-.22,0,0,.09-.09.13-.09.61.22,1.27-.08,1.88,0,.18,0,.35.14.53.18a9.26,9.26,0,0,0,1-.18,1.78,1.78,0,0,1,.65,0,2.82,2.82,0,0,1,.92.14,2.73,2.73,0,0,1,.61.08c.09,0,.13.09.22.13s.4.05.53.05.3-.09.44-.09a2.46,2.46,0,0,1,1,0,.22.22,0,0,1,.17.09.36.36,0,0,1,.22,0c.09,0,.18.08.31.13s.35,0,.52,0,.35.13.62.22a.47.47,0,0,1,.21,0,1.64,1.64,0,0,0,.84.22,2.13,2.13,0,0,0,.69.4c.18.21.49.26.7.39a1,1,0,0,1,.27.22l.13.13s.13,0,.17,0a2.63,2.63,0,0,0,.53.4,2.66,2.66,0,0,0,.52.65c0,.05.14.05.22.13a.16.16,0,0,0,0,.14,5.35,5.35,0,0,1,.39.48,1.75,1.75,0,0,0,.22.43c0,.05,0,.05.09.09s.08.09.13.18a1.7,1.7,0,0,1,.26.91c0,.14.13.05.17.14s-.08.17,0,.3.18.48.35.66v.39a7.54,7.54,0,0,1,.35,1,2.19,2.19,0,0,0,.22.43,3.94,3.94,0,0,0,.39.7,2.43,2.43,0,0,0,.31.35l0,.09h.09c0,.09,0,.26.18.26A3.62,3.62,0,0,0,104.27,25.13Zm-5-1.79a3.41,3.41,0,0,0,0-1c0-.18-.13-.35-.17-.57a2.9,2.9,0,0,1-.18-.57c0-.08-.13-.13-.13-.22s0-.21-.08-.3a2.87,2.87,0,0,0-.27-.53,2.25,2.25,0,0,0-.74-.48,1.25,1.25,0,0,1-.26-.13.21.21,0,0,1-.09-.13c-.09,0-.13,0-.18,0a.66.66,0,0,1-.22-.27,1.64,1.64,0,0,0-.3-.17c-.26-.09-.61,0-.83-.05l-.48-.21s0-.09,0-.09h-.13a2.38,2.38,0,0,0-.87-.13,11.27,11.27,0,0,0-1.4.08,10.28,10.28,0,0,0-.09,2.06,2,2,0,0,1-.09.53v.48a2.15,2.15,0,0,0,0,.65,2.18,2.18,0,0,1,.13,1.05c0,.31-.18.62-.18.88,0,.09.09.13.09.22a.75.75,0,0,1,0,.3c0,.31.13.53,0,.75a5.75,5.75,0,0,0,0,.83A15.54,15.54,0,0,0,93,28.45c.52,0,.92.18,1.35.09.18,0,.31-.13.44-.17a1.19,1.19,0,0,0,.44-.05h.44c.26-.22.7-.26.92-.57.17,0,.26-.17.43-.3s.31-.13.48-.26.31-.44.57-.62a.76.76,0,0,1,.18-.39c0-.13.17-.22.26-.35a.53.53,0,0,1,0-.22,2.2,2.2,0,0,0,.14-.7,1.81,1.81,0,0,0,.48-.61c0-.26-.18-.26-.13-.48S99.19,23.51,99.23,23.34Z" fill="#323031"/><path d="M66,.27a7.37,7.37,0,0,1,1.27.22.18.18,0,0,0,.13,0s.27,0,.35.09.14.18.22.22a.67.67,0,0,0,.27.13.19.19,0,0,0,0,.09,2.68,2.68,0,0,1,.74.48,4.78,4.78,0,0,1,.57,1.18,5.19,5.19,0,0,1,.13,1,2.42,2.42,0,0,1,.18.74,2.48,2.48,0,0,1-.09.48c0,.13,0,.35-.09.48s-.08.05-.08.09v.13c-.05.09-.18.22-.27.35s0,.13-.08.22l-.14.13c-.08.18-.13.35-.21.53a.8.8,0,0,0-.22.48,2,2,0,0,0-.44.48c-.31,0-.26.31-.44.44s-.3.22-.48.3-.13,0-.17.05a2.64,2.64,0,0,1-.66.35c-.18.09-.31.3-.48.39s-.44,0-.57.09c-.35.09-.61.39-.88.44a2.61,2.61,0,0,1-.56,0,6.39,6.39,0,0,1-1,.21,1.36,1.36,0,0,1-.39-.08c-.09,0-.27,0-.35-.09s-.27.09-.44.13a1.11,1.11,0,0,1-.4.13c-.08,0-.26,0-.43,0s-.57.13-.79-.09l-.48.13A3.62,3.62,0,0,0,58.49,10a2.62,2.62,0,0,1-.61-.13,4.09,4.09,0,0,1-.7,0c-.18-.05-.35-.05-.53-.09s-.17-.09-.22-.09a1.27,1.27,0,0,1-.39,0,.51.51,0,0,1-.26-.09l-1.1-.22c-.08,0-.22,0-.3,0a5.34,5.34,0,0,1-.88-.13L53,9.07S52.85,9,52.8,9a1.92,1.92,0,0,1-.48,0,3.1,3.1,0,0,0-.48-.22c-.17,0-.39,0-.57-.09s-.3-.17-.48-.22a2.46,2.46,0,0,1-.57-.13A4.68,4.68,0,0,1,49.7,8c-.13,0-.31,0-.44-.09a2.88,2.88,0,0,0-.35-.17l-.39-.13a2.58,2.58,0,0,0-.75-.27c-.17,0-.35,0-.48,0s-.48-.26-.7-.35a.81.81,0,0,0-.31,0c-.08,0-.13-.09-.17-.09s-.35,0-.48,0a2.67,2.67,0,0,1-.44-.18l-.52-.13s-.05-.08-.09-.08h-.13s-.05-.09-.09-.09h-.13a1.35,1.35,0,0,0-.35-.22c-.13,0-.31,0-.53,0A1.46,1.46,0,0,0,43,5.92a1.22,1.22,0,0,0-.39-.14,2.35,2.35,0,0,0-.53,0l-.44-.13a.57.57,0,0,0-.26,0,.24.24,0,0,0-.17-.09,8.09,8.09,0,0,0-1.1,0l-.48-.13a1.39,1.39,0,0,0-.44-.13,7.93,7.93,0,0,0-1.09,0,5.26,5.26,0,0,0-1.23,0c-.08,0-.26,0-.3,0A4.25,4.25,0,0,0,35.7,5a.8.8,0,0,0-.31,0c-.39,0-.74.22-1.18.27s-.74,0-1.14,0a1.82,1.82,0,0,0-.61.17,2.31,2.31,0,0,0-.52.22,3.32,3.32,0,0,0-.7.13,1.44,1.44,0,0,0-.4.22,3.41,3.41,0,0,1-.79.35.61.61,0,0,0-.26,0s-.13.09-.17.09a1.62,1.62,0,0,0-.44,0c-.26.09-.31.31-.53.52-.13,0-.26,0-.39.09s-.13.22-.22.31-.26-.13-.39,0-.13.26-.18.39a.47.47,0,0,0-.39.18c-.13.08-.26.13-.26.3s.17.27.3.44a1.54,1.54,0,0,0,.31.4c0,.13,0,.26,0,.43s.35.35.48.53a1.15,1.15,0,0,0,.09.26,2.56,2.56,0,0,0,.22.48c.09.18.13.31.22.48a2,2,0,0,0,.09.26,2.57,2.57,0,0,0,.22.44,3.32,3.32,0,0,0,.13.7c.08.26.13.75.26,1.14,0,0,.09.13.09.22a1.52,1.52,0,0,0,0,.48,3.39,3.39,0,0,0,.65,1.4s.09,0,.09,0V16s.09,0,.09,0,.09.27.13.35.57.44.52.66-.43.31-.65.48-.61.61-.79.79a3,3,0,0,0-.35.74c0,.09-.13.13-.13.18s0,.3-.09.44a1,1,0,0,1-.13.21c0,.09,0,.18-.09.22a2.24,2.24,0,0,0-.22.4c-.13.39-.13,1-.26,1.22s-.57.44-.7.75a.27.27,0,0,0,0,.17c-.05.09-.13.09-.13.13s0,.13-.05.18a4.29,4.29,0,0,1-.48.48,6.23,6.23,0,0,0-.92.87c-.17.13-.26.35-.39.48s-.31.18-.44.27a3.85,3.85,0,0,1-.61.3s-.09.09-.13.09-.26,0-.44,0l-.52.22a2.11,2.11,0,0,1-.62.31h-.83a10.7,10.7,0,0,1-3.1-.26c-.09-.05-.09-.05-.13-.05-.27-.13-.88-.17-1.1-.26A1.33,1.33,0,0,1,17,25c-.57,0-1-.26-1-.74-.18-.18-.4-.26-.44-.48-.31-.18-.57-.4-.83-.57a1.91,1.91,0,0,0-.35-1,2.88,2.88,0,0,1-.26-.43c-.05-.14,0-.35-.09-.53s-.18-.35-.26-.57a1.16,1.16,0,0,0-.05-.39c0-.13-.08-.26-.08-.35a1.79,1.79,0,0,0,0-.48c0-.35-.26-.57-.22-1.05a.72.72,0,0,0,.09-.27c0-.39,0-.74.17-1-.13-.22,0-.52,0-.79a1.21,1.21,0,0,0,0-.43,1.06,1.06,0,0,1,.31-.4,1.46,1.46,0,0,1,.26-.74,1.88,1.88,0,0,1,.18-.66.33.33,0,0,0,0-.17c.09-.13.22-.26.13-.48.22-.22.31-.44.53-.62a3.48,3.48,0,0,1,.22-.39A3.57,3.57,0,0,1,16,11.43c.09-.09.22-.13.3-.27a.51.51,0,0,0,.14-.17.4.4,0,0,1,.08-.18c.13-.17.44-.35.48-.65s-.43-.22-.65-.22a5,5,0,0,0-.79,0c-.17,0-.44.18-.74.27a5,5,0,0,0-.83.26,1.61,1.61,0,0,0-.4.44,6.6,6.6,0,0,0-.7.43s0,.13,0,.13-.18.09-.26.14-.09.13-.18.17a.15.15,0,0,1-.13,0c-.09.08-.09.13-.18.17s-.17,0-.26.09-.26.39-.44.52-.13.09-.17.13l-.66.66c-.08.13-.08.26-.17.44s-.22.17-.26.3-.09.27-.14.4a1.17,1.17,0,0,1-.13.3,1.06,1.06,0,0,0-.13.18c-.09.22-.09.48-.17.7s-.4.52-.44.83a.69.69,0,0,0-.44.22c-.17.61-.09,1.27-.22,1.92,0,.18-.17.4-.22.57a5.77,5.77,0,0,0,0,.83c0,.22-.31.4-.35.57-.13.48.13,1.05.09,1.58a9.1,9.1,0,0,1-.18.91.74.74,0,0,0,0,.62,3.23,3.23,0,0,0,.39,1.09.19.19,0,0,0,.05.13s.13.09.17.18.18.35.26.44.35.17.44.3.35.13.35.35-.17.18-.3.35c-.14,0-.14.09-.18.18a1.92,1.92,0,0,0-.17.13,3.13,3.13,0,0,0-.44.79l-.09.08c0,.09,0,.22-.09.35a1.87,1.87,0,0,0-.17,1.18c0,.31.13.7.17,1.05a9.1,9.1,0,0,0,.09,1.14,7.9,7.9,0,0,0,.26.88c0,.13,0,.26.05.3a3.83,3.83,0,0,0,.3.61,2.21,2.21,0,0,1,.09.35s.09,0,.09.05c.22.44.17,1.27.61,1.53,0,.22.13.35.22.52a2,2,0,0,0,.31.62l.08,0v.09a1.19,1.19,0,0,0,.18.3,1,1,0,0,0,.22.27s0,.13.08.17.27.18.27.4.26.17.39.3.09.26.18.4c.43.3.7.78,1.26,1,.14.22.4.26.44.52a1.05,1.05,0,0,1,.79.53c.31-.09.48.22.74.26a6.4,6.4,0,0,0,1,0,1.14,1.14,0,0,0,.44.14,4.29,4.29,0,0,0,.74,0c.09,0,.13,0,.22,0a3.16,3.16,0,0,0,.92.08c.44,0,.78-.26,1.18-.3.13,0,.22-.22.39-.31a1.79,1.79,0,0,1,.48,0c.22,0,.22-.27.4-.31a2.46,2.46,0,0,0,.43-.26c.14-.13.18-.35.31-.48s.31-.13.39-.27l.22-.17a4.24,4.24,0,0,0,.4-.66c.08-.13.17-.22.22-.3a2.25,2.25,0,0,0,.26-.92c0-.13,0-.27.09-.4s.13-.21.13-.3a1,1,0,0,0,0-.35c0-.09.08-.13.08-.22a2.83,2.83,0,0,0,0-.92c0-.35-.34-.61-.26-1a1.11,1.11,0,0,0-.22-.4s0-.13,0-.13c-.09-.17-.31-.22-.35-.43.53-.79,1.84-.53,2.76-.4a3.61,3.61,0,0,1,1.31.48.16.16,0,0,0,0,.13c.18.09.44.22.66.31a1.89,1.89,0,0,1,.26.44c.13-.05.18.17.26.26a1.15,1.15,0,0,1,.27.7,1.66,1.66,0,0,1,.43,1,1.32,1.32,0,0,0,0,.44c.08.31.26.57.3.79a2.54,2.54,0,0,1,0,.87c0,.18-.17.4-.22.57s.05.61,0,.88-.3.52-.43.74a1.33,1.33,0,0,1-.4,1.18c0,.4-.26.53-.3.83a1.1,1.1,0,0,0-.35.31l-.18.17a.66.66,0,0,1-.09.09s0,.13,0,.13c-.21.26-.48.44-.56.75a2.66,2.66,0,0,0-.66.3,1.24,1.24,0,0,0-.48.57,1.9,1.9,0,0,0-.66.26c-.13.09-.3.18-.48.31a2.7,2.7,0,0,0-.35.17,1.15,1.15,0,0,1-.7.27,1.46,1.46,0,0,1-.44.26,2.46,2.46,0,0,0-.43.26.7.7,0,0,0-.44,0c-.22,0-.35.21-.57.26s-.61,0-1,0a2.56,2.56,0,0,0-.53.13,2.17,2.17,0,0,1-.48.13c-.13,0-.3,0-.48,0-.57,0-1.27.18-1.66-.09a14.36,14.36,0,0,1-2.5-.22.66.66,0,0,0-.3,0,.37.37,0,0,0-.22-.09c-.18,0-.39,0-.57-.08s-.22-.18-.39-.22a5.26,5.26,0,0,0-.53-.09s0-.09-.13-.13-.39-.09-.52-.22a1.56,1.56,0,0,1-.66-.13c-.22-.09-.39-.44-.79-.44A2.57,2.57,0,0,0,9.32,44l-.09-.09a2.89,2.89,0,0,0-.52-.22c-.05,0-.05-.13-.09-.13a.16.16,0,0,0-.13,0l-.18-.17c-.17-.13-.35-.18-.44-.26s-.21-.44-.43-.62a.65.65,0,0,1-.22-.17,1.21,1.21,0,0,1-.35-.22A.09.09,0,0,1,6.78,42s-.13,0-.13,0a2.28,2.28,0,0,1-.18-.26s-.17-.09-.17-.18,0,0,0-.09-.09,0-.09,0A3.41,3.41,0,0,1,6,40.91c-.09-.08-.18-.13-.22-.22s-.09-.17-.13-.26c-.22-.26-.39-.44-.61-.74a.38.38,0,0,0-.09-.18.21.21,0,0,0-.09-.13,5,5,0,0,0-.26-.7c-.09-.22-.31-.35-.44-.61s-.17-.61-.3-.88-.22-.3-.31-.48,0-.22,0-.26-.09-.13-.13-.17,0-.35-.09-.53a3.81,3.81,0,0,0-.35-.7,1.83,1.83,0,0,0-.13-.22c0-.17,0-.39,0-.57a1.36,1.36,0,0,0-.13-.43c0-.18-.09-.31-.13-.44a1.38,1.38,0,0,0-.18-.4c0-.17,0-.39,0-.56s-.09-.27-.13-.4,0-.57,0-.87-.13-.31-.17-.48c-.14-.49,0-1.36-.18-1.89,0-.08,0-.17-.09-.26s0,0-.09-.08-.17-.4-.26-.53a7,7,0,0,0-.52-.61l-.09,0v-.08l-.09-.05s0-.17-.08-.22-.44-.26-.53-.52c.09-.22.31-.31.48-.44a5.23,5.23,0,0,1,.44-.48c0-.22,0-.17,0-.35a4.2,4.2,0,0,0,.35-.74c0-.09,0-.18.09-.22s.08-.18.13-.31a3.58,3.58,0,0,0,.17-.39,11.44,11.44,0,0,0,0-1.31c.05-.44.18-.84.27-1.32S2,20,2.1,19.48a6.44,6.44,0,0,0,.17-.83c0-.49,0-.92,0-1.36,0-.13.17-.35.22-.53s0-.17.08-.26.14-.17.14-.22a1.17,1.17,0,0,0,0-.35,4.82,4.82,0,0,1,.44-1.13,4.87,4.87,0,0,0,.35-.53,2.85,2.85,0,0,0,.13-.57,1.6,1.6,0,0,1,.17-.3c0-.14.09-.22.13-.35a1.49,1.49,0,0,0,.18-.31c.09-.09,0-.22.09-.35s.17-.13.22-.26,0-.09.08-.18.09,0,.09,0,0,0,0-.09a1,1,0,0,0,.22-.26c.09-.05,0-.09.09-.18s.13,0,.13-.08a1.48,1.48,0,0,0,.09-.18s.13,0,.13-.09.13-.22.22-.3a2.11,2.11,0,0,0,.3-.62c.18,0,.26-.21.44-.39a3.19,3.19,0,0,1,.52-.52c.22-.18.44-.48.7-.7a.64.64,0,0,1,.18-.4.47.47,0,0,1,.17-.22,1.59,1.59,0,0,0,.27-.17c.22-.18.57-.44.83-.61a4.75,4.75,0,0,1,.74-.49c.09-.08.13-.26.22-.34.39-.14.74-.18,1-.44,0-.09.09-.18.18-.22a1.11,1.11,0,0,1,.22-.18s.13-.17.17-.17a2.65,2.65,0,0,1,.7-.13c.18,0,.31-.18.48-.22s.4,0,.57-.09a1.47,1.47,0,0,1,.53-.13,3.21,3.21,0,0,1,.48-.22,5.51,5.51,0,0,1,1.27-.13c.22,0,.39-.18.61-.18a2.42,2.42,0,0,1,.79,0c.22,0,.52,0,.78,0a3.42,3.42,0,0,1,.62-.13,2.13,2.13,0,0,1,1.27.26,6.65,6.65,0,0,0,1,0c.18,0,.31.18.53.27a3.77,3.77,0,0,1,.56.22,2.59,2.59,0,0,0,.4.13c.22,0,.39-.18.57-.35s.09-.09.13-.14a1.4,1.4,0,0,1,.48-.43,6.66,6.66,0,0,1,.66-.27,1.68,1.68,0,0,0,.35-.48,1.32,1.32,0,0,0,.39-.17c.13,0,.22-.18.31-.26s.3,0,.48-.09a1.35,1.35,0,0,0,.35-.22s.13,0,.22-.09,0-.08.13-.13a.18.18,0,0,0,.13,0c0-.05.09-.13.17-.22A.59.59,0,0,0,26.64,2c.05,0,.09-.09.13-.13s.22,0,.31-.09l.26-.13c.57-.17,1.23-.22,1.84-.44.22-.08.44-.26.7-.35s.66,0,1.05-.08.44-.27.66-.35A3.19,3.19,0,0,1,32,.36c.13,0,.31-.09.4-.09s.3,0,.43,0a3.11,3.11,0,0,0,.66-.14A10.82,10.82,0,0,0,34.69,0a7.3,7.3,0,0,1,.88.09C36.14.14,36.7,0,37.32,0c.22,0,.52.13.78.13s.79,0,1.19,0c.17,0,.34.13.52.18a2.88,2.88,0,0,0,.61,0c.48.09,1.1.17,1.62.26a1.34,1.34,0,0,0,.48.26A5.67,5.67,0,0,0,43.75,1a3.74,3.74,0,0,1,.48.18.38.38,0,0,0,.13,0,1.74,1.74,0,0,0,.31.13,2.23,2.23,0,0,0,.52,0,1,1,0,0,1,.26.13.76.76,0,0,0,.18.18c.17,0,.39.22.61.22a1.61,1.61,0,0,0,.44,0,9.36,9.36,0,0,1,1,.26,2.12,2.12,0,0,0,.57.26,3,3,0,0,0,.7.13,3,3,0,0,0,.61.22,8.92,8.92,0,0,0,1,.31c.18.09.4.17.57.26a3.42,3.42,0,0,0,.79.31,2.73,2.73,0,0,1,.57,0c.13,0,.17.09.26.13a.83.83,0,0,1,.31,0,2.38,2.38,0,0,1,.57.14,1.65,1.65,0,0,1,.7.35,1.67,1.67,0,0,1,.83.21,3.17,3.17,0,0,0,.35.14,2.17,2.17,0,0,1,.57,0,6.26,6.26,0,0,0,1.79.17,2.57,2.57,0,0,0,.44.22c.13,0,.22,0,.39,0a10.87,10.87,0,0,1,1.1.17,8.18,8.18,0,0,1,1.09,0c.17,0,.35.13.48.13.31,0,.61-.18.92-.18a2.25,2.25,0,0,1,.52,0,4.59,4.59,0,0,0,1.36-.43c.17-.09.35-.27.52-.35A2.48,2.48,0,0,1,65.1,4c0-.09,0-.22.13-.27a1,1,0,0,1,.26-.39A1.42,1.42,0,0,1,65.75,3c0-.39.44-1,.22-1.7,0-.09,0-.31,0-.48S65.8.45,65.75.27C65.84.32,65.93.27,66,.27ZM21.65,12.35s0,.13,0,.13a2.89,2.89,0,0,1-.35.35c0,.08-.09.17-.13.17a1.49,1.49,0,0,1-.18.31s-.13,0-.17.13,0,.13-.09.22-.09,0-.09,0,0,.09,0,.13-.13.05-.17.13-.05.14-.09.22a3.64,3.64,0,0,0-.31.53,2.71,2.71,0,0,1-.13.3c0,.05,0,.09,0,.18a8.17,8.17,0,0,0-.26.87,3,3,0,0,0-.18.53c0,.17-.09.39-.13.52s-.09.09-.09.18,0,.31,0,.44-.08.26-.08.35a1.35,1.35,0,0,0,.35,1.13c0,.31.09.35.17.53l.79.52c.44-.08.74.13,1.05.13.13,0,.13,0,.22-.08a.61.61,0,0,0,.3,0c.18,0,.31-.17.53-.13,0-.43.48-.43.66-.78.08-.14.08-.4.17-.62a4.51,4.51,0,0,0,.26-.57,1.42,1.42,0,0,0,.05-.48c0-.35.13-.65.17-1a1.82,1.82,0,0,0,.09-.83,1.15,1.15,0,0,0-.09-.44c0-.09.05-.22.05-.3s0-.27,0-.35-.14-.27-.18-.4,0-.35,0-.44a.35.35,0,0,0-.09-.17,2,2,0,0,0-.18-.39c-.13-.4-.26-.75-.39-1.1-.09,0-.17-.17-.35-.22s-.17-.39-.39-.26c-.05,0-.09,0-.09,0A5.89,5.89,0,0,1,21.65,12.35Z" fill="#323031"/><path d="M87.39,56.61c0,.21,0,.43-.09.7s-.13.35-.18.57,0,.61,0,.91a1.91,1.91,0,0,1,0,.48,1.64,1.64,0,0,1-.09.44c0,.35,0,.75,0,1.14a7.93,7.93,0,0,1,0,1.09c.05.31.22.62.09.92,0,.09-.13.22-.17.35s0,.35,0,.53a14.84,14.84,0,0,0,.31,3.63,3.76,3.76,0,0,0,.17.39,3.34,3.34,0,0,0,.88,1c0,.22-.18.22-.31.26a1.81,1.81,0,0,0-.39.44A6.13,6.13,0,0,0,87,70.74c-.05.22-.09.57-.13.87s0,.61,0,.92a2,2,0,0,1,.09.57,7.47,7.47,0,0,1,0,.92,5,5,0,0,1,.13.83c0,.52-.09,1.05-.05,1.62a5.61,5.61,0,0,1,.22,1.44c0,.44-.17.7-.17,1.18a3.22,3.22,0,0,1,.13.66,5.21,5.21,0,0,1,0,.79c.09.48.39.83.44,1.26-.4-.08-.84.09-1.23,0a3.59,3.59,0,0,0-.66,0h-.17c-.09,0-.13,0-.18,0s-.26-.08-.39-.08-.35,0-.52,0a2.11,2.11,0,0,1-.49.09c-.21,0-.48,0-.7,0s-.43,0-.65,0h-.88a1.38,1.38,0,0,1-.83,0,6,6,0,0,1,.18-.92,1.6,1.6,0,0,1,.26-.83,5.2,5.2,0,0,1,.13-1.18c0-.09.09-.27.09-.35s-.09-.18-.09-.27a1.77,1.77,0,0,1,0-.65s.09-.09.09-.18,0-.35,0-.56a4.74,4.74,0,0,1,0-.84,4,4,0,0,0,.09-.74,1.81,1.81,0,0,1,0-.22c0-.13-.09-.26-.09-.39s0-.44,0-.66v-.65c0-.18.08-.36.08-.49a7,7,0,0,0-.08-.91,6.05,6.05,0,0,0,0-1c0-.13-.09-.17-.09-.26a2.38,2.38,0,0,0-.08-.66c-.09-.3-.35-.39-.57-.65a2.56,2.56,0,0,1-.26-.31c-.13-.13-.27-.17-.27-.3s.4-.44.53-.7a3.32,3.32,0,0,0,.13-.35,10,10,0,0,0,.44-.92c0-.18.08-.44.13-.66a4.5,4.5,0,0,0,.13-.61c0-.26-.13-.53-.13-.83a9.29,9.29,0,0,1,0-1.18c-.09-1.8.26-3.77-.09-5.21-.09-.39-.22-.74-.31-1.09a3.15,3.15,0,0,0-.13-.53,1.39,1.39,0,0,0-.26-.44c0-.08-.35-.17-.17-.39a.69.69,0,0,1,.65.13,2.06,2.06,0,0,1,.53-.13c.39,0,.87,0,1.35,0,.22,0,.4,0,.62,0s.43.09.61.09.57,0,.83,0a8.68,8.68,0,0,1,2.1,0,.48.48,0,0,1,.26,0C87.61,56.26,87.47,56.39,87.39,56.61Z" fill="#323031"/><path d="M100.57,56.43l-.31.44a1.37,1.37,0,0,0-.18.22,2.46,2.46,0,0,0-.52,1c0,.22-.22.4-.35.66,0,.09,0,.26-.09.44a6.47,6.47,0,0,1-.26.78.49.49,0,0,1,0,.22,7.88,7.88,0,0,0-.09,1.18,2.22,2.22,0,0,1,0,.57,2,2,0,0,1-.09.53c0,.44.09.83,0,1.22a2.83,2.83,0,0,1-.13.62c0,.26.08.52.08.78a8.66,8.66,0,0,1,0,1.14c0,.18.09.35.14.48a4.74,4.74,0,0,0,.17.53,1.83,1.83,0,0,0,.35.43,7.94,7.94,0,0,0,.74.7c.18,0,.4.22.35.35s-.13.27-.39.4a2.9,2.9,0,0,0-.57.48s0,.13,0,.13-.09.13-.18.26,0,.13,0,.13,0,0-.09,0a2.2,2.2,0,0,1-.17.44c-.09.17-.18.3-.22.39,0,.26,0,.52,0,.79a3.23,3.23,0,0,1-.09.56c0,.05.09.14,0,.27s-.08.13-.08.22a3.75,3.75,0,0,0,.22.48c-.09.22,0,.22,0,.48a2.17,2.17,0,0,1-.14.44c0,.39.18.83.14,1.31a5.46,5.46,0,0,0-.09,1c0,.13.13.21.13.39a3.2,3.2,0,0,0,1.31.13c.22,0,.22-.22.4-.22a6.59,6.59,0,0,0,1.66,0c.17,0,.35-.09.57-.13s.43,0,.65,0,.35-.22.57-.27a5.83,5.83,0,0,1,.83-.08,5.81,5.81,0,0,0,.66-.4c.13-.09.35-.17.52-.26a3,3,0,0,0,.66-.66,1.59,1.59,0,0,0,.13-.13c.05-.13.13-.43.35-.3s.13.39.13.56,0,.22,0,.31-.09.18-.09.26c0,.35,0,.75,0,1.1,0,.13-.08.3-.08.44,0,.52,0,1.09,0,1.61s-.13,1-.13,1.49a2.58,2.58,0,0,1-.09,1.31.72.72,0,0,1-.43,0c-.14,0-.22.08-.35.08-.49,0-1-.13-1.4-.08h-.18s-.13.17-.26.13-.31-.09-.44-.09-.31.09-.44.09-.3-.09-.48-.09-.35.09-.48.09a8.51,8.51,0,0,1-1,0c-.35,0-.65,0-1,0s-.35,0-.52,0-.31.13-.48.18a1,1,0,0,0-.88,0,1.78,1.78,0,0,0-.7-.13c-.09,0-.13,0-.22,0s-.26-.08-.39-.08a6.55,6.55,0,0,0-1.4,0c-.26,0-.53.08-.79.08s-.31-.08-.48-.08-.39.08-.61.08a6.36,6.36,0,0,1-1.31,0c-.09-.17.08-.35.13-.57s.21-.57.3-.87A11.41,11.41,0,0,0,93.35,79a2.28,2.28,0,0,0,0-.78c0-.09-.08-.22-.08-.31a1,1,0,0,1,.21-.48c0-.48,0-1.14,0-1.62a3.22,3.22,0,0,1,.13-.66,6.61,6.61,0,0,0,0-1,4.57,4.57,0,0,0,0-.83c0-.18-.09-.4-.09-.53s.09-.35.09-.48c0-.3-.09-.52,0-.74a1.85,1.85,0,0,0-.35-1.27c-.09-.13-.26-.26-.39-.44s-.22-.31-.35-.44,0,0-.09,0l-.13-.13c-.18-.09-.39,0-.53-.26s.22-.22.31-.35.09-.09.18-.18.17,0,.22-.09a1.59,1.59,0,0,0,.26-.26,2.21,2.21,0,0,0,.43-.61c0-.09.14-.22.18-.31a3.72,3.72,0,0,0,.09-.78c0-.22.13-.44.17-.7a1.6,1.6,0,0,0,0-.49c0-.13.09-.26.09-.39a9.26,9.26,0,0,0,0-1.49c0-.13-.09-.3-.09-.43s0-.35,0-.57a8.7,8.7,0,0,0,0-1.14c0-.17-.13-.35-.13-.53a2,2,0,0,1,0-.48,1.14,1.14,0,0,0,0-.7c0-.08-.09-.17-.09-.26A5.07,5.07,0,0,0,93.26,58c0-.09-.13-.18-.13-.27s0-.43,0-.61c-.09-.44-.48-.74-.48-1.18a4.43,4.43,0,0,1,1.09,0h.48a3.16,3.16,0,0,1,.92,0c.44,0,.88-.09,1.27-.09s.52,0,.79,0h.39c.22,0,.35-.09.53,0,.35.08,1,0,1.35,0,.09,0,.22-.09.26.09a.46.46,0,0,1,.53,0c.31,0,.35-.26.52-.09S100.65,56.3,100.57,56.43Z" fill="#323031"/><path d="M117,56.43c-.09.13-.17.26-.3.44a1,1,0,0,0-.18.22,2.35,2.35,0,0,0-.52,1c0,.22-.22.4-.35.66a2.37,2.37,0,0,0-.09.44c0,.26-.18.48-.26.78a.4.4,0,0,1,0,.22,9.48,9.48,0,0,0-.09,1.18,2.81,2.81,0,0,1,0,.57,2.45,2.45,0,0,1-.09.53,10.27,10.27,0,0,1,0,1.22,2.35,2.35,0,0,1-.13.62c0,.26.09.52.09.78a10.83,10.83,0,0,1,0,1.14c0,.18.09.35.13.48s.09.35.18.53a1.61,1.61,0,0,0,.35.43,7.94,7.94,0,0,0,.74.7c.18,0,.39.22.35.35s-.13.27-.39.4a2.64,2.64,0,0,0-.57.48s0,.13,0,.13a1.58,1.58,0,0,1-.17.26c0,.05,0,.13,0,.13s0,0-.09,0a2.27,2.27,0,0,1-.18.44c-.08.17-.17.3-.22.39,0,.26,0,.52,0,.79a3.14,3.14,0,0,1-.08.56c0,.05.08.14,0,.27s-.09.13-.09.22.13.26.22.48c-.09.22,0,.22,0,.48a2.88,2.88,0,0,1-.13.44c0,.39.18.83.13,1.31a6.5,6.5,0,0,0-.09,1c0,.13.14.21.14.39a3.18,3.18,0,0,0,1.31.13c.22,0,.22-.22.39-.22a6.58,6.58,0,0,0,1.66,0c.18,0,.35-.09.57-.13s.44,0,.66,0a6.18,6.18,0,0,1,.57-.27,5.83,5.83,0,0,1,.83-.08,5.81,5.81,0,0,0,.66-.4c.13-.09.35-.17.52-.26a3.17,3.17,0,0,0,.66-.66l.13-.13c0-.13.13-.43.35-.3s.13.39.13.56,0,.22,0,.31-.09.18-.09.26c0,.35,0,.75,0,1.1,0,.13-.09.3-.09.44,0,.52,0,1.09,0,1.61s-.13,1-.13,1.49a2.58,2.58,0,0,1-.09,1.31.75.75,0,0,1-.44,0c-.13,0-.22.08-.35.08-.48,0-1-.13-1.4-.08h-.17s-.13.17-.27.13-.3-.09-.43-.09-.31.09-.44.09-.31-.09-.48-.09-.35.09-.48.09a8.51,8.51,0,0,1-1,0c-.35,0-.66,0-1,0s-.35,0-.53,0-.3.13-.48.18a1,1,0,0,0-.87,0,1.78,1.78,0,0,0-.7-.13c-.09,0-.13,0-.22,0s-.26-.08-.4-.08a6.55,6.55,0,0,0-1.4,0c-.26,0-.52.08-.78.08s-.31-.08-.48-.08-.4.08-.62.08a6.4,6.4,0,0,1-1.31,0c-.09-.17.09-.35.13-.57s.22-.57.31-.87a9.66,9.66,0,0,0,.17-1.32,2.28,2.28,0,0,0,0-.78c0-.09-.09-.22-.09-.31a1,1,0,0,1,.22-.48c0-.48,0-1.14,0-1.62a2.66,2.66,0,0,1,.13-.66,8.26,8.26,0,0,0,0-1,5.71,5.71,0,0,0,0-.83c0-.18-.09-.4-.09-.53s.09-.35.09-.48c0-.3-.09-.52,0-.74.13-.4-.18-1-.35-1.27-.09-.13-.26-.26-.4-.44s-.21-.31-.35-.44,0,0-.08,0l-.13-.13c-.18-.09-.4,0-.53-.26s.22-.22.31-.35.08-.09.17-.18.18,0,.22-.09.18-.17.26-.26a2,2,0,0,0,.44-.61l.18-.31a3.82,3.82,0,0,0,.08-.78c.05-.22.13-.44.18-.7a2,2,0,0,0,0-.49c0-.13.09-.26.09-.39a9.26,9.26,0,0,0,0-1.49c0-.13-.09-.3-.09-.43s0-.35,0-.57a10.86,10.86,0,0,0,0-1.14c0-.17-.13-.35-.13-.53a2,2,0,0,1,0-.48,1.23,1.23,0,0,0,0-.7c0-.08-.08-.17-.08-.26a5.64,5.64,0,0,0-.13-1.22c0-.09-.13-.18-.13-.27s0-.43,0-.61c-.09-.44-.49-.74-.49-1.18a4.51,4.51,0,0,1,1.1,0h.48a3.18,3.18,0,0,1,.92,0c.43,0,.87-.09,1.27-.09s.52,0,.78,0h.4c.22,0,.35-.09.52,0,.35.08,1,0,1.36,0,.09,0,.22-.09.26.09a.46.46,0,0,1,.53,0c.3,0,.35-.26.52-.09S117.13,56.3,117,56.43Z" fill="#323031"/><path d="M76.94,64.92c-.26.3-.57.52-.83.83,0,0,0,.09,0,.13s-.09,0-.09,0-.13.35-.22.53-.09,0-.09,0a5.9,5.9,0,0,1-1.09,1.84,4.16,4.16,0,0,1-.09.48,5.19,5.19,0,0,1-.39.61c0,.09,0,.18-.09.22a.21.21,0,0,1-.13.09c0,.09-.13.26-.26.26-.13.31-.31.62-.66.66a1.21,1.21,0,0,1-.7.61c0,.18-.13.22-.22.35s-.35.18-.39.4-.18.08-.18.26.18.26.35.35c0,.08,0,.22.05.3a1.42,1.42,0,0,1,.3.53.9.9,0,0,1,.13.26.82.82,0,0,1,.18.22s0,.18,0,.26a2.81,2.81,0,0,1,.18.35,1.48,1.48,0,0,1,.09.18c.08.17.26.3.35.52s.13.61.26.88a1.69,1.69,0,0,0,.48.48,5.07,5.07,0,0,0,.48.92,6.3,6.3,0,0,0,.53.87c0,.09.08.18,0,.31s.26.22.35.35l0,.13a.75.75,0,0,0,.27.26c0,.35.39.57.56.83s.13.53.44.62a1.27,1.27,0,0,0,.35.43c.13.13.31.27.35.44-.26,0-.52,0-.79,0s-.26.13-.43.13a6.27,6.27,0,0,1-1.62,0c-.13,0-.22-.09-.35-.09a4.17,4.17,0,0,0-.7,0c-.22,0-.4.13-.57.13a3.69,3.69,0,0,1-1,0c-.13,0-.31-.13-.44-.13a1,1,0,0,0-.52.13c-.27-.17-.48,0-.7-.09A6,6,0,0,0,70,80.49c0-.09-.09-.17-.13-.26s-.18-.53-.31-.74-.13-.09-.17-.18a2.67,2.67,0,0,1-.09-.26c-.09-.18-.18-.31-.26-.44.08-1.09-.83-1.14-.83-2.1-.09-.13-.22-.22-.27-.31a1.92,1.92,0,0,0-.22-.35,2.33,2.33,0,0,1-.48-.65,1.3,1.3,0,0,1-.48,0c-.22-.08-.35-.21-.48-.26a6.25,6.25,0,0,0-1.22.66l-.48.3s-.09.05-.18.09a3.31,3.31,0,0,0-.44.35c-.09.09-.17.13-.26.22s0,.75-.13,1.18c0,.13-.09.22-.09.31s0,.26,0,.39c0,.35,0,.79,0,1.23a.74.74,0,0,1,.05.35,3.34,3.34,0,0,0,.65,1.48c.09.14.31.09.27.31s-.18.13-.27.13a8.31,8.31,0,0,1-1.88,0c-.35,0-.74-.09-1.13-.09-1.36,0-2.67,0-3.94,0a2,2,0,0,1,.44-.92c-.05-.22.13-.39.17-.61a1,1,0,0,0,0-.35c0-.13.09-.18.09-.26s0-.35,0-.53.14-.35.18-.52a3.2,3.2,0,0,0,0-.62,5,5,0,0,0,.13-.83,5,5,0,0,0,0-.87c0-.22.09-.4.09-.57,0-.44,0-.88,0-1.27a5.31,5.31,0,0,0,.09-.74c0-.35-.13-.66-.13-1a14.66,14.66,0,0,0,.13-1.8,2.76,2.76,0,0,0-.09-.39.28.28,0,0,1-.13-.13c0-.13-.09-.26-.13-.4a10.49,10.49,0,0,0-.88-1c0-.22.18-.13.18-.35A8.09,8.09,0,0,0,58,67.41a3.51,3.51,0,0,0,.26-1,1,1,0,0,0,.05-.39,2.47,2.47,0,0,0,.13-.88c0-.13-.09-.3-.09-.48,0-.57,0-1.18,0-1.75,0-.39,0-.79,0-1.27,0-.13-.09-.22-.09-.35a6,6,0,0,1,0-1c0-.09,0-.17,0-.26a2.85,2.85,0,0,0,0-1.05,2,2,0,0,1-.13-.35,1,1,0,0,0,0-.39.8.8,0,0,0-.13-.35c-.13-.35-.17-.75-.31-1.1a.82.82,0,0,0-.17-.35c0-.13-.18-.22-.13-.35s.48-.17.7-.17a5.85,5.85,0,0,1,.92-.14c.39,0,.79,0,1.18,0a4.05,4.05,0,0,1,.7,0c.13,0,.22,0,.3,0a4.82,4.82,0,0,1,.71.08c.21,0,.43.09.61-.08a1,1,0,0,0,.87.13c.09,0,.13-.09.22-.09.35,0,.79.09,1.18.09a4.51,4.51,0,0,1,.7,0,2.82,2.82,0,0,1,.4.09c.39,0,.74.09,1.31.13a.61.61,0,0,1,.3,0c.09,0,.09,0,.18.08a.28.28,0,0,1,.17.05,2.85,2.85,0,0,0,.36.13,1.92,1.92,0,0,1,.48,0,1.76,1.76,0,0,1,.43.13c.27.09.48.13.79.26l.39.13a1.34,1.34,0,0,1,.4,0c.17,0,.35.14.57.22s.61.35,1,.53c.17.09.44.13.52.22.31.17.4.57.62.83a.89.89,0,0,0,.39.09,1.78,1.78,0,0,0,.66.61.73.73,0,0,0,.35.61.64.64,0,0,0,0,.31c0,.17.22.22.31.35a10.43,10.43,0,0,0,.43,1.13,2.9,2.9,0,0,1,.18.62,2.27,2.27,0,0,0,.13.61,2,2,0,0,0,.52.66,4.85,4.85,0,0,0,.79.78c.09,0,.22,0,.22.18S77.12,64.83,76.94,64.92Zm-11.2,5,.09-.09a3.3,3.3,0,0,1,.39-.26.61.61,0,0,0,.27,0s.08,0,.17-.09a1.2,1.2,0,0,0,.39-.13s.14-.13.18-.18.09,0,.13,0a2.57,2.57,0,0,1,.18-.26.89.89,0,0,1,.7-.3c.17-.27.52-.4.65-.75a1.58,1.58,0,0,1,.35-.26,1.29,1.29,0,0,1,.18-.52c.13-.22.43-.35.52-.62s0-.3,0-.52.21-.31.26-.48a1.29,1.29,0,0,1,0-.44c0-.09,0-.13.09-.22.08-.35,0-.48,0-.79a2.25,2.25,0,0,1,0-.52c-.09-.31-.35-.57-.3-.92-.53-.26-.7-.88-1.4-1-.09-.09-.14-.18-.18-.22s0,0-.09-.05a4,4,0,0,0-.35-.21c-.22,0-.39-.22-.61-.22a2,2,0,0,1-.57,0c-.17,0-.26-.17-.39-.22-.4.09-.83-.13-1.31-.09-.09,0-.22.09-.35.09a9,9,0,0,0-1,.05A1.92,1.92,0,0,0,63.55,62c0,.53,0,1,0,1.58,0,.74,0,1.7,0,2.45a.91.91,0,0,1,0,.48,1.72,1.72,0,0,1-.08.48c0,.17,0,.35,0,.48a1.92,1.92,0,0,1,0,.48c0,.22.18.35.18.53a2.28,2.28,0,0,1,0,.74,1.26,1.26,0,0,1-.14.44,1.58,1.58,0,0,0,.18,1c.61.13,1-.3,1.4-.52C65.31,70.08,65.57,70.08,65.74,70Z" fill="#323031"/><path d="M126,24.89a2,2,0,0,0-.41.26,5.26,5.26,0,0,0-1.08,1.13c-.16.21-.26.47-.42.72a2.85,2.85,0,0,0-.46.62,5.08,5.08,0,0,0-.77.51c-.1.06-.16.11-.26.16s-.46-.05-.67,0a1.24,1.24,0,0,0-.61.26,4.43,4.43,0,0,0-1.5-.11,3.1,3.1,0,0,0-.46-.31.18.18,0,0,0-.15-.05c-.11-.1-.16-.25-.26-.36a.74.74,0,0,0-.31-.25c-.1-.11-.26-.16-.31-.26s0-.26,0-.41.31-.21.46-.26c.05-.31.41-.51.52-.87a1.74,1.74,0,0,0-.47-1.55c-.56-.1-1-.41-1.64-.15a1.41,1.41,0,0,0-.57.41,4.69,4.69,0,0,0-.46.51,10.55,10.55,0,0,0-.1,1.86c.05.31.25.41.36.67s0,.41.1.66a2.58,2.58,0,0,0,.26.36l.15.16s0,.1,0,.2c.16.26.31.52.46.72s.62.57.88.88c0,.05,0,.1.1.21l.16.15c.1.1.15.26.25.36s.36.21.52.46c0,0,0,.11,0,.16s.1.05.15.1,0,.1.06.15.25.36.36.52.3.31.41.46a4.06,4.06,0,0,1,.36.52c.25.3.51.61.77,1s.51.67.77,1,.72.72,1.08,1.19a.12.12,0,0,1,.11.1s0,.1,0,.15c.2.21.46.41.67.67a2.47,2.47,0,0,0,.41.46,1.75,1.75,0,0,1,.46.42,1.91,1.91,0,0,0,.67.61,2.23,2.23,0,0,0,.56.78c.42-.16.47-.57.67-.88a1,1,0,0,1,.21-.2c.1-.16.1-.36.21-.57a.76.76,0,0,1,.15-.21c-.1-.51.15-.56.21-.92a3.72,3.72,0,0,0-.11-.67,4,4,0,0,0,0-.77,2.61,2.61,0,0,0-.31-.72c0-.11,0-.16,0-.21a1.22,1.22,0,0,0-.82-.77,2.24,2.24,0,0,0-1.29-.31,2.12,2.12,0,0,0-1,.26c-.41.15-.56.25-.82-.21,0-.1-.15-.36-.21-.46a2.18,2.18,0,0,1,0-.57,4.7,4.7,0,0,1-.1-.92c0-.06,0-.21,0-.26a1,1,0,0,1,.26-.52c.1-.15.36-.67.46-.77a2,2,0,0,1,.62-.41,2.22,2.22,0,0,1,.62-.41c.1-.05.31-.05.46-.1a1.58,1.58,0,0,1,.67-.21,5.17,5.17,0,0,1,.88,0,1.84,1.84,0,0,1,.51-.1,3.72,3.72,0,0,1,1.49.26,5.66,5.66,0,0,1,1,.35c.15.06.36.06.46.21.05,0,0,.1.05.15a6.58,6.58,0,0,1,.73.52c.25.21.46.51.71.77a4.88,4.88,0,0,1,.47.52,1.08,1.08,0,0,1,.36.46c0,.05,0,.05,0,.1s.1.16.15.26.11.31.21.62a1,1,0,0,1,.15.36c.06.15,0,.3.06.46s.25.46.36.72c.05,0,.05.16.1.26.26.36.57.67.82,1,.26,0,.52,0,.57.15,0,.31-.36.36-.57.57-.05,0-.1.1-.15.15a1.32,1.32,0,0,0-.41.36c-.06,0,0,.1-.06.16s-.1,0-.1,0a.25.25,0,0,1,0,.15s-.1,0-.1.05-.05.16-.11.26-.15.15-.15.21,0,.46-.1.67a2.1,2.1,0,0,0-.16.36,7.54,7.54,0,0,1-.67,1.33c-.05.06,0,.11-.05.21s-.1,0-.15.1a2.75,2.75,0,0,0-.31.67,4.38,4.38,0,0,0-.67.36c-.1.1-.05.31-.05.52l-.62.46c.21.15.41.26.62.41s.15.05.2.1c.26.16.47.47.73.62a4.13,4.13,0,0,0,.41.1l.31.16c.2,0,.61,0,.87,0s.67.05.88.05.46-.26.77-.41c.1-.21.1-.46.31-.52.41.06.56.31.72.67,0,.11.15.16.15.26s0,.36.05.57a3.05,3.05,0,0,1,.21.92,2.19,2.19,0,0,1-.16,1.19c-.05.15-.2.31-.25.46a2.72,2.72,0,0,1-.16.67s-.1,0-.1.05a1,1,0,0,1-.1.26s-.11,0-.16.1,0,.1-.05.15-.15.16-.26.26a1,1,0,0,1-.36.36,4.15,4.15,0,0,1-.72.26l-.41.15c-.15.06-.31.06-.46.11a6.89,6.89,0,0,1-.72.2,1.52,1.52,0,0,1-.67,0,1,1,0,0,0-.41-.15,2,2,0,0,0-.57,0,3.52,3.52,0,0,1-.77-.16.26.26,0,0,0-.21-.1c-.2-.05-.41,0-.56-.05a2.85,2.85,0,0,1-.52-.31,6,6,0,0,1-.56-.26c-.26-.15-.36-.36-.57-.51-.05,0-.1-.16-.15-.16a2,2,0,0,0-.52-.15c-.15-.1-.26-.26-.41-.36s-.36-.21-.46-.31a1.8,1.8,0,0,0-.57.36,5.19,5.19,0,0,1-.77.62c-.26.15-.52.36-.82.56-.11,0-.16.16-.26.21l-.31.15a4.84,4.84,0,0,1-.57.31c-.2,0-.41,0-.61.11a2.83,2.83,0,0,0-.57.25,2.36,2.36,0,0,0-.62.16,2.75,2.75,0,0,0-.56.25c-.16.06-.36.21-.52.26s-.41,0-.61,0-.37.16-.57.21a2.4,2.4,0,0,0-.57.05,1.84,1.84,0,0,0-.51.1,11.13,11.13,0,0,0-2.27.16c-.82-.21-1.64-.16-2.47-.36a5.54,5.54,0,0,0-.67-.26c-.35-.1-.66-.05-1-.16-.06,0-.11-.1-.11-.1s-.1,0-.15,0c-.26-.1-.46-.36-.72-.46s-.31,0-.46-.1l-.42-.16c-.25-.15-.46-.46-.77-.62s-.41-.15-.56-.25l-.06-.11c-.2-.1-.25-.25-.41-.46,0-.05-.1-.05-.1-.05a5,5,0,0,0-.46-.62,9.7,9.7,0,0,1-.67-.87c0-.05,0-.11-.1-.16s-.26-.62-.42-.87-.31-.41-.41-.62,0-.36-.1-.51c-.1-.31-.16-.62-.26-1a2.38,2.38,0,0,1-.15-.41,3.57,3.57,0,0,0-.16-1.14.5.5,0,0,0,0-.15s-.1,0-.1,0a5.62,5.62,0,0,0-.46-.88c-.06-.1-.16-.1-.21-.15s0-.15-.1-.21-.42-.36-.57-.56.21-.26.36-.31a5.58,5.58,0,0,0,1.49-.93c0-.05.21-.15.21-.2a.8.8,0,0,1,.26-.36c.1-.11.2-.16.25-.26s.06-.26.11-.31c.1-.21.2-.31.31-.51a4.36,4.36,0,0,1,.46-.72.68.68,0,0,1,.2-.21c0-.1,0-.21.11-.26a4.9,4.9,0,0,1,.51-.51,6.26,6.26,0,0,1,.46-.52l.52-.46a3.94,3.94,0,0,1,.67-.62c.15-.1.31-.25.51-.36a5.51,5.51,0,0,1,.88-.61.34.34,0,0,1,.2-.11s.16,0,.21-.1a1.41,1.41,0,0,1,.31-.26c.15-.15.31-.2.51-.36,0-.2,0-.41-.1-.56a1.18,1.18,0,0,0-.36-.47c-.05-.1-.05-.2-.1-.31a1.69,1.69,0,0,0-.31-.46c0-.05,0-.15,0-.15s-.11-.06-.11-.06c-.2-.36-.2-.77-.36-1.13a1.79,1.79,0,0,0-.31-.56,13.43,13.43,0,0,0-.61-1.5c0-.05,0-.1-.11-.1s0-.1,0-.15a8.35,8.35,0,0,0-1-1.55c-.1-.15-.36-.31-.31-.51s.42-.1.57-.16.31-.15.51-.25.06-.16.11-.16a3.65,3.65,0,0,0,.62-.56c.25-.41.46-.93.72-1.39a1.21,1.21,0,0,1,.2-.46c0-.06.16-.11.21-.16a1,1,0,0,1,.1-.21c.1-.1.26-.15.36-.25s.1-.31.16-.41,0-.16.1-.21.1-.05.1-.05c0-.16,0-.16.26-.21.41-.2.87-.77,1.34-.92a1.88,1.88,0,0,1,.61-.16,3.94,3.94,0,0,1,.41-.2,1.53,1.53,0,0,1,.62-.11,1.71,1.71,0,0,1,.41-.1c.42-.05.78,0,1.14-.05a4.69,4.69,0,0,1,1.33-.1,5.4,5.4,0,0,1,.88.15,5.16,5.16,0,0,1,1.49.46.18.18,0,0,1,0,.11,4.37,4.37,0,0,1,.62.2,2.09,2.09,0,0,1,.51.41c.21.11.42.16.52.36.31.11.46.36.77.57.1.05.21.05.26.15s0,.11,0,.16a1.87,1.87,0,0,1,.41.72c.05.15.16.31.21.46l.15.46c.1.21.31.31.46.57.06.05,0,.1.06.21s.1.05.15.1l.15.31a1,1,0,0,1,.31.2c.11.06.16.21.26.26s.51.1.62.41S126.07,24.79,126,24.89Zm-5,17.7a3.17,3.17,0,0,0-.41-.41c-.05,0,0-.15-.05-.15a.11.11,0,0,0-.1-.1,2.51,2.51,0,0,1-.46-.83,6.19,6.19,0,0,0-.67-.46,5.89,5.89,0,0,0-.52-.57c-.26-.25-.51-.51-.72-.67,0,0,0-.1-.1-.15a2.85,2.85,0,0,1-.52-.62c-.05-.15-.05-.31-.15-.41a1.81,1.81,0,0,0-.31-.31,1.87,1.87,0,0,0-.31-.36l-.31-.31c-.05-.05-.05-.15-.1-.2a1,1,0,0,0-.82-.21.28.28,0,0,0-.16.1c-.2.11-.46.21-.77.36,0,0-.1.06-.15.11-.47.15-.62.2-.83.56s-.67.67-.82,1c0,0-.1,0-.1.05v.11s-.1,0-.1,0-.16.36-.26.51a2.32,2.32,0,0,0-.31.46,17.33,17.33,0,0,0,.15,2.42c.06.26.06.57.11.77a4.64,4.64,0,0,0,.31.47c.35.46.82.72,1.08,1.23a1.61,1.61,0,0,1,.77.26,3,3,0,0,0,.72.31c.36.05.92,0,1.39.1.15,0,.31.16.46.16s.21-.11.36-.11a1.15,1.15,0,0,1,.41,0,11.14,11.14,0,0,0,1.6-.36,3.56,3.56,0,0,1,.62-.36c.15-.05.3-.05.41-.1s.1-.16.15-.16a1.94,1.94,0,0,0,.51-.46c.06-.05.16-.05.21-.1a2.09,2.09,0,0,0,.46-.57,5.29,5.29,0,0,0-.61-.82A.19.19,0,0,0,120.92,42.59Z" fill="#323031"/><path d="M128.33,104.62s0,.09,0,.16a1,1,0,0,0,.05.39,1.89,1.89,0,0,0,.09.21c0,.07,0,.14,0,.23a2.34,2.34,0,0,1,.09.28,2.47,2.47,0,0,0,.05.38,1.63,1.63,0,0,0,.14.34.25.25,0,0,0,0,.12s.05,0,.05.07a.87.87,0,0,0,0,.19c0,.09.07.13.11.25s0,.16.1.26,0,.11.07.16,0,.28.07.42a1.25,1.25,0,0,0,.06.18c.05.17.1.4.14.59a1,1,0,0,1,.07.18c0,.07,0,.14,0,.21a.11.11,0,0,0,0,.09,4.83,4.83,0,0,0,.26.68,1.89,1.89,0,0,0,.39.41c.05,0,.07.12.12.14s.09,0,.14.07.05.07.09.1a.11.11,0,0,0,.07,0c.05,0,.1.12.17.12s.3,0,.32.09-.07.19-.12.23a.14.14,0,0,1-.09.09,1.36,1.36,0,0,0-.18.4,1.34,1.34,0,0,0-.1.58c0,.07.07.12.07.21s0,.16,0,.23.07.14.1.23.09.31.13.49.19.44.26.68c0,.07.05.14.07.23s0,.16,0,.25.16.24.18.38a2.17,2.17,0,0,1,.05.41.46.46,0,0,0,.09.17.69.69,0,0,1,.16.28,3.46,3.46,0,0,1,.24.69c0,.1,0,.21.07.31s.18.2.25.32.09.19.14.28l.12.14a.67.67,0,0,1,.11.14c.1.09.26.14.26.25s-.14,0-.21,0l-.21,0c-.09,0-.18,0-.28,0a.36.36,0,0,1-.14,0,2.24,2.24,0,0,0-.35,0l-.34,0c-.12,0-.21,0-.33,0s-.16-.07-.26-.07-.2,0-.32,0a3.52,3.52,0,0,1-.56,0c-.07,0-.16,0-.23,0s-.23,0-.33,0-.11,0-.16,0l-.16,0c-.19,0-.33.11-.47,0,0-.21.21-.21.31-.37a.42.42,0,0,1,0-.14c0-.09.07-.23.09-.37a3.48,3.48,0,0,0,0-.56c0-.07,0-.14,0-.21s0-.14,0-.21-.07-.14-.09-.21a.68.68,0,0,1-.07-.23s-.05,0-.05,0a3.65,3.65,0,0,0-.14-.35h-.23l-.18,0c-.1,0-.07-.05-.19-.05s-.14.05-.21.05-.23,0-.35,0c-.35,0-.74,0-1.09,0a6.18,6.18,0,0,0-.86,0c-.12,0-.23.05-.32.05a.86.86,0,0,1-.21-.07,1,1,0,0,1-.47.09,3.78,3.78,0,0,0-.21.51,1.94,1.94,0,0,1-.21.4,2.29,2.29,0,0,0,.07,1.37c.07.16.23.3.14.46a.53.53,0,0,1-.37,0c-.07,0-.07.07-.14,0s-.28,0-.46,0-.52,0-.77,0l-.21,0c-.12,0-.21-.07-.33-.07a.67.67,0,0,0-.3.1c-.09,0-.14-.1-.23-.12s-.16.07-.26.07a4.61,4.61,0,0,1-.51,0,1.8,1.8,0,0,1-.51,0c-.07-.09,0-.14.1-.19s.09-.11.13-.18.05-.14.1-.21a.67.67,0,0,1,.11-.14s.1-.07.12-.12.07-.18.12-.25.09-.16.14-.23,0-.14,0-.21a.87.87,0,0,0,0-.19.34.34,0,0,1,0-.14,3.59,3.59,0,0,0,.21-.35s0-.07,0-.11a1.57,1.57,0,0,0,.14-.38c0-.09,0-.2,0-.3s0-.09,0-.11,0-.12,0-.14a.23.23,0,0,1,.07-.07s0-.07,0-.1l.1,0,0-.07a1.25,1.25,0,0,0,.07-.23c0-.07.07-.12.09-.19s.05-.21.1-.33,0-.06,0-.09,0-.25.05-.37a1.72,1.72,0,0,1,.09-.19,1.1,1.1,0,0,0,.12-.16,1.89,1.89,0,0,1,0-.23,1.71,1.71,0,0,0,.09-.49,1.16,1.16,0,0,0-.09-.49,1.49,1.49,0,0,0-.28-.44s-.07-.07-.12-.11-.12,0-.12-.12.21-.07.31-.12a.37.37,0,0,0,.14-.07,1,1,0,0,0,.37-.16,1.28,1.28,0,0,0,.28-.21s0-.09.09-.11c0-.19.16-.28.19-.47a1.33,1.33,0,0,0,.3-.67.54.54,0,0,0,.07-.19c0-.14,0-.25.09-.39a.15.15,0,0,0,0-.1.46.46,0,0,0,0-.09c0-.07.11-.14.14-.21a1.35,1.35,0,0,0,0-.28.61.61,0,0,0,.07-.14.27.27,0,0,0,.07-.14c.05-.09.05-.21.12-.28s0-.14,0-.21.09-.16.09-.23a.7.7,0,0,0,0-.25.72.72,0,0,1,.21-.3,4,4,0,0,0,.14-.45,1.77,1.77,0,0,0,.17-.65.9.9,0,0,0,0-.23,1.44,1.44,0,0,0,.07-.44c0-.14,0-.23,0-.35.67,0,1.39-.05,2.13-.05.12,0,.26,0,.4,0s.28,0,.42,0a1.7,1.7,0,0,0,.39,0C128.4,104.36,128.33,104.5,128.33,104.62Zm-1.91,4.64a2.52,2.52,0,0,0,0,.37c0,.07-.09.17-.09.21a.06.06,0,0,1,0,0c-.07.11,0,.28-.09.42s-.07.11-.09.16-.09.11-.09.18,0,.31,0,.4a2.48,2.48,0,0,0-.14.37.64.64,0,0,0,0,.16,1.09,1.09,0,0,0-.19.33,1,1,0,0,0,0,.35,2.08,2.08,0,0,1-.14.32.53.53,0,0,1,0,.17.26.26,0,0,0-.07.16,3,3,0,0,0,.42,0s.14,0,.21,0,.18,0,.3,0c.62,0,1.09,0,1.69,0-.09-.27-.18-.58-.23-.81a2.08,2.08,0,0,0,0-.3c0-.07-.06-.09-.06-.16a1,1,0,0,1,0-.31s0,0,0-.07a1.69,1.69,0,0,1-.16-.51.65.65,0,0,1,0-.21c0-.11-.1-.23-.14-.34a.3.3,0,0,1-.1-.19c0-.14,0-.33-.07-.47s-.11-.13-.16-.25a2.35,2.35,0,0,0-.16-.49h-.07c0,.12-.07.19-.09.28A.19.19,0,0,0,126.42,109.26Z" fill="#323031"/><path d="M91.52,104.68c0,.35,0,.7,0,1a.47.47,0,0,1,0,.18.67.67,0,0,1-.1.26c0,.18,0,.35,0,.49a1.83,1.83,0,0,1-.23.76c-.07,0-.11,0-.16-.07s0,0-.07,0a.79.79,0,0,1-.19-.09.14.14,0,0,0-.07-.07.26.26,0,0,1-.11,0,.37.37,0,0,0-.16-.12,1.49,1.49,0,0,1-.26,0,2.91,2.91,0,0,1-.49-.05l-.23,0c-.12,0-.21,0-.3,0s-.26-.07-.35-.07-.26,0-.37,0a4.62,4.62,0,0,0-.82,0l-.14,0c-.13,0-.2-.09-.34-.07l0,0-.18,0a2,2,0,0,1-.61.12c-.07,0,0,.07-.07.11a.85.85,0,0,0-.11.37c0,.14.09.24.09.33s-.14.21-.14.37,0,.23.07.4,0,.48,0,.69,0,.23,0,.3,0,0,0,.07a.13.13,0,0,0,0,.1.18.18,0,0,0,.14.09c.09.05.2,0,.32,0s.51,0,.79,0a2.83,2.83,0,0,0,.33-.07,1.91,1.91,0,0,0,.53,0c.05,0,.12,0,.19,0s.16,0,.28-.07a3.45,3.45,0,0,0,.88-.07c.07,0,.14-.09.25-.12s.12,0,.14,0a.32.32,0,0,0,.17-.14c.07-.07.07-.14.14-.14s.14.1.16,0,0,.16,0,.23a2.76,2.76,0,0,1,.05.51,1.3,1.3,0,0,0,0,.44c-.12.47,0,1.28,0,1.84a1,1,0,0,1,0,.33s0,0,0,.07a.13.13,0,0,1-.09.11,1.23,1.23,0,0,1-.42-.14.35.35,0,0,1-.12-.07c-.07,0-.13,0-.18,0s-.33-.12-.49-.07c-.21-.16-.44-.09-.77-.07h-.21c-.07,0-.13,0-.18,0s-.23,0-.35,0l-.42,0c-.11,0-.21,0-.28,0a.82.82,0,0,0-.42.11c-.11,0-.13-.14-.27-.11s0,.16,0,.25-.14.35-.14.65a6.15,6.15,0,0,0,0,1c0,.11.07.23.07.34s-.05.24-.05.35a2.67,2.67,0,0,0,0,.4h.35c.12,0,.21,0,.35,0h.26l1.11,0a4.37,4.37,0,0,1,.81,0c.07,0,.14,0,.24,0s.16,0,.28,0,.09,0,.16,0,0,0,.09,0a2.73,2.73,0,0,0,.51-.07,2.31,2.31,0,0,0,.75-.39c0-.1.09-.17.21-.17s.06.19.06.31a7.12,7.12,0,0,1,0,1,4,4,0,0,1,0,.49v.25a1.43,1.43,0,0,1,.07.28,1.6,1.6,0,0,1,0,.42,2.07,2.07,0,0,1,0,.6c-.4,0-.82,0-1.24,0a.93.93,0,0,0-.23,0,3.48,3.48,0,0,0-.79,0s-.07,0-.09,0-.05,0-.05,0-.11,0-.16,0-.21,0-.3,0a3.28,3.28,0,0,0-.82,0s-.09,0-.14,0-.18-.07-.27-.07a1.6,1.6,0,0,0-.49,0c-.7,0-1.54,0-2.21,0a.54.54,0,0,0-.28,0,1.45,1.45,0,0,0-.35.07c-.07,0-.14,0-.21,0s-.14,0-.21,0a.86.86,0,0,0-.27,0,1.42,1.42,0,0,1-.47,0,.46.46,0,0,1,.09-.23s0-.09,0-.11,0,0,.07-.07,0-.12,0-.14a3.65,3.65,0,0,1,.14-.35s0,0,0,0v-.07s0-.05,0-.05v-.07a1.61,1.61,0,0,0,.07-.25c0-.09,0-.19,0-.28a4.29,4.29,0,0,0,0-.49,1.49,1.49,0,0,0-.07-.25c0-.1.09-.19.11-.28s0-.19,0-.28a.74.74,0,0,0,.07-.21,2.15,2.15,0,0,0,0-.44c0-.21,0-.44,0-.65s-.07-.19-.07-.28,0-.14,0-.19V113a5.61,5.61,0,0,0,0-.58c0-.05,0-.07-.05-.12s0-.09,0-.11-.07-.07-.07-.1,0-.09,0-.11a1.9,1.9,0,0,0-.54-.65,2.38,2.38,0,0,1,.31-.4,1,1,0,0,1,.09-.18,1.5,1.5,0,0,0,.16-.44c0-.14,0-.31.07-.49s0-.17,0-.24,0-.16,0-.25.05-.26.05-.37,0-.28,0-.44a4.19,4.19,0,0,0,0-.65,3.07,3.07,0,0,1-.07-.42,2.85,2.85,0,0,1,0-.51c0-.14.09-.31,0-.47s-.09,0-.07-.09.07-.16.09-.28,0-.14,0-.26a3,3,0,0,0,0-.41l-.09-.33a1.42,1.42,0,0,1-.05-.16,2.85,2.85,0,0,1-.16-.3.19.19,0,0,1-.07-.19c0-.16.28-.09.37-.23,0,0,0,0,.07,0,.21,0,.39.11.6.11s.19,0,.3,0,.17,0,.26,0,.21-.09.33-.11.27,0,.39,0a.38.38,0,0,0,.19,0,.34.34,0,0,0,.16,0c.09,0,.18,0,.28,0l.51,0a2,2,0,0,0,.44.05,1.31,1.31,0,0,0,.28,0,10.22,10.22,0,0,0,1.09,0c.26,0,.54,0,.81,0a.57.57,0,0,0,.24.05.47.47,0,0,0,.23,0l.19,0a.1.1,0,0,1,.07,0s0,0,.06,0a2,2,0,0,0,.35-.09l.33,0a8.38,8.38,0,0,0,1.11.07A.72.72,0,0,1,91.52,104.68Z" fill="#323031"/><path d="M79.61,104.68c0,.35,0,.7,0,1a.32.32,0,0,1,0,.18.88.88,0,0,1-.09.26c0,.18,0,.35,0,.49a2,2,0,0,1-.23.76c-.07,0-.12,0-.16-.07s0,0-.07,0a.79.79,0,0,1-.19-.09.14.14,0,0,0-.07-.07.32.32,0,0,1-.12,0,.31.31,0,0,0-.16-.12,1.4,1.4,0,0,1-.25,0,2.91,2.91,0,0,1-.49-.05l-.23,0c-.12,0-.21,0-.31,0s-.25-.07-.34-.07-.26,0-.38,0a4.52,4.52,0,0,0-.81,0l-.14,0c-.14,0-.21-.09-.35-.07l0,0-.19,0a1.83,1.83,0,0,1-.6.12c-.07,0,0,.07-.07.11a.74.74,0,0,0-.12.37c0,.14.1.24.1.33s-.14.21-.14.37,0,.23.07.4,0,.48,0,.69-.05.23,0,.3,0,0,0,.07a.18.18,0,0,0,0,.1.21.21,0,0,0,.14.09c.1.05.21,0,.33,0s.51,0,.79,0a2.34,2.34,0,0,0,.32-.07,2,2,0,0,0,.54,0s.11,0,.18,0a2.83,2.83,0,0,0,.28-.07,3.45,3.45,0,0,0,.88-.07,2.27,2.27,0,0,1,.26-.12s.12,0,.14,0a.27.27,0,0,0,.16-.14c.07-.07.07-.14.14-.14s.14.1.16,0,0,.16,0,.23a4,4,0,0,1,0,.51c0,.14,0,.31,0,.44-.11.47,0,1.28,0,1.84a.78.78,0,0,1,0,.33s0,0,0,.07a.15.15,0,0,1-.09.11,1.16,1.16,0,0,1-.42-.14.27.27,0,0,1-.12-.07c-.07,0-.14,0-.19,0s-.32-.12-.48-.07c-.21-.16-.44-.09-.77-.07h-.21c-.07,0-.14,0-.19,0s-.23,0-.34,0l-.42,0c-.12,0-.21,0-.28,0a.82.82,0,0,0-.42.11c-.12,0-.14-.14-.28-.11s0,.16,0,.25-.14.35-.14.65a6.15,6.15,0,0,0,0,1c0,.11.07.23.07.34s0,.24,0,.35a2.67,2.67,0,0,0,0,.4h.35c.11,0,.21,0,.35,0h.25l1.12,0a4.32,4.32,0,0,1,.81,0c.07,0,.14,0,.23,0s.17,0,.28,0,.09,0,.16,0,0,0,.1,0a2.73,2.73,0,0,0,.51-.07,2.16,2.16,0,0,0,.74-.39c.05-.1.1-.17.21-.17s.07.19.07.31a7.18,7.18,0,0,1,0,1,2.67,2.67,0,0,1,0,.49v.25a1,1,0,0,1,.07.28,1.25,1.25,0,0,1,0,.42,1.79,1.79,0,0,1,0,.6c-.39,0-.81,0-1.23,0a.93.93,0,0,0-.23,0,3.48,3.48,0,0,0-.79,0s-.07,0-.1,0,0,0,0,0-.12,0-.16,0-.21,0-.31,0a3.22,3.22,0,0,0-.81,0s-.09,0-.14,0-.19-.07-.28-.07a1.63,1.63,0,0,0-.49,0c-.69,0-1.53,0-2.2,0a.54.54,0,0,0-.28,0,1.45,1.45,0,0,0-.35.07c-.07,0-.14,0-.21,0s-.14,0-.21,0a.92.92,0,0,0-.28,0,1.38,1.38,0,0,1-.46,0,.39.39,0,0,1,.09-.23s0-.09,0-.11,0,0,.07-.07,0-.12,0-.14a1.51,1.51,0,0,1,.14-.35s0,0,0,0v-.07s0-.05,0-.05v-.07a1,1,0,0,0,.07-.25c0-.09,0-.19,0-.28a4.18,4.18,0,0,0,0-.49.66.66,0,0,0-.07-.25c0-.1.09-.19.12-.28s0-.19,0-.28.07-.14.07-.21a3.23,3.23,0,0,0,0-.44,4.71,4.71,0,0,0,0-.65c0-.09-.07-.19-.07-.28s0-.14,0-.19V113a5.61,5.61,0,0,0,0-.58c0-.05,0-.07,0-.12s0-.09,0-.11-.07-.07-.07-.1,0-.09,0-.11a1.9,1.9,0,0,0-.54-.65,3,3,0,0,1,.3-.4s.05-.11.1-.18a1.85,1.85,0,0,0,.16-.44c0-.14,0-.31.07-.49s0-.17,0-.24,0-.16,0-.25,0-.26,0-.37,0-.28,0-.44a5.75,5.75,0,0,0,0-.65,3.07,3.07,0,0,1-.07-.42,4.26,4.26,0,0,1,0-.51c0-.14.1-.31,0-.47s-.1,0-.07-.09.07-.16.09-.28,0-.14,0-.26a2,2,0,0,0,0-.41,1.65,1.65,0,0,0-.09-.33s0-.12,0-.16-.12-.19-.17-.3a.24.24,0,0,1-.07-.19c.05-.16.28-.09.37-.23,0,0,0,0,.07,0,.21,0,.4.11.61.11s.18,0,.3,0,.16,0,.26,0,.21-.09.32-.11.28,0,.4,0a.32.32,0,0,0,.18,0,.43.43,0,0,0,.17,0c.09,0,.18,0,.27,0l.52,0a1.9,1.9,0,0,0,.44.05,1.31,1.31,0,0,0,.28,0,10.26,10.26,0,0,0,1.09,0c.25,0,.53,0,.81,0a.56.56,0,0,0,.23.05.52.52,0,0,0,.24,0l.18,0a.1.1,0,0,1,.07,0s0,0,.07,0a2.25,2.25,0,0,0,.35-.09l.32,0a8.42,8.42,0,0,0,1.12.07A.63.63,0,0,1,79.61,104.68Z" fill="#323031"/><path d="M52.88,107.63l-.14.07c-.09,0-.18,0-.28.09l-.07,0a1.17,1.17,0,0,1-.25.14.71.71,0,0,1-.31.09l-.2.14a.86.86,0,0,0-.24,0c-.09,0-.16.09-.25.12s-.21,0-.26.11-.25.12-.39.05,0-.28.07-.46a1.75,1.75,0,0,0-.17-.77.83.83,0,0,0-.3-.23c0-.14-.25-.1-.25-.28a3.09,3.09,0,0,1-.4-.14c-.12,0-.14.07-.23.07s-.19,0-.26,0-.14-.09-.21-.11c-.34,0-.62.09-1,.16a.47.47,0,0,0-.32.14c-.05,0-.05,0-.07.07l-.12,0a1.38,1.38,0,0,1-.28.31l-.13.07s0,.07-.1.09a1,1,0,0,0-.23.14.58.58,0,0,1-.07.21c0,.07,0,.14-.07.18s-.12.12-.16.19a.27.27,0,0,1,0,.11c0,.12-.14.28-.21.45a2.81,2.81,0,0,1-.07.37,5.86,5.86,0,0,0-.11.65,1.7,1.7,0,0,0,.18.49,2,2,0,0,0,.12.21c0,.07.09.09.11.13s0,0,0,0,.25.14.3.26-.16.14-.26.21-.2.25-.3.37a2.28,2.28,0,0,0-.21.44s0,.05,0,.07a2.08,2.08,0,0,0,0,.44.3.3,0,0,1,.07.19s0,.11,0,.21a.75.75,0,0,0,.09.32c.07,0,.12.23.17.35a1.5,1.5,0,0,0,.41.7.6.6,0,0,0,.31.39c.07.07.11.19.2.28s.07,0,.07,0,0,.05,0,.05.16,0,.23.09a2.93,2.93,0,0,1,.26.19l.25.07c.07,0,.14.07.21.09h.23c.1,0,.21,0,.33,0a2.48,2.48,0,0,0,.3-.07c.09,0,.21,0,.33,0s.07-.07.11-.07.12,0,.16,0a1.28,1.28,0,0,0,.24-.11h.16c.05,0,.07-.07.14-.12a.56.56,0,0,1,.14-.09s0-.07,0-.1,0,0,0,0,.12-.07.16-.11,0-.07,0-.12.05,0,.07-.07.07-.14.09-.21a1.38,1.38,0,0,0,.17-.74c0-.05,0-.1,0-.14a.61.61,0,0,1,0-.14c0-.1-.1-.19-.12-.26a.18.18,0,0,1,0-.09,1,1,0,0,0-.17-.3.7.7,0,0,0-.46-.14c-.26,0-.44,0-.58.16a1.11,1.11,0,0,0-.21.42c0,.16,0,.3,0,.46s-.14,0-.18-.07a0,0,0,0,0,0,0,.06.06,0,0,1,0,0s0,0,0,0-.14-.26-.26-.31a2.54,2.54,0,0,1-.27-.6.9.9,0,0,1-.12-.37c0-.14,0-.3-.05-.42a6,6,0,0,1,.12-.7c0-.16.21-.25.32-.39s.21-.26.31-.4.21,0,.23-.18a.23.23,0,0,0,.18,0,1.81,1.81,0,0,1,.61-.27c.19,0,.37,0,.58,0,.05,0,.12,0,.19,0l.32,0c.26,0,.56,0,.86,0l.26,0a.58.58,0,0,0,.18,0c.26,0,.54,0,.75,0,0,0,0,0,.09,0s.09,0,.12,0,0,0,.06,0a.15.15,0,0,0,.1,0,1.46,1.46,0,0,0,.3-.17,1.14,1.14,0,0,0,.28-.21.61.61,0,0,0,.21-.25c0-.16-.07-.28,0-.44a.64.64,0,0,1,.52.28.08.08,0,0,1,0,.07.08.08,0,0,0,0,0,.1.1,0,0,1,0,.07,1.87,1.87,0,0,1,.25.42s0,.09,0,.11.07,0,.07.07a1.64,1.64,0,0,1,.09.35,1,1,0,0,1,.1.33,5.83,5.83,0,0,1-.14,1.16c0,.07-.1.11-.14.16a1,1,0,0,1-.1.21c0,.07-.13.09-.2.19s-.1.14-.17.21a.81.81,0,0,0-.51.3c-.16,0-.25,0-.3.11s-.12-.07-.21,0,.07.26.07.42a1,1,0,0,1-.05.25c0,.17,0,.35,0,.56s0,.16,0,.23a2.94,2.94,0,0,1,0,.42c0,.12-.12.19-.14.31s0,.23,0,.32,0,.09-.07.14l-.07.14s0,.07,0,.09a1.14,1.14,0,0,1-.12.19c0,.16-.07.25-.16.37a1.34,1.34,0,0,0-.16.23s0,0,0,.05l-.14.16a1.89,1.89,0,0,1-.09.21c0,.07-.09.09-.14.16s-.14,0-.18.05A2.25,2.25,0,0,0,52,117a1.11,1.11,0,0,0-.11.16.83.83,0,0,1-.28.28h-.07s0,0,0,0-.28.09-.45.16a3.17,3.17,0,0,1-.58.25c-.14,0-.28,0-.39,0s-.21.14-.33.17a3.89,3.89,0,0,1-.44,0,2,2,0,0,1-.39,0,.76.76,0,0,1-.24-.07c-.11,0-.14.07-.2.07a2.92,2.92,0,0,1-.79-.05.86.86,0,0,1-.24,0l-.3-.1c-.09,0-.21,0-.32,0s-.19-.14-.28-.18a1.09,1.09,0,0,1-.31,0c-.09,0-.14-.16-.23-.21l-.18-.07a2.86,2.86,0,0,0-.47-.25s0-.07,0-.14a.4.4,0,0,1-.21-.09c0-.1-.09-.19-.14-.28s-.21-.1-.33-.14-.07-.12-.16-.14a.47.47,0,0,0-.18-.12.91.91,0,0,0-.12-.28.14.14,0,0,0,0-.09l0,0c-.07-.14-.28-.21-.35-.35s0-.26-.14-.33c0-.23-.12-.3-.21-.41s0,0,0-.07a1.59,1.59,0,0,1-.14-.26,1.8,1.8,0,0,0-.21-.56c0-.11.07-.14,0-.23a.68.68,0,0,0-.16-.33,1.21,1.21,0,0,0-.14-.51c0-.14,0-.37-.07-.58s-.09-.25-.11-.35a1.58,1.58,0,0,0-.24-.53s0,0,0,0,0,0,0-.07S42,111,42,110.93s.23-.24.32-.38,0,0,0,0,0-.05,0-.07.05-.19.09-.3a1.07,1.07,0,0,0,.12-.24,2,2,0,0,0,.14-.55,2.46,2.46,0,0,1,0-.49s0,0,0-.07v-.09c.07-.26.12-.61.21-.89l.05-.07v-.09c0-.07.09-.12.11-.19v-.06a.63.63,0,0,0,.1-.12c.07-.12.11-.28.18-.4s.17-.23.23-.34.12-.28.19-.4a1.56,1.56,0,0,0,.37-.28c0-.39.4-.53.56-.79.21,0,.28-.18.42-.25s.18,0,.25-.07.05-.12.12-.12a1.65,1.65,0,0,1,.33-.09c.09-.17.13-.26.34-.33l.19,0c.23-.07.51-.14.74-.19a3,3,0,0,1,.7-.12c.14,0,.33,0,.49,0s.11,0,.21,0a1.8,1.8,0,0,1,.46,0,1.5,1.5,0,0,1,.3,0,.91.91,0,0,1,.26,0,1.06,1.06,0,0,1,.26,0s.09,0,.16.07a2.38,2.38,0,0,1,.49,0c.09,0,.14.11.23.16a.18.18,0,0,1,.09,0s0,0,.07,0a3,3,0,0,1,.47.18c.07,0,.07.07.11.12s0,0,0,0a.46.46,0,0,0,.32.12,1.9,1.9,0,0,1,.33.3c.12.09.21.21.33.3s0,.14,0,.21.19,0,.23.12A1.48,1.48,0,0,1,53,106c.07.12.12.31.24.4-.05.07,0,.16,0,.21a2.53,2.53,0,0,0,.09.39.18.18,0,0,1,0,.07.38.38,0,0,1,0,.4A4.48,4.48,0,0,0,52.88,107.63Z" fill="#323031"/><path d="M143.64,110.8c0,.09,0,.21,0,.28a1.61,1.61,0,0,0-.07.25,3.37,3.37,0,0,0,0,.84,1.94,1.94,0,0,0,.14.51,4,4,0,0,0,.25.51,1.78,1.78,0,0,0,.45.63c.07.14.09.32.25.32s.14-.18.14-.32v-.44c0-.1-.07-.19-.09-.28a1.94,1.94,0,0,1,0-.4c0-.09.05-.18.05-.25s0-.21,0-.35,0-.23,0-.37-.05-.21-.05-.33,0-.28,0-.42a8.5,8.5,0,0,1,0-1c0-.07.05-.14.05-.23s0-.16,0-.28a5.79,5.79,0,0,1,0-1c0-.38,0-.75,0-1.07,0-.1.05-.19.05-.28a1,1,0,0,0-.07-.23,1.51,1.51,0,0,1,0-.26,1.28,1.28,0,0,1,.09-.35,2.07,2.07,0,0,0,0-.3,3.27,3.27,0,0,0-.09-.56c0-.09-.05-.16-.07-.23s0-.09-.07-.14,0-.16-.09-.23a1.11,1.11,0,0,1-.12-.16s0-.07,0-.1-.34-.25-.34-.46.16-.07.3-.07a.88.88,0,0,1,.55.07,2.33,2.33,0,0,1,.59,0c.9,0,1.85,0,2.69,0,0,.1-.07.14-.11.24s-.12.3-.19.46a1,1,0,0,0-.07.68,2.19,2.19,0,0,0-.09,1,1.52,1.52,0,0,1,.09.28,3,3,0,0,1,0,.44c0,.12,0,.26,0,.37a4.07,4.07,0,0,1,0,.7c0,.23-.07.47-.05.65a.25.25,0,0,0,0,.12s0,0,0,.09c.05.23,0,.44,0,.63a7.51,7.51,0,0,0,.26.76,2.77,2.77,0,0,0,.3.4c0,.09-.07.14-.12.19a.73.73,0,0,1-.14.16,1.74,1.74,0,0,1-.11.18.88.88,0,0,1-.12.19.41.41,0,0,1,0,.16s-.05.1-.05.12a6.1,6.1,0,0,1,0,.74c0,.05,0,.12,0,.19s0,.25,0,.42,0,.23,0,.37c0,.42,0,.86,0,1.23,0,.12-.09.23-.09.35s.09.21.09.3a5.45,5.45,0,0,1,0,.7.78.78,0,0,1,.07.25c0,.12,0,.24,0,.35s.07.16.09.26,0,.25,0,.37a1.82,1.82,0,0,0,.11.3.08.08,0,0,1,0,0s.07.07,0,.09-.23.07-.41.12c0,0,0,0-.12,0l-.12,0a.88.88,0,0,1-.23,0l-.11,0c-.19,0-.38.07-.56.07s-.42-.12-.63-.14a.89.89,0,0,1-.23,0,.46.46,0,0,1-.16-.07l-.14-.1c-.07,0-.19,0-.28,0s-.21-.16-.44-.11-.26-.31-.47-.4-.18,0-.28,0-.16-.14-.23-.18a.43.43,0,0,1-.21-.28c-.16-.07-.21-.23-.39-.28a.83.83,0,0,0-.28-.28.77.77,0,0,0-.56-.53,4.59,4.59,0,0,0-.21-.44c-.07-.1-.14-.17-.19-.26a2.22,2.22,0,0,1-.09-.28c-.05-.09-.14-.19-.18-.28s-.07,0-.07,0-.05-.19-.12-.21a1.4,1.4,0,0,0-.09-.31,1.48,1.48,0,0,1-.1-.27c0-.07,0-.14-.07-.19-.14-.21-.37-.28-.48-.49s-.33-.23-.52-.32c0-.1-.16,0-.16-.1a2,2,0,0,0,.1-.32.66.66,0,0,0,.09-.28,3.18,3.18,0,0,0,0-1,1.48,1.48,0,0,0-.16-.38c0-.11-.09-.25-.12-.39a1,1,0,0,0,0-.3.55.55,0,0,0-.21-.3c0-.26-.16-.33-.16-.59-.07,0-.12-.06-.21,0s0,0,0,0,0,0-.11,0c0,.16.05.32.05.51a3.38,3.38,0,0,1-.07.63c0,.21,0,.42,0,.62,0,.59,0,1.38,0,2a3.1,3.1,0,0,1-.1,1.07,1.41,1.41,0,0,1,.07.69c0,.09,0,.19,0,.28s0,.14,0,.23a3.74,3.74,0,0,1,0,.77c0,.21.09.44.11.67a5.44,5.44,0,0,0,.19.75c0,.07.07.14.12.21a.18.18,0,0,1,0,.09c.12.14.31.21.31.39s-.31.07-.47.07a4.29,4.29,0,0,1-.81,0,6.59,6.59,0,0,0-.77,0c-.07,0-.16,0-.23,0a4.26,4.26,0,0,1-.47,0,3.23,3.23,0,0,1-.44,0c-.09,0-.18,0-.28,0s-.41.12-.62,0a1.92,1.92,0,0,1,.14-.49c0-.11,0-.23,0-.35a3.11,3.11,0,0,0,.12-.39s0-.12,0-.16a8.36,8.36,0,0,0,0-1.33c0-.18,0-.37,0-.53V114c0-.12,0-.26,0-.35s0-.18,0-.25a.89.89,0,0,1,.07-.26,2.43,2.43,0,0,1,0-.72,1.27,1.27,0,0,0-.1-.63.74.74,0,0,1-.16-.18s0,0,0,0l-.12-.16s-.09-.07-.11-.12a.45.45,0,0,1-.1-.14c-.07-.07-.21-.11-.21-.25a.26.26,0,0,1,.19-.1,2.08,2.08,0,0,0,.63-1.09c0-.07,0-.14,0-.21a1.77,1.77,0,0,0,0-.39c0-.12-.07-.26,0-.35a.54.54,0,0,1-.09-.26c0-.09.07-.16.09-.28a1.3,1.3,0,0,0,0-.34s0,0,0-.1-.09-.16-.09-.25,0-.17,0-.26a8.45,8.45,0,0,0-.07-2.07,1.74,1.74,0,0,0-.14-.48,1.6,1.6,0,0,0-.2-.42c0-.1-.14-.17-.12-.28a.61.61,0,0,1,.35,0,.93.93,0,0,1,.23,0c.07,0,.14,0,.21,0l.19,0,.2,0c.07,0,.14,0,.19,0a.88.88,0,0,1,.3.07c.24,0,.44,0,.65,0a1.09,1.09,0,0,1,.24.07.89.89,0,0,1,.32,0,.49.49,0,0,1,.21.14,1.63,1.63,0,0,1,.37.07.66.66,0,0,1,.26.14c.11.07.16.17.28.26s.16.11.25.14a.63.63,0,0,1,.12.18.8.8,0,0,1,.23.1c0,.07.12.14.16.21a.86.86,0,0,0,.42.32c.07.07.12.21.21.3s0,0,0,.07.18.35.3.51a.08.08,0,0,0,0,.07,1,1,0,0,1,.12.14.58.58,0,0,0,.21.31c0,.14.11.25.18.39a.24.24,0,0,0,0,.14s.07.12.09.19a.22.22,0,0,0,0,.11c.07.16.26.23.33.4s0,.21,0,.3a.92.92,0,0,0,.14.28,2.79,2.79,0,0,1,.12.35,4.47,4.47,0,0,0,.19.46.58.58,0,0,0,.09.23,1.25,1.25,0,0,0,.46.42c.05,0,.1.1.12.1a1.5,1.5,0,0,1,.35.09C143.75,110.59,143.66,110.7,143.64,110.8Z" fill="#323031"/><path d="M102.5,110.8c0,.09,0,.21,0,.28a1,1,0,0,0-.07.25,3,3,0,0,0,0,.84,1.94,1.94,0,0,0,.14.51,4,4,0,0,0,.25.51,1.75,1.75,0,0,0,.44.63c.07.14.1.32.26.32s.14-.18.14-.32v-.44c0-.1-.07-.19-.09-.28a1.94,1.94,0,0,1,0-.4c0-.09,0-.18,0-.25s0-.21,0-.35,0-.23,0-.37,0-.21,0-.33,0-.28,0-.42a8.5,8.5,0,0,1,0-1c0-.07,0-.14,0-.23s0-.16,0-.28a5.79,5.79,0,0,1,0-1c0-.38,0-.75,0-1.07,0-.1,0-.19,0-.28a1,1,0,0,0-.07-.23,1.66,1.66,0,0,1,0-.26,1.29,1.29,0,0,1,.1-.35,2.07,2.07,0,0,0,0-.3,4.68,4.68,0,0,0-.09-.56l-.07-.23a.91.91,0,0,1-.07-.14c0-.09,0-.16-.1-.23a1.11,1.11,0,0,1-.11-.16s0-.07-.05-.1-.35-.25-.35-.46.17-.07.3-.07a.92.92,0,0,1,.56.07,2.24,2.24,0,0,1,.58,0c.91,0,1.86,0,2.7,0,0,.1-.07.14-.12.24s-.11.3-.18.46a.9.9,0,0,0-.07.68,2.19,2.19,0,0,0-.1,1,1,1,0,0,1,.1.28,3,3,0,0,1,0,.44c0,.12,0,.26,0,.37a3.26,3.26,0,0,1,0,.7,5.25,5.25,0,0,0,0,.65.25.25,0,0,0,0,.12s0,0,0,.09c0,.23,0,.44,0,.63a5.65,5.65,0,0,0,.26.76,2.19,2.19,0,0,0,.3.4c0,.09-.07.14-.12.19a.73.73,0,0,1-.14.16l-.11.18c0,.07-.1.14-.12.19a.41.41,0,0,1,0,.16s0,.1,0,.12c0,.23,0,.51,0,.74,0,.05,0,.12,0,.19s0,.25,0,.42,0,.23,0,.37c0,.42,0,.86,0,1.23,0,.12-.09.23-.09.35s.09.21.09.3a5.45,5.45,0,0,1,0,.7,1.17,1.17,0,0,1,.07.25c0,.12,0,.24,0,.35s.07.16.1.26,0,.25,0,.37a1.88,1.88,0,0,0,.12.3.08.08,0,0,1,0,0s.07.07,0,.09-.23.07-.42.12c0,0,0,0-.11,0l-.12,0a.88.88,0,0,1-.23,0l-.12,0c-.18,0-.37.07-.55.07s-.42-.12-.63-.14a.89.89,0,0,1-.23,0,.61.61,0,0,1-.17-.07l-.14-.1c-.07,0-.18,0-.28,0s-.2-.16-.44-.11-.25-.31-.46-.4-.19,0-.28,0-.16-.14-.23-.18a.4.4,0,0,1-.21-.28c-.16-.07-.21-.23-.4-.28a31.32,31.32,0,0,0-.83-.81,4.59,4.59,0,0,0-.21-.44c-.07-.1-.14-.17-.19-.26a1.28,1.28,0,0,1-.09-.28c0-.09-.14-.19-.19-.28s-.07,0-.07,0,0-.19-.11-.21a1,1,0,0,0-.1-.31,1.43,1.43,0,0,1-.09-.27.64.64,0,0,1-.07-.19c-.14-.21-.37-.28-.49-.49s-.32-.23-.51-.32c0-.1-.16,0-.16-.1a1.28,1.28,0,0,0,.09-.32.55.55,0,0,0,.09-.28,2.92,2.92,0,0,0,0-1,1.48,1.48,0,0,0-.16-.38,3,3,0,0,1-.12-.39,1.5,1.5,0,0,0,0-.3.61.61,0,0,0-.21-.3c0-.26-.16-.33-.16-.59-.07,0-.12-.06-.21,0s0,0,0,0,0,0-.11,0c0,.16,0,.32,0,.51a2.26,2.26,0,0,1-.07.63c0,.21,0,.42,0,.62,0,.59,0,1.38,0,2a3.1,3.1,0,0,1-.09,1.07,1.54,1.54,0,0,1,.07.69c0,.09,0,.19,0,.28s0,.14,0,.23a3.74,3.74,0,0,1,0,.77c0,.21.09.44.11.67a5.44,5.44,0,0,0,.19.75l.11.21a.14.14,0,0,1,.05.09c.12.14.3.21.3.39s-.3.07-.46.07a4.36,4.36,0,0,1-.81,0,6.59,6.59,0,0,0-.77,0c-.07,0-.16,0-.23,0a4.07,4.07,0,0,1-.47,0,3.23,3.23,0,0,1-.44,0c-.09,0-.19,0-.28,0s-.42.12-.63,0a2.43,2.43,0,0,1,.14-.49c0-.11,0-.23,0-.35s.09-.2.12-.39,0-.12,0-.16a8.36,8.36,0,0,0,0-1.33c0-.18,0-.37,0-.53V114c0-.12,0-.26,0-.35s0-.18,0-.25a.66.66,0,0,1,.07-.26,2.41,2.41,0,0,1,0-.72,1.4,1.4,0,0,0-.09-.63.74.74,0,0,1-.16-.18s0,0,0,0a.92.92,0,0,1-.12-.16s-.09-.07-.12-.12a.42.42,0,0,1-.09-.14c-.07-.07-.21-.11-.21-.25a.24.24,0,0,1,.19-.1,2.07,2.07,0,0,0,.62-1.09c0-.07,0-.14,0-.21a1.87,1.87,0,0,0,0-.39c0-.12-.07-.26,0-.35a.45.45,0,0,1-.09-.26c0-.09.07-.16.09-.28a1.94,1.94,0,0,0,0-.34s0,0,0-.1-.09-.16-.09-.25,0-.17,0-.26a8.45,8.45,0,0,0-.07-2.07,1.74,1.74,0,0,0-.14-.48,1.38,1.38,0,0,0-.21-.42c0-.1-.14-.17-.11-.28a.6.6,0,0,1,.35,0,.93.93,0,0,1,.23,0c.07,0,.14,0,.21,0l.18,0,.21,0c.07,0,.14,0,.19,0a.94.94,0,0,1,.3.07c.23,0,.44,0,.65,0a1,1,0,0,1,.23.07,1,1,0,0,1,.33,0,.49.49,0,0,1,.21.14,1.74,1.74,0,0,1,.37.07.56.56,0,0,1,.25.14c.12.07.17.17.28.26s.17.11.26.14a.94.94,0,0,1,.12.18.8.8,0,0,1,.23.1c0,.07.11.14.16.21a.86.86,0,0,0,.42.32c.07.07.11.21.21.3a.1.1,0,0,0,0,.07c.1.12.19.35.31.51a.08.08,0,0,0,0,.07s.07.07.12.14a.62.62,0,0,0,.2.31c0,.14.12.25.19.39a.34.34,0,0,0,0,.14s.07.12.1.19a.22.22,0,0,0,0,.11c.07.16.26.23.33.4s0,.21,0,.3a.92.92,0,0,0,.14.28,2.79,2.79,0,0,1,.12.35,2.92,2.92,0,0,0,.18.46.8.8,0,0,0,.1.23,1.25,1.25,0,0,0,.46.42c.05,0,.09.1.12.1a1.64,1.64,0,0,1,.35.09C102.62,110.59,102.53,110.7,102.5,110.8Z" fill="#323031"/><path d="M119.08,110.36a4.67,4.67,0,0,1-.14.67,1,1,0,0,1-.06.14s0,.11,0,.16a.46.46,0,0,1-.07.14c0,.07,0,.12,0,.16s-.07.1-.09.14,0,.17-.1.21-.11.16-.16.21,0,0,0,0a1.11,1.11,0,0,0-.19.18c-.07.1,0,.24-.09.33s-.07,0-.09.09,0,0,0,.07a6.94,6.94,0,0,0-.56.54.2.2,0,0,0-.2.11c-.28,0-.33.19-.42.35a.58.58,0,0,0-.35.19,1.15,1.15,0,0,1-.28.11,2.92,2.92,0,0,0-.44.19,1.62,1.62,0,0,0-.35.09s-.07.05-.07.05-.07,0-.09,0a.17.17,0,0,0-.14.07,1.37,1.37,0,0,0-.35,0,.64.64,0,0,0-.19.07.26.26,0,0,0-.11,0,.54.54,0,0,1-.37,0c-.1,0-.17.1-.28.14a.32.32,0,0,0-.14,0s-.05,0-.1,0-.18-.07-.3,0,0,.21-.07.35a.65.65,0,0,1,0,.2,1.61,1.61,0,0,1,0,.31,3.78,3.78,0,0,0,0,.51c0,.18.1.3.14.46a1.84,1.84,0,0,1,.09.33,2,2,0,0,0,.1.23s0,0,0,.05.17.32.28.49.19.09.12.2-.28,0-.44,0a.85.85,0,0,1-.23,0l-.19,0-.16,0a3.74,3.74,0,0,1-.61,0l-.14,0c-.07,0-.14,0-.21,0a6,6,0,0,0-.76-.07,1.45,1.45,0,0,1-.56,0,2.65,2.65,0,0,0-.4,0,.93.93,0,0,1-.23,0c0-.12.07-.19.1-.3s0-.19,0-.28a2.2,2.2,0,0,0,.09-.21v-.14s0-.07,0-.09,0-.19,0-.26.07-.19.09-.28a1.27,1.27,0,0,0,0-.35c0-.07,0-.16,0-.23s.05-.14.05-.21,0-.37,0-.58v-.58c0-.16,0-.33,0-.47s.05-.21.05-.3a2.89,2.89,0,0,0-.07-.44c0-.44.07-.77,0-1.12a1.44,1.44,0,0,0-.14-.37,2.9,2.9,0,0,0-.39-.55,1,1,0,0,1-.23-.19c0-.09.14-.12.21-.19a1,1,0,0,0,.28-.35,2.13,2.13,0,0,0,.11-.37,5.57,5.57,0,0,0,.16-.83c0-.12-.07-.14-.09-.26s0-.23.07-.37,0-.49,0-.77,0-.51,0-.74-.07-.28-.07-.4,0-.23,0-.32a3.06,3.06,0,0,0-.1-.51c0-.19,0-.37,0-.54a2.3,2.3,0,0,0-.16-.6l-.1-.28a.76.76,0,0,1-.09-.28c.16-.12.56,0,.77-.12a.1.1,0,0,1,.07,0c.32.11.67,0,1,0,.09,0,.18.07.27.09s.35-.07.56-.09a.69.69,0,0,1,.35,0,1.45,1.45,0,0,1,.49.07,1.55,1.55,0,0,1,.32,0s.07,0,.12.07l.28,0c.09,0,.16,0,.23,0a1.38,1.38,0,0,1,.51,0s.07,0,.1.05a.22.22,0,0,1,.11,0s.09,0,.16.07.19,0,.28,0,.19.07.33.11a.18.18,0,0,1,.11,0,1,1,0,0,0,.45.11,1,1,0,0,0,.37.21c.09.12.25.14.37.21a.5.5,0,0,1,.14.12.46.46,0,0,1,.07.07s.07,0,.09,0a1.21,1.21,0,0,0,.28.21,1.48,1.48,0,0,0,.28.35s.07,0,.12.07a.11.11,0,0,0,0,.07,2.76,2.76,0,0,1,.21.25,1,1,0,0,0,.11.23s0,0,0,0,0,0,.07.09a.89.89,0,0,1,.14.49c0,.07.07,0,.09.07s0,.1,0,.16.09.26.19.35v.21a5.17,5.17,0,0,1,.18.51.9.9,0,0,0,.12.24,1.68,1.68,0,0,0,.21.37.86.86,0,0,0,.16.18l0,0h.05c0,.05,0,.14.09.14A2,2,0,0,0,119.08,110.36Zm-2.67-1a1.57,1.57,0,0,0,0-.53c0-.09-.07-.19-.09-.3a1.21,1.21,0,0,1-.09-.31s-.07-.07-.07-.11a1.42,1.42,0,0,1,0-.16,1.45,1.45,0,0,0-.14-.28,1.16,1.16,0,0,0-.39-.26.6.6,0,0,1-.14-.07.1.1,0,0,1,0-.07s-.07,0-.09,0a.3.3,0,0,1-.12-.14,1,1,0,0,0-.16-.09c-.14,0-.33,0-.44,0l-.26-.11s0,0,0,0h-.07a1.26,1.26,0,0,0-.47-.07,7.4,7.4,0,0,0-.74,0,6.73,6.73,0,0,0,0,1.09,1.45,1.45,0,0,1,0,.28v.25a1.53,1.53,0,0,0,0,.35,1.16,1.16,0,0,1,.07.56c0,.16-.09.33-.09.46s0,.07,0,.12,0,.14,0,.16a.82.82,0,0,1,0,.4,2.16,2.16,0,0,0,0,.44,7.39,7.39,0,0,0,.09,1.16c.28,0,.49.09.72,0s.16-.07.23-.09a.56.56,0,0,0,.23,0h.24c.14-.11.37-.14.49-.3.09,0,.13-.09.23-.16s.16-.07.25-.14.17-.23.3-.33a.41.41,0,0,1,.1-.21c0-.07.09-.11.14-.18a.3.3,0,0,1,0-.12,1.43,1.43,0,0,0,.07-.37,1,1,0,0,0,.26-.33c0-.14-.1-.14-.07-.25A2.26,2.26,0,0,0,116.41,109.4Z" fill="#323031"/><path d="M68.07,109c-.14.17-.31.28-.45.45,0,0,0,0,0,.07s0,0,0,0a2.74,2.74,0,0,0-.11.28s0,0,0,0a3.14,3.14,0,0,1-.58,1,1.58,1.58,0,0,1,0,.25,1.94,1.94,0,0,1-.2.33s0,.09,0,.11a.1.1,0,0,1-.07,0s-.07.14-.14.14c-.07.16-.16.32-.35.35a.59.59,0,0,1-.37.32c0,.1-.07.12-.12.19s-.18.09-.21.21-.09,0-.09.14.09.14.19.18,0,.12,0,.17a.69.69,0,0,1,.16.28s0,.09.07.13a.63.63,0,0,1,.1.12s0,.09,0,.14a1.72,1.72,0,0,1,.09.19s0,0,0,.09.14.16.18.28.07.32.14.46a.92.92,0,0,0,.26.26,2.6,2.6,0,0,0,.26.49,3.47,3.47,0,0,0,.27.46s0,.09,0,.16.14.12.18.19l0,.07a.37.37,0,0,0,.14.14c0,.18.2.3.3.44s.07.28.23.33a.73.73,0,0,0,.19.23c.07.07.16.14.18.23-.14,0-.28,0-.42,0s-.14.07-.23.07a3.53,3.53,0,0,1-.86,0c-.07,0-.11,0-.18,0a2.42,2.42,0,0,0-.38,0c-.11,0-.21.07-.3.07a2.62,2.62,0,0,1-.56,0c-.07,0-.16-.07-.23-.07a.53.53,0,0,0-.28.07c-.14-.09-.25,0-.37,0a3,3,0,0,0,0-.69.61.61,0,0,0-.07-.14c-.06-.12-.09-.28-.16-.4s-.07,0-.09-.09a.78.78,0,0,0,0-.14,1.28,1.28,0,0,0-.14-.23c0-.58-.44-.61-.44-1.12,0-.07-.11-.11-.14-.16a1.6,1.6,0,0,0-.11-.19,1.1,1.1,0,0,1-.26-.35.94.94,0,0,1-.26,0c-.11,0-.18-.11-.25-.14a4.07,4.07,0,0,0-.65.35l-.26.16s0,0-.09,0-.14.12-.23.19l-.14.11a6,6,0,0,0-.07.63c0,.07,0,.12,0,.16s0,.14,0,.21a4.69,4.69,0,0,0,0,.65.55.55,0,0,1,0,.19,1.63,1.63,0,0,0,.35.79c0,.07.16,0,.14.16s-.1.07-.14.07a4.71,4.71,0,0,1-1,0c-.19,0-.4,0-.61,0-.72,0-1.41,0-2.09,0a1.17,1.17,0,0,1,.23-.49c0-.11.07-.21.1-.32a.61.61,0,0,0,0-.19c0-.07,0-.09,0-.14s0-.18,0-.28.07-.18.09-.28a1.14,1.14,0,0,0,0-.32,2,2,0,0,0,.07-.44,2.45,2.45,0,0,0,0-.47c0-.11,0-.21,0-.3s0-.46,0-.67a3.12,3.12,0,0,0,.05-.4c0-.18-.07-.35-.07-.56a8.18,8.18,0,0,0,.07-1,1.91,1.91,0,0,0-.05-.21.14.14,0,0,1-.07-.07c0-.07,0-.14-.07-.21a6,6,0,0,0-.46-.53c0-.12.09-.07.09-.19a3.75,3.75,0,0,0,.32-.6,1.84,1.84,0,0,0,.14-.56.51.51,0,0,0,0-.21,1.35,1.35,0,0,0,.07-.46c0-.07-.05-.17-.05-.26,0-.3,0-.63,0-.93s0-.42,0-.67c0-.07-.05-.12-.05-.19a4.18,4.18,0,0,1,0-.51c0-.05,0-.09,0-.14a1.76,1.76,0,0,0,0-.56.71.71,0,0,1-.07-.18.74.74,0,0,0,0-.21.54.54,0,0,0-.07-.19c-.07-.18-.1-.39-.17-.58a.34.34,0,0,0-.09-.18c0-.07-.09-.12-.07-.19s.26-.09.37-.09a2.89,2.89,0,0,1,.49-.07c.21,0,.42,0,.63,0a2.26,2.26,0,0,1,.37,0l.16,0a1.89,1.89,0,0,1,.38.05c.11,0,.23,0,.32-.05a.54.54,0,0,0,.47.07s.07,0,.11,0,.42,0,.63,0a1.61,1.61,0,0,1,.37,0l.21,0,.7.07a.32.32,0,0,1,.16,0s0,0,.09,0a.16.16,0,0,1,.1,0l.18.07a.75.75,0,0,1,.26,0,.68.68,0,0,1,.23.07,3,3,0,0,1,.42.14l.21.07c.07,0,.14,0,.21,0a1.9,1.9,0,0,1,.3.11c.16.07.32.19.51.28s.23.07.28.12.21.3.32.44a.56.56,0,0,0,.21,0,.93.93,0,0,0,.35.33.37.37,0,0,0,.19.32.39.39,0,0,0,0,.17c0,.09.12.11.16.18s.17.4.24.61a1.92,1.92,0,0,1,.09.32,1.07,1.07,0,0,0,.07.33.9.9,0,0,0,.28.35,2,2,0,0,0,.42.41s.11,0,.11.1S68.16,109,68.07,109Zm-5.95,2.68,0-.05.21-.14s.1,0,.14,0,.05,0,.09,0a.58.58,0,0,0,.21-.07s.07-.07.1-.09a.08.08,0,0,0,.07,0,1,1,0,0,1,.09-.14.48.48,0,0,1,.37-.16c.09-.14.28-.21.35-.4a.84.84,0,0,1,.19-.14.58.58,0,0,1,.09-.27c.07-.12.23-.19.28-.33s0-.16,0-.28.12-.16.14-.25a1,1,0,0,1,0-.24.18.18,0,0,1,0-.11c0-.19,0-.26,0-.42a1.31,1.31,0,0,1,0-.28c0-.16-.18-.3-.16-.49-.28-.14-.37-.46-.74-.51a1.33,1.33,0,0,0-.1-.11s0,0,0,0L63.3,107c-.11,0-.21-.12-.32-.12a1,1,0,0,1-.31,0c-.09,0-.13-.09-.2-.11s-.45-.07-.7,0c-.05,0-.12,0-.19,0a3.21,3.21,0,0,0-.53,0,1,1,0,0,0-.09.65c0,.28,0,.54,0,.84s0,.9,0,1.3a.45.45,0,0,1,0,.25.92.92,0,0,1-.05.26c0,.09,0,.19,0,.26a.7.7,0,0,1,0,.25c0,.12.09.19.09.28a.85.85,0,0,1,0,.39.77.77,0,0,1-.06.24.8.8,0,0,0,.09.53c.32.07.53-.16.74-.28A1.42,1.42,0,0,0,62.12,111.68Z" fill="#323031"/><path d="M95.84,88.83c0,.12-.07.14-.12.24s0,.09,0,.13-.07.24-.09.35a1.82,1.82,0,0,1,0,.33c0,.16-.24.25-.17.44s-.14.16-.18.26-.05.25-.14.34L95,91l-.11.16a1.46,1.46,0,0,1-.28.21s-.1,0-.07.09.09,0,.11.07v0l.17,0a.08.08,0,0,0,0,0,.94.94,0,0,0,.3.07c.09.19.35.21.4.42.14,0,.21.16.32.23s.12.07.16.16a3.55,3.55,0,0,0,.35.54,4.28,4.28,0,0,0,.17.46c0,.05,0,.1,0,.14a2.21,2.21,0,0,0,.11.21s.07,0,.07.07,0,.16.05.26.07.11.09.16.1.14.14.21a.3.3,0,0,1,.07.11s.17.12.19.21-.12.19-.16.28-.07.19-.12.28a.16.16,0,0,1,0,.09s0,0-.07.07a.16.16,0,0,1,0,.1.74.74,0,0,0-.14.42c-.11.11-.09.3-.16.46l0,0a.94.94,0,0,1-.12.28l-.07.07c-.07.13-.12.27-.21.41a.08.08,0,0,1,0,.07l-.05,0s0,.09,0,.11l-.07.1a1.45,1.45,0,0,1-.41.41.17.17,0,0,0-.14,0c-.14.09-.19.23-.35.32a1.08,1.08,0,0,1-.21,0s-.07.05-.07.05-.09,0-.12,0-.09.11-.14.16l-.14.14-.25,0a1.21,1.21,0,0,0-.35.07l-.07,0s-.07.07-.14.1a3.45,3.45,0,0,1-.56.09s-.07,0-.09,0,0,0-.09,0a.54.54,0,0,1-.19.05,3.93,3.93,0,0,1-.49,0,13.25,13.25,0,0,1-1.44,0c-.88,0-1.72,0-2.55,0l-.38,0a1.09,1.09,0,0,1-.25,0c-.44,0-.88,0-1.3,0,0-.07,0-.14,0-.16s0-.14,0-.23a1.06,1.06,0,0,0,.16-.3,4.41,4.41,0,0,0,.12-1,3.77,3.77,0,0,0,0-.47,3.39,3.39,0,0,1,0-.46,1.41,1.41,0,0,0,.07-.3,4.5,4.5,0,0,0-.07-.63c0-.14,0-.28,0-.42a4.35,4.35,0,0,0,0-.51c0-.19,0-.37,0-.51a1.14,1.14,0,0,0,0-.33,1.35,1.35,0,0,0-.16-.67,1.65,1.65,0,0,0-.23-.33,1.5,1.5,0,0,1-.23-.3,1.56,1.56,0,0,0-.19-.14s-.16,0-.14-.16a.62.62,0,0,1,.23-.12c0-.14.21-.23.3-.37a.07.07,0,0,0,0-.07,2.75,2.75,0,0,0,.21-.39,1.86,1.86,0,0,0,.21-.49,2.51,2.51,0,0,0,0-.37c0-.26,0-.56,0-.89,0-.07,0-.14,0-.21,0-.46,0-1,0-1.53v-.37a1.57,1.57,0,0,0-.07-.54,5.13,5.13,0,0,0-.21-.74l-.07-.14c0-.07,0-.14,0-.16s-.09-.12-.11-.19-.14,0-.14-.14.09-.07.18-.09,0-.05,0-.05c.21,0,.49,0,.72,0,0,0,0,0,0,0a0,0,0,0,1,0,0l.18,0,1.14,0s0,0,0,0l.12,0c.2,0,.41,0,.6,0s.28,0,.39,0l.35,0c.58,0,1.35,0,2,0a5.67,5.67,0,0,1,.79.19,3.43,3.43,0,0,1,.44.09.88.88,0,0,1,.26.1l.25.11a.67.67,0,0,1,.19.12l.26.14s0,0,.07.07.07,0,.11,0,0,0,.07.07a.4.4,0,0,1,.19.12s0,0,0,0a.09.09,0,0,0,0,.07c0,.05.14.12.18.16s0,0,.07,0,0,0,0,.07.07,0,.09.07,0,0,0,.07l.14.11a1.09,1.09,0,0,0,.14.31,1.42,1.42,0,0,0,0,.16s0,0,0,.07.12.21.19.32.07.07.09.12,0,.12.07.14.3.23.4.39S95.88,88.76,95.84,88.83Zm-5,2c.12,0,.23-.07.35-.09a1.12,1.12,0,0,0,.26,0c.09,0,.18-.07.3-.11s.11,0,.16-.05a2.33,2.33,0,0,0,.7-.42.92.92,0,0,1,.14-.3.15.15,0,0,1,0-.09s0-.05,0-.07a.88.88,0,0,0,.07-.49V89c0-.07-.1-.12-.12-.16a.11.11,0,0,1,0-.07c-.07-.07-.17-.12-.21-.19l-.19-.18-.11-.07a.29.29,0,0,1-.1-.12,1.07,1.07,0,0,1-.37-.12c-.07,0-.14,0-.21,0a1.57,1.57,0,0,0-.18-.07l-.26,0c-.09,0-.16,0-.23,0a2.8,2.8,0,0,0-.49,0,2.08,2.08,0,0,0-.44,0,2.56,2.56,0,0,1-.26.09c-.09,0-.16,0-.28,0s0,.19,0,.28,0,.3,0,.46,0,.14,0,.21,0,.23,0,.35a1.2,1.2,0,0,1,0,.42.58.58,0,0,1-.07.21s0,.11,0,.16a.77.77,0,0,0,0,.37.75.75,0,0,1,0,.26.45.45,0,0,1,0,.28,6.42,6.42,0,0,0,1.24-.14A.45.45,0,0,0,90.84,90.85Zm-.56,6a1.91,1.91,0,0,1,.24.07c.09,0,.18,0,.3,0s.16,0,.25,0a.94.94,0,0,1,.33-.14c.16,0,.33,0,.49,0a.3.3,0,0,0,.14,0,5.07,5.07,0,0,1,.62-.11,1.33,1.33,0,0,1,.19,0,1.17,1.17,0,0,0,.65-.37,1.79,1.79,0,0,0,.23-.26l.07-.09a3.31,3.31,0,0,0,.28-.88,1.41,1.41,0,0,0,0-.33c0-.16,0-.28-.1-.42A.59.59,0,0,0,93.7,94a2.27,2.27,0,0,0-.49-.49.14.14,0,0,0-.09,0c-.07,0-.19,0-.3,0a1.53,1.53,0,0,0-.51-.07s-.07,0-.12,0a2.16,2.16,0,0,0-.44,0,.11.11,0,0,0-.09,0s-.1,0-.12,0a1.42,1.42,0,0,1-.42.07l-.05,0c-.16,0-.27.07-.37.09s-.42,0-.62,0a2.22,2.22,0,0,0-.31.07.88.88,0,0,0-.3.1s0,.09,0,.16a.71.71,0,0,1,0,.16,6.05,6.05,0,0,1-.05,1,.41.41,0,0,1,.1.26,1,1,0,0,1,0,.37c0,.37,0,.84,0,1.16l.16.07A3.54,3.54,0,0,0,90.28,96.85Z" fill="#323031"/><path d="M101.16,86.08c0,.14,0,.32,0,.46a.88.88,0,0,0,.07.3l0,.12a3.84,3.84,0,0,0,.11.4s.07.06.07.11,0,.21.09.28a4.68,4.68,0,0,1,.24.53,4.88,4.88,0,0,1,.28.68,1.2,1.2,0,0,0,.16.32.89.89,0,0,0,.09.38,1.89,1.89,0,0,0,.19.3.58.58,0,0,0,.07.21s.09,0,.11.11a.25.25,0,0,0,0,.14,2.33,2.33,0,0,0,.25.4.62.62,0,0,0,.28-.44c0-.1.12-.14.19-.21a.08.08,0,0,1,0-.07s0-.21.12-.31,0,0,.07,0a.12.12,0,0,1,0-.07.25.25,0,0,0,.09-.3c0-.1.14-.14.19-.26v-.18a3.55,3.55,0,0,0,.23-.4s0-.05,0-.07a2.58,2.58,0,0,0,.16-.39,2.25,2.25,0,0,1,.12-.21c0-.14,0-.35.07-.54s.11-.25.18-.42l.07-.11a4.77,4.77,0,0,0,0-.93.74.74,0,0,0-.1-.16s-.11-.07-.09-.14a13.78,13.78,0,0,1,1.7,0h.6l.19,0c.18,0,.37,0,.6,0,.07,0,.14,0,.19,0a2.56,2.56,0,0,1,.65,0c.14,0,.25,0,.32,0,0,.23-.21.35-.32.51s-.19.3-.28.47-.12.13-.19.2-.11.1-.14.14-.09.31-.18.47l-.07.09s0,.09,0,.12-.11.11-.14.16a.68.68,0,0,1-.07.23s0,0-.07.07,0,.07,0,.1,0,0,0,0,0,.21-.11.25a1.77,1.77,0,0,0-.17.49,2,2,0,0,0,0,.56c0,.09.07.19.09.26a.46.46,0,0,1,0,.23c0,.09-.12.07-.14.07a2.45,2.45,0,0,0-.63.35s-.07.07-.09.09c-.19.07-.3.32-.49.46s-.09.19-.14.31a.2.2,0,0,0,0,.09s-.11.09-.16.16,0,.09-.07.14-.05.14-.09.21a.81.81,0,0,0-.16.16s0,.07-.05.12-.07.07-.07.09a.82.82,0,0,0,0,.23.44.44,0,0,1,0,.21c0,.12-.18.17-.28.26s-.07.12,0,.23l-.09.07s0,.05,0,.09a.53.53,0,0,0-.14.28.18.18,0,0,0,0,.1,1.58,1.58,0,0,0,.07.34c0,.07,0,.14,0,.24s0,.25,0,.39c0,.44,0,1,0,1.42a4.8,4.8,0,0,0,0,.65c0,.09,0,.19,0,.26s-.14.32-.07.51.07.11.1.18,0,.26,0,.35.13.28.11.37.09.24.14.33.26.35.28.56a.81.81,0,0,1-.49,0,.78.78,0,0,1-.25-.07c-.1,0-.14,0-.24,0a.89.89,0,0,1-.23,0c-.07,0-.16,0-.21,0s-.16-.07-.23-.07l-.26.1c-.27,0-.55-.07-.83-.07s-.35,0-.51,0a1.37,1.37,0,0,1-.28,0c-.14,0-.33.07-.4-.07-.07,0-.18.14-.3,0A.58.58,0,0,1,101,99a.88.88,0,0,0,.31-.37,2.42,2.42,0,0,0,.16-.46,2.26,2.26,0,0,0,.18-.65,2.4,2.4,0,0,1,0-.38c0-.09,0-.2,0-.3a1.28,1.28,0,0,1-.07-.28c0-.09,0-.18.07-.3s-.07-.16-.07-.25a.83.83,0,0,1,0-.35c0-.1,0-.21,0-.33a4.36,4.36,0,0,1,0-.51.54.54,0,0,1,0-.21,5.43,5.43,0,0,1,0-.67.43.43,0,0,0-.14-.19c0-.07-.1-.09-.14-.16s0-.35-.09-.49-.17-.21-.24-.3,0-.09,0-.14,0-.07-.07-.09a1.36,1.36,0,0,0-.35-.51v-.21a1,1,0,0,0-.14-.28.22.22,0,0,0,0-.12,1.61,1.61,0,0,0-.21-.3,2.29,2.29,0,0,0-.12-.37c0-.09-.09-.09-.14-.14s0-.07-.05-.09a.19.19,0,0,0-.11-.14.49.49,0,0,0-.26-.14c-.07,0-.11-.12-.18-.14a1.72,1.72,0,0,0-.26,0c-.07,0-.14-.07-.23,0a2.46,2.46,0,0,0,.09-.69c0-.28.07-.49-.09-.65,0-.44-.23-.61-.28-1,0-.09-.14-.12-.19-.21s0-.11,0-.21-.09-.21-.16-.32a.09.09,0,0,0,0-.07s0,0,0,0S98,86.7,98,86.63a.75.75,0,0,0-.07-.23.14.14,0,0,0,0-.07s0,0-.07,0l-.07-.09a.74.74,0,0,0-.16-.19c-.07,0-.07-.12-.12-.16s-.21-.12-.11-.23.23,0,.34,0,.1,0,.17-.07a3,3,0,0,0,.6,0,1.22,1.22,0,0,0,.44,0,.62.62,0,0,0,.19,0s.09,0,.14,0l.37,0c.09,0,.19,0,.25,0s.31,0,.45,0l.34,0a4.94,4.94,0,0,1,.68,0C101.3,85.75,101.18,85.89,101.16,86.08Z" fill="#323031"/><path d="M82.38,89.33a5.05,5.05,0,0,0-.16-1.09,4.94,4.94,0,0,0-.7-1.28,3.67,3.67,0,0,0-.92-.53s-.06,0-.06-.09a1.25,1.25,0,0,1-.32-.14c-.11,0-.16-.19-.27-.24s-.38,0-.43-.09a.23.23,0,0,1-.17-.05,9.92,9.92,0,0,0-1.56-.24c-.11,0-.22,0-.33,0,.06.19.17.38.22.57s0,.43,0,.52c.27.71-.27,1.43-.27,1.85a1.4,1.4,0,0,0-.32.34,1.07,1.07,0,0,0-.32.42c-.11,0-.11.19-.17.29a3.91,3.91,0,0,0-.59.38c-.22.09-.43.28-.65.38a6.38,6.38,0,0,1-1.67.47,3.52,3.52,0,0,0-.65,0c-.38,0-.76.19-1.14.19-.16,0-.38-.14-.59-.14A12.64,12.64,0,0,0,70,90.9a12.52,12.52,0,0,0-1.35-.19c-.22,0-.33.05-.49.05a4.76,4.76,0,0,1-.54-.24,8.47,8.47,0,0,1-2.21-.19,3.36,3.36,0,0,0-.71,0l-.43-.14a2.18,2.18,0,0,0-1-.24,2.34,2.34,0,0,0-.86-.38,2.48,2.48,0,0,0-.7-.14,1,1,0,0,0-.38-.05c-.11,0-.16-.14-.33-.14a3.25,3.25,0,0,0-.7,0,4.77,4.77,0,0,1-1-.33c-.22-.1-.49-.19-.7-.29a10.56,10.56,0,0,1-1.19-.33,4.45,4.45,0,0,1-.76-.24,3.77,3.77,0,0,1-.86-.14,3.19,3.19,0,0,1-.7-.28c-.38-.1-.87-.24-1.19-.29a1.94,1.94,0,0,1-.54,0c-.27,0-.54-.24-.76-.24a.86.86,0,0,1-.22-.19,5,5,0,0,0-.67-.12.66.66,0,0,1-.3,0,1.66,1.66,0,0,1-.48-.11c.09-.22.26-1.36.31-1.55s.31-1.49.36-2h0c0-.29.06-.56.07-.74s.13-.43.13-.67a1.64,1.64,0,0,0,0-.22c0-.17.06-.34.1-.5a1,1,0,0,0,.09-.27,1.4,1.4,0,0,0,0-.41c0-.09.08-.13.09-.22s0-.36.08-.54a3.47,3.47,0,0,0,0-.72c0-.18.13-.41.13-.59a4.15,4.15,0,0,1,.18-1.35c0-.18-.08-.31-.12-.49.21-.23.09-.54.1-.82s0-.36,0-.45a1.17,1.17,0,0,0-.12-.4c0-.18-.08-.36-.11-.46s0-.26.08-.35a1.8,1.8,0,0,0,.09-.45,9.09,9.09,0,0,0-.2-1,2,2,0,0,0,0-.54c0-.28-.32-.59-.4-.91,0-.14,0-.45-.08-.59s-.29-.32-.37-.5a5.9,5.9,0,0,0-.32-.68.28.28,0,0,1,0-.18,1.62,1.62,0,0,0-.21-.35l-.06-.2a2.63,2.63,0,0,1-.35-.38,4.06,4.06,0,0,0-.35-.43,1.16,1.16,0,0,0-.41-.14,2.88,2.88,0,0,1-.51-.15c-.13,0-.22-.19-.39-.23a1.36,1.36,0,0,0-.92-.19c-.13,0-.27,0-.4.09,0,.57.05,1.1,0,1.62a10.54,10.54,0,0,1-.35,1.63c0,.09,0,.19,0,.24s-.08.14-.08.14,0,.33-.09.43-.05.09-.09.14a1.31,1.31,0,0,0-.06.27,1.06,1.06,0,0,1-.07.4c0,.1-.18.24-.22.29s0,.14,0,.14-.22.24-.27.29,0,.14,0,.14-.22.29-.31.43a3.27,3.27,0,0,1-.26.48,4.2,4.2,0,0,0-.44.33c-.17.14-.26.24-.44.38a3.23,3.23,0,0,0-.61.48c-.13.1-.31.29-.44.38a.31.31,0,0,0-.17.1,1.83,1.83,0,0,0-.35.19c-.27,0-.53,0-.71,0a3.36,3.36,0,0,0-.83.38h-.22a.24.24,0,0,0-.17.09,1.57,1.57,0,0,1-.66.05c-.13,0-.17,0-.26,0s-.35-.1-.53-.1a5.75,5.75,0,0,0-.83,0,4.34,4.34,0,0,0-.7-.14c-.09,0-.18.05-.26.05s-.31-.14-.49-.19-.61-.05-.83-.14a1.6,1.6,0,0,0-.83-.24,1.57,1.57,0,0,0-.66-.39,1.86,1.86,0,0,0-.92-.66c-.13-.39-.52-.53-.79-.77-.09-.09-.13-.24-.22-.33s-.22-.19-.26-.34a3.62,3.62,0,0,1-.39-.76s-.09,0-.09,0a3.56,3.56,0,0,1-.31-.52,1.71,1.71,0,0,1-.26-.72c-.09-.29-.09-.57-.18-.86a9.88,9.88,0,0,1-.48-1.19,4.1,4.1,0,0,1,0-1,2.13,2.13,0,0,1-.09-.48,4.29,4.29,0,0,1,0-1.24c.22,0,.44,0,.7.09s.4.15.62.19a3.64,3.64,0,0,1,.66,0c.17,0,.35.15.52.15a7,7,0,0,1,1-.1c.13,0,.08,0,.21.14s.36.1.62.1a3.43,3.43,0,0,1,.87.19,4,4,0,0,0,.75,0c.17,0,.22,0,.26,0s.09,0,0,0c.48,0,.78-.14,1.18-.1a1.42,1.42,0,0,1,.48.15,6.6,6.6,0,0,0,1.71-.24h.53c.08,0,.17-.1.3-.1a1.3,1.3,0,0,1,.44,0,1.42,1.42,0,0,1,.48-.14,4.05,4.05,0,0,1,1.1,0,2.73,2.73,0,0,1,.79-.38c.26-.1.48,0,.74-.15s.31-.23.44-.33.26-.33.44-.38.48,0,.57-.15.39-.42.57-.57.3-.28.43-.38.31,0,.4-.1.13-.28.22-.38A1.27,1.27,0,0,1,49,63a3.79,3.79,0,0,1,.52-.48,2,2,0,0,1,.27-.34s0,0,.08,0a2.65,2.65,0,0,1,.27-.53c.17-.29.48-.62.61-.91.22-.47.31-1,.52-1.57.09-.24.18-.48.27-.77s.13-.57.22-.86a9.61,9.61,0,0,0,.65-.85.18.18,0,0,1,0-.15c0-.09.13-.09.17-.19s0-.19.09-.24c.13-.24.4-.33.53-.52s.35-.1.35-.34-.18-.19-.35-.28a.71.71,0,0,1-.18-.15c-.09,0-.17,0-.22-.09a2.34,2.34,0,0,1-.39-.53L52.22,54a.18.18,0,0,1,0-.14c-.14-.24-.27-.43-.36-.62a9,9,0,0,1-.21-1c-.09-.24-.18-.43-.27-.62a6.05,6.05,0,0,0-.48-1.34,1.1,1.1,0,0,1-.39-.34c-.27-.66-.92-1-1.36-1.47-.09-.24-.13-.53-.35-.67a2.14,2.14,0,0,0-.48-.24c-.09,0-.22-.19-.31-.24s-.09,0-.18-.05-.22-.19-.3-.24a.16.16,0,0,1-.13,0c-.18-.1-.27-.29-.44-.34l-.62-.14a2.08,2.08,0,0,0-.3-.1,1,1,0,0,1-.35,0c-.27,0-.44-.28-.7-.38a5.58,5.58,0,0,0-.84,0c-.13,0-.26-.09-.43-.09h-.57a1.34,1.34,0,0,1-.44-.1c-.18,0-.4,0-.53,0s-.13-.1-.17-.1c-.31-.14-.53.05-.84.05-.13,0-.21-.05-.3-.05-.4-.1-.57.05-.88.1s-.57,0-.83,0a.59.59,0,0,0-.22.09c-.09,0-.18,0-.26,0a5.07,5.07,0,0,1-.49.19c-.21.05-.43,0-.65.05s-.27.14-.44.19a3.49,3.49,0,0,1-.44.24,3.88,3.88,0,0,1-.66.14c-.22.1-.35.19-.57.29h-.48c-.09.14-.26.14-.39.24a2.07,2.07,0,0,1-.4.28c0,.05-.08,0-.13,0l-.09.1a3.59,3.59,0,0,1-.43.19,1.4,1.4,0,0,0-.57.48c-.13.14-.27.28-.35.38-.27.28-.49.57-.71.76a3.19,3.19,0,0,1-.35.24c-.08,0-.08.1-.13.14s-.17,0-.22.1l-.13.14a2.4,2.4,0,0,1-.52.38c-.09.1-.18.24-.22.29s-.22.19-.27.24,0,.19-.08.29l-.09.09a2.56,2.56,0,0,0-.22.48,3.12,3.12,0,0,0-.26.38,2.22,2.22,0,0,1-.27.38l-.13.29a2.93,2.93,0,0,0-.13.29c-.13.24-.39.33-.48.57s0,.43-.13.67a1.59,1.59,0,0,1-.31.43c0,.05-.09.09-.17.19a.16.16,0,0,1-.05.14c0,.1-.13.14-.22.29a7.26,7.26,0,0,0-.35.76c0,.1,0,.14-.08.24a3.27,3.27,0,0,1-.18.76,3.57,3.57,0,0,0-.26.62c-.05.24,0,.48-.05.67a2.75,2.75,0,0,1-.22.58,3.29,3.29,0,0,1-.17.67,3.14,3.14,0,0,1-1.14-.1c-.22,0-.44.05-.66.05s-.3-.05-.48-.05-.61.05-.92.05-.61-.05-.92-.05-.35.05-.53.05-.43-.05-.61-.05c-.35.05-.66.19-1,.24a8.75,8.75,0,0,0-1,.09,3,3,0,0,1-.7.34.76.76,0,0,1-.35,0,.9.9,0,0,1-.35.09c-.35.1-.7.24-1,.34a4.34,4.34,0,0,1-1.19.57.83.83,0,0,1-.35.05c-.17.09-.35.43-.57.52s-.21.1-.35.15a2.3,2.3,0,0,0-.39.38c-.13.09-.35.14-.48.24s-.13.14-.22.23-.09,0-.09,0-.13.15-.17.2a4.41,4.41,0,0,0-1.1,1.19,3.88,3.88,0,0,1-.44.52c-.09.1-.22.19-.26.29s-.13.62-.22.76a.46.46,0,0,0-.18.24.92.92,0,0,0-.26.53,2.61,2.61,0,0,1-.39.57,1.71,1.71,0,0,0-.44,1,2.73,2.73,0,0,1,0,.57c0,.19-.18.29-.31.48a3.17,3.17,0,0,1-.31.47,3.31,3.31,0,0,1-.74.82,3.42,3.42,0,0,1-.62.43c-.13.14-.35.23-.43.33s-.14.09-.09.19.22.29.31.38.26.29.39.38a2.87,2.87,0,0,0,.39.39,1.3,1.3,0,0,1,.44.43s.09.09.09.19a1.58,1.58,0,0,1,.22.33c.22.34.13.77.22,1.29a5.52,5.52,0,0,1,.35.86,1.76,1.76,0,0,1,0,.48,1.33,1.33,0,0,1,.13.43c.09.28.13.57.22.86s.22.28.31.47a1.63,1.63,0,0,0,.13.48c.18.29.53.38.79.67s.17.43.35.57a1.5,1.5,0,0,0,.26.15c.09,0,.13.14.27.14,0,.24.26.33.35.53.17,0,.26.19.35.23s.26.1.35.15,0,.09,0,.09.22.05.31.1l.52.28a3.41,3.41,0,0,0,.57.29.76.76,0,0,0,.35,0,4.56,4.56,0,0,0,.7.14,1.48,1.48,0,0,0,.44.05c.18,0,.35-.14.53-.14s.39.14.57.14a.65.65,0,0,0,.3,0,.52.52,0,0,0,.35,0c.18,0,.4-.2.57-.24s.53,0,.75-.05.39-.19.48-.24.18,0,.22,0a2.15,2.15,0,0,0,1-.62,4,4,0,0,0,.35-.52c0-.1.13-.15.17-.2a.78.78,0,0,1,.05-.33c0-.09.09-.24.09-.33s.3-.19.43-.39.05-.28.18-.38A5.19,5.19,0,0,1,22,77.11a4,4,0,0,0-.22-1.53l-.13-.28c-.09-.24-.18-.48-.22-.62l-.13-.15-.09-.19a3.43,3.43,0,0,0-.52-.38c-.09-.1-.14-.19-.18-.19a.15.15,0,0,0-.13,0c-.31-.19-.61-.57-1-.38-.13.19.09.33.09.43a2.34,2.34,0,0,1,0,1c0,.34-.7,1-1,1.1a3.25,3.25,0,0,1-.93.29c-.13,0-.3,0-.48,0a1.81,1.81,0,0,1-.74,0s-.05-.09-.09-.09-.31,0-.39-.1-.14-.14-.18-.14a.15.15,0,0,0-.13-.05,2.56,2.56,0,0,0-.53-.48c-.13-.19-.13-.38-.26-.57s-.26-.29-.35-.48a4.12,4.12,0,0,1-.31-2.19c0-.29.14-.63.14-.91a3.46,3.46,0,0,1,0-.72c0-.24.3-.33.39-.57a3.18,3.18,0,0,1,.09-.33,1.81,1.81,0,0,1,.48-.91,2.51,2.51,0,0,1,0-.57c.13-.05.27-.1.31-.24s.31,0,.44,0,.39-.34.57-.53a2.51,2.51,0,0,0,.17-.23l.44-.34c.26-.24.44-.48.83-.38.22-.19.35-.43.62-.48a4.63,4.63,0,0,1,.83-.05c.26,0,.57,0,.83-.09a1.46,1.46,0,0,1,.48-.19,1.88,1.88,0,0,1,.53,0,1.14,1.14,0,0,1,.44-.1c.17,0,.39,0,.61,0a8.07,8.07,0,0,1,1.1,0c.26,0,.52,0,.79,0s.39.1.57.1c.35,0,.7-.15,1,.05a8.64,8.64,0,0,0,.09,1,8,8,0,0,0,0,1.1c0,.19.13.43.17.66a1.87,1.87,0,0,1,0,.53s.09.09.09.19a.93.93,0,0,1,0,.34c0,.14.13.19.17.28a3.34,3.34,0,0,1,.14,1.15c0,.24.22.43.26.62a1.23,1.23,0,0,1,0,.38,9.24,9.24,0,0,1,.62,1.48,6.71,6.71,0,0,1,.13.76c.08.24.3.48.39.77a1.33,1.33,0,0,1,.13.43,4.76,4.76,0,0,0,.31.52,1.8,1.8,0,0,1,.39.53,2.94,2.94,0,0,1,.27.57,6.35,6.35,0,0,0,.48.53,2.48,2.48,0,0,0,.52.38c.09.33.4.52.62.71a1.33,1.33,0,0,0,.31.24,2.71,2.71,0,0,1,.52.43,2,2,0,0,0,.61.48l.31.14a2.72,2.72,0,0,0,1.27.82c.09,0-.09.23.13.19s.49.33.84.38.61,0,.87,0a2.48,2.48,0,0,1,.26.19.62.62,0,0,0,.31.14c.26.1.53,0,.75,0s.39.24.61.28a2.2,2.2,0,0,0,.57.1,6.43,6.43,0,0,0,1.88.1c.13,0-.17-.24.09-.24s.4.09.61.09a6,6,0,0,0,2.15-.33,2.88,2.88,0,0,0,.7-.15.87.87,0,0,0,.31-.19c.09,0,.17-.19.26-.24s.13,0,.18,0,.08-.1.13-.15.13,0,.17,0,.09-.1.14-.15.35-.09.39-.19.13-.14.22-.19a4.06,4.06,0,0,1,.61-.38,2,2,0,0,1,.48-.53c.05,0,.09-.19.14-.24.26-.23.46-.14.51.15s-.26.57-.35,1,0,.62,0,.91a10.08,10.08,0,0,1-.22,1.19,1.48,1.48,0,0,1,0,.42,8.06,8.06,0,0,1-.18,1c0,.19-.3,1.32-.35,1.51a3.62,3.62,0,0,1,0,.65,2.72,2.72,0,0,1-.42,0c-.21,0-.43-.14-.64-.19-.49,0-1,0-1.46,0s-.7-.15-1-.15c-.76,0-1.46.08-2.17,0-.43,0-.7-.14-1.08-.1s-1,.07-1.45.12a4.63,4.63,0,0,1-.62.12c-.16.05-.43.05-.54.09a6.2,6.2,0,0,1-1.05.41c-.48.1-.67.27-1,.37h0a1.49,1.49,0,0,0-.58.07,1.85,1.85,0,0,0-.14.14.37.37,0,0,0-.24.12c-.14,0-.24.14-.33.19s-.33,0-.48.09,0,0-.09.1a3.08,3.08,0,0,0-.76.59c-.34,0-.67.54-.83.6a.11.11,0,0,0-.09.1c-.14.14-.21.13-.36.27a1,1,0,0,0-.28.33c-.05,0-.14,0-.14.1s-.1.19-.15.28-.35.35-.4.54-.19.16-.28.39l-.1.1a.42.42,0,0,1,0,.19,2.27,2.27,0,0,1-.24.57.5.5,0,0,1-.1.24.14.14,0,0,1-.09,0,.18.18,0,0,1-.05.15.78.78,0,0,1-.14.19.5.5,0,0,1-.1.23s-.07.17-.12.17,0,.26,0,.31a6.88,6.88,0,0,0-.08,1.17,3.11,3.11,0,0,0,.06.78s0,.31,0,.31-.07.27.05.3,0,.18,0,.18c.24.19-.07.16,0,.35s.1.17.15.27.07.32.11.51a4.21,4.21,0,0,1,.15.53.18.18,0,0,0,.14,0c.05.15.05.19.09.29a.32.32,0,0,0,.15.28.59.59,0,0,0,.19.24,3,3,0,0,0,.14.29.93.93,0,0,1,.19.23,1.82,1.82,0,0,1,.09.34,1.79,1.79,0,0,1,.29.18c.05,0,.24,0,.33.2s.14.38.33.52a.07.07,0,0,1,.1,0,.12.12,0,0,0,.05.09c.19.1.38.1.52.19a1.56,1.56,0,0,1,.28.29,1.67,1.67,0,0,1,.38.19,3.35,3.35,0,0,0,.38.19,1.14,1.14,0,0,1,.43.14s.1.1.14.14.19,0,.24.1a.14.14,0,0,0,.05.09.16.16,0,0,1,.14,0c.19.1.33.14.52.24l.29.14c.09,0,.14,0,.24,0l0,.09a4.33,4.33,0,0,0,1.1.1,1.61,1.61,0,0,1,.52.09c.24,0,.38.1.52.14a2.41,2.41,0,0,1,1,.2c.57-.15-.08,0,.49-.1,0,0,.19,0,.28,0s.1-.14.14-.14a1.77,1.77,0,0,1,.53,0,1.31,1.31,0,0,1,.47-.09c.19,0,.38,0,.57,0s.43-.29.67-.19a1.49,1.49,0,0,1,.47-.29c.14,0,.29,0,.48,0s.14-.1.19-.1a1.28,1.28,0,0,1,.38-.14c.09-.1.19-.1.23-.14s.05,0,.1,0a2.71,2.71,0,0,1,.52-.29,2.64,2.64,0,0,1,.43-.14c.24-.14.38-.47.66-.47a1.13,1.13,0,0,1,.34-.53.44.44,0,0,1,.47,0c0-.23.24-.28.38-.38a1.38,1.38,0,0,1,.43-.33c0-.52.24-.81.71-.76a2.16,2.16,0,0,1,.52-.85,1.54,1.54,0,0,1,0-.48,2,2,0,0,1,.67-.47.45.45,0,0,1,.19-.24s0-.1,0-.14.15,0,.19-.15.19-.28.24-.52.14-.19.14-.28A1.54,1.54,0,0,1,49,94c0-.43.24-1.1.24-1.53.19-.24.43-.24.57-.57v0a4.42,4.42,0,0,1,.59,0,1.8,1.8,0,0,1,.43.23H51c.06,0,.11.1.11.1h.16c.06,0,.11.09.11.09l.65.15c.16,0,.32.14.54.19s.38,0,.6,0c0,0,.1,0,.21.1s.27,0,.38,0c.27.09.54.28.86.38s.38,0,.6,0a3.24,3.24,0,0,1,.92.28l.48.14c.16,0,.33.15.43.19s.38,0,.55.1.37.28.64.38a4.46,4.46,0,0,0,.71.14c.21.05.37.19.59.24s.49,0,.7.09.43.19.6.24a2.32,2.32,0,0,0,.59,0c.05,0,.22.1.27.1l.6.19a9.66,9.66,0,0,0,1.08.14c.1,0,.27.05.37.05.49.09.92.14,1.36.23a.75.75,0,0,0,.32.1,1.6,1.6,0,0,0,.49,0c.05,0,.16.09.27.09s.43,0,.64.1a5.06,5.06,0,0,0,.87,0,3.22,3.22,0,0,0,.76.14,5,5,0,0,1,1.56.19l.6-.14c.27.24.64.09,1,.09s.43,0,.54,0a1.29,1.29,0,0,0,.48-.14l.55-.14a.73.73,0,0,0,.43.09,1.65,1.65,0,0,0,.48.1A7.72,7.72,0,0,0,75.36,96a3.27,3.27,0,0,0,.7,0c.32,0,.65-.38,1.08-.48.16,0,.54,0,.7-.09s.38-.33.6-.43a3.29,3.29,0,0,0,.81-.38.33.33,0,0,1,.21-.05c.22-.09.38-.28.6-.33s.16-.47.54-.47a2.72,2.72,0,0,1,.54-.53.85.85,0,0,1,.27-.52c.11-.19.16-.38.27-.57l.16-.14c0-.1,0-.19.11-.24a4,4,0,0,0,.32-.38v-.14s.11-.1.11-.1.05-.38.11-.52a2.43,2.43,0,0,0,.11-.52A2.75,2.75,0,0,0,82.38,89.33Zm-50.67-30c.09-.29.09-.62.22-.95.05-.15.13-.24.18-.39s0-.33.09-.47a4,4,0,0,1,.26-.48c0-.14.09-.24.13-.43a.62.62,0,0,0,0-.14c0-.1.14-.15.22-.24s0-.05,0-.1,0-.09.08-.14a5.24,5.24,0,0,0,.22-.57c.13-.29.44-.48.53-.77.09,0,.13-.14.22-.19s.17-.09.22-.14.17-.34.3-.43a.37.37,0,0,1,.18-.1,1,1,0,0,0,.31-.19c.17-.14.35-.52.65-.52.13-.15.22-.39.4-.48s0,0,.09,0a2.4,2.4,0,0,1,.7-.33,1.5,1.5,0,0,1,.48-.19.54.54,0,0,1,.13-.1,4.74,4.74,0,0,1,1-.43,1.68,1.68,0,0,0,.31-.19c.48-.1,1,0,1.58-.05a3.12,3.12,0,0,0,.57-.14,13.91,13.91,0,0,1,1.44.09c.31,0,.62,0,.88,0s.31.19.53.34c.39-.1.56,0,.87.19a1.34,1.34,0,0,1,.44.14c.09,0,.13.15.22.19s.22.05.26.15a1.26,1.26,0,0,1,.35.47A.72.72,0,0,1,46,53c.09.14.18.29.31.53s.75.71.35,1.29a1.54,1.54,0,0,1,.18.95c0,.1,0,.14-.09.24a9.39,9.39,0,0,1-.18,1.14,1.53,1.53,0,0,1-.22.72s-.08,0-.08,0V58l-.09,0v.1l-.09,0a3.17,3.17,0,0,1-.35.66c-.22.24-.53.34-.66.58a2.14,2.14,0,0,1-.35.28,1,1,0,0,1-.61.29.5.5,0,0,1-.26.05,3.39,3.39,0,0,1-.62.28,1.84,1.84,0,0,1-.52.05,2.11,2.11,0,0,1-.53.15c-.22,0-.39,0-.57,0s-.35.24-.48.29a.85.85,0,0,1-.35.05c-.13,0-.22.09-.26.09a11.6,11.6,0,0,1-1.32,0,.79.79,0,0,1-.39.1c-.44,0-.88-.24-1.4-.1-.18,0-.18-.19-.4-.19a1.21,1.21,0,0,1-.83,0c-.09,0-.18,0-.26,0s-.27.14-.44.19a5.47,5.47,0,0,0-1.36-.38c-.44-.09-1.1-.05-1.62-.19a3.6,3.6,0,0,0-1-.19C31.41,59.87,31.63,59.64,31.71,59.3ZM44.06,91a7.6,7.6,0,0,1-.34,1c0,.09-.14.14-.19.19s-.23.77-.33.86-.19.29-.33.33c.05.19.05.34-.14.38s-.1.38-.19.48-.43,0-.53.09-.23.38-.42.53a.46.46,0,0,1-.19.09,5.05,5.05,0,0,1-.72.52c-.09,0-.19,0-.23.1a8.43,8.43,0,0,1-1.29.62,2.88,2.88,0,0,1-1,.28,2.36,2.36,0,0,1-.86-.09,1.61,1.61,0,0,1-.71-.1,2.48,2.48,0,0,1-.53-.24.61.61,0,0,1-.28-.09,5.06,5.06,0,0,1-.48-.29,2.66,2.66,0,0,1-.71-.47c0-.29-.33-.28-.47-.47a3.82,3.82,0,0,1-.24-.86,2.12,2.12,0,0,1,.31-1.34,3.38,3.38,0,0,1,.71-.88.59.59,0,0,0,.19-.14c.05,0,.05-.09.09-.09s.24-.15.29-.19a3.26,3.26,0,0,1,1.36-.69c.49,0,1.09-.27,1.52-.32s1.33.15,1.81.15a1,1,0,0,1,.38,0,5.94,5.94,0,0,1,1,.28s.27,0,.38,0c.59,0,.92.24,1.35.29l.85,0A.41.41,0,0,0,44.06,91Z" fill="#323031"/></symbol></defs><title>logo--chops-grill-greenpan</title><g id="Layer_2" data-name="Layer 2"><g id="Layer_1-2" data-name="Layer 1"><use width="148.12" height="118.05" xlink:href="#logo--chop-grill-greenpan"/></g></g></svg>