<svg xmlns="http://www.w3.org/2000/svg" xmlns:xlink="http://www.w3.org/1999/xlink" viewBox="0 0 217.5 49.26"><defs><symbol id="logo--van-kempen-begeer" data-name="logo--van-kempen-begeer" viewBox="0 0 217.5 49.26"><path d="M4.39,34.86c-.45,0-1.19,0-1.19.64a1.21,1.21,0,0,0,.12.53l2.24,5.89,1.88-4.63a5.06,5.06,0,0,0,.43-1.57c0-.79-.74-.84-1.24-.86v-.53c.57,0,1.17.05,1.74.05s1.19-.05,1.79-.05v.53a1.69,1.69,0,0,0-1.5,1.21L5.2,44.37H4.7L1.43,35.88a1.4,1.4,0,0,0-1.43-1v-.53c.79,0,1.43.05,2.1.05l2.29-.05Z" fill="#201747"/><path d="M18.44,42c0,.4.09,1.24.85,1.24a1.78,1.78,0,0,0,.86-.26l.15.38c-.91.76-1.39,1-2,1-.95,0-1.43-.62-1.52-1.55-1.22.88-2.15,1.55-3.51,1.55a2.08,2.08,0,0,1-2.34-2A2,2,0,0,1,12,40.58a22.82,22.82,0,0,1,4.63-1.88,10.6,10.6,0,0,0-.12-2.51,1.88,1.88,0,0,0-1.81-1.09,1.76,1.76,0,0,0-2,1.64c0,.31,0,.45-.64.72a2.78,2.78,0,0,1-.6.16.34.34,0,0,1-.33-.33A2.74,2.74,0,0,1,11.78,36c.19-.19,2.46-1.93,4.39-1.93a2.18,2.18,0,0,1,2.27,2.33ZM16.69,39.2c-3.29,1.12-4,1.4-4,2.67a1.58,1.58,0,0,0,1.7,1.6,3.44,3.44,0,0,0,2.33-1.24Z" fill="#201747"/><path d="M25.11,35.76c1.6-1,2.7-1.71,4-1.71a2.59,2.59,0,0,1,2.63,2.81v5.89c0,.86.23.86,1.24.86v.52c-.38,0-1.29,0-2.2,0s-1.79,0-2.19,0v-.52c1.17,0,1.41-.07,1.41-.76v-5c0-1.57-.39-2.64-2.1-2.64a4.49,4.49,0,0,0-2.82,1.09v6.06c0,1.29.22,1.29,1.48,1.29v.52c-.43,0-1.41,0-2.36,0s-1.91,0-2.34,0v-.52c1.34,0,1.48-.07,1.48-.76V36.67c0-.62-.24-.76-1.17-1.34V35a21.73,21.73,0,0,0,2.24-1,2.33,2.33,0,0,1,.55-.24c.1,0,.12.07.12.14Z" fill="#201747"/><path d="M46.1,29.11c-1.36,0-1.67.07-1.67,1.62V42.15c0,1.46.17,1.46,1.74,1.46v.52c-.62,0-2,0-2.86,0s-2.05,0-2.7,0v-.52c1.55,0,1.77-.07,1.77-2V30.56c0-1.45-.6-1.45-1.77-1.45v-.53c.6,0,1.79.05,2.84.05s2-.05,2.65-.05Zm3.48-.53c.6,0,1.88.05,2.55.05.93,0,1.6-.05,2.32-.05v.53a4.3,4.3,0,0,0-3.25,1.53l-4.7,4.74,6,6.54c1.52,1.67,2.26,1.69,3,1.69v.52c-.36,0-1.05,0-1.81,0s-1.58,0-1.91,0L44.6,36.31l5-5.17c.38-.39,1.17-1.27,1.17-1.65s-.55-.38-1.17-.38Z" fill="#201747"/><path d="M64.65,41.89a5.24,5.24,0,0,1-4.19,2.51c-1.79,0-4.49-1.12-4.49-4.94s2.48-5.41,4.82-5.41a3.43,3.43,0,0,1,3.7,3.24c0,.45-.12.5-.34.5-.64,0-3.58-.1-4.17-.1-1,0-1.58,0-2.24.05-.24,5.15,3,5.32,3.55,5.32a4.41,4.41,0,0,0,3.05-1.45ZM62.2,37.12c.21,0,.43,0,.43-.62a1.9,1.9,0,0,0-2.06-1.93,3,3,0,0,0-2.86,2.55Z" fill="#201747"/><path d="M69.42,35.62c1.46-1,2.36-1.57,3.77-1.57a2.18,2.18,0,0,1,2.43,1.69c1.67-1.12,2.53-1.69,3.91-1.69a2.51,2.51,0,0,1,2.63,2.81v5.58c0,1.1.33,1.17,1.48,1.17v.52c-.31,0-1.34,0-2.34,0s-2,0-2.39,0v-.52c1.29,0,1.51-.1,1.51-.84V38c0-1.84-.48-2.84-2.08-2.84a4.21,4.21,0,0,0-2.55,1v6.37c0,1,.19,1.07,1.57,1.07v.52c-.38,0-1.47,0-2.48,0s-1.83,0-2.17,0v-.52c1.12,0,1.34-.14,1.34-.69V37.6A2.11,2.11,0,0,0,72,35.19a3.2,3.2,0,0,0-2.55,1.1v5.6c0,.86,0,1.29.22,1.51s.59.21,1.33.21v.52c-.09,0-1.5,0-2.43,0s-1.79,0-2.17,0v-.52c1,0,1.31-.14,1.31-1.14V36.88a1.52,1.52,0,0,0-1.1-1.64v-.41c.5-.16,1.15-.43,2.15-.86.41-.16.45-.21.53-.21s.16.07.16.21Z" fill="#201747"/><path d="M88.1,33.86c.16,0,.16.11.16.19v1.69a5.73,5.73,0,0,1,3.65-1.69A4.38,4.38,0,0,1,96,38.62a6,6,0,0,1-5.63,5.78,5.87,5.87,0,0,1-2.1-.46V48c0,.41,0,.69,1.43.69h.65v.55c-.36,0-1.72,0-2.91,0s-2.27,0-2.55,0v-.55c1.45,0,1.64-.09,1.64-.69V36.6c0-.93-.83-1.1-1.24-1.19v-.36c.43-.17,2.24-1,2.62-1.17ZM88.26,42c0,1.36,1.93,1.76,2.67,1.76,2.08,0,3.27-2.12,3.27-4.19,0-2.34-1.53-4.27-3.6-4.27a3.25,3.25,0,0,0-2.34,1Z" fill="#201747"/><path d="M106.63,41.89a5.26,5.26,0,0,1-4.2,2.51c-1.79,0-4.49-1.12-4.49-4.94s2.49-5.41,4.82-5.41a3.43,3.43,0,0,1,3.7,3.24c0,.45-.12.5-.34.5-.64,0-3.57-.1-4.17-.1-1,0-1.57,0-2.24.05-.24,5.15,3,5.32,3.55,5.32a4.46,4.46,0,0,0,3.06-1.45Zm-2.46-4.77c.21,0,.43,0,.43-.62a1.9,1.9,0,0,0-2-1.93,3,3,0,0,0-2.86,2.55Z" fill="#201747"/><path d="M111.23,35.76c1.6-1,2.69-1.71,4-1.71a2.59,2.59,0,0,1,2.62,2.81v5.89c0,.86.24.86,1.24.86v.52c-.38,0-1.29,0-2.19,0s-1.79,0-2.2,0v-.52c1.17,0,1.41-.07,1.41-.76v-5c0-1.57-.38-2.64-2.1-2.64a4.45,4.45,0,0,0-2.81,1.09v6.06c0,1.29.21,1.29,1.48,1.29v.52c-.43,0-1.41,0-2.36,0s-1.91,0-2.34,0v-.52c1.33,0,1.48-.07,1.48-.76V36.67c0-.62-.24-.76-1.17-1.34V35a23.86,23.86,0,0,0,2.24-1c.45-.22.5-.24.55-.24s.12.07.12.14Z" fill="#201747"/><path d="M139.8,32.5c.48,0,2.6,0,3,0s1.19,0,2.72,0V33a3.72,3.72,0,0,0-3.25,1.24c-.69.79-3.41,4.46-4,5.15,2,2.6,3.13,4.11,4.77,4.11a3.13,3.13,0,0,0,2.39-1.36l.36.24c-.53.73-1.77,2.45-3.84,2.45-2.41,0-3.82-2.19-4.92-4-.78,1-2.74,3.56-5.39,3.56a4.6,4.6,0,0,1-4.53-4.56c0-3.22,2.91-4.65,3.86-5.13A3.91,3.91,0,0,1,129,31.66a3.3,3.3,0,0,1,3.56-3.17c1.78,0,3,1,3,2.46,0,1.86-1.86,2.74-2.62,3.1a18.21,18.21,0,0,1,4.93,4.86C140,36,141,34.69,141,33.78s-.84-.78-1.22-.81Zm-11,6.15a4.31,4.31,0,0,0,4.12,4.15c1.62,0,2.65-1,3.82-2.39A32.22,32.22,0,0,0,131.33,35C130.4,35.6,128.76,36.62,128.76,38.65Zm5.43-7.51c0-1.24-.69-2.13-1.78-2.13a1.83,1.83,0,0,0-1.84,1.91c0,1,.67,1.67,2,2.84A3,3,0,0,0,134.19,31.14Z" fill="#201747"/><path d="M156.52,44.09c-1.22,0-2.27,0-2.91,0v-.52c1.43,0,2.07-.26,2.07-2.12V30.8c0-1.52-.91-1.67-2.07-1.69v-.53c1.21,0,2,.05,2.76.05s1.48-.05,2.24-.05a10.84,10.84,0,0,1,3.18.34,3.52,3.52,0,0,1,2.69,3.22c0,2.53-2.86,3.27-3.89,3.53v0c2.13.19,3.68.54,4.75,2.14a3.71,3.71,0,0,1,.62,2.08,3.8,3.8,0,0,1-2.6,3.62,8.14,8.14,0,0,1-3.51.57C158.81,44.13,157.18,44.09,156.52,44.09Zm1.21-8.59c1.72,0,2.58-.09,3.22-.55a3.22,3.22,0,0,0,1.36-2.88,2.65,2.65,0,0,0-.79-2.08,3.84,3.84,0,0,0-2.45-.76,11.91,11.91,0,0,0-1.34.07Zm0,6.32c0,1.29,1,1.67,2.36,1.67a3.35,3.35,0,0,0,3.68-3.39,4.06,4.06,0,0,0-1.55-3.31,5.49,5.49,0,0,0-3.08-.69l-1.41,0Z" fill="#201747"/><path d="M176.43,41.89a5.24,5.24,0,0,1-4.2,2.51c-1.79,0-4.48-1.12-4.48-4.94s2.48-5.41,4.82-5.41a3.42,3.42,0,0,1,3.69,3.24c0,.45-.12.5-.33.5-.65,0-3.58-.1-4.17-.1-1,0-1.58,0-2.25.05-.24,5.15,3,5.32,3.56,5.32a4.43,4.43,0,0,0,3.05-1.45ZM174,37.12c.22,0,.43,0,.43-.62a1.9,1.9,0,0,0-2.05-1.93,3,3,0,0,0-2.86,2.55Z" fill="#201747"/><path d="M188.23,34.69v1a12.1,12.1,0,0,1-2.52-.19,3.59,3.59,0,0,1,.71,2c0,1.84-1.81,3.32-4.1,3.32-.29,0-.72-.1-1-.1s-.93.65-.93,1.17c0,.93,1.26,1,2.05,1,.4,0,2.26-.07,2.65-.07,1.38,0,3.26.14,3.26,2.12,0,2.36-3,4.15-6.17,4.15-2.17,0-4.13-.81-4.13-2.46,0-1.45,1.74-2,2.7-2.33v0c-1.44-.24-2.13-1.15-2.13-1.91a.88.88,0,0,1,.41-.86c.09-.07.79-.52,1.57-1a3.37,3.37,0,0,1-2.22-3c0-1.72,1.41-3.41,4.25-3.41a5.44,5.44,0,0,1,1.69.26,6.82,6.82,0,0,0,2.29.29ZM187,46c0-1.26-1.05-1.64-3.67-1.64-1.6,0-2.6.12-3.17.71a1.75,1.75,0,0,0-.5,1.19c0,1.32,1.57,2.15,3.27,2.15C184.94,48.45,187,47.52,187,46Zm-2.36-8.49c0-1.79-1-2.88-2.31-2.88s-2.15,1.14-2.15,2.71c0,2,1.2,2.91,2.32,2.91C184,40.29,184.63,38.91,184.63,37.55Z" fill="#201747"/><path d="M198.3,41.89a5.24,5.24,0,0,1-4.2,2.51c-1.79,0-4.48-1.12-4.48-4.94s2.48-5.41,4.81-5.41a3.43,3.43,0,0,1,3.7,3.24c0,.45-.12.5-.33.5-.65,0-3.58-.1-4.18-.1-1,0-1.57,0-2.24.05-.24,5.15,3,5.32,3.56,5.32A4.43,4.43,0,0,0,198,41.61Zm-2.46-4.77c.22,0,.43,0,.43-.62a1.9,1.9,0,0,0-2.05-1.93,3,3,0,0,0-2.86,2.55Z" fill="#201747"/><path d="M208.48,41.89a5.24,5.24,0,0,1-4.2,2.51c-1.79,0-4.48-1.12-4.48-4.94s2.48-5.41,4.82-5.41a3.42,3.42,0,0,1,3.69,3.24c0,.45-.12.5-.33.5-.64,0-3.58-.1-4.17-.1-1,0-1.58,0-2.25.05-.23,5.15,3,5.32,3.56,5.32a4.43,4.43,0,0,0,3-1.45ZM206,37.12c.22,0,.43,0,.43-.62a1.9,1.9,0,0,0-2-1.93,3,3,0,0,0-2.86,2.55Z" fill="#201747"/><path d="M213.35,36.34h0c.62-1,1.58-2.29,3.08-2.29a1,1,0,0,1,1,1,1.07,1.07,0,0,1-1.05,1.17,1,1,0,0,1-.58-.21,1.19,1.19,0,0,0-.81-.24,1.82,1.82,0,0,0-1.71,1.67v5c0,.84,0,1.17,1.62,1.17h.69v.52c-.38,0-1.91,0-3.13,0s-2.19,0-2.52,0v-.52c.76,0,1.59,0,1.59-.67v-6c0-.72-.11-.81-1.14-1.43v-.29c.52-.24,1-.45,2-1a4.35,4.35,0,0,1,.71-.38.24.24,0,0,1,.22.26Z" fill="#201747"/><path d="M61.92,14.52v-.27h.13c.45,0,.68-.17.68-.52V8.94c0-.35-.23-.52-.68-.52h-.13V8.14l1.06,0,1.22,0,1.22,0,1.12,0a13.19,13.19,0,0,0,0,1.4l-.28.07a1.54,1.54,0,0,0-.21-.76,1.13,1.13,0,0,0-.9-.31H63.9v2.4H65a.62.62,0,0,0,.54-.22,1.2,1.2,0,0,0,.18-.58H66c0,.35,0,.71,0,1.07s0,.69,0,1l-.27.05a2.21,2.21,0,0,0-.14-.66A.63.63,0,0,0,65,11.4H63.9v2.13a.49.49,0,0,0,.34.52,2.66,2.66,0,0,0,.77.07A3.15,3.15,0,0,0,66.25,14a1.44,1.44,0,0,0,.62-1l.26.06c-.14.57-.25,1-.32,1.45H65.67c-.58,0-1,0-1.32,0s-.74,0-1.33,0Z" fill="#201747"/><path d="M75.81,9.45l-.25,0a1.55,1.55,0,0,0-.33-.8.94.94,0,0,0-.75-.36,1.06,1.06,0,0,0-.83.31,1.14,1.14,0,0,0-.3.85,1.21,1.21,0,0,0,.72,1l1.31.74a1.88,1.88,0,0,1,.05,2.92,2.43,2.43,0,0,1-1.55.48,3.31,3.31,0,0,1-1.45-.41c0-.16,0-.39-.07-.7l-.09-.69.26,0a1.94,1.94,0,0,0,.42,1,1.28,1.28,0,0,0,1,.44,1.15,1.15,0,0,0,.8-.28,1,1,0,0,0,.32-.76,1.27,1.27,0,0,0-.69-1.09l-1.3-.75a1.81,1.81,0,0,1-.7-1.48,1.79,1.79,0,0,1,.56-1.39A2.09,2.09,0,0,1,74.41,8c.17,0,.6.05,1.31.14A10.81,10.81,0,0,0,75.81,9.45Z" fill="#201747"/><path d="M83.79,8.6h-1.5a.87.87,0,0,0-.63.16,1.6,1.6,0,0,0-.22.67h-.28a14.35,14.35,0,0,0,.17-1.57h.22a.32.32,0,0,0,.21.25,1.24,1.24,0,0,0,.34,0h4.72c.31,0,.48-.09.49-.28l.22,0c0,.17-.06.42-.1.75,0,.13,0,.38,0,.74l-.27.1c0-.59-.26-.88-.68-.88H85v4.86a.88.88,0,0,0,.17.62.83.83,0,0,0,.59.17h.17v.27H85.2c-.36,0-.62,0-.8,0s-.48,0-.84,0h-.7v-.27H83a1,1,0,0,0,.57-.11.86.86,0,0,0,.19-.66Z" fill="#201747"/><path d="M92.14,13.94a.74.74,0,0,1-.22.51.73.73,0,0,1-.51.21.69.69,0,0,1-.51-.21.74.74,0,0,1-.22-.51.73.73,0,0,1,1.46,0Z" fill="#201747"/><path d="M128.77,8.07v5.68a.42.42,0,0,0,.25.44,1.78,1.78,0,0,0,.57.06h.21v.27H129c-.36,0-.62,0-.76,0H126.6v-.27h.2a1.9,1.9,0,0,0,.58-.06.43.43,0,0,0,.27-.43V9.16l-1.24.58-.15-.26a17.35,17.35,0,0,0,2.25-1.41Z" fill="#201747"/><path d="M136.33,14.52l2.75-5.28h-2.85l-.26.57h-.25l.21-1.6h4.13l.07.11-3.36,6.42Z" fill="#201747"/><path d="M145.42,13.17a1.69,1.69,0,0,1,1.27-1.59l-.13-.09a1.89,1.89,0,0,1-1-1.65,1.6,1.6,0,0,1,.68-1.39,2.16,2.16,0,0,1,1.26-.38,1.9,1.9,0,0,1,1.18.36,1.35,1.35,0,0,1,.52,1.11c0,.65-.41,1.17-1.24,1.55a1.87,1.87,0,0,1,1.35,1.74,1.72,1.72,0,0,1-.6,1.34,2.07,2.07,0,0,1-1.39.49,2.26,2.26,0,0,1-1.28-.36A1.3,1.3,0,0,1,145.42,13.17Zm.75-.08a1.28,1.28,0,0,0,.33.9,1.15,1.15,0,0,0,.87.34.91.91,0,0,0,.71-.29,1,1,0,0,0,.27-.72,1.28,1.28,0,0,0-.48-1,9.72,9.72,0,0,0-1-.62A1.51,1.51,0,0,0,146.17,13.09Zm.28-3.68a1.35,1.35,0,0,0,.4,1,4,4,0,0,0,.9.59,1.59,1.59,0,0,0,.71-1.36,1.31,1.31,0,0,0-.29-.85.93.93,0,0,0-.77-.36.87.87,0,0,0-.67.3A1,1,0,0,0,146.45,9.41Z" fill="#201747"/><path d="M157.78,10.88l0,.22a1.53,1.53,0,0,1-.55.52,1.61,1.61,0,0,1-.81.23,1.42,1.42,0,0,1-1.17-.54,1.93,1.93,0,0,1-.38-1.22,1.85,1.85,0,0,1,.67-1.46,2.18,2.18,0,0,1,1.51-.56,1.94,1.94,0,0,1,1.6.75,2.66,2.66,0,0,1,.54,1.7,3.65,3.65,0,0,1-1.38,2.79A5.43,5.43,0,0,1,155,14.66l-.13-.25a4.36,4.36,0,0,0,2.34-1.32,3.64,3.64,0,0,0,.94-2.49,3.4,3.4,0,0,0-.27-1.36c-.23-.56-.55-.84-1-.84a.82.82,0,0,0-.71.34,1.28,1.28,0,0,0-.23.79,2,2,0,0,0,.31,1.06,1.05,1.05,0,0,0,.89.52A1.31,1.31,0,0,0,157.78,10.88Z" fill="#201747"/><rect x="101.96" y="16.81" width="13.57" height="1.29" fill="#201747"/><rect x="101.96" y="19.38" width="13.57" height="1.29" fill="#201747"/><path d="M108.75,2.79a1.4,1.4,0,1,1,1.39-1.39A1.4,1.4,0,0,1,108.75,2.79Z" fill="#201747"/><path d="M118.93,6.81A5,5,0,0,0,115,4.54a5.71,5.71,0,0,0-.83,0,2.79,2.79,0,0,0-.35-.42,2.59,2.59,0,0,0-1.33-.75,3.66,3.66,0,0,0-2.27.21,3.88,3.88,0,0,0-1.19.93l-.06.06-.22.3-.23-.3,0-.06a4,4,0,0,0-1.19-.93A3.7,3.7,0,0,0,105,3.34a2.59,2.59,0,0,0-1.33.75,3.54,3.54,0,0,0-.35.42,5.71,5.71,0,0,0-.83,0,5,5,0,0,0-3.93,2.27,5.13,5.13,0,0,0-.18,4.66,8.74,8.74,0,0,0,3,3.7c.15.1.3.21.46.3l.08.06h13.57l.09-.06.46-.3a8.64,8.64,0,0,0,3-3.7A5.1,5.1,0,0,0,118.93,6.81Zm-6.69-2.24a1.54,1.54,0,0,1,1,.74,7.64,7.64,0,0,1,.47,5.23,12.72,12.72,0,0,1-1.69,3.7h-2.6V6.29C110,4.86,110.94,4.31,112.24,4.57Zm-7.94.74a1.54,1.54,0,0,1,1-.74c1.3-.26,2.21.29,2.86,1.72v8h-2.59a12.48,12.48,0,0,1-1.7-3.7A7.58,7.58,0,0,1,104.3,5.31ZM99.61,11a4,4,0,0,1,.1-3.62,3.68,3.68,0,0,1,2.94-1.65h.06a10.34,10.34,0,0,0-.14,5A12.14,12.14,0,0,0,104,14.24H102.3A7.43,7.43,0,0,1,99.61,11Zm18.27,0a7.48,7.48,0,0,1-2.68,3.22h-1.74a11.86,11.86,0,0,0,1.46-3.46,10.22,10.22,0,0,0-.14-5h.06a3.71,3.71,0,0,1,3,1.65A4,4,0,0,1,117.88,11Z" fill="#201747"/></symbol></defs><title>logo--van-kempen-begeer</title><g id="Layer_2" data-name="Layer 2"><g id="Layer_1-2" data-name="Layer 1"><use width="217.5" height="49.26" xlink:href="#logo--van-kempen-begeer"/></g></g></svg>