<svg xmlns="http://www.w3.org/2000/svg" viewBox="0 0 276.07 127.13"><title>merten-storck</title><g id="Layer_2" data-name="Layer 2"><g id="Layer_1-2" data-name="Layer 1"><path d="M12.18,28.59c.05-7.84.08-11.76.18-19.6l6.13-.86c1.47,10.81,2.21,16.22,3.69,27l-4,.56C17.05,28,16.5,24.1,15.4,16.35c-.11,7.92-.15,11.87-.2,19.79l-4,.59C8.75,29.29,7.53,25.58,5.05,18.15,6.23,25.78,6.81,29.59,8,37.22c-1.48.22-2.23.34-3.71.58C2.56,27,1.71,21.63,0,10.86c2.45-.39,3.67-.58,6.12-.95C8.57,17.38,9.78,21.11,12.18,28.59Z" fill="#404041"/><path d="M31.52,18c2.39-.3,3.58-.44,6-.72L38,21.18c-2.39.28-3.58.42-6,.72.39,3.17.59,4.75,1,7.92,3-.36,4.45-.54,7.42-.88l.45,3.87c-4.67.53-7,.82-11.67,1.42C27.78,23.41,27.09,18,25.7,7.18c4.81-.62,7.22-.91,12-1.46.17,1.55.26,2.32.44,3.87-3,.34-4.56.52-7.59.9C31,13.5,31.15,15,31.52,18Z" fill="#404041"/><path d="M56.33,31.18l-.2-.49a3.37,3.37,0,0,1-.2-.57,8,8,0,0,1-.16-.88c-.05-.36-.1-.81-.15-1.36-.17-1.7-.25-2.56-.41-4.26A4.09,4.09,0,0,0,54.28,21,2.72,2.72,0,0,0,52,20.45l-1.5.15c.45,4.42.68,6.62,1.13,11l-4.29.45C46.22,21.24,45.64,15.82,44.48,5c2.67-.28,4-.42,6.67-.68,2.31-.23,4,.13,5.15,1.07a6.42,6.42,0,0,1,2,4.55c.07.85.11,1.28.19,2.13.26,2.8-.53,4.72-2.34,5.78a3.83,3.83,0,0,1,2.47,1.94,9.61,9.61,0,0,1,.94,3.57c.16,1.67.23,2.51.39,4.19.06.67.14,1.26.23,1.76a5.79,5.79,0,0,0,.53,1.49Zm-7-22.79.85,8.33,1.7-.17a2.83,2.83,0,0,0,1.87-.81,3,3,0,0,0,.47-2.32l-.25-2.67a3.42,3.42,0,0,0-.75-2.08,2.08,2.08,0,0,0-1.77-.5Z" fill="#404041"/><path d="M63.38,3.16c5.47-.46,8.2-.67,13.68-1.05.11,1.55.16,2.33.27,3.88l-4.61.34c.69,9.32,1,14,1.74,23.31-1.72.12-2.58.19-4.29.33-.74-9.32-1.12-14-1.86-23.3L63.7,7C63.57,5.49,63.51,4.72,63.38,3.16Z" fill="#404041"/><path d="M88.11,12.92c2.4-.14,3.6-.2,6-.32.07,1.55.11,2.33.19,3.89l-6,.32c.19,3.19.28,4.79.46,8,3-.17,4.47-.25,7.46-.39.07,1.56.11,2.33.19,3.89-4.69.23-7,.36-11.72.65L83,1.71c4.83-.3,7.25-.43,12.09-.67.07,1.56.11,2.34.19,3.89-3,.15-4.58.23-7.63.41C87.85,8.37,87.94,9.89,88.11,12.92Z" fill="#404041"/><path d="M106.11,8.1c.28,7.9.43,11.84.72,19.74-1.55.05-2.32.08-3.87.15-.45-10.9-.67-16.35-1.12-27.25L107.4.53c2,6.46,3.06,9.7,5,16.17-.19-6.53-.29-9.79-.48-16.32l4-.1c.28,10.9.41,16.35.69,27.26l-4.42.12C109.8,19.83,108.58,15.92,106.11,8.1Z" fill="#404041"/><path d="M133.55,18.59a8.36,8.36,0,0,1,.68-3.57,4.32,4.32,0,0,1,2.32-2.16c-2-.83-3-2.69-3.06-5.6V6.75a7,7,0,0,1,1.61-5,6.48,6.48,0,0,1,5-1.72c2,0,3.05,0,5.09,0,0,1.55,0,2.33,0,3.89l-5,0a2.21,2.21,0,0,0-1.64.58,2.83,2.83,0,0,0-.6,2.06V8.22a3,3,0,0,0,.69,2.26,2.84,2.84,0,0,0,1.94.62h1.91c0-1.21,0-1.82,0-3l4.4,0c0,1.21,0,1.82,0,3H148c0,1.56,0,2.34,0,3.89h-1.15c0,3.59-.05,5.38-.09,9a15.75,15.75,0,0,0,.06,1.77,5.57,5.57,0,0,0,.38,1.55l-4.38,0a4.38,4.38,0,0,1-.23-.84c-.05-.27-.1-.71-.15-1.3a4.07,4.07,0,0,1-4,2.44A4.2,4.2,0,0,1,134.79,26a7.67,7.67,0,0,1-1.22-4.63ZM137.9,21a2.86,2.86,0,0,0,.61,2.08,2.52,2.52,0,0,0,3.2.07,2.67,2.67,0,0,0,.68-1.83c0-2.52,0-3.79,0-6.31h-1.67a2.74,2.74,0,0,0-2.18.78,4.12,4.12,0,0,0-.67,2.68Z" fill="#404041"/><path d="M163.68,6.92a7.15,7.15,0,0,1,1.78-5A6.28,6.28,0,0,1,170.41.28a6.33,6.33,0,0,1,4.83,2,7.26,7.26,0,0,1,1.41,5.15c0,.35,0,.52,0,.86l-4.16-.17c0-.45,0-.68,0-1.13A3,3,0,0,0,172,4.84a2.18,2.18,0,0,0-1.61-.66,2.15,2.15,0,0,0-1.65.54,3,3,0,0,0-.65,2.07,4.67,4.67,0,0,0,.56,2.49,10.14,10.14,0,0,0,1.52,2.08c.61.66,1.27,1.32,2,2a17.52,17.52,0,0,1,2,2.16,10.29,10.29,0,0,1,1.48,2.64,8.32,8.32,0,0,1,.48,3.41,7.29,7.29,0,0,1-1.85,5,7.43,7.43,0,0,1-9.59-.35,7.27,7.27,0,0,1-1.47-5.13c0-.67,0-1,0-1.67l4.11.12c0,.78,0,1.17-.07,1.95a2.85,2.85,0,0,0,.54,2.09,2.3,2.3,0,0,0,1.61.64,2.26,2.26,0,0,0,1.65-.53,2.8,2.8,0,0,0,.69-2,4.68,4.68,0,0,0-.54-2.5,9.77,9.77,0,0,0-1.5-2.08c-.61-.66-1.27-1.32-2-2a18.42,18.42,0,0,1-2-2.15,10.48,10.48,0,0,1-1.51-2.61A8.27,8.27,0,0,1,163.68,6.92Z" fill="#404041"/><path d="M182.25,1.11c5.49.27,8.22.43,13.7.79l-.25,3.89-4.62-.29c-.56,9.33-.84,14-1.41,23.33-1.71-.11-2.57-.16-4.29-.25.52-9.34.77-14,1.29-23.34L182.06,5C182.14,3.44,182.18,2.66,182.25,1.11Z" fill="#404041"/><path d="M201.08,8.82a7,7,0,0,1,2.09-4.95,7.9,7.9,0,0,1,10,.8,7,7,0,0,1,1.28,5.21c-.5,5.65-.74,8.48-1.24,14.13a7.14,7.14,0,0,1-2.12,4.92,7.61,7.61,0,0,1-9.69-.78A7.11,7.11,0,0,1,200.06,23C200.47,17.3,200.67,14.47,201.08,8.82Zm3.28,14.73a2.84,2.84,0,0,0,.45,2.13,2.51,2.51,0,0,0,3.25.26,2.88,2.88,0,0,0,.78-2c.48-5.87.73-8.8,1.21-14.68a2.82,2.82,0,0,0-.45-2.12A2.29,2.29,0,0,0,208,6.37a2.25,2.25,0,0,0-1.71.47,2.84,2.84,0,0,0-.79,2C205,14.74,204.81,17.68,204.36,23.55Z" fill="#404041"/><path d="M228.23,32c0-.19-.06-.36-.1-.52a4.14,4.14,0,0,1-.07-.6,6.94,6.94,0,0,1,0-.9c0-.36.07-.81.13-1.36l.45-4.26a4.17,4.17,0,0,0-.39-2.74,2.73,2.73,0,0,0-2.09-1l-1.5-.15c-.44,4.42-.66,6.63-1.11,11-1.71-.18-2.57-.26-4.28-.42,1-10.86,1.55-16.29,2.59-27.15,2.67.25,4,.39,6.67.66,2.3.24,3.92.94,4.83,2.08a6.38,6.38,0,0,1,1,4.85c-.1.86-.15,1.28-.24,2.13q-.47,4.18-3.45,5.19a3.86,3.86,0,0,1,2,2.4A9.51,9.51,0,0,1,233,25c-.18,1.67-.27,2.51-.46,4.18q-.11,1-.12,1.77a5.83,5.83,0,0,0,.22,1.57ZM225.9,8.3c-.34,3.33-.5,5-.84,8.33l1.71.18a2.79,2.79,0,0,0,2-.43,2.89,2.89,0,0,0,.93-2.17c.12-1.07.17-1.6.29-2.67a3.44,3.44,0,0,0-.32-2.19A2.07,2.07,0,0,0,228,8.51Z" fill="#404041"/><path d="M252.56,24.71c-.19,1.44-.29,2.16-.48,3.59a7.27,7.27,0,0,1-2.29,4.83,7.47,7.47,0,0,1-9.54-1.2,7.35,7.35,0,0,1-1-5.24c.67-5.64,1-8.45,1.67-14.09a7.11,7.11,0,0,1,2.26-4.85A7.74,7.74,0,0,1,253,9a7.12,7.12,0,0,1,1,5.26l-.35,2.62-4.13-.54c.15-1.16.22-1.74.37-2.9a2.81,2.81,0,0,0-.35-2.14,2.31,2.31,0,0,0-1.58-.81,2.27,2.27,0,0,0-1.73.39,2.88,2.88,0,0,0-.88,2l-1.8,14.62a2.82,2.82,0,0,0,.35,2.12,2.6,2.6,0,0,0,3.25.41,2.78,2.78,0,0,0,.86-2l.5-3.86Z" fill="#404041"/><path d="M264.87,25.74c-.68.91-1,1.36-1.69,2.27-.49,3.31-.73,5-1.22,8.29l-4.26-.62c1.52-10.8,2.29-16.2,3.81-27l4.41.63c-.69,4.71-1,7.06-1.73,11.76,3-4.37,4.46-6.55,7.49-10.89l4.39.68c-3.2,4.42-4.79,6.63-7.93,11.07,1.51,6.35,2.24,9.52,3.67,15.87l-4.38-.69C266.43,32.56,265.92,30.29,264.87,25.74Z" fill="#404041"/><path d="M39.33,81.18a6.7,6.7,0,0,1,2-1.1,26.72,26.72,0,0,1,3.8,0l.13.38-3.89,1.72,1.11.36-.15,1.38c1.73-1.39,3.12-3.05,4.88-3.75,1.52-.61,3.47-.13,5.24-.13l.06.56L49.32,81v.12h2l.07.41-2.47.38-.06.34a6.83,6.83,0,0,0,.81.18,8.43,8.43,0,0,0,.88,0l-.75,1.83.38.27a9.73,9.73,0,0,0,1.27-.91c1.58-1.54,3.1-3.15,4.71-4.67a2.85,2.85,0,0,1,1.64-.75c4.25-.23,8.52-.39,12.78-.56.44,0,.89.12,1.33.12,1.82,0,3.6,0,5.16-1.3a5.23,5.23,0,0,1,2.58-.91c.42-.06.93.43,1.71.83l-4.4.83.11.61,5.13-.92c0,.69-.14,1.24-1.06,1.26-3.61.07-7.22.19-10.82.31-3.37.11-6.73.22-10.09.36-.86,0-1.71.22-2.57.33l.05.58h7v.17l-6,.74v.27l2.21.25-1.16.64.08.24h2.28l0,.16-1.54.56,1.1,1.75,6.07-4.86,25.15-1.36,0,.55-21.14,1.6,0,.47h4.86V81l-6.15.48c1.57,1.66,3.48,0,5.5.83l-4.39.75.07.43,2.68-.15,0,.29-2,.45c.24.28.46.43.52.62.43,1.44,1,1.13,1.77.23s1.94-1.85,2.85-2.82a5,5,0,0,1,3.72-1.56c2.18-.08,4.36-.23,6.54-.31,1.21,0,2.43,0,3.64,0l0,.52-8.44.51,0,.44h5.53V82l-6.28.62,0,.65h5.31v.2l-4.5.72,0,.44,2.87.32-1.82.75c1.22,1.49,1.36,1.52,2.6.52s2.74-2.23,4.1-3.36c.55-.44,1-1.14,1.65-1.3A19.75,19.75,0,0,1,96,81.16q8.89-.6,17.81-1.17c1.05-.07,2.11,0,3.31,0L114,83.65l.28.46,13.4-5.7a1.13,1.13,0,0,0-.85-.39c-5.61,0-11.22,0-16.82-.14-9.28-.25-18.56-.63-27.84-.95V72.86l.4,0,.27,2.46q19.07-.27,38.07-.5a3.88,3.88,0,0,1,0,.43l-36,1v.21c1.07,0,2.14,0,3.22,0,5.12,0,10.24-.1,15.37-.12,3.35,0,6.7.1,10,0,2.1,0,4.2-.35,6.3-.5a1.06,1.06,0,0,1,.85.28,2.86,2.86,0,0,1,.09,1.11H122a18.57,18.57,0,0,0-.06-3c-.06-.32-.81-.52-1.61-1l2.68-.17-.23,1.48,16,.49V44c2,.71,2.6-.89,3.26-1.88,1.05-1.59,2.52-1.29,3.91-1.37a22.44,22.44,0,0,1,8.54,1.63,9.31,9.31,0,0,0,6.78-.2c4-1.7,7.71-1.08,11.58.36a12.51,12.51,0,0,0,9.34.12,10,10,0,0,1,6.94-.55c-.46.06-.92.1-1.38.18a31,31,0,0,0-4.74.89,17.74,17.74,0,0,1-11.6-.17c-2.89-.92-5.76-1.6-8.89-.23a13.63,13.63,0,0,1-10.33,0c-2.53-.94-5-1.68-7.69-.85-.24.07-.57-.18-1-.32,0,.18.05.46,0,.48-2.2.92-1.72,2.79-1.71,4.55.06,8.66.06,17.32.1,26,0,2.13,0,2.13,2.09,2.23l11.09.53.29-3.14h1.77c.36,2.9.36,2.88,3.34,2.92,4.56,0,9.12.15,13.68.17a14.45,14.45,0,0,0,2.44-.37,4.12,4.12,0,0,0,1.17.46c2.34,0,4.68,0,7,0h9.33c4.06,0,8.11,0,12.17,0,3.06,0,6.11.22,9.17.21,4.5,0,9-.14,13.49-.22a3.38,3.38,0,0,0,.45,0c.91-.21,1.84-1.13,2.65.29a10.59,10.59,0,0,0,1.81,2.1,3.1,3.1,0,0,0,1.17.6l7.68,2.7-.59,4.62,10.88,1,.06.58c-3.26.8-6.5,1.68-9.77,2.4-4.81,1-9.64,2-14.47,3-3.43.67-6.88,1.24-10.31,1.92-5.56,1.08-11.1,2.24-16.66,3.33-7.59,1.49-15.19,2.92-22.78,4.43-4.4.88-8.78,1.87-13.17,2.79-4.19.88-8.39,1.78-12.59,2.61-3.92.77-7.83,1.65-11.79,2.1-1.67.19-3.45-.61-5.19-.91-4.23-.72-8.47-1.41-12.71-2.12-3.89-.66-7.77-1.35-11.66-2-5.6-.93-11.2-1.81-16.78-2.79-2.56-.46-5.08-1.16-7.63-1.66-3-.59-6-1.08-9-1.6-2.48-.43-5-.82-7.43-1.27s-5.21-1-7.82-1.52q-6.84-1.23-13.69-2.39c-3-.5-5.93-.9-8.89-1.41a12,12,0,0,1-4-1c-.87-.5-1.65-.11-2.45-.44a13.19,13.19,0,0,0-3-.64c-1-.15-2.09-.12-3.1-.34a16.54,16.54,0,0,1-2.48-.93l.07-.55c2.86-.29,5.72-.63,8.59-.83,1-.07,1.5-.28,1.41-1.35-.24-2.7,1.84-3.73,3.61-5L38.15,83.8h3.19l.25-.47Zm178.42-3.92.69-1.13c-.42,0-.66,0-.9.06-1.73.23-3.6,1-5.17.55-2-.52-3.77-.19-5.65-.14a17.12,17.12,0,0,1-3.71.08c-1.8-.35-3.49-.72-5.12.47-.17.13-.46.08-.75.12v-.82a7.07,7.07,0,0,0-5.8,1.24l.57-.9c-1.42-.15-3-.82-4-.29-1.48.82-2.67.06-4,.17s-2.42.32-3.55.48l.13-.28c-3.09,0-6.13.07-9.17,0-4.25-.11-8.5-.35-12.75-.49-2.16-.07-2.22-.07-1.9-2.18.13-.84.07-1.45-1.16-1.29V76H141.94l.34,3,.46-.43a8.73,8.73,0,0,1,2.6,1.11,4.7,4.7,0,0,0,5.3,1.09,41.45,41.45,0,0,0,4.49-2.2c1.91-1.08,3.12-.87,4.33.92.17.25.35.48.5.74a1.52,1.52,0,0,0,2.26.65c1.54-.77,3.05-1.61,4.62-2.29s3-1.84,4.57-.42a5.07,5.07,0,0,0,3.84,1.4c7.55,0,15.1.26,22.64.36.66,0,1.33-.54,2-.84l-.19-.64c-3.22,0-6.45,0-9.67,0-5.47,0-10.94.09-16.41.11-.22,0-.45-.25-1-.56,4.43,0,8.43,0,12.43,0,2.11,0,4.22-.21,6.34-.34a2.88,2.88,0,0,0,.91.36c2.11,0,4.22,0,6.33,0,4.44,0,8.83-1.1,13.33,0,1.7.39,3.65-.22,5.48-.37.28.19.55.55.82.55,2.67,0,5.35,0,8-.15a7,7,0,0,0,2.23-1,37.23,37.23,0,0,0-4.28-.36C222,76.39,219.82,76.05,217.75,77.26ZM109.11,84.68,98.17,86.44c.38.47.63,1,1.06,1.26a4.38,4.38,0,0,0,1.93.55,4.85,4.85,0,0,0,1.51-.52c2.09-.71,4.19-1.39,6.27-2.12.45-.16,1.33-.42.13-.9a12.54,12.54,0,0,1,1.59-.26,5.25,5.25,0,0,0,4.66-3.84c-.55.08-1.06.19-1.58.23-6.07.41-12.15.81-18.22,1.24a4.6,4.6,0,0,0-1.19.39l.15.46,17.9-1.18,0,.51-17,1.31c4.58.75,9.15.09,13.73.21l-12.51,1c.29.45.43.83.54.82C101.16,85.3,105.14,85,109.11,84.68ZM224.46,82c.38-.45.67-1.07,1.15-1.3,1.88-.89,3.81-1.65,5.67-2.44l-1.12-.84c-1.53.57-2.91,1.46-4.34,1.53-3.43.18-6.89,0-10.33-.08a4.79,4.79,0,0,0-1.32.41l0,.45a6.78,6.78,0,0,0,1.48.4c1.83.08,3.67,0,5.51.14.43,0,1.2.28,1.22.49.19,1.89,1.11.59,1.85.35l.18.89a4.79,4.79,0,0,0,.16.6c.88-.08,1.76-.2,2.63-.31,3.33-.41,6.66-.83,10-1.22a5.15,5.15,0,0,1,1.29.36c-1.12.26-1.73.47-2.36.54-4.06.44-8.11.94-12.17,1.22-1.56.1-1.79.84-1.79,2s0,2.64,0,4.17c1.95-.32,4-.8,6.07-.94,1.54-.11,1.74-.9,1.7-2.11s0-2.16,0-3.27l4.44-.4v4.68a34,34,0,0,1,4.6-.74c1.73,0,2.31-.66,2.5-2.44.31-2.93.07-3.31-2.72-2.51-.08,0-.19,0,0,0-.51-.57-.79-1.1-1.23-1.32a9.79,9.79,0,0,0-2.09-.66c-1-.28-2.18-1-3-.71C229.71,79.79,227.1,81,224.46,82ZM28.73,88.61c1.05.26,1.74.49,2.45.6,2.82.45,5.66.8,8.47,1.3,4.37.77,8.71,1.64,13.07,2.48,3.77.72,7.54,1.49,11.32,2.17,4.17.75,8.36,1.42,12.54,2.13s8.17,1.36,12.24,2.11c4.37.8,8.73,1.7,13.1,2.49,2.81.52,5.69.76,8.46,1.43s5.88.77,8.74,1.67c1.57.5,3.33.37,5,.68,3.29.6,6.55,1.39,9.84,2a34.36,34.36,0,0,0,8.08.91,91.74,91.74,0,0,0,11.07-1.88c6-1.19,12-2.47,18-3.69,4.83-1,9.66-1.95,14.5-2.92,3.09-.62,6.18-1.29,9.29-1.84,3.94-.7,7.9-1.27,11.85-2,5.09-.87,9.9-3,15.2-3.15,3.11-.12,6.17-1.31,9.26-2,3.71-.78,7.43-1.49,11.14-2.22l6.28-1.25c-.34-.47-.74-.8-1.08-.75a38.91,38.91,0,0,0-6.52,1,80.9,80.9,0,0,1-10.25,1.91c-3.39.57-6.8,1.08-10.2,1.65-1.35.23-2.7.48-4,.83-2.73.73-5.41,1.71-8.17,2.27-3.38.68-6.81,1.06-10.22,1.54-1.81.26-3.63.4-5.43.72-3.77.68-7.53,1.47-11.31,2.16-2.36.43-4.72,1.07-7.16.32a4.15,4.15,0,0,0-2,0c-3.07.68-6.12,1.43-9.17,2.16-.13,0-.22.18-.44.37l1.12.48a10.59,10.59,0,0,1-2.45.89c-2.25.2-4.51.3-6.77.34-2.66,0-5.33.11-8-.07-4-.27-8.08-.7-12.11-1.14-4.52-.5-9-1-13.54-1.65-3.37-.46-6.72-1.11-10.09-1.62-4.49-.68-9-1.32-13.48-2-2.54-.37-5.07-.76-7.6-1.11s-5.27-.67-7.91-1c-4.77-.67-9.55-1.37-14.33-2-1.81-.25-3.64-.37-5.45-.65-3.74-.59-7.47-1.28-11.21-1.87-2.82-.44-5.67-.79-8.5-1.19s-5.64-.94-8.48-1.16A28.78,28.78,0,0,0,28.73,88.61ZM133.9,91.92,100.14,89.5c0,2.26,0,4.14,0,6,0,.4.44,1.07.76,1.13,3.3.57,6.61,1.1,9.93,1.53,3.09.4,6.21.59,9.31,1,4.52.61,9,1.33,13.73,2Zm-31.54-3.5.61.77a17.64,17.64,0,0,1,2.29-.17c4.48.24,8.95.55,13.43.79,2.93.16,5.86.24,8.78.4,2.18.12,4.35.35,6.53.47a1.57,1.57,0,0,0,1-.45c.95-1,1.83-2,3-3.25-2-.18-3.69-.35-5.34-.46-3.81-.26-7.61-.66-11.42-.69s-7.42-1.06-11.11.35c-2.1.8-4.33,1.24-6.5,1.85C103.21,88.15,102.79,88.29,102.36,88.42Zm95.72,5,16.33-2.45V84.09l-17.6,2.17c0,2.2,0,4.23,0,6.26,0,.3.33.59.58,1,.11-2.51.2-4.64.3-6.77h.37ZM99.35,96.57c0-2.26,0-4.19,0-6.11a1.23,1.23,0,0,0-.74-.91c-1.22-.2-2.47-.25-3.7-.34-2.66-.21-5.33-.41-8-.63-.5,0-1-.17-1.52-.26v6.42Zm41.89-4v9.73c3.23-.45,6.38-.9,9.54-1.3,1.06-.14,1.21-.76,1.18-1.67a56.33,56.33,0,0,1,0-6.75c.11-1.2-.33-1.34-1.17-1.24C147.62,91.69,144.5,92.12,141.24,92.54Zm55.68-7.14a11.56,11.56,0,0,1,1.56-.35c4.82-.42,9.65-.79,14.46-1.24.43,0,1.11-.43,1.19-.76.34-1.59-1.46-4.19-3-4.52-4.67-1-9-.73-12.7,2.82A4.31,4.31,0,0,0,196.92,85.4Zm-9.12-1.34L186.23,84c-5.6-.25-11.19-.51-16.79-.73a7.34,7.34,0,0,0-3.05.23c-.37.16-.24,1.5-.35,2.3a4.94,4.94,0,0,1-.23.74l4.1.36L169.72,85c1.66.25,3.41-.53,4.8,1.11l-3.9.18,0,.45,7.94.36-.18-1.49h4.8l-.42,1.58,5-.43Zm-8.38,4.81L169.83,90v7.79c1,.26,1.36,0,1.32-1-.06-1.44,0-2.88,0-4.33h.49v5.36l7.8-1.44Zm18-8.37c-1.42.11-2.72.3-4,.29-2.48,0-5-.16-7.43-.18-1.73,0-3.52.4-5.19.1-3.83-.7-7.43.47-11.11,1a8.34,8.34,0,0,0-1.07.33c.32.19.43.31.54.31,4.55.22,9.09.52,13.64.62,3.68.08,7.32.92,11.05.08C195.41,82.66,196.62,82.22,197.44,80.5ZM84.79,94.4v-6l-11.1-.79c0,1.5.1,2.79,0,4-.11,1.11.47,1.37,1.35,1.49,2.09.28,4.17.58,6.26.85C82.39,94.13,83.51,94.25,84.79,94.4Zm75.89-10.16v.48a12.59,12.59,0,0,1-2.38,0c-1.36-.28-1.51.35-1.36,1.34l8.29.39a21.2,21.2,0,0,0,0-2.4c0-.28-.38-.73-.62-.75-2.9-.25-5.79-.46-8.69-.62q-3.58-.19-7.19-.23a1.38,1.38,0,0,0-1.08.65c-.54,1.31,1.16,3.91,2.58,3.85,2-.08,4-.42,5.79-.62l-.11-2.07Zm-7.33,7.12c.6,0,1.63-.41,2.32-.08s.73,1.38,1.2,2.37l2.42-.35L159,90.67l5,.26c-1.18,1.57-3.43.18-4.32,2.34l9.13-.82a16,16,0,0,1,0-1.71c.08-.86-.38-1.17-1.12-1.23l-13.45-.92c-.8,0-1.61,0-2.49,0Zm-13.29,10.7V92.48l-5.05-.4c0,3,0,5.76,0,8.52a1.18,1.18,0,0,0,.75.83C137.13,101.7,138.49,101.84,140.06,102.06Zm-.93-19,.21-.66-.54-.25c-2.08-1-4.13-2-6.24-2.87a4,4,0,0,0-2.56-.47c-4.13,1.57-8.19,3.33-12.27,5l.12.5ZM61.85,86.73c0,1.27,0,2.25,0,3.23s.37,1.23,1.2,1.35c3,.45,6,1,9,1.36.28,0,.88-.51.91-.82.09-1.41,0-2.84,0-4.52Zm127,.37c0,2.38,0,4.77,0,7.16,0,.19.82.55,1.22.5,1.71-.19,3.39-.56,5.1-.74.88-.09,1.07-.48,1-1.24,0-1.73,0-3.46-.08-5.18a1.46,1.46,0,0,0-1-1C193.19,86.68,191.23,86.9,188.84,87.1Zm-48.54-38-.79.1V81.43A2.06,2.06,0,0,0,141,79.12c-.13-2.06,0-4.13,0-6.2,0-3,0-5.92-.05-8.88,0-2.12-.08-4.24-.15-6.36a7.85,7.85,0,0,0-.16-1,24.22,24.22,0,0,1-.35-2.52C140.26,52.49,140.3,50.78,140.3,49.08Zm45.54,40.73v5.73l1.95-.48V87.43c-.5.1-.91.21-1.33.28-1.94.3-3.89.57-5.82.93a1.18,1.18,0,0,0-.73.82c-.06,2.17,0,4.35,0,6.64l1.76-.12V90.1Zm-124.69,1a19.36,19.36,0,0,1,0-2.55c.2-1.44-.48-1.76-1.76-1.82-2.06-.09-4.11-.38-6.17-.54-.81-.06-1.63,0-2.48,0v3.54Zm36.93-2.42c-1.72-1.94-3.18-3.56-4.6-5.21-.66-.76-1.18-.59-1.85,0-1.51,1.37-3.08,2.66-4.94,4.26ZM221.2,83.77c-1.76.1-3.48.15-5.2.31-.33,0-.87.5-.88.78-.08,1.82,0,3.64,0,5.55,1.86-.16,3.67-.29,5.47-.51a1.05,1.05,0,0,0,.63-.8C221.23,87.29,221.2,85.47,221.2,83.77Zm-67.39,3.6c4.64,1.49,21,1.69,23.31.32C169.18,87.12,161.51,86.53,153.81,87.37Zm-81.36-.92c-1.44-1.93-2.59-3.45-3.72-5-.46-.62-.91-.85-1.57-.22-1.46,1.39-3,2.74-4.71,4.37Zm11,.7-3.56-5.52L74.62,86.7Zm-32-2.25,9.37.48L56.65,80Zm84.2,5.95c1.69.08,3.57.75,4.65.09,1.59-1,2.6-2.87,4.14-4.72-1.74,0-3,0-4.27,0a1.58,1.58,0,0,0-1,.48C138,88,137,89.3,135.63,90.85Zm-86-1.4c0-1.13,0-2.24,0-3.34a.72.72,0,0,0-.52-.43c-2-.17-4.08-.3-6.16-.44l-.31,3ZM128.33,77l0,.54a8.55,8.55,0,0,1,2.35.29c1.78.77,3.47,1.75,5.23,2.58.82.39,1.72.63,2.58.94.1-.89.2-1.78.29-2.67,0-.07-.11-.14-.26-.31l-1.94.65-.11-.26,2-1.07-.06-.25ZM153,100.09c2.23.4,2.37.27,2.24-1.74,0-.33.06-.67.06-1V92.11l-2.3.51ZM36.58,84.36a7.05,7.05,0,0,0,.19,1.9c.19.45.61,1,1,1.11,1.37.3,2.77.4,4.25.59V85.3Zm152.57,2.06c2.12-.28,4.12-.59,6.12-.76.93-.08,1-.54,1-1.28-.06-.95-.53-.76-1.22-.65-1.37.23-2.77.25-4.15.4-.7.07-1.39.22-2.14.35Zm-64.56-10.9-.06.65,14.22.82c-2.1-1.61-4.47-1.47-6.81-1.47Zm90.78,5.56c-.11.87-.2,1.61-.29,2.42l6.13-.6.43-1.82Zm-55.25.56c-.64-.8-1.05-1.34-1.49-1.86-.67-.82-1.3-1.31-2.48-.61a43.38,43.38,0,0,1-4.29,1.91c-.63.29-1.2.7-1.86,1.08,1.62.7,2.48-.59,3.63-1s2.4-.83,3.48-1.2C158.05,80.7,158.41,82.14,160.12,81.64ZM49.56,84.44c-.85-1.09-1.55-2.08-2.36-3a1.13,1.13,0,0,0-1.1,0c-.76.89-1.4,1.87-2.19,3Zm94.31.48c.18-3,.1-3.06-2.24-3-1,0-1.14.64-1.07,1.51C140.72,85.19,140.81,85.26,143.87,84.92Zm28.25-4.44.38-.84c-1.09-.5-2.32-1.58-3.24-1.37-1.82.42-3.48,1.57-5.21,2.41l.26.61,5-2.07Zm-20.73,9.74c-2.68-.7-9-.1-9.73.93Zm17.4,2.88-.34-.18c-.29.28-.82.54-.84.84-.08,1.54,0,3.09,0,4.64l.35.23c.29-.33.81-.64.83-1C168.84,96.13,168.79,94.62,168.79,93.1ZM150.23,89l0-.87-7.05.6.05.76Zm14.4,9.92c.49-.26,1-.39,1-.54.1-1.56.14-3.13.13-4.69,0-.19-.35-.49-.57-.52s-.52.32-.53.5C164.61,95.34,164.63,97,164.63,98.93Zm-5.4.46c0-1.53.05-2.92,0-4.29,0-.32-.52-.61-1-1.16C157.74,98.64,157.83,99.1,159.23,99.39Zm-2.31.45.39-.32c0-1.43,0-2.85,0-4.27,0-.27-.23-.53-.35-.8-.24.23-.66.45-.68.69a30.79,30.79,0,0,0,0,3.72C156.26,99.2,156.68,99.52,156.92,99.84Zm6.93-.86V93.46C162.78,94.6,162.76,97.64,163.85,99Zm-3.73-4.92c-.17,1.75-.61,3.52.14,5.2C160.55,97.5,161,95.74,160.12,94.06ZM147,83.59l-1-1.53c-.34.53-.91,1-1,1.59s.58.91.9,1.37Zm15.14,11a3.14,3.14,0,0,0-.24,4.45Zm4.68,3.87V93.14C166.07,94.54,166.13,97.84,166.86,98.51ZM143.57,79l-2.18,1.89.1.37a9.94,9.94,0,0,0,2.2-.4C143.83,80.83,143.64,79.89,143.57,79Zm4.93,8.62,0-.63-4.33.42.06.54Zm5.87-5.52,3.22-.5C156.46,80.66,155.3,80.81,154.37,82.12Z" fill="#404041"/><path d="M196.28,72.75c-.1-1.75.5-2.42,2-1.89-.16,1.07.4,1.58,1.48,1.53,1.51-.07,3-.07,4.53-.08s2.19.83,2.85,2.09H194.67a1,1,0,0,1-.3,0c-1.92-.51-1.92-.51-3.54,0l.44-.64a1.07,1.07,0,0,0,.19-.61c-1.39.78-2.92,0-4.47.89-1.3.76-3.27.47-4.94.45-.53,0-1.05-.64-1.64-1l-2.57,1.26c1.14-.52,1.22-2.48,2.92-2.2,1.26.2,2.55.2,3.88.3L185,71l.21,0,.14,1.75Zm.44,1h7.54v-.38C201.73,72.53,199.21,73.62,196.72,73.72Z" fill="#404041"/><path d="M139.43,42.55a6.32,6.32,0,0,1,5.86-4.06,39.21,39.21,0,0,1,7.38,1.22,17.51,17.51,0,0,0,9.89-.15,18.12,18.12,0,0,1,8.47-.21c2.21.38,4.38.92,6.93,1.47a15,15,0,0,1-3.59,0A22.54,22.54,0,0,0,161,40.72c-3.49,1.1-7.06.31-10.56-.67a18,18,0,0,0-5.75-.79A4.66,4.66,0,0,0,140.49,42a9,9,0,0,0-.35,1.26Z" fill="#404041"/><path d="M130.4,94.61a4.05,4.05,0,0,1-1.23.55c-2.22.13-2.64.6-2.31,2.77-1.66.43-2,.13-2-1.5,0-.93,0-1.87,0-3.08l5.33.66Z" fill="#404041"/><path d="M117.36,93.05c1.36,0,2.73-.07,4.09.06.28,0,.49.8.87,1.49-1.85-.19-3.17.05-3.38,2,0,.25-.74.42-1.14.63-.23-.44-.63-.88-.64-1.32A21.85,21.85,0,0,1,117.36,93.05Z" fill="#404041"/><path d="M111.46,96.14c-1.64.39-2.23-.13-2.16-1.5,0-.77,0-1.54,0-2.47l5.24.67.08.41C113.13,93.8,110.92,93.57,111.46,96.14Z" fill="#404041"/><path d="M104.28,95.4H103l.26-3.85c1.16.76,2.74-.31,3.78,1.34C105.58,93.24,103.7,93,104.28,95.4Z" fill="#404041"/><path d="M92.22,80.21l12.36-1,0,.58-12.38.88Z" fill="#404041"/><path d="M143.2,77.29h13v.37h-13Z" fill="#404041"/><path d="M207.05,89.75l-.32-3,4.28-.41C211.26,88.94,210.54,89.52,207.05,89.75Z" fill="#404041"/><path d="M203.83,87.19v2.66l-3.93.4V87.19Z" fill="#404041"/><path d="M213.1,85v5.39l-.48,0c.11-1.79.23-3.59.35-5.38Z" fill="#404041"/><path d="M224.07,87.33c-.13-3.48-.06-3.54,3.75-3.07C228,87.34,227.74,87.59,224.07,87.33Z" fill="#404041"/><path d="M236,85.52c.1-.88.18-1.65.26-2.46l2.74-.41C239.5,85.26,239.31,85.44,236,85.52Z" fill="#404041"/><path d="M92.25,90.74l3.73.39c-.51.5-.88.88-1.27,1.25s-.71.65-1.08.94-.62.44-.93.65c-.2-.34-.54-.67-.57-1A15,15,0,0,1,92.25,90.74Z" fill="#404041"/><path d="M90.43,91.58,87.16,93.2l-.33-.31c.91-.74-.71-2.63,1.11-2.65C90.57,90.21,90.57,90.45,90.43,91.58Z" fill="#404041"/><path d="M149.33,95.64c-.12.79,0,2-.42,2.29a5.41,5.41,0,0,1-3.08.77c-2.41-.15-.91-2.18-1.27-3.29s1.35-1.84,3.63-1.71C149.16,93.76,149.33,94.07,149.33,95.64Z" fill="#404041"/><path d="M151.14,93l-.33,5.82-.45,0q.18-2.94.35-5.88Z" fill="#404041"/><path d="M143.2,100.42l5.46-1,.09.43-5.46,1.12Z" fill="#404041"/><path d="M199.08,82.55c2.66-3.87,10.7-4.91,13.28-1.75C207.62,78.8,203.31,79.33,199.08,82.55Z" fill="#404041"/><path d="M208.72,81.38l-6.07.64-.06-.52c1.93-1,4-.47,6.08-.5Z" fill="#404041"/><path d="M173,91.4l4.5-.49v3.14l-4.41.75C173.78,93.53,172.62,92.56,173,91.4Z" fill="#404041"/><path d="M79.8,92.28V89.84l2.8.21-2.49,2.62Z" fill="#404041"/><path d="M75.73,89.36l2.8.37L75.73,92Z" fill="#404041"/><path d="M149.23,86,148.61,84h4.29c-1.12.66-2.94-.27-3.08,2.17Z" fill="#404041"/><path d="M123.16,82.64c2.18-.87,4.3-2,6.56-2.49,1.21-.23,2.67.82,4,1.29l-.1.36-10.42,1Z" fill="#404041"/><path d="M67.55,88.85c1.47-.67,2.91-.4,3.35.83-1.65-1.28-1.84,1-3.07,1.07Z" fill="#404041"/><path d="M63.62,88.06c2.57.56,2.57.56,2.64,1.26-.6.32-1.76-.93-1.92.67a.78.78,0,0,1-.54.07.55.55,0,0,1-.26-.44C63.53,89.15,63.58,88.67,63.62,88.06Z" fill="#404041"/><path d="M193.77,88.31c.15.57.33,1.08.43,1.59.14.78,0,1.34-1,1.41a5.69,5.69,0,0,0-1.26.32c-.8.24-1.3.26-1.21-.87C190.9,88.81,190.83,88.81,193.77,88.31Z" fill="#404041"/><path d="M55.84,87.19c1.31-.08,2.39-.23,2.8,1.26l-2-.49-.14,1.2-.47.06Z" fill="#404041"/><path d="M54.93,87.57,52.31,88.9v-2l2.58.28Z" fill="#404041"/><path d="M219.61,87.88a10,10,0,0,0-1.5.23c-.87.31-1.6.49-1.8-.8s.19-1.76,1.46-1.69a8.69,8.69,0,0,0,1.63-.3Z" fill="#404041"/><path d="M47.33,86.63a11.49,11.49,0,0,1-1.59.88,1.65,1.65,0,0,1-1-.16.72.72,0,0,1-.2-.59,1.86,1.86,0,0,1,.94-.47A12.41,12.41,0,0,1,47.33,86.63Z" fill="#404041"/><path d="M155.2,52.54c-1.46,0-2.29.93-2.29,2.55v5c0,1.63.83,2.56,2.29,2.56s2.3-.93,2.3-2.56v-3h-2.25v1.19h1v1.83c0,.87-.34,1.29-1,1.29s-1-.43-1-1.29V55c0-.86.35-1.3,1-1.3s1,.43,1,1.3v1h1.25v-.94C157.5,53.47,156.66,52.54,155.2,52.54Z" fill="#404041"/><polygon points="161.08 62.57 165.29 62.57 165.29 61.36 162.38 61.36 162.38 58.13 164.75 58.13 164.75 56.94 162.38 56.94 162.38 53.84 165.29 53.84 165.29 52.64 161.08 52.64 161.08 62.57" fill="#404041"/><path d="M173.41,61.29V59.78a2,2,0,0,0-1-2,2,2,0,0,0,1-2V55c0-1.57-.74-2.33-2.27-2.33h-2.27v9.93h1.3V58.42h.65c.93,0,1.31.39,1.31,1.33v1.53a2.58,2.58,0,0,0,.19,1.22l0,.07h1.35l-.09-.16A2.32,2.32,0,0,1,173.41,61.29Zm-1.3-6.23V56c0,1-.49,1.23-1.27,1.23h-.69V53.84h.94C171.8,53.84,172.11,54.21,172.11,55.06Z" fill="#404041"/><polygon points="180.29 59.95 178.78 52.64 177.07 52.64 177.07 62.57 178.24 62.57 178.24 55.78 179.63 62.47 179.65 62.55 180.87 62.55 182.21 55.77 182.21 62.57 183.45 62.57 183.45 52.64 181.74 52.64 180.29 59.95" fill="#404041"/><path d="M188.72,52.64l-1.9,9.93H188l.37-2h2.28l.37,2h1.31l-1.9-9.93Zm1.77,6.82h-1.9l.94-4.91Z" fill="#404041"/><polygon points="199.35 59.06 197.32 52.71 197.29 52.64 195.73 52.64 195.73 62.57 196.92 62.57 196.92 55.32 199.19 62.49 199.21 62.57 200.53 62.57 200.53 52.64 199.35 52.64 199.35 59.06" fill="#404041"/><polygon points="208.05 52.64 206.61 57.16 205.2 52.71 205.17 52.64 203.82 52.64 205.91 58.99 205.91 62.57 207.2 62.57 207.2 58.99 209.31 52.64 208.05 52.64" fill="#404041"/><polygon points="60.7 62.57 64.91 62.57 64.91 61.36 62 61.36 62 58.13 64.37 58.13 64.37 56.94 62 56.94 62 53.84 64.91 53.84 64.91 52.64 60.7 52.64 60.7 62.57" fill="#404041"/><path d="M71.09,57.16c-.74-.6-1.45-1.18-1.45-2.15s.33-1.27,1-1.27,1,.42,1,1.28v.43h1.25v-.37c0-1.62-.83-2.54-2.28-2.54s-2.26.9-2.26,2.54a3.69,3.69,0,0,0,1.81,3c.74.61,1.44,1.18,1.44,2.14s-.34,1.28-1,1.28-1-.43-1-1.28v-.72H68.31v.67c0,1.61.84,2.54,2.29,2.54s2.3-.93,2.3-2.54A3.72,3.72,0,0,0,71.09,57.16Z" fill="#404041"/><polygon points="76.03 53.84 77.82 53.84 77.82 62.57 79.12 62.57 79.12 53.84 80.91 53.84 80.91 52.64 76.03 52.64 76.03 53.84" fill="#404041"/><polyline points="87.66 61.27 83.84 61.27 83.84 62.57 87.66 62.57" fill="#404041"/><path d="M85.76,52.64H83.84v7.58h1.92a1.77,1.77,0,0,0,1.88-2V54.67A1.78,1.78,0,0,0,85.76,52.64Zm.54,2v3.6c0,.62-.26.71-.54.71h-.57v-5h.55C86,53.92,86.3,54,86.3,54.63Z" fill="#404041"/><path d="M100.54,52.71A1.56,1.56,0,0,1,99,53.93h-.1V55H99a3,3,0,0,0,1.23-.33v7.87h1.29V52.64h-.93Z" fill="#404041"/><path d="M108,52.54a2.24,2.24,0,0,0-2.4,2.51v.31a2.05,2.05,0,0,0,1,2,2.14,2.14,0,0,0-1,2.06v.72a2.4,2.4,0,1,0,4.8,0v-.72a2.17,2.17,0,0,0-1-2.06,2.08,2.08,0,0,0,1-2v-.31A2.24,2.24,0,0,0,108,52.54Zm-1.11,6.74c0-.87.36-1.29,1.11-1.29s1.11.42,1.11,1.29v.82c0,.92-.38,1.36-1.11,1.36s-1.11-.46-1.11-1.36ZM108,53.73c.73,0,1.11.45,1.11,1.35v.47c0,.84-.37,1.25-1.11,1.25s-1.11-.41-1.11-1.25v-.47Q106.86,53.73,108,53.73Z" fill="#404041"/><polygon points="113.84 53.83 117.1 53.83 114.66 62.43 114.62 62.57 115.93 62.57 118.45 53.72 118.45 52.64 113.84 52.64 113.84 53.83" fill="#404041"/><path d="M126.58,55.34v-.25c0-1.64-.81-2.55-2.3-2.55s-2.29.91-2.29,2.55v.56h1.23V55c0-.87.35-1.31,1-1.31s1,.43,1,1.4v.45c0,.76-.38,1.19-1,1.22h-.75V58h.69c.76,0,1.11.45,1.11,1.33v.75c0,1-.33,1.39-1,1.39s-1-.43-1-1.29v-.85H122v.78c0,1.63.84,2.57,2.29,2.57s2.3-.92,2.3-2.57v-.75a2.08,2.08,0,0,0-1-2A2.1,2.1,0,0,0,126.58,55.34Z" fill="#404041"/><path d="M101.17,120.4a6.22,6.22,0,0,1,.68,0,2,2,0,0,1,.73.29,1.69,1.69,0,0,1,.6.7,2,2,0,0,1,.2.87,2,2,0,0,1,0,.32,1.64,1.64,0,0,1-.09.35,1.85,1.85,0,0,1-.19.37,1.6,1.6,0,0,1-.33.37,1.8,1.8,0,0,1-.8.41,3.74,3.74,0,0,1-.78.09h-.45v2.62h-1V120.4Zm-.46,2.93h.45a1.34,1.34,0,0,0,.94-.28,1,1,0,0,0,.31-.75,1.33,1.33,0,0,0,0-.32.7.7,0,0,0-.17-.33,1.06,1.06,0,0,0-.39-.26,1.71,1.71,0,0,0-.66-.11h-.44Z" fill="#404041"/><path d="M105.53,120.4a4.71,4.71,0,0,1,1,.08,1.87,1.87,0,0,1,.71.29,1.57,1.57,0,0,1,.41.4,1.65,1.65,0,0,1,.23.43,1.3,1.3,0,0,1,.1.4c0,.12,0,.22,0,.29a1.77,1.77,0,0,1-1.45,1.79l2,2.76h-1.19l-1.84-2.64h-.17v2.64h-1V120.4Zm-.18,2.95h.3l.33,0a1.36,1.36,0,0,0,.46-.12,1.12,1.12,0,0,0,.41-.32.9.9,0,0,0,.18-.6.94.94,0,0,0-.14-.54.83.83,0,0,0-.35-.3,1.41,1.41,0,0,0-.44-.14l-.42,0h-.33Z" fill="#404041"/><path d="M112.58,120.28a3.43,3.43,0,0,1,1.33.26,3.26,3.26,0,0,1,1.07.7,3.38,3.38,0,0,1,.7,1.06,3.6,3.6,0,0,1,.25,1.32,3.53,3.53,0,0,1-.25,1.32A3.38,3.38,0,0,1,115,126a3.51,3.51,0,0,1-3.74.7,3.21,3.21,0,0,1-1.06-.7,3.06,3.06,0,0,1-.7-1.06,3.34,3.34,0,0,1-.25-1.32,3.41,3.41,0,0,1,.25-1.32,3.06,3.06,0,0,1,.7-1.06,3.21,3.21,0,0,1,1.06-.7A3.44,3.44,0,0,1,112.58,120.28Zm0,5.79a2.49,2.49,0,0,0,1-.18,2.29,2.29,0,0,0,.75-.5,2.43,2.43,0,0,0,.5-.78,3,3,0,0,0,0-2,2.43,2.43,0,0,0-.5-.78,2.29,2.29,0,0,0-.75-.5,2.49,2.49,0,0,0-1-.18,2.54,2.54,0,0,0-1,.18,2.29,2.29,0,0,0-.75.5,2.25,2.25,0,0,0-.49.78,2.81,2.81,0,0,0,0,2,2.25,2.25,0,0,0,.49.78,2.29,2.29,0,0,0,.75.5A2.54,2.54,0,0,0,112.58,126.07Z" fill="#404041"/><path d="M118.13,120.4v3.89c0,.17,0,.36,0,.56a1.27,1.27,0,0,0,.17.55,1.35,1.35,0,0,0,.46.46,1.46,1.46,0,0,0,1.51,0,1.35,1.35,0,0,0,.46-.46,1.28,1.28,0,0,0,.18-.55c0-.2,0-.39,0-.56V120.4h1v4.14a3.5,3.5,0,0,1-.11.82,2,2,0,0,1-.49.85,2,2,0,0,1-.3.27,1.84,1.84,0,0,1-.39.24,2.17,2.17,0,0,1-.49.17,2.25,2.25,0,0,1-.6.07,2.58,2.58,0,0,1-1.1-.24,2.55,2.55,0,0,1-.39-.24,2,2,0,0,1-.3-.27,2.09,2.09,0,0,1-.48-.85,3.07,3.07,0,0,1-.12-.82V120.4Z" fill="#404041"/><path d="M124.83,120.4a6.29,6.29,0,0,1,1.26.11,2.94,2.94,0,0,1,1.13.51,3,3,0,0,1,.91,1.12,3.48,3.48,0,0,1,0,3,3,3,0,0,1-1,1.12,2.87,2.87,0,0,1-.56.32,2.81,2.81,0,0,1-.56.18,3.82,3.82,0,0,1-.59.09c-.2,0-.42,0-.64,0h-1.33V120.4Zm-.39,5.51h.43a6.78,6.78,0,0,0,.84-.07,2.06,2.06,0,0,0,.89-.39,2.24,2.24,0,0,0,.33-.3,2,2,0,0,0,.28-.41,2.36,2.36,0,0,0,.2-.51,2,2,0,0,0,.08-.61,2.37,2.37,0,0,0-.26-1.12,2.07,2.07,0,0,0-.62-.73,1.47,1.47,0,0,0-.44-.24,2.13,2.13,0,0,0-.46-.13,3.71,3.71,0,0,0-.45-.06l-.39,0h-.43Z" fill="#404041"/><path d="M131.75,126.84l1.35-6.93,2.24,5,2.26-5,1.22,6.93h-1l-.66-3.89-1.87,4.18L133.43,123l-.68,3.89Z" fill="#404041"/><path d="M143.72,121.32h-2.59V123h2.51v.93h-2.51v2h2.59v.93h-3.55V120.4h3.55Z" fill="#404041"/><path d="M144.8,126.84l1.35-6.93,2.24,5,2.26-5,1.22,6.93h-1l-.65-3.89-1.88,4.18L146.48,123l-.67,3.89Z" fill="#404041"/><path d="M154.19,120.4a4.45,4.45,0,0,1,1.05.1,1.64,1.64,0,0,1,1.24,1.67,1.58,1.58,0,0,1,0,.38,1.26,1.26,0,0,1-.4.68,1.14,1.14,0,0,1-.24.15,2,2,0,0,1,.34.12,1.36,1.36,0,0,1,.49.34,1.43,1.43,0,0,1,.35.6,2.62,2.62,0,0,1,.08.61,1.81,1.81,0,0,1-.1.63,1.57,1.57,0,0,1-.32.53,1.77,1.77,0,0,1-.92.51,2.77,2.77,0,0,1-.47.09l-.42,0h-1.61V120.4Zm0,2.77h.31a2.17,2.17,0,0,0,.41,0,.8.8,0,0,0,.4-.2.77.77,0,0,0,.21-.37,1.8,1.8,0,0,0,.05-.37,1.88,1.88,0,0,0,0-.31.79.79,0,0,0-.57-.51,3,3,0,0,0-.42,0h-.35Zm0,2.74h.61a3.37,3.37,0,0,0,.5,0,1,1,0,0,0,.48-.2.83.83,0,0,0,.24-.31.91.91,0,0,0,.09-.41.89.89,0,0,0-.27-.67.85.85,0,0,0-.48-.24,2.59,2.59,0,0,0-.54,0h-.63Z" fill="#404041"/><path d="M161.85,121.32h-2.59V123h2.51v.93h-2.51v2h2.59v.93H158.3V120.4h3.55Z" fill="#404041"/><path d="M164.27,120.4a4.59,4.59,0,0,1,1,.08,1.8,1.8,0,0,1,.71.29,1.61,1.61,0,0,1,.42.4,2,2,0,0,1,.23.43,2.34,2.34,0,0,1,.1.4c0,.12,0,.22,0,.29a1.8,1.8,0,0,1-.39,1.17,1.83,1.83,0,0,1-1.05.62l2,2.76h-1.19l-1.85-2.64h-.17v2.64h-1V120.4Zm-.18,2.95h.31l.32,0a1.31,1.31,0,0,0,.46-.12,1.12,1.12,0,0,0,.41-.32.9.9,0,0,0,.18-.6.94.94,0,0,0-.14-.54.78.78,0,0,0-.35-.3,1.33,1.33,0,0,0-.44-.14l-.41,0h-.34Z" fill="#404041"/><path d="M173.57,120.28a3.48,3.48,0,0,1,1.34.26,3.17,3.17,0,0,1,1.76,1.76,3.41,3.41,0,0,1,.25,1.32,3.34,3.34,0,0,1-.25,1.32,3.17,3.17,0,0,1-1.76,1.76,3.58,3.58,0,0,1-2.68,0,3.17,3.17,0,0,1-1.76-1.76,3.34,3.34,0,0,1-.25-1.32,3.41,3.41,0,0,1,.25-1.32,3.17,3.17,0,0,1,1.76-1.76A3.48,3.48,0,0,1,173.57,120.28Zm0,5.79a2.49,2.49,0,0,0,1-.18,2.24,2.24,0,0,0,.76-.5,2.4,2.4,0,0,0,.49-.78,3,3,0,0,0,0-2,2.4,2.4,0,0,0-.49-.78,2.24,2.24,0,0,0-.76-.5,2.65,2.65,0,0,0-1.92,0,2.24,2.24,0,0,0-.76.5,2.4,2.4,0,0,0-.49.78,3,3,0,0,0,0,2,2.4,2.4,0,0,0,.49.78,2.24,2.24,0,0,0,.76.5A2.49,2.49,0,0,0,173.57,126.07Z" fill="#404041"/><path d="M181.24,121.32H179V123h2.18v.93H179v3h-1V120.4h3.23Z" fill="#404041"/></g></g></svg>