<svg xmlns="http://www.w3.org/2000/svg" xmlns:xlink="http://www.w3.org/1999/xlink" viewBox="0 0 115.96 152.11"><defs><clipPath id="clip-path"><circle id="SVGID" cx="55.85" cy="55.85" r="55.85" fill="#b9b8ab"/></clipPath></defs><title>board</title><g id="Layer_2" data-name="Layer 2"><g id="Layer_1-2" data-name="Layer 1"><circle id="SVGID-2" data-name="SVGID" cx="55.85" cy="55.85" r="55.85" fill="#b9b8ab"/><g clip-path="url(#clip-path)"><polygon points="59.91 152.12 23.67 83.23 29.49 77.12 23.67 83.23 17.34 68.34 18.14 57.86 20.24 52.46 28.98 49.26 29.89 45.6 26.16 39.12 26.06 32.05 29.89 27.4 35.65 27.11 40.13 29.81 47.76 45.29 50.45 44.18 50.96 39.8 46.8 33.12 45.05 24.01 47.28 17.71 52.22 14.41 58.72 14.41 63.95 17.32 66.42 20.08 70.72 30.04 73.83 26.79 79.84 26.72 83.72 28.37 85.71 30.18 114.34 89.32 115.96 96.5 59.91 152.12" fill="#676260"/></g><path d="M31.94,59.26H18.73L18.12,59V56.69a6.4,6.4,0,0,1,4.48-6.12l5.33-1.68A1.55,1.55,0,0,0,29,47.56l.17-1.75c-2.62-2.3-4.24-6.57-4.24-11.26a8.4,8.4,0,0,1,8.23-8.37,8.21,8.21,0,0,1,6,2.44,8.62,8.62,0,0,1,2.53,6.19c-.06,4.59-1.68,8.75-4.24,11V46a10.93,10.93,0,0,0-1.32.94L36,45.2l.3-.24c2.38-1.9,4-5.88,4-10.16a7.22,7.22,0,0,0-2.11-5.19,6.87,6.87,0,0,0-4.95-2,7,7,0,0,0-6.86,7c0,4.38,1.58,8.47,4,10.41l.3.24-.24,2.49a3,3,0,0,1-2.05,2.54L23,51.91a5,5,0,0,0-3.51,4.78v1.17H31.94Zm61.64-3.71a6.51,6.51,0,0,0-4.47-5.12l-5.43-1.72a1.59,1.59,0,0,1-1.11-1.37l-.18-1.79C85,43.27,86.65,39,86.72,34.35a8.8,8.8,0,0,0-2.57-6.3,8.33,8.33,0,0,0-6.08-2.48,8.55,8.55,0,0,0-8.38,8.51c0,4.79,1.65,9.13,4.33,11.48l0,.23a11,11,0,0,1,1.33.89l.17-1.74-.3-.24c-2.49-2-4.09-6.15-4.09-10.62a7.14,7.14,0,0,1,7-7.11A7,7,0,0,1,83.16,29a7.37,7.37,0,0,1,2.15,5.29c-.06,4.37-1.66,8.44-4.09,10.37l-.3.24.25,2.54a3,3,0,0,0,2.08,2.57l5.44,1.72a5.1,5.1,0,0,1,3.49,4v2.13H79.76v1.4H93l.59-.28V55.55ZM77,58.89V54.61a8.85,8.85,0,0,0-6-7.13L63.36,45.1A2.49,2.49,0,0,1,61.63,43l-.25-2.62c3.63-3.1,5.92-9,6-15.43a12,12,0,0,0-3.48-8.55A11.26,11.26,0,0,0,55.67,13,11.58,11.58,0,0,0,44.31,24.54c0,6.63,2.3,12.64,6,15.81L50.07,43a2.47,2.47,0,0,1-1.73,2.13l-7.53,2.38a8.84,8.84,0,0,0-6.05,7.13v4.33l.68.32H76.16ZM36.16,54.76a7.4,7.4,0,0,1,5.07-5.94l7.54-2.38a3.88,3.88,0,0,0,2.7-3.33l.33-3.38-.3-.23c-3.51-2.8-5.78-8.67-5.78-15a10.18,10.18,0,0,1,10-10.13,10,10,0,0,1,7.22,2.95A10.5,10.5,0,0,1,66,24.9C65.9,31,63.63,36.77,60.2,39.5l-.3.23.34,3.38a3.88,3.88,0,0,0,2.7,3.33l7.53,2.38a7.43,7.43,0,0,1,5.08,5.94v3.1H36.16Zm56,7.27V66.5l-7.54.94-.11.48a29.36,29.36,0,0,1-3.73,8.87l-.26.41L85,83.11l-7.4,7.41-5.91-4.6-.42.26a29.27,29.27,0,0,1-8.91,3.64l-.47.11-1,7.36H50.44l-.93-7.43L49,89.75a29,29,0,0,1-8.63-3.57L40,85.92l-5.91,4.6-7.41-7.41,4.51-5.91-.26-.41a29.25,29.25,0,0,1-3.73-8.87l-.11-.48-7.54-.94V62h-1.4v5.81h.7l7.1.88a30.61,30.61,0,0,0,3.54,8.4l-4.67,6.12L34,92.39l6.12-4.76A30.77,30.77,0,0,0,48.24,91l1,7.7H62.14l1-7.62a30.94,30.94,0,0,0,8.44-3.45l6.12,4.76,9.15-9.15-4.66-6.12a30.58,30.58,0,0,0,3.53-8.4l7-.88h.79V62ZM56,82.48A21.38,21.38,0,0,0,77.32,62h-1.4a20,20,0,0,1-39.87,0H34.64A21.39,21.39,0,0,0,56,82.48Z" fill="#fff" stroke="#fff" stroke-miterlimit="10" stroke-width="1.42"/></g></g></svg>