<svg xmlns="http://www.w3.org/2000/svg" viewBox="0 0 126 126">
  <circle fill="#CDD476" cx="63" cy="63" r="63"/>
  <path fill="#7C8C42" d="M124.7 75.6l-24.5-45.7-6.6-3.1-17.8 17.4-.6 3-3.8 3.8-15.8-6.2-17.7 4-8.7 11.9L26 74l2.3 11 21.2 39.5c4.3.9 8.9 1.5 13.5 1.5 30.5 0 55.9-21.7 61.7-50.4z"/>
  <path fill="none" stroke="#FFF" stroke-width="2.83" stroke-miterlimit="10" d="M73.2 91.3c10.6-10.6 10.6-27.8 0-38.5s-27.9-10.6-38.5 0-10.6 27.9 0 38.5 27.8 10.6 38.5 0z"/>
  <circle fill="none" stroke="#FFF" stroke-width="1.42" stroke-miterlimit="10" cx="53.9" cy="72.1" r="19.8"/>
  <path fill="none" stroke="#FFF" stroke-width="2.83" stroke-miterlimit="10" d="M78.4 49.5c1.3 1.3 3.3 1.2 4.6 0l15.3-15.4c1.2-1.3 1.2-3.3 0-4.5l-1.9-1.9c-1.3-1.2-3.3-1.2-4.6 0L76.5 43c-1 1-1.2 2.5-.6 3.8.2.3.3.6.6.8l1.9 1.9zM75.8 46.6L71.4 51M79.6 50.5l-4.4 4.4"/>
</svg>
