<svg xmlns="http://www.w3.org/2000/svg" xmlns:xlink="http://www.w3.org/1999/xlink" viewBox="0 0 129.62 130.71"><defs><clipPath id="clip-path"><circle cx="63" cy="63" r="63" fill="#cdd476"/></clipPath></defs><title>kf_6</title><g id="Layer_2" data-name="Layer 2"><g id="Layer_1-2" data-name="Layer 1"><circle cx="63" cy="63" r="63" fill="#ccccc3"/><circle cx="63" cy="63" r="63" fill="#cdd476"/><g clip-path="url(#clip-path)"><polygon points="65.22 130.71 35.22 74.71 35.01 67.05 34.01 63 33.9 56.27 37.12 47.27 41.23 42.27 44.57 38.94 48.9 37.27 50.69 35.82 52.68 35.27 56.46 33.94 65.57 32.71 77.11 35.88 90.29 47.84 129.62 120.88 65.22 130.71" fill="#7c8c42"/></g><path d="M63,92.22a30.54,30.54,0,1,1,11.92-2.41A30.41,30.41,0,0,1,63,92.22Zm0-58.4A27.78,27.78,0,1,0,90.78,61.6,27.81,27.81,0,0,0,63,33.82Z" fill="#fff"/><path d="M52.06,71h-4.9V56.27h-4V52.12h13v4.15h-4Z" fill="#fff"/><path d="M62.46,52.12h4.83l3.82,10.07,4-10.07H80L82.89,71H78L76.61,60.12h0L72,71h-2L65.76,60.12h-.05L64.14,71H59.26Z" fill="#fff"/></g></g></svg>