<svg xmlns="http://www.w3.org/2000/svg" viewBox="0 0 126 126">
  <circle fill="#CDD476" cx="63" cy="63" r="63"/>
  <path fill="#7C8C42" d="M120.4 89L93.5 39.1l-11.4-4.4-6 5.3H62L33.2 66.3v2.4l-2.1 2.4 29.3 54.8c.8 0 1.7.1 2.6.1 25.5 0 47.5-15.2 57.4-37z"/>
  <path fill="#FFF" d="M91.6 53.1c-1.7 1.7-3.9 2.8-6.3 3.2l.1 4.5c0 1.3-.5 2.5-1.4 3.4l-27 27c-.9.9-2.1 1.4-3.3 1.4-1 0-2-.4-2.7-1.1L32.2 72.9c-.7-.7-1.1-1.7-1.1-2.7 0-1.3.5-2.4 1.4-3.3l27-27c.9-.9 2.1-1.4 3.3-1.4l10.9.2c.4-.7.9-1.3 1.5-1.9 2.2-2.2 5.1-3.4 8.2-3.4 3.1 0 6 1.2 8.2 3.4 4.4 4.5 4.4 11.8 0 16.3zm-9.5 7.8l-.1-4.5c-1.8-.2-3.5-.8-5-1.8-.2.3-.5.6-.7.9-1.1 1.1-2.5 1.7-4 1.6-1.5 0-3-.6-4-1.6-2.2-2.2-2.2-5.8 0-8 2.2-2.1 5.8-2.1 8 0 1 1 1.6 2.3 1.6 3.7 1.2 1 2.6 1.7 4.2 2l-.2-10.7c0-.2 0-.3-.2-.5-.1-.1-.3-.2-.4-.2L63 41.4c-.4 0-.8.2-1.1.5l-27 27c-.3.3-.5.7-.5 1.1 0 .2 0 .3.2.5L53 89.3c.3.3 1.1.1 1.6-.3l27-27c.3-.3.5-.7.5-1.1zm-9.5-11.8c-.1 0-.2-.1-.4-.1-.6 0-1.2.3-1.6.7-1 .9-1 2.5-.1 3.5s2.5 1 3.5.1c.2-.2.4-.5.6-.9-.9-1-1.5-2.1-2-3.3zm12.5 4.1c1.6-.3 3-1.1 4.2-2.2 3.3-3.3 3.3-8.6 0-11.9-1.6-1.6-3.7-2.5-5.9-2.5-2.1 0-4.1.8-5.6 2.2l3.5.1c1 0 1.9.4 2.6 1.1.7.7 1.1 1.6 1.1 2.6l.1 10.6z"/>
</svg>
