<svg xmlns="http://www.w3.org/2000/svg" viewBox="0 0 126 126">
  <circle fill="#CDD476" cx="63" cy="63" r="63"/>
  <path fill="#7C8C42" d="M63 126c22.8 0 42.8-12.1 53.8-30.3L92 49.6 39 44l-3-4-6-4h-8l-2 1 20 37 2 3-2 6 23 43z"/>
  <path fill="#FFF" d="M50.2 85.1c2 0 3.7 1.6 3.7 3.7 0 2-1.7 3.7-3.7 3.7s-3.7-1.6-3.7-3.7 1.6-3.7 3.7-3.7zm1.1 3.7c0-.6-.5-1.1-1.1-1.1s-1.2.5-1.2 1.1.5 1.1 1.1 1.1 1.2-.5 1.2-1.1zM84 88.8c0 2.1-1.7 3.7-3.7 3.7s-3.7-1.7-3.6-3.7 1.7-3.7 3.7-3.6c2-.1 3.6 1.6 3.6 3.6zm-2.5 0c0-.6-.5-1.1-1.1-1.1s-1.1.5-1.1 1.1.5 1.1 1.1 1.1 1.1-.5 1.1-1.1zM24.5 36.4v-.2c.2-1 1.2-1.6 2.2-1.4l6.8 1.2c1.1.2 2.2.8 3 1.6.8.8 1.4 1.8 1.7 2.9L45 70.3c.1.6.2 1.2.2 1.8 0 .7-.1 1.5-.2 2.2s-.4 1.4-.7 2.1l-1.9 3.8-.4-.2h.3v.1L42 80h-.5l.6-.5c.1.2.2.3.2.5h-.8l.6-.5-.4.4.1-.6c.1 0 .2.1.3.2l-.4.4.1-.6h47.8c1.2 0 2.1.9 2.1 2.1 0 1.2-.9 2.1-2.1 2.1H41.9c-.7 0-1.4-.1-2-.5-.6-.3-1.2-.9-1.5-1.5-.2-.4-.3-.9-.3-1.4 0-.6.2-1.3.4-1.8l1.9-3.7c.2-.3.3-.7.3-1.1.1-.4.1-.9.1-1.4 0-.3 0-.6-.1-.9l-6.8-29.8c-.1-.3-.3-.6-.5-.8-.2-.2-.5-.4-.8-.5l-6.5-1.3c-1-.3-1.8-1.3-1.6-2.4z"/>
  <path fill="#FFF" d="M37 42.8L90.2 48c.8.1 1.5.4 2 1s.8 1.3.8 2c0 .3 0 .7-.2 1L87 71.1V71c-.6 1.8-2.3 3-4.2 3.1h-39V72h39c.5 0 1-.2 1.4-.5.4-.3.7-.7.9-1.2L91 51.2c0-.1.1-.2.1-.4s-.1-.4-.2-.6c-.4-.1-.6-.2-.9-.2l-53.2-5.2.2-2z"/>
  <path fill="#FFF" d="M83.4 49.2l-4.8 24-2-.4 4.8-24zM71.9 47.7l-1.6 25.4-2.1-.1 1.6-25.5zM60.4 46.1L62 73l-2.1.1-1.6-26.9zM48.8 44.6l4.9 28.3-2.1.3L46.8 45z"/>
  <path fill="#FFF" d="M40.3 58.1l48.7 2-.1 2.1-48.6-2zM31 35.4L22.7 34c-1.2-.3-2.5.4-2.8 1.7-.1 1.3.9 2.3 2.1 2.5l8.2 1.4c1.2.3 2.5-.4 2.8-1.6.2-1.4-.8-2.5-2-2.6z"/>
</svg>
