<svg xmlns="http://www.w3.org/2000/svg" viewBox="0 0 126 126">
  <circle fill="#CDD476" cx="63" cy="63" r="63"/>
  <path fill="#7C8C42" d="M115.7 97.5l-31.3-58-7.3-3.6-7 2-4 6.7.1 6.5 3.9 5.4-3.5 1.2-5.9-10.1-7.2-5.6-10.4 2.3L41 56.2l3.9 7-7.8 3.3L33.2 83 56 125.6c2.3.3 4.6.4 7 .4 22 0 41.4-11.3 52.7-28.5z"/>
  <path fill="#FFF" d="M75.4 56.2c-6 0-10.8-4.8-10.8-10.8s4.8-10.8 10.8-10.8 10.8 4.8 10.8 10.8c0 6-4.9 10.8-10.8 10.8zm0-19c-4.5 0-8.2 3.7-8.2 8.2s3.7 8.2 8.2 8.2 8.2-3.7 8.2-8.2c-.1-4.5-3.7-8.1-8.2-8.2 0 .1 0 0 0 0z"/>
  <path fill="#FFF" d="M90.1 60.8c-1.7-2.5-4.3-4.3-7.2-5.1-.4-.1-.8 0-1.1.2-3.9 2.6-8.9 2.6-12.8 0-.3-.2-.7-.3-1.1-.2-2.5.7-4.7 2.1-6.3 4 .8.4 1.6.8 2.3 1.4 1.2-1.2 2.6-2.1 4.2-2.7 4.5 2.7 10.1 2.7 14.7 0 4.5 1.5 7.3 5.8 7.3 11v6.1H70.9v2.6h20.4c.7 0 1.3-.6 1.3-1.3v-7.4c.1-3.1-.8-6.1-2.5-8.6z"/>
  <path fill="#FFF" d="M66.6 84H34.7c-.7 0-1.3-.6-1.3-1.3v-7.3c0-3.1.9-6.1 2.6-8.6 1.7-2.5 4.3-4.3 7.2-5.1.4-.1.8 0 1.1.2 3.9 2.6 8.9 2.6 12.8 0 .3-.2.7-.3 1.1-.2 2.9.8 5.5 2.6 7.2 5.1s2.6 5.5 2.6 8.6v7.4c-.2.6-.7 1.2-1.4 1.2zM36 81.4h29.2v-6.1c0-5.2-2.8-9.5-7.3-11-4.5 2.7-10.1 2.7-14.7 0-4.5 1.5-7.3 5.8-7.3 11v6.1h.1z"/>
  <path fill="#FFF" d="M50.6 62.2c-6 0-10.8-4.8-10.8-10.8s4.8-10.8 10.8-10.8 10.8 4.8 10.8 10.8c0 6-4.8 10.8-10.8 10.8zm0-19c-4.5 0-8.2 3.7-8.1 8.2s3.7 8.2 8.2 8.1c4.5 0 8.1-3.7 8.1-8.2 0-4.4-3.7-8.1-8.2-8.1z"/>
</svg>
