<?xml version="1.0" encoding="utf-8"?>
<!-- Generator: Adobe Illustrator 23.0.4, SVG Export Plug-In . SVG Version: 6.00 Build 0)  -->
<svg version="1.1" id="Layer_1" xmlns="http://www.w3.org/2000/svg" xmlns:xlink="http://www.w3.org/1999/xlink" x="0px" y="0px"
	 viewBox="0 0 21.5 21.5" enable-background="new 0 0 21.5 21.5" xml:space="preserve">
<title>flag--south-korea</title>
<g>
	<g id="Layer_1-2">
		<g>
			<defs>
				<circle id="SVGID_1_" cx="10.75" cy="10.75" r="10.75"/>
			</defs>
			<clipPath id="SVGID_2_">
				<use xlink:href="#SVGID_1_"  overflow="visible"/>
			</clipPath>
			<g clip-path="url(#SVGID_2_)">
				<rect x="-2.2" y="-1.58" fill="#FBFBFB" width="25.71" height="26.46"/>
				<path fill="#C60C30" d="M10.8,6.88c-1.5,0-2.86,0.86-3.5,2.22l0,0c0,0.41,0,1.65,0.8,2.14c0.89,0.58,2.07,0.36,2.7-0.49
					c0.57-0.79,1.62-1.08,2.52-0.68c0.49,0.23,1.15,0.8,1,2.32l0,0c0.24-0.51,0.37-1.07,0.37-1.64c0-2.14-1.73-3.87-3.87-3.87
					C10.81,6.88,10.81,6.88,10.8,6.88z"/>
				<path fill="#003478" d="M14.25,12.42c0.17-1.52-0.49-2.09-1-2.32c-0.9-0.4-1.95-0.11-2.52,0.68c-0.63,0.85-1.81,1.07-2.7,0.49
					c-0.77-0.49-0.81-1.73-0.8-2.14l0,0c-0.24,0.52-0.37,1.08-0.37,1.65c-0.02,2.14,1.7,3.88,3.84,3.9
					C12.22,14.69,13.62,13.81,14.25,12.42L14.25,12.42"/>
				<rect x="5.33" y="12.22" transform="matrix(0.8321 -0.5547 0.5547 0.8321 -6.9045 5.5117)" width="0.64" height="3.87"/>
				<rect x="3.73" y="13.29" transform="matrix(0.8321 -0.5547 0.5547 0.8321 -7.7652 4.8048)" width="0.64" height="3.87"/>
				<rect x="3.94" y="12.92" transform="matrix(0.832 -0.5548 0.5548 0.832 -6.9447 4.6866)" width="0.64" height="1.77"/>
				<rect x="5.11" y="14.68" transform="matrix(0.8321 -0.5547 0.5547 0.8321 -7.7211 5.6252)" width="0.64" height="1.77"/>
				<rect x="17.16" y="14.03" transform="matrix(0.5527 -0.8334 0.8334 0.5527 -3.8887 21.4586)" width="1.77" height="0.64"/>
				<rect x="16.01" y="15.78" transform="matrix(0.5527 -0.8334 0.8334 0.5527 -5.8577 21.2781)" width="1.77" height="0.64"/>
				<rect x="16.36" y="13.5" transform="matrix(0.5527 -0.8334 0.8334 0.5527 -3.8063 20.5563)" width="1.77" height="0.64"/>
				<rect x="15.2" y="15.25" transform="matrix(0.5527 -0.8334 0.8334 0.5527 -5.7798 20.3675)" width="1.77" height="0.64"/>
				<rect x="14.39" y="14.72" transform="matrix(0.5527 -0.8334 0.8334 0.5527 -5.7 19.4528)" width="1.77" height="0.64"/>
				<rect x="15.55" y="12.96" transform="matrix(0.5527 -0.8334 0.8334 0.5527 -3.7182 19.6371)" width="1.77" height="0.64"/>
				<rect x="16.34" y="4.86" transform="matrix(0.834 -0.5518 0.5518 0.834 -0.9851 10.3215)" width="0.64" height="3.87"/>
				<rect x="17.73" y="6.25" transform="matrix(0.834 -0.5518 0.5518 0.834 -0.9406 11.1426)" width="0.64" height="1.77"/>
				<rect x="16.56" y="4.5" transform="matrix(0.834 -0.5518 0.5518 0.834 -0.1684 10.2104)" width="0.64" height="1.77"/>
				<rect x="16.13" y="7.32" transform="matrix(0.8343 -0.5514 0.5514 0.8343 -1.7989 10.4275)" width="0.64" height="1.77"/>
				<rect x="14.96" y="5.57" transform="matrix(0.834 -0.5518 0.5518 0.834 -1.0252 9.5041)" width="0.64" height="1.77"/>
				<rect x="3.71" y="7.02" transform="matrix(0.5563 -0.831 0.831 0.5563 -3.5912 7.9446)" width="3.87" height="0.64"/>
				<rect x="2.87" y="6.49" transform="matrix(0.5593 -0.829 0.829 0.5593 -3.5242 6.9894)" width="3.87" height="0.64"/>
				<rect x="2.11" y="5.94" transform="matrix(0.556 -0.8312 0.8312 0.556 -3.4034 6.1433)" width="3.87" height="0.64"/>
			</g>
		</g>
	</g>
</g>
</svg>
