<?xml version="1.0" encoding="utf-8"?>
<!-- Generator: Adobe Illustrator 23.0.4, SVG Export Plug-In . SVG Version: 6.00 Build 0)  -->
<svg version="1.1" id="Layer_1" xmlns="http://www.w3.org/2000/svg" xmlns:xlink="http://www.w3.org/1999/xlink" x="0px" y="0px"
	 viewBox="0 0 21.5 21.5" enable-background="new 0 0 21.5 21.5" xml:space="preserve">
<title>flag--china</title>
<g>
	<g id="Layer_1-2">
		<g>
			<defs>
				<circle id="SVGID_1_" cx="10.75" cy="10.75" r="10.75"/>
			</defs>
			<clipPath id="SVGID_2_">
				<use xlink:href="#SVGID_1_"  overflow="visible"/>
			</clipPath>
			<g clip-path="url(#SVGID_2_)">
				<rect x="-2.41" y="-0.72" fill="#DD2911" width="32" height="22.78"/>
				<polygon fill="#FEDD19" points="5.76,4.87 6.4,6.86 8.49,6.86 6.8,8.09 7.45,10.07 5.76,8.85 4.07,10.07 4.71,8.09 3.02,6.86 
					5.11,6.86 				"/>
				<polygon fill="#FEDD19" points="10.89,4.01 10.83,4.7 11.46,4.97 10.79,5.12 10.72,5.81 10.37,5.22 9.69,5.37 10.15,4.85 
					9.8,4.26 10.43,4.53 				"/>
				<polygon fill="#FEDD19" points="13.11,6.13 12.79,6.74 13.27,7.24 12.58,7.12 12.26,7.73 12.16,7.05 11.48,6.93 12.1,6.62 
					12.01,5.94 12.49,6.44 				"/>
				<polygon fill="#FEDD19" points="13.32,9.33 12.77,9.76 13.01,10.41 12.43,10.02 11.88,10.44 12.08,9.78 11.5,9.39 12.2,9.37 
					12.39,8.7 12.63,9.35 				"/>
				<polygon fill="#FEDD19" points="11.47,11.61 10.8,11.8 10.77,12.49 10.39,11.91 9.72,12.09 10.16,11.55 9.78,10.97 10.42,11.22 
					10.86,10.67 10.82,11.37 				"/>
			</g>
		</g>
	</g>
</g>
</svg>
