<?xml version="1.0" encoding="utf-8"?>
<!-- Generator: Adobe Illustrator 23.0.4, SVG Export Plug-In . SVG Version: 6.00 Build 0)  -->
<svg version="1.1" id="Layer_1" xmlns="http://www.w3.org/2000/svg" xmlns:xlink="http://www.w3.org/1999/xlink" x="0px" y="0px"
	 viewBox="0 0 21.5 21.5" enable-background="new 0 0 21.5 21.5" xml:space="preserve">
<title>flag--uk</title>
<g>
	<g id="Layer_1-2">
		<g>
			<defs>
				<circle id="SVGID_1_" cx="10.75" cy="10.75" r="10.75"/>
			</defs>
			<clipPath id="SVGID_2_">
				<use xlink:href="#SVGID_1_"  overflow="visible"/>
			</clipPath>
			<g clip-path="url(#SVGID_2_)">
				<polygon fill="#04247B" points="-2.53,13.7 -2.53,17.64 3.37,13.7 				"/>
				<polygon fill="#04247B" points="8.54,-1.88 0.45,1.9 8.54,7.3 				"/>
				<polygon fill="#04247B" points="-2.53,3.87 -2.53,7.81 3.37,7.81 				"/>
				<polygon fill="#04247B" points="24.03,7.81 24.03,3.87 18.13,7.81 				"/>
				<polygon fill="#04247B" points="21.05,1.9 12.96,-2.49 12.96,7.3 				"/>
				<polygon fill="#04247B" points="24.03,17.64 24.03,13.7 18.13,13.7 				"/>
				<polygon fill="#04247B" points="0.45,19.6 8.54,26.34 8.54,14.21 				"/>
				<polygon fill="#04247B" points="12.96,24.29 21.05,19.6 12.96,14.21 				"/>
				<polygon fill="#FFFFFF" points="15.15,13.7 17.13,13.7 24.03,18.3 24.03,17.64 18.13,13.7 24.03,13.7 24.03,7.81 18.13,7.81 
					24.03,3.87 24.03,1.9 24.01,1.9 15.16,7.81 13.18,7.81 22.03,1.9 21.05,1.9 12.96,7.3 12.96,-1.27 8.54,-1.27 8.54,7.3 
					0.45,1.9 -2.52,1.9 6.33,7.81 4.35,7.81 -2.53,3.22 -2.53,3.87 3.37,7.81 -2.53,7.81 -2.53,13.7 3.37,13.7 -2.53,17.64 
					-2.53,19.6 -2.53,19.6 6.32,13.7 8.31,13.7 -0.54,19.6 0.45,19.6 8.54,14.21 8.54,23.51 12.96,23.51 12.96,14.21 21.05,19.6 
					24,19.6 				"/>
				<polygon fill="#CE152A" points="-2.53,3.22 4.35,7.81 6.33,7.81 -2.52,1.9 -2.53,1.9 				"/>
				<polygon fill="#CE152A" points="15.15,13.7 24,19.6 24.03,19.6 24.03,18.3 17.13,13.7 				"/>
				<polygon fill="#CE152A" points="13.18,7.81 15.16,7.81 24.01,1.9 22.03,1.9 				"/>
				<polygon fill="#CE152A" points="8.31,13.7 6.32,13.7 -2.53,19.6 -0.54,19.6 				"/>
				<polygon fill="#CE152A" points="24.03,8.98 12.08,8.98 12.08,-1.16 9.42,-1.16 9.42,8.98 -2.53,8.98 -2.53,12.52 9.42,12.52 
					9.42,22.4 12.08,22.4 12.08,12.52 24.03,12.52 				"/>
			</g>
		</g>
	</g>
</g>
</svg>
