<?xml version="1.0" encoding="utf-8"?>
<!-- Generator: Adobe Illustrator 23.0.4, SVG Export Plug-In . SVG Version: 6.00 Build 0)  -->
<svg version="1.1" id="Layer_1" xmlns="http://www.w3.org/2000/svg" xmlns:xlink="http://www.w3.org/1999/xlink" x="0px" y="0px"
	 viewBox="0 0 21.5 21.5" enable-background="new 0 0 21.5 21.5" xml:space="preserve">
<title>flag--hong-kong</title>
<g>
	<g id="Layer_1-2">
		<g>
			<defs>
				<circle id="SVGID_1_" cx="10.75" cy="10.75" r="10.75"/>
			</defs>
			<clipPath id="SVGID_2_">
				<use xlink:href="#SVGID_1_"  overflow="visible"/>
			</clipPath>
			<g clip-path="url(#SVGID_2_)">
				<rect x="-2.2" y="-2.5" fill="#E42620" width="25.9" height="26.89"/>
				<path fill-rule="evenodd" clip-rule="evenodd" fill="#FFFFFF" d="M11.68,5.94c-0.43,0.19-0.63,0.7-0.43,1.14
					c0.02,0.05,0.05,0.1,0.08,0.14c0.15,0.22,0.22,0.48,0.2,0.75c-0.01,0.3-0.12,0.58-0.32,0.81c-0.35,0.47-1,0.5-1.11,1.2
					c-0.05,0.33,0.04,0.67,0.25,0.93c-0.34-0.3-0.58-0.7-0.67-1.14C9.6,9.26,9.7,8.75,9.97,8.31H9.91c-0.27,0.45-0.37,0.98-0.3,1.5
					c0.1,0.47,0.35,0.89,0.71,1.2c-0.63-0.34-1.12-0.9-1.36-1.58C8.57,8.11,9.22,6.7,10.48,6.15c0.38-0.16,0.79-0.22,1.2-0.18V5.94z
					 M6.08,8.36c-0.17,0.38-0.24,0.8-0.2,1.22c0.14,1.37,1.28,2.41,2.65,2.45c0.71-0.04,1.38-0.35,1.89-0.85
					c-0.4,0.25-0.87,0.37-1.34,0.33c-0.5-0.1-0.95-0.36-1.28-0.74h0.05c0.33,0.38,0.79,0.63,1.29,0.71c0.44,0.04,0.89-0.07,1.27-0.3
					c-0.32,0.15-0.68,0.15-1,0c-0.63-0.33-0.46-1-0.8-1.43c-0.29-0.5-0.88-0.74-1.44-0.59c-0.43,0.15-0.9-0.09-1.05-0.52
					C6.1,8.57,6.09,8.51,6.08,8.44V8.36z M7.23,9.93l0.22,0.19L7.7,9.96l-0.11,0.28l0.23,0.19H7.53l-0.11,0.28l-0.08-0.29H7.05
					l0.25-0.16L7.23,9.97L7.23,9.93z M12.51,15.88c0.36-0.21,0.65-0.51,0.86-0.87c0.69-1.19,0.39-2.71-0.7-3.55
					c-0.59-0.39-1.3-0.55-2-0.45c0.47,0.03,0.92,0.22,1.27,0.54c0.37,0.38,0.59,0.87,0.64,1.39H12.5c-0.05-0.51-0.27-0.98-0.62-1.35
					c-0.34-0.3-0.76-0.47-1.21-0.51c0.32,0.09,0.59,0.3,0.74,0.6c0.32,0.64-0.18,1.05-0.18,1.63c-0.03,0.3,0.04,0.6,0.21,0.85
					c0.14,0.23,0.35,0.4,0.6,0.49c0.45,0.15,0.69,0.63,0.54,1.07C12.56,15.78,12.54,15.83,12.51,15.88z M12.51,13.93l-0.07-0.29
					h-0.3l0.26-0.16l-0.08-0.29l0.23,0.19l0.25-0.18l-0.11,0.28l0.23,0.19h-0.3l-0.11,0.28L12.51,13.93z M15.66,10.66
					c-0.07-0.43-0.25-0.83-0.53-1.16c-0.87-1.06-2.4-1.29-3.54-0.54c-0.57,0.43-0.97,1.06-1.1,1.77c0.19-0.43,0.52-0.78,0.93-1
					c0.47-0.22,1.01-0.27,1.51-0.14v0.07c-0.49-0.13-1-0.09-1.46,0.13c-0.4,0.22-0.71,0.58-0.89,1c0.19-0.27,0.48-0.45,0.81-0.5
					c0.7-0.09,0.91,0.53,1.45,0.73c0.52,0.25,1.15,0.12,1.52-0.32c0.28-0.36,0.79-0.43,1.15-0.15c0.06,0.04,0.11,0.09,0.15,0.15
					L15.66,10.66z M13.8,10.01h-0.3l-0.12,0.27l-0.06-0.29h-0.29l0.25-0.15l-0.06-0.3l0.22,0.2l0.26-0.15l-0.12,0.28l0.22,0.2V10.01
					z M6.49,14.43c0.46,0.09,0.9-0.21,0.98-0.66c0.01-0.04,0.01-0.09,0.02-0.14c0.05-0.56,0.45-1.03,1-1.16
					c0.56-0.17,1.09,0.21,1.61-0.28c0.23-0.24,0.36-0.56,0.36-0.89c0.21,0.97-0.33,1.95-1.26,2.3v0.06c0.49-0.19,0.89-0.54,1.14-1
					c0.2-0.44,0.25-0.92,0.16-1.39c0.29,0.66,0.34,1.4,0.13,2.09c-0.47,1.29-1.84,2.01-3.17,1.68c-0.4-0.11-0.77-0.31-1.07-0.6
					L6.49,14.43z M8.34,13.87h0.29l0.06,0.29l0.12-0.27h0.3l-0.22-0.2l0.12-0.27l-0.26,0.15l-0.22-0.2l0.06,0.29l-0.25,0.15V13.87z
					 M10.55,7.5L10.3,7.66l-0.23-0.2l0.07,0.29L9.89,7.91h0.3l0.06,0.3l0.12-0.28h0.29l-0.22-0.19L10.55,7.5z"/>
			</g>
		</g>
	</g>
</g>
</svg>
