<?xml version="1.0" encoding="utf-8"?>
<!-- Generator: Adobe Illustrator 23.0.4, SVG Export Plug-In . SVG Version: 6.00 Build 0)  -->
<svg version="1.1" id="Layer_1" xmlns="http://www.w3.org/2000/svg" xmlns:xlink="http://www.w3.org/1999/xlink" x="0px" y="0px"
	 viewBox="0 0 21.5 22.04" enable-background="new 0 0 21.5 22.04" xml:space="preserve">
<title>flag--us</title>
<g>
	<g id="Layer_1-2">
		<g>
			<defs>
				<circle id="SVGID_1_" cx="10.75" cy="11.04" r="10.75"/>
			</defs>
			<clipPath id="SVGID_2_">
				<use xlink:href="#SVGID_1_"  overflow="visible"/>
			</clipPath>
			<g clip-path="url(#SVGID_2_)">
				<rect x="-5.96" y="15.26" fill="#FFFFFF" width="33.07" height="1.7"/>
				<rect x="-5.96" y="13.57" fill="#B12233" width="33.07" height="1.7"/>
				<rect x="-5.96" y="11.87" fill="#FFFFFF" width="33.07" height="1.7"/>
				<rect x="-5.96" y="16.96" fill="#B12233" width="33.07" height="1.7"/>
				<rect x="-5.96" y="20.35" fill="#B12233" width="33.07" height="1.7"/>
				<rect x="-5.96" y="18.65" fill="#FFFFFF" width="33.07" height="1.7"/>
				<polygon fill="#FFFFFF" points="-5.96,22.05 27.11,22.05 27.11,22.05 -5.96,22.05 				"/>
				<rect x="-5.96" y="1.7" fill="#FFFFFF" width="33.07" height="1.7"/>
				<rect x="-5.96" fill="#B12233" width="33.07" height="1.7"/>
				<rect x="-5.96" y="3.39" fill="#B12233" width="33.07" height="1.7"/>
				<rect x="-5.96" y="6.78" fill="#B12233" width="33.07" height="1.7"/>
				<rect x="-5.96" y="5.09" fill="#FFFFFF" width="33.07" height="1.7"/>
				<rect x="-5.96" y="8.48" fill="#FFFFFF" width="33.07" height="1.7"/>
				<rect x="-5.96" y="10.17" fill="#B12233" width="33.07" height="1.7"/>
				<rect x="-5.96" fill="#3C3B6D" width="16.74" height="11.87"/>
				<polygon fill="#FFFFFF" points="-4.57,0.56 -4.41,1.04 -3.91,1.04 -4.31,1.34 -4.16,1.81 -4.57,1.52 -4.97,1.81 -4.82,1.34 
					-5.22,1.04 -4.72,1.04 				"/>
				<polygon fill="#FFFFFF" points="9.39,0.56 9.54,1.04 10.04,1.04 9.64,1.34 9.79,1.81 9.39,1.52 8.98,1.81 9.14,1.34 8.73,1.04 
					9.23,1.04 				"/>
				<polygon fill="#FFFFFF" points="6.6,0.56 6.75,1.04 7.25,1.04 6.85,1.34 7,1.81 6.6,1.52 6.19,1.81 6.35,1.34 5.94,1.04 
					6.44,1.04 				"/>
				<polygon fill="#FFFFFF" points="3.81,0.56 3.96,1.04 4.46,1.04 4.06,1.34 4.21,1.81 3.81,1.52 3.4,1.81 3.56,1.34 3.15,1.04 
					3.65,1.04 				"/>
				<polygon fill="#FFFFFF" points="1.01,0.56 1.17,1.04 1.67,1.04 1.27,1.34 1.42,1.81 1.01,1.52 0.61,1.81 0.76,1.34 0.36,1.04 
					0.86,1.04 				"/>
				<polygon fill="#FFFFFF" points="-1.78,0.56 -1.62,1.04 -1.12,1.04 -1.52,1.34 -1.37,1.81 -1.78,1.52 -2.18,1.81 -2.03,1.34 
					-2.43,1.04 -1.93,1.04 				"/>
				<polygon fill="#FFFFFF" points="-4.57,2.94 -4.41,3.42 -3.91,3.42 -4.31,3.71 -4.16,4.19 -4.57,3.89 -4.97,4.19 -4.82,3.71 
					-5.22,3.42 -4.72,3.42 				"/>
				<polygon fill="#FFFFFF" points="9.39,2.94 9.54,3.42 10.04,3.42 9.64,3.71 9.79,4.19 9.39,3.89 8.98,4.19 9.14,3.71 8.73,3.42 
					9.23,3.42 				"/>
				<polygon fill="#FFFFFF" points="6.6,2.94 6.75,3.42 7.25,3.42 6.85,3.71 7,4.19 6.6,3.89 6.19,4.19 6.35,3.71 5.94,3.42 
					6.44,3.42 				"/>
				<polygon fill="#FFFFFF" points="3.81,2.94 3.96,3.42 4.46,3.42 4.06,3.71 4.21,4.19 3.81,3.89 3.4,4.19 3.56,3.71 3.15,3.42 
					3.65,3.42 				"/>
				<polygon fill="#FFFFFF" points="1.01,2.94 1.17,3.42 1.67,3.42 1.27,3.71 1.42,4.19 1.01,3.89 0.61,4.19 0.76,3.71 0.36,3.42 
					0.86,3.42 				"/>
				<polygon fill="#FFFFFF" points="-1.78,2.94 -1.62,3.42 -1.12,3.42 -1.52,3.71 -1.37,4.19 -1.78,3.89 -2.18,4.19 -2.03,3.71 
					-2.43,3.42 -1.93,3.42 				"/>
				<polygon fill="#FFFFFF" points="-4.57,5.31 -4.41,5.79 -3.91,5.79 -4.31,6.08 -4.16,6.56 -4.57,6.26 -4.97,6.56 -4.82,6.08 
					-5.22,5.79 -4.72,5.79 				"/>
				<polygon fill="#FFFFFF" points="9.39,5.31 9.54,5.79 10.04,5.79 9.64,6.08 9.79,6.56 9.39,6.26 8.98,6.56 9.14,6.08 8.73,5.79 
					9.23,5.79 				"/>
				<polygon fill="#FFFFFF" points="6.6,5.31 6.75,5.79 7.25,5.79 6.85,6.08 7,6.56 6.6,6.26 6.19,6.56 6.35,6.08 5.94,5.79 
					6.44,5.79 				"/>
				<polygon fill="#FFFFFF" points="3.81,5.31 3.96,5.79 4.46,5.79 4.06,6.08 4.21,6.56 3.81,6.26 3.4,6.56 3.56,6.08 3.15,5.79 
					3.65,5.79 				"/>
				<polygon fill="#FFFFFF" points="1.01,5.31 1.17,5.79 1.67,5.79 1.27,6.08 1.42,6.56 1.01,6.26 0.61,6.56 0.76,6.08 0.36,5.79 
					0.86,5.79 				"/>
				<polygon fill="#FFFFFF" points="-1.78,5.31 -1.62,5.79 -1.12,5.79 -1.52,6.08 -1.37,6.56 -1.78,6.26 -2.18,6.56 -2.03,6.08 
					-2.43,5.79 -1.93,5.79 				"/>
				<polygon fill="#FFFFFF" points="-4.57,7.68 -4.41,8.16 -3.91,8.16 -4.31,8.46 -4.16,8.93 -4.57,8.64 -4.97,8.93 -4.82,8.46 
					-5.22,8.16 -4.72,8.16 				"/>
				<polygon fill="#FFFFFF" points="9.39,7.68 9.54,8.16 10.04,8.16 9.64,8.46 9.79,8.93 9.39,8.64 8.98,8.93 9.14,8.46 8.73,8.16 
					9.23,8.16 				"/>
				<polygon fill="#FFFFFF" points="6.6,7.68 6.75,8.16 7.25,8.16 6.85,8.46 7,8.93 6.6,8.64 6.19,8.93 6.35,8.46 5.94,8.16 
					6.44,8.16 				"/>
				<polygon fill="#FFFFFF" points="3.81,7.68 3.96,8.16 4.46,8.16 4.06,8.46 4.21,8.93 3.81,8.64 3.4,8.93 3.56,8.46 3.15,8.16 
					3.65,8.16 				"/>
				<polygon fill="#FFFFFF" points="1.01,7.68 1.17,8.16 1.67,8.16 1.27,8.46 1.42,8.93 1.01,8.64 0.61,8.93 0.76,8.46 0.36,8.16 
					0.86,8.16 				"/>
				<polygon fill="#FFFFFF" points="-1.78,7.68 -1.62,8.16 -1.12,8.16 -1.52,8.46 -1.37,8.93 -1.78,8.64 -2.18,8.93 -2.03,8.46 
					-2.43,8.16 -1.93,8.16 				"/>
				<polygon fill="#FFFFFF" points="-4.57,10.06 -4.41,10.53 -3.91,10.53 -4.31,10.83 -4.16,11.31 -4.57,11.01 -4.97,11.31 
					-4.82,10.83 -5.22,10.53 -4.72,10.53 				"/>
				<polygon fill="#FFFFFF" points="9.39,10.06 9.54,10.53 10.04,10.53 9.64,10.83 9.79,11.31 9.39,11.01 8.98,11.31 9.14,10.83 
					8.73,10.53 9.23,10.53 				"/>
				<polygon fill="#FFFFFF" points="6.6,10.06 6.75,10.53 7.25,10.53 6.85,10.83 7,11.31 6.6,11.01 6.19,11.31 6.35,10.83 
					5.94,10.53 6.44,10.53 				"/>
				<polygon fill="#FFFFFF" points="3.81,10.06 3.96,10.53 4.46,10.53 4.06,10.83 4.21,11.31 3.81,11.01 3.4,11.31 3.56,10.83 
					3.15,10.53 3.65,10.53 				"/>
				<polygon fill="#FFFFFF" points="1.01,10.06 1.17,10.53 1.67,10.53 1.27,10.83 1.42,11.31 1.01,11.01 0.61,11.31 0.76,10.83 
					0.36,10.53 0.86,10.53 				"/>
				<polygon fill="#FFFFFF" points="-1.78,10.06 -1.62,10.53 -1.12,10.53 -1.52,10.83 -1.37,11.31 -1.78,11.01 -2.18,11.31 
					-2.03,10.83 -2.43,10.53 -1.93,10.53 				"/>
				<polygon fill="#FFFFFF" points="7.99,8.87 8.15,9.35 8.65,9.35 8.24,9.64 8.4,10.12 7.99,9.82 7.59,10.12 7.74,9.64 7.34,9.35 
					7.84,9.35 				"/>
				<polygon fill="#FFFFFF" points="5.2,8.87 5.36,9.35 5.86,9.35 5.45,9.64 5.61,10.12 5.2,9.82 4.8,10.12 4.95,9.64 4.55,9.35 
					5.05,9.35 				"/>
				<polygon fill="#FFFFFF" points="2.41,8.87 2.57,9.35 3.07,9.35 2.66,9.64 2.82,10.12 2.41,9.82 2,10.12 2.16,9.64 1.75,9.35 
					2.26,9.35 				"/>
				<polygon fill="#FFFFFF" points="-0.38,8.87 -0.22,9.35 0.28,9.35 -0.13,9.64 0.03,10.12 -0.38,9.82 -0.79,10.12 -0.63,9.64 
					-1.04,9.35 -0.54,9.35 				"/>
				<polygon fill="#FFFFFF" points="-3.17,8.87 -3.02,9.35 -2.51,9.35 -2.92,9.64 -2.77,10.12 -3.17,9.82 -3.58,10.12 -3.42,9.64 
					-3.83,9.35 -3.33,9.35 				"/>
				<polygon fill="#FFFFFF" points="7.99,6.5 8.15,6.97 8.65,6.97 8.24,7.27 8.4,7.75 7.99,7.45 7.59,7.75 7.74,7.27 7.34,6.97 
					7.84,6.97 				"/>
				<polygon fill="#FFFFFF" points="5.2,6.5 5.36,6.97 5.86,6.97 5.45,7.27 5.61,7.75 5.2,7.45 4.8,7.75 4.95,7.27 4.55,6.97 
					5.05,6.97 				"/>
				<polygon fill="#FFFFFF" points="2.41,6.5 2.57,6.97 3.07,6.97 2.66,7.27 2.82,7.75 2.41,7.45 2,7.75 2.16,7.27 1.75,6.97 
					2.26,6.97 				"/>
				<polygon fill="#FFFFFF" points="-0.38,6.5 -0.22,6.97 0.28,6.97 -0.13,7.27 0.03,7.75 -0.38,7.45 -0.79,7.75 -0.63,7.27 
					-1.04,6.97 -0.54,6.97 				"/>
				<polygon fill="#FFFFFF" points="-3.17,6.5 -3.02,6.97 -2.51,6.97 -2.92,7.27 -2.77,7.75 -3.17,7.45 -3.58,7.75 -3.42,7.27 
					-3.83,6.97 -3.33,6.97 				"/>
				<polygon fill="#FFFFFF" points="7.99,4.12 8.15,4.6 8.65,4.6 8.24,4.9 8.4,5.37 7.99,5.08 7.59,5.37 7.74,4.9 7.34,4.6 
					7.84,4.6 				"/>
				<polygon fill="#FFFFFF" points="5.2,4.12 5.36,4.6 5.86,4.6 5.45,4.9 5.61,5.37 5.2,5.08 4.8,5.37 4.95,4.9 4.55,4.6 5.05,4.6 
									"/>
				<polygon fill="#FFFFFF" points="2.41,4.12 2.57,4.6 3.07,4.6 2.66,4.9 2.82,5.37 2.41,5.08 2,5.37 2.16,4.9 1.75,4.6 2.26,4.6 
									"/>
				<polygon fill="#FFFFFF" points="-0.38,4.12 -0.22,4.6 0.28,4.6 -0.13,4.9 0.03,5.37 -0.38,5.08 -0.79,5.37 -0.63,4.9 -1.04,4.6 
					-0.54,4.6 				"/>
				<polygon fill="#FFFFFF" points="-3.17,4.12 -3.02,4.6 -2.51,4.6 -2.92,4.9 -2.77,5.37 -3.17,5.08 -3.58,5.37 -3.42,4.9 
					-3.83,4.6 -3.33,4.6 				"/>
				<polygon fill="#FFFFFF" points="7.99,1.75 8.15,2.23 8.65,2.23 8.24,2.52 8.4,3 7.99,2.71 7.59,3 7.74,2.52 7.34,2.23 
					7.84,2.23 				"/>
				<polygon fill="#FFFFFF" points="5.2,1.75 5.36,2.23 5.86,2.23 5.45,2.52 5.61,3 5.2,2.71 4.8,3 4.95,2.52 4.55,2.23 5.05,2.23 
									"/>
				<polygon fill="#FFFFFF" points="2.41,1.75 2.57,2.23 3.07,2.23 2.66,2.52 2.82,3 2.41,2.71 2,3 2.16,2.52 1.75,2.23 2.26,2.23 
									"/>
				<polygon fill="#FFFFFF" points="-0.38,1.75 -0.22,2.23 0.28,2.23 -0.13,2.52 0.03,3 -0.38,2.71 -0.79,3 -0.63,2.52 -1.04,2.23 
					-0.54,2.23 				"/>
				<polygon fill="#FFFFFF" points="-3.17,1.75 -3.02,2.23 -2.51,2.23 -2.92,2.52 -2.77,3 -3.17,2.71 -3.58,3 -3.42,2.52 
					-3.83,2.23 -3.33,2.23 				"/>
			</g>
		</g>
	</g>
</g>
</svg>
