<svg xmlns="http://www.w3.org/2000/svg" viewBox="0 0 452.56 636.78"><title>fork-knife</title><g id="Layer_2" data-name="Layer 2"><g id="Layer_1-2" data-name="Layer 1"><path d="M249.13,187.59S114.41,87.9,72.28,49.45c0,0-23.27-19.11-47.76-43.85C18.64.21,8.84-2.48,3.45,5.6S-2.22,28.35,22.56,56.06C46.32,79.82,60.78,100.35,145,168.68l65.33,53.84a4,4,0,0,0,2.33,0c1.67-.34,7.67-3.5,14.5,2s6.84,3.66,6.84,3.66l2.66.3s.84-.54,2.84,0S255,239,256.28,240s.83-.5,3,2.5,3.33,3.66,5.17,4,2,1,3.66,2.16,33.84,27,82.17,74.17c16.83,16.33,41.33,38,52.17,45.17s26.5,16.83,45,0c16.83-20.34-16.34-50.17-36.34-60.34-14.66-9.83-72-45.16-109.33-71.83-4-3.5-13.58-10.08-16.17-13.67s-5.33-5.25-6.41-5.5a10.08,10.08,0,0,1-3.92-2.5C274,212.93,261,204.77,260,200.85s-.67-6-4.42-8.83S249.13,187.59,249.13,187.59Z" fill="none" stroke="#8da077" stroke-miterlimit="10"/><path d="M235.11,228.31s-.33-7,8.84-17,15.21-14,15.21-14" fill="none" stroke="#8da077" stroke-miterlimit="10"/><path d="M242.6,230.28s3-8.26,8-13.6,9.67-9.4,13.42-11" fill="none" stroke="#8da077" stroke-miterlimit="10"/><path d="M259.16,241.52s4.12-12.34,20-24.84" fill="none" stroke="#8da077" stroke-miterlimit="10"/><path d="M264.45,246.52s3.16-6.34,5.5-9c1.5-3.17,9.5-11.5,15.66-15.34" fill="none" stroke="#8da077" stroke-miterlimit="10"/><path d="M222.78,216.68l22.33-27.75s2.5,8.25-7.16,17.92S222.78,216.68,222.78,216.68Z" fill="none" stroke="#8da077" stroke-miterlimit="10"/><line x1="279.2" y1="231.29" x2="429.28" y2="347.29" fill="none" stroke="#8da077" stroke-miterlimit="10"/><line x1="243.88" y1="227.24" x2="260.34" y2="238.79" fill="none" stroke="#8da077" stroke-miterlimit="10"/><path d="M266,243.52s38.57,31.55,53.91,45.77,58.22,57.34,74.66,67.78S412,371.52,432.17,372.4" fill="none" stroke="#8da077" stroke-miterlimit="10"/><line x1="211.28" y1="221.07" x2="241.94" y2="182.26" fill="none" stroke="#8da077" stroke-miterlimit="10"/><path d="M210.45,320.68l-52.84-133s-2.33-5.16-3-4.5.5,5,6,20.67,25.67,73,25.67,73l7,18s2.89,6.09-1.5,8S181.11,288,181.11,288L143,190s-1-2.5-2-1.84,5.16,20,5.16,20l33.17,91s3.33,7.23-.33,8.78-6.17-1.94-9.17-9.11-40.5-103.5-40.5-103.5-1.17-3.5-2.17-3,12.5,38.94,12.5,38.94l26.67,75.23s2.5,5.5-1.83,7.16-5,.5-12.34-17.66S116,200.52,116,200.52s-1.67-3.86-3.34-3.18,41,120.84,41,120.84S164,343.52,167,345.52s17,2.66,23.33,12.33,19.83,32.5,54.67,138c0,0,16.83,63,23.33,100.17,0,0,3.83,50.16,37.33,38.5,14.17-5.84,21.17-17.17,7.5-42.17s-50.33-85.17-77.33-158.5c-8.33-22-29.17-75.67-30-82.33s-1.09-14.58,4.5-20.17C214.45,327.18,210.45,320.68,210.45,320.68Z" fill="none" stroke="#8da077" stroke-miterlimit="10"/><path d="M292.72,636s7.45-2.48,11.23-8L204,365.74" fill="none" stroke="#8da077" stroke-miterlimit="10"/><path d="M316.68,626.8S308.84,629.07,304,628" fill="none" stroke="#8da077" stroke-miterlimit="10"/></g></g></svg>