<svg xmlns="http://www.w3.org/2000/svg" xmlns:xlink="http://www.w3.org/1999/xlink" viewBox="0 0 293.7 605"><defs><symbol id="fork" data-name="fork" viewBox="0 0 293.69 605"><path d="M219.13,210.3,291.56,32.94s2.55-7.15,1.28-7.12-4.15,5.29-13.38,25.51-43,94.25-43,94.25l-10,23.86s-2.87,8.56-8.87,6.33,3.47-24.21,3.47-24.21l54.11-130S276.6,18.25,275,18s-13.57,24.09-13.57,24.09L209,160.63s-3.49,10.07-8.47,8.16-4.14-7.6-.39-17.29,57-137.45,57-137.45,2.12-4.46.69-4.9-24.07,49.17-24.07,49.17l-44.07,97.33s-2.69,7.62-8.42,5.21-5.29-4.16,4.49-28.49S239.45,6.66,239.45,6.66s2-5.26-.27-6.16-72.57,154.65-72.57,154.65-13.53,34-12.49,38.75,13.93,18.34,11.07,33.55-11,49.76-75.3,183.88c0,0-42.22,76.4-70.43,118.3,0,0-42.85,52,.3,71.79,19.08,7.51,36.35,3.07,46.36-33.73S96.58,438.81,138.57,343c12.37-29,42.07-100.08,47.45-107.28s12.47-15.08,23-15.29C217,220.28,219.13,210.3,219.13,210.3Z" fill="none" stroke="#8da077" stroke-miterlimit="10"/><path d="M5.93,590.89s9.5,4.51,18.3,2.65l146.82-345.8" fill="none" stroke="#8da077" stroke-miterlimit="10"/><path d="M37.59,604.25s-9.67-5.1-13.36-10.71" fill="none" stroke="#8da077" stroke-miterlimit="10"/></symbol></defs><title>fork</title><g id="Layer_2" data-name="Layer 2"><g id="Layer_1-2" data-name="Layer 1"><use width="293.7" height="605" xlink:href="#fork"/></g></g></svg>