<svg xmlns="http://www.w3.org/2000/svg" viewBox="0 0 43.92 12.49"><title>linkedin</title><g id="Layer_2" data-name="Layer 2"><g id="Layer_1-2" data-name="Layer 1"><path d="M43.92,11.24a1.25,1.25,0,0,1-1.25,1.25H32.82a1.24,1.24,0,0,1-1.24-1.25v-10A1.24,1.24,0,0,1,32.82,0h9.85a1.25,1.25,0,0,1,1.25,1.25Z" fill="#fff"/><path d="M0,2.52H1.66v6H4.59v1.4H0Z" fill="#fff"/><path d="M6.89,3.05A.83.83,0,0,1,6,3.88.83.83,0,1,1,6,2.22.82.82,0,0,1,6.89,3.05ZM5.18,9.88V4.54H6.84V9.88Z" fill="#fff"/><path d="M7.83,6.24c0-.66,0-1.22,0-1.7H9.23l.08.74h0A1.91,1.91,0,0,1,11,4.42c1.09,0,1.91.73,1.91,2.3V9.88H11.24v-3c0-.69-.24-1.16-.84-1.16a.91.91,0,0,0-.85.62,1.09,1.09,0,0,0-.06.42V9.88H7.83Z" fill="#fff"/><path d="M15.55,6.79h0c.13-.23.26-.45.39-.65L17,4.54h2L17.13,6.7l2.18,3.18h-2L16,7.68l-.42.53V9.88H13.89V2.12h1.66Z" fill="#fff"/><path d="M20.6,7.74c0,.69.73,1,1.51,1a4.5,4.5,0,0,0,1.47-.22l.22,1.12a5,5,0,0,1-1.93.34A2.56,2.56,0,0,1,19,7.27a2.67,2.67,0,0,1,2.69-2.85,2.36,2.36,0,0,1,2.38,2.66,4.3,4.3,0,0,1-.05.66ZM22.55,6.6a1,1,0,0,0-.93-1.08,1.1,1.1,0,0,0-1,1.08Z" fill="#fff"/><path d="M29.93,2.12V8.29c0,.6,0,1.23,0,1.59H28.5l-.07-.78h0a1.88,1.88,0,0,1-1.67.9,2.45,2.45,0,0,1-2.29-2.74,2.54,2.54,0,0,1,2.4-2.85,1.63,1.63,0,0,1,1.4.6h0V2.12ZM28.27,6.8a1.12,1.12,0,0,0,0-.31,1,1,0,0,0-1-.8c-.76,0-1.14.67-1.14,1.51s.44,1.48,1.13,1.48a1,1,0,0,0,1-.8,1.58,1.58,0,0,0,0-.38Z" fill="#fff"/><path d="M35.59,3.05a.83.83,0,0,1-.9.83.82.82,0,0,1-.86-.83.88.88,0,0,1,1.76,0ZM33.87,9.88V4.54h1.67V9.88Z" fill="#676260"/><path d="M36.53,6.24c0-.66,0-1.22,0-1.7h1.44l.07.74h0a1.9,1.9,0,0,1,1.65-.86c1.09,0,1.91.73,1.91,2.3V9.88H39.94v-3c0-.69-.24-1.16-.84-1.16a.93.93,0,0,0-.86.62,1.34,1.34,0,0,0-.05.42V9.88H36.53Z" fill="#676260"/></g></g></svg>