<svg xmlns="http://www.w3.org/2000/svg" viewBox="0 0 190.28 110.81"><title>logo--kochstar</title><g id="Layer_2" data-name="Layer 2"><g id="Layer_1-2" data-name="Layer 1"><path d="M129.67,83.11h6.58l2.17-11.3c.85-4.37,2.42-6.48,5-6.48a6.63,6.63,0,0,1,2.15.4L147.5,58a6.45,6.45,0,0,0-1.29-.2c-2.64,0-4.75,1.7-6.12,4.82l.76-4.22h-6.38l-4.8,24.76m-14.4-11.5c.3-4,2.46-7,5.18-7,2.37,0,3.82,2.1,3.59,5.17-.29,4.07-2.5,7.08-5.14,7.08C116.53,76.88,115,74.82,115.27,71.61ZM122,79.79l-.55,3.32h6.2l4.79-24.76h-6.3l-.69,3.56c-1.46-3-3.38-4.37-6-4.37-5.59,0-10.33,6.28-11,14.92-.51,7,2.33,11.56,6.57,11.56C117.61,84,120,82.6,122,79.79ZM96.13,83.11h6.61l3.57-18.43h3.36l1.23-6.33h-3.36l1.4-7.18h-6.65l-1.37,7.18H97.79l-1.23,6.33H99.7Zm.77-23a9.47,9.47,0,0,0-6.5-2.62,8.66,8.66,0,0,0-8.67,8.29c-.23,3.11.9,4.87,3.54,6.48,2.34,1.41,3.88,1.86,3.75,3.56a2.18,2.18,0,0,1-2.33,2.06c-1.72,0-3.36-1.05-5.41-2.81l-2.66,5.93a11.37,11.37,0,0,0,7.73,3c5.2,0,8.67-3.52,9.05-8.65.26-3.61-1.21-5.47-4.32-7.33-1.9-1.15-3.19-1.3-3.08-2.81a2.08,2.08,0,0,1,2.2-1.86c1.49,0,2.85.8,4.34,2.31Zm-38.68,23H64.8L67,71.56c.87-4.62,2.23-6.88,4.63-6.88,1.69,0,2.48,1.1,2.33,3.26A19.68,19.68,0,0,1,73.63,70L71.1,83.11h6.66l2.52-13A45.89,45.89,0,0,0,81,65.43c.37-5-1.68-7.89-5.58-7.89-2.52,0-4.54,1.51-6.76,4.68.32-1.21.6-2.47.85-3.77l2.66-13.36H65.63Zm1.72-15.72,1.48-7.59a7.48,7.48,0,0,0-5.49-2.36c-6.77,0-11.53,6-12.14,14.37-.53,7.23,2.7,12.26,8.05,12.26a12.52,12.52,0,0,0,5.1-1.21l1.59-8.14c-1.48,1.41-2.55,2.06-4,2.06-2.37,0-4-2.06-3.79-5.32.28-3.92,2.49-6.93,5.13-6.93C57.44,64.53,58.74,65.48,59.94,67.39ZM33.75,64.63c2.26,0,3.57,1.85,3.35,5C36.78,73.87,34.6,77,31.81,77c-2.18,0-3.49-1.91-3.26-5C28.85,67.84,31.15,64.63,33.75,64.63ZM22.17,71.91C21.63,79.24,25.1,84.12,31,84.12c6.81,0,11.81-6.14,12.4-14.27.55-7.43-3-12.36-9-12.36C27.89,57.49,22.79,63.47,22.17,71.91ZM10.93,68.84l4.65-23.75H8.93l-7.34,38H8.21l2.27-11.7,3.92,11.7h8L17.13,70.4,27.22,58.35H18.85Z" fill="#225ca5"/><path d="M148.22,84.47h6.57l6.3-33.39,2.2-.27a13.56,13.56,0,0,0,9.17-6.16c2.08-3.22,3.8-8.81.94-15.83s-10.61-8.24-10.61-8.24a45.89,45.89,0,0,0-2.29-5.16c-1.86-3.79-5.09-6.95-7.88-9.67S142.35-1.19,132.18.32s-17.46,8.8-17.46,8.8c-2.57-.26-4.75-.69-7.18-.36C101.8,9.56,96.88,12.6,96,20.58a13.9,13.9,0,0,0,8.64,14.76l-2.34,14h6.57l3.18-19.14v0h0c-7.92-.93-9.52-5.4-8.74-9.34.89-4.48,6-8,12.6-3.67,12.68-15.27,33.51-13.71,39.68,3.38a9.41,9.41,0,0,0-6.25,3.07L151.56,27s5.47-2.09,9.9-.57,6.82,5.15,6.93,7.55c.25,5.73-2.56,10-7.27,11.13h-5.23l-.21,0,0,0h0l-7.45,39.38m-3.79,26.17.26-2.09.4,0a3.6,3.6,0,0,0,.41,0,1.37,1.37,0,0,0,1.07-.38,1.58,1.58,0,0,0,.36-1.13,5.64,5.64,0,0,0-.06-.69s0-.09,0-.12l-1.63-10.18h2.71l1,7.65,3.47-7.65h2.87l-6.44,12.66a4.1,4.1,0,0,1-1.22,1.58,2.8,2.8,0,0,1-1.66.46,4.84,4.84,0,0,1-.63,0C145.13,110.75,144.82,110.7,144.43,110.64Zm-11.31-4L135,96.11h2.52l-.3,1.61a6.09,6.09,0,0,1,1.69-1.49,3.89,3.89,0,0,1,1.87-.45,3.13,3.13,0,0,1,2.24.78,2.73,2.73,0,0,1,.83,2.09c0,.2,0,.41,0,.61s0,.4-.09.61l-1.2,6.72h-2.77l1.16-6.65a2.58,2.58,0,0,0,.06-.37c0-.12,0-.22,0-.3a1.12,1.12,0,0,0-.34-.88,1.42,1.42,0,0,0-1-.3,2.46,2.46,0,0,0-1.8.76,3.9,3.9,0,0,0-1,2.09l-1,5.65Zm-4.86-1a4.75,4.75,0,0,1-1.38,1,3.8,3.8,0,0,1-1.53.3,3.12,3.12,0,0,1-2.28-.83,2.9,2.9,0,0,1-.85-2.19,3.31,3.31,0,0,1,1-2.64,6.28,6.28,0,0,1,3.41-1.15l.62-.06c1.26-.12,1.89-.49,1.89-1.1a.78.78,0,0,0-.43-.68,2.26,2.26,0,0,0-1.16-.26,1.92,1.92,0,0,0-1.1.27,1.25,1.25,0,0,0-.5.84h-2.66a3.48,3.48,0,0,1,1.34-2.41,5.2,5.2,0,0,1,3.07-.78,5.29,5.29,0,0,1,3.1.79,2.5,2.5,0,0,1,1.12,2.16c0,.09,0,.19,0,.29s0,.2-.05.31l-1,5.55c0,.13,0,.25,0,.36s0,.2,0,.29a1.11,1.11,0,0,0,.07.43.85.85,0,0,0,.21.31v.26h-2.87Zm.51-4a17.28,17.28,0,0,1-1.71.4c-1.39.26-2.08.8-2.08,1.6a1,1,0,0,0,.33.76,1.34,1.34,0,0,0,.89.28,2.39,2.39,0,0,0,1.54-.52,2.1,2.1,0,0,0,.81-1.32Zm-23.12,5,1.87-10.48H110l-.31,1.63a6.65,6.65,0,0,1,1.71-1.48,3.67,3.67,0,0,1,1.78-.44,2.73,2.73,0,0,1,1.63.45,2.56,2.56,0,0,1,.92,1.37,5.85,5.85,0,0,1,1.6-1.41,3.73,3.73,0,0,1,1.75-.41,2.69,2.69,0,0,1,2.06.77,3,3,0,0,1,.74,2.14c0,.15,0,.31,0,.48s0,.35-.09.56l-1.25,6.82h-2.71l1.23-7a1.22,1.22,0,0,0,0-.22.66.66,0,0,0,0-.13,1.14,1.14,0,0,0-.3-.86,1.26,1.26,0,0,0-.9-.29,1.92,1.92,0,0,0-1.51.8,4.68,4.68,0,0,0-.9,2.2l-1,5.46h-2.76l1.24-7,0-.2a1.85,1.85,0,0,0,0-.25,1,1,0,0,0-.29-.78,1.13,1.13,0,0,0-.81-.27,2,2,0,0,0-1.56.77,4.38,4.38,0,0,0-.92,2.12l-1.06,5.57Zm-6.73,0,1.87-10.48h2.5l-.42,2a4.94,4.94,0,0,1,1.4-1.78,3,3,0,0,1,1.85-.55h.26l.17,0L106,98.75l-.57-.11-.37,0a2,2,0,0,0-1.62.74,5,5,0,0,0-.91,2.29l-.89,5Zm-3.72-3h3A4.09,4.09,0,0,1,96.44,106a5.84,5.84,0,0,1-3.27.89,4.29,4.29,0,0,1-3.34-1.31,5.18,5.18,0,0,1-1.2-3.65,6.41,6.41,0,0,1,1.51-4.4A5,5,0,0,1,94,95.84a4.21,4.21,0,0,1,4.59,4.6c0,.2,0,.42,0,.67s-.07.64-.14,1.15H91.37v.07a2.62,2.62,0,0,0,.5,1.71,1.83,1.83,0,0,0,1.46.6,2.16,2.16,0,0,0,1.1-.26A2.12,2.12,0,0,0,95.2,103.58Zm-3.58-3.26h4.23a1.36,1.36,0,0,1,0-.18c0-.08,0-.14,0-.17a2.08,2.08,0,0,0-.47-1.47A1.75,1.75,0,0,0,94,98a2.2,2.2,0,0,0-1.57.6A3.21,3.21,0,0,0,91.62,100.32Zm-7,6.27,0-1.54a4.83,4.83,0,0,1-1.86,1.44,5.91,5.91,0,0,1-2.46.49,5.38,5.38,0,0,1-4.14-1.71,6.42,6.42,0,0,1-1.58-4.5,10.11,10.11,0,0,1,.55-3.27,9,9,0,0,1,1.56-2.84A6.38,6.38,0,0,1,79,92.79a7.36,7.36,0,0,1,3.09-.63,6,6,0,0,1,4.18,1.37,4.83,4.83,0,0,1,1.54,3.76H84.91a2.76,2.76,0,0,0-.8-1.94,2.87,2.87,0,0,0-2-.67,3.9,3.9,0,0,0-1.84.42,3.82,3.82,0,0,0-1.37,1.29,7.26,7.26,0,0,0-.92,2,8.11,8.11,0,0,0-.34,2.33,4.1,4.1,0,0,0,.85,2.77,3,3,0,0,0,2.36,1,3.86,3.86,0,0,0,2.45-.81,3.44,3.44,0,0,0,1.3-2.11H81l.41-2.31h6.41l-1.3,7.3Zm-27.25,0,1.85-10.48h2.52l-.3,1.61a6,6,0,0,1,1.69-1.49A3.89,3.89,0,0,1,65,95.78a3.15,3.15,0,0,1,2.24.78A2.73,2.73,0,0,1,68,98.65c0,.2,0,.41,0,.61s-.05.4-.09.61l-1.2,6.72H64l1.16-6.65c0-.13,0-.25,0-.37a1.73,1.73,0,0,0,0-.3,1.15,1.15,0,0,0-.33-.88,1.44,1.44,0,0,0-1-.3,2.45,2.45,0,0,0-1.8.76,3.83,3.83,0,0,0-1,2.09l-1,5.65Zm-4.57,0L54.6,96.11h2.75l-1.83,10.48Zm2-11.68.43-2.46H58l-.41,2.46Zm-11.15,8.67h3A4.09,4.09,0,0,1,44.9,106a5.84,5.84,0,0,1-3.27.89,4.29,4.29,0,0,1-3.34-1.31,5.18,5.18,0,0,1-1.2-3.65,6.46,6.46,0,0,1,1.51-4.4,5,5,0,0,1,3.9-1.71,4.23,4.23,0,0,1,4.6,4.6,5.56,5.56,0,0,1,0,.67c0,.26-.07.64-.14,1.15H39.83v.07a2.57,2.57,0,0,0,.51,1.71,1.79,1.79,0,0,0,1.45.6,2.16,2.16,0,0,0,1.1-.26A2.05,2.05,0,0,0,43.66,103.58Zm-3.58-3.26h4.23a1.36,1.36,0,0,1,0-.18,1.31,1.31,0,0,0,0-.17,2,2,0,0,0-.47-1.47A1.74,1.74,0,0,0,42.5,98a2.18,2.18,0,0,0-1.57.6A3.15,3.15,0,0,0,40.08,100.32Zm-7.19,6.27.31-1.77a4.63,4.63,0,0,1-1.44,1.55,3.25,3.25,0,0,1-1.78.5,3.33,3.33,0,0,1-2.71-1.21,5.06,5.06,0,0,1-1-3.29,7.6,7.6,0,0,1,1.39-4.66,4.13,4.13,0,0,1,3.45-1.89,3.33,3.33,0,0,1,1.92.5,3.14,3.14,0,0,1,1.1,1.6l1-5.47h2.72l-2.48,14.14Zm-1.2-8.39a2.24,2.24,0,0,0-1.87,1.16,5,5,0,0,0-.76,2.83,2.75,2.75,0,0,0,.49,1.77,1.77,1.77,0,0,0,1.45.6,2.17,2.17,0,0,0,1.91-1.13,5.48,5.48,0,0,0,.72-3,2.43,2.43,0,0,0-.5-1.67A1.78,1.78,0,0,0,31.69,98.2Zm-10,7.34a4.75,4.75,0,0,1-1.38,1,3.8,3.8,0,0,1-1.53.3,3.12,3.12,0,0,1-2.28-.83,2.9,2.9,0,0,1-.85-2.19,3.33,3.33,0,0,1,1-2.64A6.35,6.35,0,0,1,20,100l.62-.06c1.26-.12,1.89-.49,1.89-1.1a.78.78,0,0,0-.43-.68A2.29,2.29,0,0,0,21,97.92a1.9,1.9,0,0,0-1.1.27,1.25,1.25,0,0,0-.5.84H16.7A3.48,3.48,0,0,1,18,96.62a5.2,5.2,0,0,1,3.07-.78,5.29,5.29,0,0,1,3.1.79,2.5,2.5,0,0,1,1.12,2.16c0,.09,0,.19,0,.29s0,.2,0,.31l-1,5.55c0,.13,0,.25,0,.36s0,.2,0,.29a1.35,1.35,0,0,0,.06.43,1,1,0,0,0,.22.31v.26H21.65Zm.51-4a17.28,17.28,0,0,1-1.71.4c-1.39.26-2.08.8-2.08,1.6a1,1,0,0,0,.33.76,1.34,1.34,0,0,0,.89.28,2.39,2.39,0,0,0,1.54-.52,2.1,2.1,0,0,0,.81-1.32ZM0,106.59,2.48,92.45H6.8l1.06,10.18,4.68-10.18h4.25l-2.56,14.14H11.46l2.2-11.48L8.51,106.59H5.8L4.7,95.35,2.75,106.59Z" fill="#da1f28" fill-rule="evenodd"/><path d="M183.26,5.61c1.38,0,2,.39,2,1.36s-.64,1.24-2,1.24h-1.24V5.61h1.21m.27-1h-3V12.5h1.49V9.16h1.46l1.59,3.34h1.66L185,8.93a2.06,2.06,0,0,0,1.79-2.12C186.8,5.39,185.72,4.65,183.53,4.65Zm5.83,4.12A5.77,5.77,0,0,1,187.61,13a6.13,6.13,0,0,1-4.32,1.77,5.94,5.94,0,0,1-4.19-1.79,6,6,0,0,1-1.77-4.22,6.13,6.13,0,0,1,1.83-4.3,5.79,5.79,0,0,1,4.19-1.72,5.88,5.88,0,0,1,4.29,1.79A6,6,0,0,1,189.36,8.77Zm-6-7a6.61,6.61,0,0,0-4.81,2,7.11,7.11,0,0,0-2.09,5,6.81,6.81,0,0,0,2,4.85,6.76,6.76,0,0,0,4.88,2.08,7.06,7.06,0,0,0,4.93-2.06,6.64,6.64,0,0,0,2-4.87,6.91,6.91,0,0,0-2-4.86A6.83,6.83,0,0,0,183.33,1.79Z" fill="#225ca5" fill-rule="evenodd"/></g></g></svg>