<svg xmlns="http://www.w3.org/2000/svg" viewBox="0 0 89.98 41.07"><title>logo_1</title><g id="Layer_2" data-name="Layer 2"><g id="Layer_1-2" data-name="Layer 1"><path d="M26,7.19A7.17,7.17,0,0,0,23.75,2a7.46,7.46,0,0,0-5.5-2A7.32,7.32,0,0,0,13,2.32L12,3.4,15,6l1-1.1a3.15,3.15,0,0,1,2.35-1.07,3.23,3.23,0,0,1,2.53.89,3.6,3.6,0,0,1,1,2.59A3.6,3.6,0,0,1,21,9.94a3.26,3.26,0,0,1-2.49,1A3.24,3.24,0,0,1,16.13,10l-1-1-3,2.63,1.16,1.08a7.4,7.4,0,0,0,5.39,2,7.41,7.41,0,0,0,5.39-2.27A7.17,7.17,0,0,0,26,7.19Z" fill="#a7b241"/><path d="M11,13.36l-1,1.1a3.12,3.12,0,0,1-2.35,1.06,3.2,3.2,0,0,1-2.54-.89,3.62,3.62,0,0,1-1-2.58A3.62,3.62,0,0,1,5,9.42a3.25,3.25,0,0,1,2.49-1,3.2,3.2,0,0,1,2.42.93l1,1,3-2.63L12.73,6.61a7.38,7.38,0,0,0-5.38-2A7.39,7.39,0,0,0,2,6.86a7.14,7.14,0,0,0-2,5.32,7.17,7.17,0,0,0,2.25,5.2,7.42,7.42,0,0,0,5.51,2A7.33,7.33,0,0,0,13,17.05l1-1.08Z" fill="#67714d"/><path d="M23.19,18.65l-.58.49A3.61,3.61,0,0,0,19.92,18a3.71,3.71,0,0,0-2.81,1.11,3.85,3.85,0,0,0-1,2.76,3.86,3.86,0,0,0,1,2.77,3.68,3.68,0,0,0,2.81,1.1,3.58,3.58,0,0,0,2.69-1.13l.56.51a4.44,4.44,0,0,1-3.25,1.35,4.55,4.55,0,0,1-3.37-1.3,4.44,4.44,0,0,1-1.29-3.28,4.45,4.45,0,0,1,1.29-3.28,4.55,4.55,0,0,1,3.37-1.3A4.51,4.51,0,0,1,23.19,18.65Z" fill="#efeff0"/><path d="M33.38,21.91a4.42,4.42,0,0,1-4.64,4.58,4.55,4.55,0,0,1-3.37-1.3,4.44,4.44,0,0,1-1.29-3.28,4.45,4.45,0,0,1,1.29-3.28,4.55,4.55,0,0,1,3.37-1.3,4.55,4.55,0,0,1,3.37,1.3A4.5,4.5,0,0,1,33.38,21.91Zm-.85,0a3.89,3.89,0,0,0-1-2.76A3.62,3.62,0,0,0,28.74,18a3.71,3.71,0,0,0-2.81,1.11,3.85,3.85,0,0,0-1,2.76,3.86,3.86,0,0,0,1,2.77,3.67,3.67,0,0,0,2.81,1.1,3.63,3.63,0,0,0,2.77-1.11A3.86,3.86,0,0,0,32.53,21.89Z" fill="#efeff0"/><path d="M43.56,21.91a4.49,4.49,0,0,1-1.28,3.29,5,5,0,0,1-6.72,0,4.41,4.41,0,0,1-1.3-3.28,4.42,4.42,0,0,1,1.3-3.28,5,5,0,0,1,6.73,0A4.46,4.46,0,0,1,43.56,21.91Zm-.85,0a3.89,3.89,0,0,0-1-2.76A3.62,3.62,0,0,0,38.92,18a3.67,3.67,0,0,0-2.8,1.11,3.82,3.82,0,0,0-1,2.76,3.83,3.83,0,0,0,1,2.77,4.06,4.06,0,0,0,5.57,0A3.86,3.86,0,0,0,42.71,21.89Z" fill="#efeff0"/><path d="M52.24,26.31h-1l-3.86-4.07L45.24,24.5v1.81h-.8V13.25h.8V23.54l6-6.2h.95l-4.27,4.43Z" fill="#efeff0"/><path d="M65.88,17.49l-3.17,8.12c-.23.6-.57.89-1,.89s-.79-.29-1-.89l-1.15-3-1.17,3c-.24.6-.58.89-1,.89s-.8-.29-1-.89l-3.16-8.12H54l3,7.74c.11.28.22.42.32.42s.25-.14.36-.41l1.43-3.73-1.57-4h.85l3,7.75c.11.27.22.41.33.41s.25-.14.35-.4l3-7.76Z" fill="#efeff0"/><path d="M75.08,26.32h-.8V24.68a4.47,4.47,0,0,1-2.09,1.5,4.67,4.67,0,0,1-1.71.31,4.58,4.58,0,0,1-3.38-1.28,4.46,4.46,0,0,1-1.27-3.3,4.48,4.48,0,0,1,1.23-3.3,4.52,4.52,0,0,1,3.39-1.28,4.44,4.44,0,0,1,3.83,2v-1.8h.8Zm-.8-2.76v-1.2a4.74,4.74,0,0,0-.91-3A3.43,3.43,0,0,0,70.49,18a3.69,3.69,0,0,0-2.81,1.1,3.85,3.85,0,0,0-1,2.77,3.88,3.88,0,0,0,1,2.79,3.73,3.73,0,0,0,2.83,1.08,3.88,3.88,0,0,0,1.7-.37A4.69,4.69,0,0,0,74.28,23.56Z" fill="#efeff0"/><path d="M81,18.33h-.06l-1.07-.12a2.75,2.75,0,0,0-2.24,1.11,4.77,4.77,0,0,0-.87,3.06v3.95H76V17.49h.78v1.73A3.57,3.57,0,0,1,80,17.46l1,.13Z" fill="#efeff0"/><path d="M90,21.76a1.54,1.54,0,0,1,0,.4H81.55a3.76,3.76,0,0,0,1.16,2.62,3.84,3.84,0,0,0,2.75,1,6,6,0,0,0,1.8-.28,3.6,3.6,0,0,0,1.56-.85l.59.54a5.38,5.38,0,0,1-4,1.32A4.73,4.73,0,0,1,82,25.21a4.38,4.38,0,0,1-1.32-3.3A4.45,4.45,0,0,1,82,18.63a4.54,4.54,0,0,1,3.36-1.3,4.62,4.62,0,0,1,3.32,1.25A4.23,4.23,0,0,1,90,21.76Zm-.84-.32A3.78,3.78,0,0,0,88,19a4.07,4.07,0,0,0-5.23,0,3.75,3.75,0,0,0-1.19,2.47Z" fill="#efeff0"/><path d="M23.18,29.14l-.58.48a3.64,3.64,0,0,0-2.69-1.11,3.74,3.74,0,0,0-2.81,1.1,4.3,4.3,0,0,0,0,5.54,3.72,3.72,0,0,0,2.81,1.1,3.62,3.62,0,0,0,2.69-1.13l.56.51A4.45,4.45,0,0,1,19.9,37a4.58,4.58,0,0,1-3.36-1.29,4.83,4.83,0,0,1,0-6.57,4.58,4.58,0,0,1,3.36-1.29A4.51,4.51,0,0,1,23.18,29.14Z" fill="#efeff0"/><path d="M33.36,32.4a4.45,4.45,0,0,1-1.28,3.29A4.54,4.54,0,0,1,28.73,37a4.58,4.58,0,0,1-3.37-1.29,4.83,4.83,0,0,1,0-6.57,4.58,4.58,0,0,1,3.37-1.29,4.55,4.55,0,0,1,3.37,1.3A4.48,4.48,0,0,1,33.36,32.4Zm-.84,0a3.92,3.92,0,0,0-1-2.77,3.65,3.65,0,0,0-2.78-1.1,3.74,3.74,0,0,0-2.81,1.1,4.3,4.3,0,0,0,0,5.54,3.7,3.7,0,0,0,2.81,1.1,3.63,3.63,0,0,0,2.77-1.11A3.87,3.87,0,0,0,32.52,32.38Z" fill="#efeff0"/><path d="M46.91,36.81h-.8V31.17a2.65,2.65,0,0,0-.68-1.89,2.45,2.45,0,0,0-1.89-.77,2.48,2.48,0,0,0-1.91.77A2.65,2.65,0,0,0,41,31.17v5.64h-.79V31.17a2.65,2.65,0,0,0-.67-1.89,2.56,2.56,0,0,0-4.43,1.37v6.16h-.82V28h.82v.9a3.21,3.21,0,0,1,2.57-1.06,3.25,3.25,0,0,1,2.93,1.71,3.3,3.3,0,0,1,2.93-1.71,3.22,3.22,0,0,1,2.55,1,3.7,3.7,0,0,1,.86,2.56Z" fill="#efeff0"/><path d="M67.21,36.81h-.8V35.17a4.5,4.5,0,0,1-2.1,1.5,4.87,4.87,0,0,1-1.7.3,4.59,4.59,0,0,1-3.39-1.27A4.46,4.46,0,0,1,58,32.4a4.67,4.67,0,0,1,8.46-2.63V28h.8ZM66.41,34V32.85a4.78,4.78,0,0,0-.92-3,3.45,3.45,0,0,0-2.88-1.31,3.7,3.7,0,0,0-2.81,1.1,3.85,3.85,0,0,0-1,2.77,3.9,3.9,0,0,0,1,2.79,3.69,3.69,0,0,0,2.82,1.08,3.88,3.88,0,0,0,1.7-.37A4.79,4.79,0,0,0,66.41,34Z" fill="#efeff0"/><path d="M75.59,36.81h-.78V31.58A3.07,3.07,0,0,0,74,29.41a2.82,2.82,0,0,0-2.18-.9,3,3,0,0,0-2.16.78,2.8,2.8,0,0,0-.8,2.08v5.44h-.8V28h.8v1.22a3.94,3.94,0,0,1,5.77-.2,4.16,4.16,0,0,1,.93,2.83Z" fill="#efeff0"/><path d="M84.06,36.54a4.51,4.51,0,0,1-1.17,3.26,4.42,4.42,0,0,1-3.34,1.26,5.86,5.86,0,0,1-3.07-.87l.27-.77a4.77,4.77,0,0,0,1.75.75,5.92,5.92,0,0,0,1.09.13,3.51,3.51,0,0,0,2.73-1,3.8,3.8,0,0,0,.94-2.71v-.9a4,4,0,0,1-5.77.18A4.19,4.19,0,0,1,76.57,33V28h.78v5.24a3.1,3.1,0,0,0,.77,2.18,2.83,2.83,0,0,0,2.19.89,2.79,2.79,0,0,0,2.18-.9,3.11,3.11,0,0,0,.77-2.17V28h.8Z" fill="#efeff0"/><path d="M30.22,11.06H28.71v3.8c0,.43.16.65.48.65h.34V16h-.25a.93.93,0,0,1-1.05-1V9.12h.48v1.5h1.51Z" fill="#efeff0"/><path d="M35.05,16h-.47V12.79a1.89,1.89,0,0,0-.43-1.28A1.53,1.53,0,0,0,32.9,11a1.73,1.73,0,0,0-1.42.63A2.24,2.24,0,0,0,31,13.05V16h-.47V8.06H31v3.51a2.14,2.14,0,0,1,1.9-1.06,2,2,0,0,1,1.63.7,2.53,2.53,0,0,1,.52,1.67Z" fill="#efeff0"/><path d="M41.18,13.19a.9.9,0,0,1,0,.25h-5A2.21,2.21,0,0,0,36.79,15a2.33,2.33,0,0,0,1.66.6,3.8,3.8,0,0,0,1.09-.17,2.26,2.26,0,0,0,.94-.51l.35.32a3.24,3.24,0,0,1-2.38.8,2.86,2.86,0,0,1-2.07-.77,2.64,2.64,0,0,1-.79-2,2.68,2.68,0,0,1,.78-2,2.74,2.74,0,0,1,2-.79,2.78,2.78,0,0,1,2,.76A2.51,2.51,0,0,1,41.18,13.19ZM40.67,13A2.27,2.27,0,0,0,40,11.51a2.21,2.21,0,0,0-1.57-.57A2.19,2.19,0,0,0,36.1,13Z" fill="#efeff0"/><path d="M55.84,29.09a4.94,4.94,0,0,0-7.24.68V27.7h-.81V41.07h.81v-5.9a4.45,4.45,0,0,0,2.1,1.5,4.87,4.87,0,0,0,1.7.3,4.58,4.58,0,0,0,3.39-1.27,4.46,4.46,0,0,0,1.27-3.3A4.53,4.53,0,0,0,55.84,29.09Zm-.62,6.07a3.71,3.71,0,0,1-2.82,1.09,3.88,3.88,0,0,1-1.7-.37A4.79,4.79,0,0,1,48.6,34V32.85a4.79,4.79,0,0,1,.91-3,3.43,3.43,0,0,1,2.89-1.31,3.69,3.69,0,0,1,2.81,1.1,3.87,3.87,0,0,1,1,2.77A3.9,3.9,0,0,1,55.22,35.16Z" fill="#efeff0"/></g></g></svg>