<svg xmlns="http://www.w3.org/2000/svg" xmlns:xlink="http://www.w3.org/1999/xlink" viewBox="0 0 189.39 92.69"><defs><symbol id="logo--keltum" data-name="logo--keltum" viewBox="0 0 189.39 92.69"><path d="M77.2,2.36H69.29c-.79,0-.64.49-.52.52A5.82,5.82,0,0,1,72,5.69c.79,1.76,2.76,6.12,5.82,7.92,1.15.66,1.54,1,2.09,1.24,1,.51.53-.47.2-.73a9.71,9.71,0,0,1-2.94-2.54,7.41,7.41,0,0,1-1.77-5.3,3.1,3.1,0,0,1,1.64-3c.65-.46.26-.2.52-.26s.38-.65-.34-.65" fill="#11024c"/><path d="M100,2.62h20.3s.89.47.25.67-3,.3-5.34,3.87c0,0-4,6.93-6.53,9.22s-4.56,5-12,6.43a14.21,14.21,0,0,1-13-4.27,11.43,11.43,0,0,1-2.8-10.15A10.25,10.25,0,0,1,87,.64a10.05,10.05,0,0,1,8.92,1,8.29,8.29,0,0,1,3.39,7c-.34,4.46-3,8.14-8.83,8.54,0,0-1.32-.25-.39-.79a12.78,12.78,0,0,0,3.09-.74,7.27,7.27,0,0,0,4.41-6.62C97.63,5,94,3.29,91.21,3.29a7.14,7.14,0,0,0-6.67,7.65,7.71,7.71,0,0,0,2.74,5.54A8.44,8.44,0,0,0,93.46,19c3.63,0,5.69-1.42,7.7-3.73a9,9,0,0,0,2.36-6.42,9,9,0,0,0-1-4.27A4.56,4.56,0,0,0,100,3.14c-.73-.1,0-.52,0-.52" fill="#11024c"/><path d="M36,89.36c.16-.59.44-.72.77-.72s.58.23.6.88c0,1.38.13,1.8,1.62,1.8a2.25,2.25,0,0,0,2.38-2c0-1.78-3.57-2.51-3.57-4.69,0-2,1.5-3.54,4.1-3.54a4.81,4.81,0,0,1,3,.94l-.36,1.79a.76.76,0,0,1-.85.66c-.65,0-.54-1.32-.65-1.58-.18-.44-.45-.62-1.13-.62a1.92,1.92,0,0,0-2.13,1.65c0,2,3.7,2.27,3.7,4.87,0,1.84-1.41,3.89-4.89,3.89a4.8,4.8,0,0,1-3.15-1.12Z" fill="#11024c"/><path d="M52.3,77.1c.68,0,1.24.29,1.24,1a1.9,1.9,0,0,1-1.88,1.72.93.93,0,0,1-1-1.06A1.87,1.87,0,0,1,52.3,77.1m-2.68,7a4.75,4.75,0,0,0,.2-.75c0-.11-.07-.2-.31-.22l-.9-.09c-.16,0-.25-.07-.25-.24s.16-.29.53-.45l3-1.18a.81.81,0,0,1,.33-.09c.11,0,.18,0,.18.15a3.79,3.79,0,0,1-.13.58L50,89.6c-.13.49-.28.93-.28,1,0,.33,0,.42.39.42s.95-.45,1.36-.45c.18,0,.31.23.31.42a2.69,2.69,0,0,1-2.46,1.61,1.54,1.54,0,0,1-1.76-1.58,4.91,4.91,0,0,1,.22-1Z" fill="#11024c"/><path d="M57.41,83.73a4.48,4.48,0,0,0,.2-.75c0-.11-.07-.2-.31-.22l-.9-.09c-.16,0-.25-.07-.25-.24s.16-.29.53-.44l3-1.19a.81.81,0,0,1,.34-.09c.11,0,.17.05.17.16a3.13,3.13,0,0,1-.13.57l-.4,1.32,0,0A4.46,4.46,0,0,1,63.24,81a2.36,2.36,0,0,1,2.51,2.55A4.77,4.77,0,0,1,65.49,85l-1.55,5.18a4.35,4.35,0,0,0-.12.5c0,.22.06.38.37.38s1.14-.42,1.36-.42.34.11.34.42c0,.52-1.06,1.58-2.45,1.58-1,0-1.74-.48-1.74-1.58a3.54,3.54,0,0,1,.22-1l1.43-4.87a5.19,5.19,0,0,0,.29-1.3,1.22,1.22,0,0,0-1.39-1.25,3.54,3.54,0,0,0-3.32,2.84l-2,7h-2Z" fill="#11024c"/><path d="M78.67,84.32a.69.69,0,0,1-.65.49c-.54,0-.74-.49-.8-1.3s-.55-1-1.3-1c-2.66,0-4.69,3-4.69,5.52,0,1.91.93,3,3,3,1.17,0,2.07-.91,2.67-.91a.4.4,0,0,1,.39.43c0,.67-2.2,2.06-4.49,2.06-2.49,0-3.63-1.81-3.63-3.85,0-4.07,3.28-7.75,6.82-7.75A4.82,4.82,0,0,1,79,82Z" fill="#11024c"/><path d="M87.52,82.36c-1.87,0-3.63,2.73-4,4.16,2,0,5.32-1,5.32-2.92a1.3,1.3,0,0,0-1.34-1.24M87.9,81a2.66,2.66,0,0,1,2.95,2.6c0,2.44-2.89,4.07-6.61,4.07-.33,0-.63,0-1,0a11.35,11.35,0,0,0-.09,1.15,2.1,2.1,0,0,0,2.25,2.24c2,0,3.26-1.47,3.63-1.47a.38.38,0,0,1,.42.37c0,.51-2,2.69-4.77,2.69-2.49,0-3.64-1.8-3.64-3.85,0-4.07,3.28-7.75,6.83-7.75" fill="#11024c"/><path d="M107.88,79.26h-1.76c-.22,0-.42-.11-.42-.29,0-.68.59-.33,2.76-1.32.94-.44,1.4-1.17,1.87-1.17a.39.39,0,0,1,.35.38.88.88,0,0,1-.07.31l-3.94,13.71a.93.93,0,0,0,0,.24c0,.11.11.23.51.37.68.27.74.36.74.56s-.24.37-.46.37h-4.25c-.17,0-.31-.08-.31-.33s.2-.38.86-.6c.49-.14.71-.28.82-.63Z" fill="#11024c"/><path d="M123,77.67c-2.55,0-4,4.4-4,6.36,0,2.42,1.39,2.64,1.82,2.64,2.69,0,4.12-4.4,4.12-6.53,0-1.3-.46-2.47-1.94-2.47m-5.28,15a.29.29,0,0,1-.29-.31c0-.55,1.52-.86,4.3-4.63h0a2.75,2.75,0,0,1-1.41.38c-2.85,0-3.39-2.62-3.39-4.14,0-2.6,2.17-7.51,6.27-7.51,3.33,0,3.76,2.67,3.76,4.12,0,5.44-6.69,12.09-9.2,12.09" fill="#11024c"/><path d="M129.15,89c.59,0,.87,2.2,3.61,2.2A4,4,0,0,0,137,87.3c0-3.16-3.41-2.19-3.41-3.2s2-.37,3.88-2.2a2.88,2.88,0,0,0,.83-1.72,1.91,1.91,0,0,0-2.11-2c-1.74,0-2.78,1.92-3.37,1.92a.55.55,0,0,1-.58-.53c0-.84,1.95-3.11,4.67-3.11,1.12,0,3.64.57,3.64,3.11,0,2.11-1.92,3.39-3.62,4.18,1.61.66,2.45,1.34,2.45,3.22,0,3.89-3.87,5.7-6.34,5.7-3.48,0-4.64-2-4.64-3a.71.71,0,0,1,.77-.64" fill="#11024c"/><path d="M147.84,91.5c2.55,0,4-4.4,4-6.37,0-2.41-1.39-2.64-1.82-2.64-2.69,0-4.12,4.41-4.12,6.54,0,1.3.46,2.47,1.94,2.47m5.28-15a.3.3,0,0,1,.29.31c0,.55-1.53.86-4.3,4.63h0a2.75,2.75,0,0,1,1.41-.38c2.85,0,3.39,2.62,3.39,4.14,0,2.59-2.18,7.51-6.27,7.51-3.33,0-3.76-2.67-3.76-4.12,0-5.44,6.69-12.09,9.2-12.09" fill="#11024c"/><path d="M8.63,35.31c0-2,2.7-3.49,2.7-3.49H.54c1.94.24,2.72,2.51,2.68,3.29-.08,1.57,0,29.21,0,29.21C2.65,66.3,0,67.38,0,67.38l11.38.08a4.59,4.59,0,0,1-2.75-3.61c-.2-.69,0-14.42,0-14.42l.23-.27S19.42,63.65,20,64.38a1.4,1.4,0,0,1-.08,1.81c-.28.26-1.4,1.19-1.4,1.19H29.91c-.56-.08-2.21-1.57-3.14-2.85S15.14,47.75,15.14,47.75,23,37.46,24.72,35.21a8.84,8.84,0,0,1,4.15-3l0-.39H18.53l.07.24c2.11,1,.62,2,.62,2L9,47.9l-.31-.15Z" fill="#11024c"/><path d="M32.56,31.82H52.22a2.51,2.51,0,0,0,1.72-1c.73-.93.34-.53.58-.34,0,0,0,.34,0,1.32v7.61s-.2.58-.44.15a10.21,10.21,0,0,0-1.52-2.31,4.08,4.08,0,0,0-3.24-1.47c-2.06-.1-8.48,0-8.48,0V46.44h7.79s2.82.06,3.78-2.16c.35-.78.44-.1.49.1v8.68s-.1.54-.34.2a6.53,6.53,0,0,0-1.72-1.77c-.74-.39-1.08-.54-3-.54H40.65v8.93s-.1,3.28,2.75,3.28H50s3.79,0,5.89-4.95l-.93,9.17H32.46S35.2,66.6,35.2,64V35.55s.45-2.17-2.64-3.73" fill="#11024c"/><path d="M73,31.82H61.49a4.47,4.47,0,0,1,3.14,4.62V63.55s.39,2.75-3.19,3.83h23l.68-8.14s-.09-.64-.53.29S83,62.77,79.15,63a39.34,39.34,0,0,1-6.33,0c-.64-.1-.83-.15-1.28-.25s-1.32-.1-1.32-2V35.5s-.15-2.22,2.8-3.68" fill="#11024c"/><path d="M81.2,30.7A23.49,23.49,0,0,0,81,35.07v2.64a5.65,5.65,0,0,0,.24,1.72S82.28,36,87.38,36h6V63.6a4,4,0,0,1-2.75,3.78h11.23s-2.94-1-2.94-3.78V36.1h7s3.43-.3,5.44,3.67c0,0,.2-1.67.2-2.25s-.1-5.14-.05-5.4a5.12,5.12,0,0,0-.29-1.47,7.35,7.35,0,0,1-4,1.17H85.08A8.63,8.63,0,0,1,81.2,30.7" fill="#11024c"/><path d="M112.83,31.82c.16.11-.44.3.2.5,1,.32,2.5,2,2.5,4.56v20s-.15,6.53,4.51,9.42c0,0,2.25,2,9.52,2s9.51-2.94,10.05-3.39,3.43-2.49,3.58-10.44V36.34s-.3-3.13,2.4-3.82c0,0,.88-.7,0-.7h-9s-.78.1,0,.65,2,.93,2,4v19s.31,4.34-2.45,6.42c-2.16,1.62-2.51,2-6.48,2-3.43,0-5.49-1-6.18-1.66a7.52,7.52,0,0,1-2.4-5.73V36.34a3.79,3.79,0,0,1,2.3-4.12s.35-.16,0-.4Z" fill="#11024c"/><path d="M156.72,42.63l11.12,25.3h.39L179.72,42.5s1.12,18.9,1.12,20.34a8.54,8.54,0,0,1-.24,2.48,3,3,0,0,1-1.66,1.87c-.4.19-.1.19-.1.19h10.44s.25-.1,0-.19-2.89-.6-3.14-5.4S185,37.91,185.06,37.22a5.11,5.11,0,0,1,3.78-4.9s.49-.26,0-.51h-9l-11.27,25-10.74-25h-9.46s-.35.26-.1.36c.48.2,1.91.79,2.25,1s2.21.89,2.06,3.87l-.15,3-1.27,22.75s.14,3.48-2.79,4.32c0,0-.6.24-.05.29s9.17,0,9.17,0a4.23,4.23,0,0,1-2.21-3.87c.14-2.7,1.37-21,1.37-21" fill="#11024c"/></symbol></defs><title>logo--keltum</title><g id="Layer_2" data-name="Layer 2"><g id="Layer_1-2" data-name="Layer 1"><use width="189.39" height="92.69" xlink:href="#logo--keltum"/></g></g></svg>