<?xml version="1.0" standalone="no"?>
<!DOCTYPE svg PUBLIC "-//W3C//DTD SVG 20010904//EN"
 "http://www.w3.org/TR/2001/REC-SVG-20010904/DTD/svg10.dtd">
<svg version="1.0" xmlns="http://www.w3.org/2000/svg"
 width="501.000000pt" height="266.000000pt" viewBox="0 0 501.000000 266.000000"
 preserveAspectRatio="xMidYMid meet">

<g transform="translate(0.000000,266.000000) scale(0.100000,-0.100000)"
fill="#000000" stroke="none">
<path d="M406 2645 c-170 -43 -312 -175 -372 -344 -23 -65 -24 -73 -24 -468
l0 -403 114 0 115 0 4 378 c4 414 4 417 66 498 73 96 206 137 319 100 61 -21
144 -91 175 -150 21 -40 22 -51 25 -433 l3 -393 119 0 120 0 0 368 c0 419 3
438 71 516 23 26 65 59 93 74 69 36 189 38 253 4 66 -35 110 -78 140 -140 l28
-57 3 -382 3 -383 120 0 120 0 -3 403 -4 402 -25 67 c-35 91 -80 158 -146 218
-203 186 -522 185 -720 -3 l-54 -51 -47 46 c-63 60 -94 80 -176 113 -87 34
-228 43 -320 20z"/>
<path d="M2535 2631 c-160 -46 -303 -166 -373 -312 -51 -107 -63 -160 -63
-274 0 -114 12 -167 63 -274 56 -117 152 -213 269 -269 109 -52 163 -64 279
-63 175 0 306 55 430 180 121 122 174 252 174 426 0 50 -6 115 -13 145 -50
207 -230 391 -437 445 -80 21 -251 19 -329 -4z m292 -235 c99 -35 187 -119
224 -215 31 -79 31 -194 -1 -276 -28 -72 -111 -160 -184 -194 -316 -147 -643
184 -491 495 81 166 281 250 452 190z"/>
<path d="M3510 1585 c0 -256 -2 -465 -4 -465 -3 0 -26 13 -53 30 -105 65 -249
95 -383 80 -355 -41 -600 -382 -525 -733 25 -119 77 -211 169 -302 128 -126
248 -175 431 -175 113 0 180 15 273 61 132 65 249 196 303 340 l24 64 3 783 3
782 -121 0 -120 0 0 -465z m-305 -596 c117 -21 216 -95 272 -201 26 -48 28
-62 28 -158 0 -93 -3 -112 -27 -162 -69 -148 -243 -239 -396 -207 -147 30
-255 128 -296 268 -29 100 -13 200 46 294 55 86 150 150 248 167 65 11 61 11
125 -1z"/>
<path d="M1613 1230 c-218 -40 -407 -207 -474 -420 -104 -333 95 -688 436
-775 77 -20 221 -19 299 1 142 37 284 139 361 258 61 96 87 177 93 293 6 129
-8 205 -58 308 -96 199 -293 328 -517 340 -48 2 -111 0 -140 -5z m237 -255
c99 -35 181 -117 221 -224 30 -80 24 -205 -14 -282 -34 -70 -106 -142 -176
-176 -77 -38 -202 -44 -283 -14 -250 95 -326 401 -147 596 104 112 256 151
399 100z"/>
<path d="M4168 1207 c-149 -63 -226 -181 -216 -330 10 -145 79 -224 283 -322
75 -37 151 -79 169 -96 101 -88 2 -231 -141 -204 -35 6 -95 54 -104 84 -6 16
-199 -114 -199 -134 0 -25 90 -112 147 -142 146 -78 329 -61 452 43 94 79 144
217 121 330 -29 143 -96 212 -308 318 -83 41 -158 85 -166 98 -24 34 -20 81
10 109 22 21 35 24 95 24 61 0 71 -3 95 -27 l27 -26 90 63 c50 34 93 67 95 73
7 21 -72 93 -136 124 -58 29 -77 33 -161 36 -83 2 -104 -1 -153 -21z"/>
<path d="M4815 228 c-60 -47 -66 -125 -13 -179 25 -24 38 -29 79 -29 64 0 108
36 116 96 13 103 -103 175 -182 112z"/>
</g>
</svg>
