<svg xmlns="http://www.w3.org/2000/svg" xmlns:xlink="http://www.w3.org/1999/xlink" viewBox="0 0 143.14 125.62"><defs><clipPath id="clip-path"><rect width="143.14" height="125.62" fill="none"/></clipPath><symbol id="logo--cookware-holland" data-name="logo--cookware-holland" viewBox="0 0 143.14 125.62"><g clip-path="url(#clip-path)"><path d="M57.26,60.36a12.75,12.75,0,0,0-.34-25.47H30.65V94.13H55.37a17.07,17.07,0,0,0,15.95-17,17.27,17.27,0,0,0-14.06-16.8M47.13,42.22A5.81,5.81,0,1,1,41.29,48a5.83,5.83,0,0,1,5.84-5.8m.14,41.16a5.81,5.81,0,1,1,5.85-5.81,5.82,5.82,0,0,1-5.85,5.81m64.21-48.59H67.62a17.41,17.41,0,0,1,5.59,12.67,16.74,16.74,0,0,1-6.46,13.22A20.51,20.51,0,0,1,66.1,94.2h45.38L96.23,60.65ZM86.4,83.38a5.81,5.81,0,1,1,5.84-5.81,5.83,5.83,0,0,1-5.84,5.81m0-29.55A5.81,5.81,0,1,1,92.24,48a5.83,5.83,0,0,1-5.84,5.81M71.53,6a3,3,0,0,1-3-3,3,3,0,0,1,6.07,0,3,3,0,0,1-3,3m12.3,7.1s1.19-2.79,1.26-2.81l-2.6-3.59a38.71,38.71,0,0,1-9.73,1.37H71.51a40.6,40.6,0,0,1-11.2-1.39l-2.6,3.59c.06,0,1.25,2.81,1.25,2.81a55.43,55.43,0,0,0-10,2.48L59.74,30.28a37.2,37.2,0,0,1,10-1.52h0c.52,0,1.06,0,1.6,0a39,39,0,0,1,11.69,1.55L93.81,15.6a55.55,55.55,0,0,0-10-2.48M60.94,26l-6-8.71c1.8-.42,3.63-.74,5.47-1l4.15,9c-1.25.18-2.46.39-3.61.65m8-.71h0L62.68,11.33a52,52,0,0,0,6.26.66Zm5,0V12a40.91,40.91,0,0,0,6-.59L73.75,25.32s0,0,.16-.07m8,.78c-1.14-.26-2.35-.48-3.61-.65l4.16-9a51.78,51.78,0,0,1,5.45,1Z" fill="#00abec"/><path d="M3.71,116.52a3.76,3.76,0,0,1,2.66,1L6,118a3.49,3.49,0,0,0-2.25-.81,2.94,2.94,0,0,0-3,3.07,3,3,0,0,0,3,3.18,3.49,3.49,0,0,0,2.4-1l.42.51a4,4,0,0,1-2.83,1.14A3.71,3.71,0,0,1,0,120.27a3.66,3.66,0,0,1,3.71-3.75" fill="#00abec"/><path d="M11.22,123.44a3.07,3.07,0,0,0,3-3.17,3,3,0,1,0-6,0,3.06,3.06,0,0,0,3,3.17m0-6.92A3.72,3.72,0,0,1,15,120.27a3.76,3.76,0,1,1-7.52,0,3.72,3.72,0,0,1,3.76-3.75" fill="#00abec"/><path d="M20,123.44a3.07,3.07,0,0,0,3-3.17,3,3,0,1,0-6,0,3.06,3.06,0,0,0,3,3.17m0-6.92a3.72,3.72,0,0,1,3.76,3.75,3.76,3.76,0,1,1-7.52,0A3.72,3.72,0,0,1,20,116.52" fill="#00abec"/></g><polygon points="29.45 116.65 27.47 119.83 26.22 119.83 26.22 116.65 25.49 116.65 25.49 123.98 26.22 123.98 26.22 120.48 27.47 120.48 29.58 123.98 30.43 123.98 28.08 120.13 28.08 120.11 30.29 116.65 29.45 116.65" fill="#00abec"/><g clip-path="url(#clip-path)"><path d="M35.83,117.72s-.12.63-.24,1.1L34.18,124h-.87l-1.92-7.33h.76l1.43,5.7c.1.37.17.78.17.78h0s.06-.41.17-.78l1.56-5.7h.69l1.55,5.7c.11.37.16.78.17.78h0s.08-.41.17-.78l1.48-5.7h.76l-2,7.33H37.5l-1.41-5.16c-.12-.47-.24-1.1-.24-1.1Z" fill="#00abec"/><path d="M43.75,117.41s-.16.61-.28,1l-1,2.66H45l-1-2.66c-.12-.34-.28-1-.28-1Zm1.49,4.24h-3L41.43,124h-.77l2.71-7.33h.78L46.86,124h-.77Z" fill="#00abec"/><path d="M50.64,120.25a1.38,1.38,0,0,0,1.46-1.5,1.36,1.36,0,0,0-.67-1.28,2.2,2.2,0,0,0-1-.18h-1.5v3Zm-2.48-3.6h2.19a3.4,3.4,0,0,1,1.38.19,2.13,2.13,0,0,1-.28,3.88v0a3.24,3.24,0,0,1,.19.29l1.61,3h-.83l-1.67-3.08H48.88V124h-.72Z" fill="#00abec"/></g><polygon points="54.81 116.65 54.81 123.98 59.16 123.98 59.16 123.34 55.53 123.34 55.53 120.61 58.34 120.61 58.34 119.97 55.53 119.97 55.53 117.3 58.97 117.3 58.97 116.65 54.81 116.65" fill="#00abec"/><polygon points="68.64 116.65 68.64 119.99 64.36 119.99 64.36 116.65 63.63 116.65 63.63 123.98 64.36 123.98 64.36 120.64 68.64 120.64 68.64 123.98 69.37 123.98 69.37 116.65 68.64 116.65" fill="#00abec"/><g clip-path="url(#clip-path)"><path d="M74.85,123.44a3.06,3.06,0,0,0,3-3.17,3,3,0,1,0-6,0,3.06,3.06,0,0,0,3,3.17m0-6.92a3.72,3.72,0,0,1,3.76,3.75,3.76,3.76,0,1,1-7.52,0,3.72,3.72,0,0,1,3.76-3.75" fill="#00abec"/></g><polygon points="80.34 116.65 80.34 123.98 84.49 123.98 84.49 123.34 81.07 123.34 81.07 116.65 80.34 116.65" fill="#00abec"/><polygon points="85.83 116.65 85.83 123.98 89.97 123.98 89.97 123.34 86.55 123.34 86.55 116.65 85.83 116.65" fill="#00abec"/><g clip-path="url(#clip-path)"><path d="M93.91,117.41s-.15.61-.28,1l-1,2.66h2.54l-1-2.66c-.13-.34-.29-1-.29-1Zm1.5,4.24h-3L91.59,124h-.77l2.71-7.33h.78L97,124h-.76Z" fill="#00abec"/><path d="M98.32,116.65H99l3.77,5.28c.25.36.61,1,.61,1h0s-.06-.61-.06-1v-5.28h.72V124h-.7l-3.77-5.28c-.26-.36-.62-1-.62-1h0s.07.61.07,1V124h-.73Z" fill="#00abec"/><path d="M108.61,123.34a3,3,0,0,0,0-6H107v6Zm-2.32-6.69h2.39a3.67,3.67,0,1,1,0,7.33h-2.39Z" fill="#00abec"/></g><rect x="116.94" y="115.76" width="0.66" height="9.86" fill="#00abec"/><g clip-path="url(#clip-path)"><path d="M122.12,123.34h1.66V118c0-.21,0-.4,0-.4h0a1.71,1.71,0,0,1-.37.43l-.78.79-.47-.47,1.67-1.65h.68v6.69h1.63V124h-4Z" fill="#00abec"/><path d="M130.38,120.12a2.43,2.43,0,0,0,.77-1.66c0-.78-.63-1.27-1.53-1.27s-1.49.54-1.49,1.2c0,1,1.19,1.27,2.25,1.73m-1.47.06a2.11,2.11,0,0,0-1.06,1.66,1.65,1.65,0,0,0,1.75,1.6,1.59,1.59,0,0,0,1.7-1.46c0-1-1.3-1.27-2.39-1.8m-.6-.31a1.72,1.72,0,0,1-.92-1.49,2,2,0,0,1,2.23-1.86c1.38,0,2.26.76,2.26,1.91a3.21,3.21,0,0,1-.9,2,1.76,1.76,0,0,1,1.07,1.57,2.27,2.27,0,0,1-2.45,2.12,2.31,2.31,0,0,1-2.5-2.24,2.59,2.59,0,0,1,1.21-2" fill="#00abec"/><path d="M133.83,122.56a2.06,2.06,0,0,0,1.67.86,1.73,1.73,0,1,0,0-3.45,2.47,2.47,0,0,0-1.34.4l-.47-.16.4-3.56h3.58v.64H134.7l-.22,1.88a3.62,3.62,0,0,1-.07.42h0a2.35,2.35,0,0,1,1.13-.28,2.41,2.41,0,0,1,2.54,2.39,2.45,2.45,0,0,1-2.56,2.41,2.66,2.66,0,0,1-2.17-1Z" fill="#00abec"/><path d="M139.14,123.34h1.66V118c0-.21,0-.4,0-.4h0a2.08,2.08,0,0,1-.37.43l-.79.79-.46-.47,1.67-1.65h.67v6.69h1.63V124h-4Z" fill="#00abec"/></g></symbol></defs><title>logo--cookware-holland</title><g id="Layer_2" data-name="Layer 2"><g id="Layer_1-2" data-name="Layer 1"><use width="143.14" height="125.62" xlink:href="#logo--cookware-holland"/></g></g></svg>