<svg xmlns="http://www.w3.org/2000/svg" xmlns:xlink="http://www.w3.org/1999/xlink" viewBox="0 0 212.03 96.53"><defs><symbol id="logo--gero" data-name="logo--gero" viewBox="0 0 212.03 96.53"><rect width="212.03" height="76.31" fill="#231f20"/><path d="M64.07,28.58v3.68H34.65v12.2H60.41V40.15H49V36.47h15V48.14l-29.4,0c-2.88,0-3.59-.56-3.59-3.69V32.27c0-2.9.81-3.7,3.59-3.68Z" fill="#fff"/><path d="M178.13,44.46H152V32.26h26.08Zm3.66-12.21c0-3-.79-3.68-3.65-3.68,0,0-26.08,0-26.1,0-2.59,0-3.46.85-3.45,3.69v12.2c0,3.14.69,3.67,3.46,3.69,0,0,26.13,0,26.11,0,3,0,3.63-.63,3.65-3.81Z" fill="#fff"/><path d="M112.58,36.47V32.26h24.3v4.2Zm29.16-3.9h0a3.57,3.57,0,0,0-2-3.48,5.29,5.29,0,0,0-2-.52h-29V48.15h3.77v-8h22.76l2.63,8h3.78a77.67,77.67,0,0,0-2.45-7.95c-.26-.74.12-.71.91-1s1.55-.85,1.55-2.91,0-1.7,0-3.71" fill="#fff"/><polygon points="105.94 24.34 105.94 3.5 114.79 24.34 105.94 24.34" fill="#fff"/><polygon points="105.94 24.34 105.94 3.5 114.79 24.34 105.94 24.34" fill="#fff"/><polygon points="106.01 52.44 106.01 73.28 97.16 52.44 106.01 52.44" fill="#fff"/><polygon points="102.33 28.6 102.33 32.28 74.11 32.29 74.09 36.48 100.94 36.48 100.94 40.18 74.09 40.18 74.11 44.49 103.48 44.48 103.48 48.18 70.64 48.18 70.63 28.6 102.33 28.6" fill="#fff"/><path d="M75.1,96.53a6.87,6.87,0,0,1-2.21-.34,5.5,5.5,0,0,1-1.82-1l1-1.42a4.37,4.37,0,0,0,1.41.8,5.07,5.07,0,0,0,1.66.27,3,3,0,0,0,1.69-.39,1.21,1.21,0,0,0,.61-1.1h0a1.07,1.07,0,0,0-.31-.84,1.72,1.72,0,0,0-.79-.43,9.64,9.64,0,0,0-1.08-.24c-.42-.07-.84-.16-1.26-.26a4.24,4.24,0,0,1-1.17-.45,2.3,2.3,0,0,1-.87-.88,3.1,3.1,0,0,1-.33-1.55h0a3,3,0,0,1,1-2.41,4.45,4.45,0,0,1,2.91-.85,5.35,5.35,0,0,1,1.75.29,6,6,0,0,1,1.68.85L78.09,88a4.35,4.35,0,0,0-2.56-.91,2.92,2.92,0,0,0-1.6.37,1.23,1.23,0,0,0-.56,1.07h0a1.12,1.12,0,0,0,.33.87,2.23,2.23,0,0,0,.87.44c.36.09.74.18,1.16.26s.81.18,1.22.3a4,4,0,0,1,1.11.49,2.25,2.25,0,0,1,.81.89,3.12,3.12,0,0,1,.3,1.47v0a2.86,2.86,0,0,1-1.06,2.38,4.79,4.79,0,0,1-3,.84" fill="#231f20"/><rect x="81.13" y="85.53" width="1.83" height="10.89" fill="#231f20"/><polygon points="91.88 85.53 91.88 93.55 87.37 85.53 85.42 85.53 85.42 96.42 87.16 96.42 87.16 88.51 91.66 96.42 93.62 96.42 93.62 85.53 91.88 85.53" fill="#231f20"/><path d="M99.8,96.53A4.13,4.13,0,0,1,97.74,96a3.27,3.27,0,0,1-1.33-1.4,4.7,4.7,0,0,1-.47-2.17v-3a4.65,4.65,0,0,1,.47-2.16,3.36,3.36,0,0,1,1.33-1.41,4.13,4.13,0,0,1,2.06-.49,3.78,3.78,0,0,1,1.79.42,3.61,3.61,0,0,1,1.32,1.2,4.92,4.92,0,0,1,.72,1.88h-1.84a2.64,2.64,0,0,0-.42-.93,2.22,2.22,0,0,0-.7-.6,1.83,1.83,0,0,0-.87-.21,1.86,1.86,0,0,0-1.47.62,2.43,2.43,0,0,0-.55,1.68v3a2.41,2.41,0,0,0,.55,1.68,1.86,1.86,0,0,0,1.47.62,2,2,0,0,0,2-1.58h1.84A4.42,4.42,0,0,1,102.9,95a3.7,3.7,0,0,1-1.31,1.15,3.89,3.89,0,0,1-1.79.4" fill="#231f20"/><polygon points="106.4 85.53 105.66 85.53 105.66 96.42 107.45 96.42 112.8 96.42 112.8 94.74 107.45 94.74 107.45 91.87 111.98 91.87 111.98 90.16 107.45 90.16 107.45 87.25 112.8 87.25 112.8 85.53 106.4 85.53" fill="#231f20"/><polygon points="118.17 85.53 116.77 86.41 116.77 88.44 118.17 87.64 118.17 96.42 120 96.42 120 85.53 118.17 85.53" fill="#231f20"/><path d="M125.22,87.13a1.21,1.21,0,0,0-1,.41,1.75,1.75,0,0,0-.34,1.16h0a1.79,1.79,0,0,0,.34,1.17,1.38,1.38,0,0,0,2,0,1.8,1.8,0,0,0,.34-1.18h0a1.76,1.76,0,0,0-.34-1.16,1.2,1.2,0,0,0-1-.4m0-1.74a3,3,0,0,1,2.29.89,3.59,3.59,0,0,1,.81,2.51h0a5.07,5.07,0,0,1-.21,1.44,9,9,0,0,1-.55,1.52l-2.13,4.7h-1.91L126.07,91l.18.28a1.1,1.1,0,0,1-.58.5,2.16,2.16,0,0,1-.88.16,2.43,2.43,0,0,1-2-.87,3.51,3.51,0,0,1-.74-2.32h0a3.49,3.49,0,0,1,.82-2.48,3,3,0,0,1,2.3-.88" fill="#231f20"/><polygon points="131.15 85.53 129.75 86.41 129.75 88.44 131.15 87.64 131.15 96.42 132.97 96.42 132.97 85.53 131.15 85.53" fill="#231f20"/><path d="M135.13,96.42V94.83l3.77-5a2.81,2.81,0,0,0,.45-.78,2.07,2.07,0,0,0,.17-.77h0a1.08,1.08,0,0,0-.34-.86,1.5,1.5,0,0,0-1.9.06,1.7,1.7,0,0,0-.44,1H135a3.59,3.59,0,0,1,1-2.31,3.05,3.05,0,0,1,2.21-.82,3.32,3.32,0,0,1,2.32.74,2.72,2.72,0,0,1,.83,2.11h0a4.11,4.11,0,0,1-.25,1.35,4.88,4.88,0,0,1-.7,1.26l-2.92,3.84h3.93v1.71Z" fill="#231f20"/><path d="M31.07,91H66.82m79.4,0H182" fill="none" stroke="#000" stroke-miterlimit="10" stroke-width="0.72"/></symbol></defs><title>logo-gero</title><g id="Layer_2" data-name="Layer 2"><g id="Layer_1-2" data-name="Layer 1"><use width="212.03" height="96.53" xlink:href="#logo--gero"/></g></g></svg>