<svg xmlns="http://www.w3.org/2000/svg" xmlns:xlink="http://www.w3.org/1999/xlink" viewBox="0 0 184.29 72.32"><defs><symbol id="logo--food-e" data-name="logo--food-e" viewBox="0 0 184.29 72.32"><path d="M18.53,56.92C7.32,49.75-.39,42.38,0,33.93c.35-7.36,2.9-16,15.77-20.95S47.07,6.06,64.08,4.09c12.17-1.41,29.27-1.73,42-2a246,246,0,0,1,35.1,1.39c11.36,1.41,22.12,4.05,29.44,8,6.68,3.55,10.19,7.94,12,12.34,4.2,10,.33,20.33-9.7,29.42a54.54,54.54,0,0,1-16.27,10.14c-14.39,5.91-35.29,8.43-55.72,8.9-16.1.37-32.61-.42-47.59-3s-27.11-7.32-35.7-12.85" fill="#de3146"/><path d="M20.16,57.27C8.94,50.65,1.14,43.71,1.24,35.43c.09-7.21,2.28-15.75,14.69-21S46.28,6.52,62.86,4c11.85-1.81,28.56-2.72,41-3.44A240.37,240.37,0,0,1,138.2.68c11.16,1,21.78,3.19,29.08,6.74,6.66,3.23,10.25,7.41,12.21,11.65,4.46,9.6,1,19.87-8.45,29.12a53.62,53.62,0,0,1-15.56,10.49c-13.87,6.29-34.22,9.48-54.19,10.66-15.73.94-31.91.74-46.66-1.3S27.86,61.83,19.25,56.73" fill="#333433"/><path d="M32.61,22.53c3.08.22,8,.2,14.88,0l.62.6,0,.31c0,.72-.38,1.11-1.28,1.17l-1,.06a100.06,100.06,0,0,1-11.55.13l.11,1.72c.17,2.49.48,6.38,1,11.67q11.9-.78,12,.33l0,.31c-.13.73-.37,1.11-.7,1.13q-6.1.24-11,.25c.34,3.15.55,5.49.65,7l.37,5.6c.06.89.2,2.18.45,3.9a4.67,4.67,0,0,1-1.12.69c-1,.07-1.62-.62-1.72-2.08a26.85,26.85,0,0,1-.46-4L33.81,50q-2.07-22.92-2.32-26.78A2.31,2.31,0,0,1,32.61,22.53Z" fill="#fff"/><path d="M64.68,20.07Q71.26,19.64,74,32a17.43,17.43,0,0,0,.44,3.7q.7,10.95-3,17.08a7.28,7.28,0,0,1-5.23,3q-7.52.49-10.21-5.23a26.6,26.6,0,0,1-1.68-7.94l-.19-2.93q-.74-11.25,2.24-16.27,5.28-3.13,7.71-3.3Zm-8,20.2q.66,10.09,4.1,12.29c0,.44,1.59.8,4.7,1.09l1-.06q4.66-.31,5.29-14.14c0-.47,0-1.66,0-3.57Q71,25.26,66,22.46a2.86,2.86,0,0,0-1.18-.23l-.39,0a12.66,12.66,0,0,0-5.63,2.38Q56.63,25.32,56.71,40.27Z" fill="#fff"/><path d="M89.49,18.45q6.58-.42,9.31,12a17.28,17.28,0,0,0,.44,3.69q.7,10.95-3,17.09a7.32,7.32,0,0,1-5.23,3q-7.51.48-10.21-5.23A26.66,26.66,0,0,1,79.15,41L79,38.05q-.73-11.23,2.24-16.27,5.28-3.13,7.71-3.29Zm-8,20.21q.66,10.1,4.1,12.28c0,.44,1.59.81,4.7,1.09l1-.06q4.66-.3,5.29-14.14c0-.47,0-1.66,0-3.56q-.69-10.62-5.72-13.42a2.57,2.57,0,0,0-1.18-.23l-.39,0A12.77,12.77,0,0,0,83.6,23C82.16,23.47,81.46,28.69,81.52,38.66Z" fill="#fff"/><path d="M110,18.05l1.35-.09q5.58-.36,7.6,4.7.45,1,2,15.16l.09,1.42q.58,8.82-6.69,12.07a34,34,0,0,1-5.83,1.18c-1.47-.24-2.25-.87-2.31-1.89a19.57,19.57,0,0,1-.4-3.12l-.14-2.21c-.8-8.22-1.22-12.81-1.29-13.77l-.59-9.1a6.91,6.91,0,0,1,.1-1.42,1.73,1.73,0,0,1-.45-.93C103.34,19.29,105.54,18.62,110,18.05ZM106.6,20.8c0,1.23,0,2.11,0,2.66l.4,6.14q1.47,16.53,1.61,18.78l0,.8.27,1.09q10-.66,9.29-11.34l-.14-2.18Q116.44,22,115.75,22.09a4.58,4.58,0,0,0-4.48-1.93l-1,.06A27.05,27.05,0,0,0,106.6,20.8Z" fill="#fff"/><path d="M134.92,18.4a62.49,62.49,0,0,0,8.84-.11l2.12-.14c1.06,0,1.61.37,1.65,1,0,.42-.34.8-1.09,1.16h-2.36l-4.5.29c-.64,0-1.62.06-2.93,0a119.7,119.7,0,0,1,1.58,12.44v.16c1.52-.2,2.63-.33,3.33-.37l3.12-.21a1.62,1.62,0,0,0,.76-.22c.83.16,1.3.4,1.41.7l0,.78c0,.53-1.63.9-5,1.12l-3.34.22v.15q1.2,12,1.35,14.32h.19a2,2,0,0,1,.76-.2q2.52-.17,7.78-1c.66.16,1,.45,1,.86.07,1.05-2.24,1.72-6.91,2a30.45,30.45,0,0,1-4.49.45,1.05,1.05,0,0,1-1-1v-.17c0-.11.05-.16.18-.17s-.08-.15-.2-.14q-1.29-19.73-3.61-31.12A1.29,1.29,0,0,1,134.92,18.4Z" fill="#fff"/><path d="M129,32.53a1.28,1.28,0,0,1,.61,1,1.3,1.3,0,0,1-.47,1.06,2.1,2.1,0,0,1-2.55.16,1.3,1.3,0,0,1-.6-1,1.28,1.28,0,0,1,.47-1,2,2,0,0,1,1.26-.51A1.92,1.92,0,0,1,129,32.53Z" fill="#fff"/><path d="M145.25,9.29a2.61,2.61,0,0,1,1.61.9l.07,1a1.72,1.72,0,0,1-1.5.89q-8.52.75-12,1A1.91,1.91,0,0,1,131.57,12c0-.69.35-1.24,1.18-1.65l3.83-.25C138.81,9.91,141.7,9.66,145.25,9.29Z" fill="#fff"/><path d="M151.5,16.72c.15,0,.22.08.22.18v0s-.05.06-.14.11h-1.09l-.06,0c0,.43,0,.83,0,1.23v2q0,.35,0,1.14l-.11.06h-.14s-.07,0-.11-.09v-.15c0-.86,0-1.69,0-2.49A8.43,8.43,0,0,0,150,17l-1.1,0-.08-.09v-.11c0-.1.63-.15,1.88-.14h.53A1.15,1.15,0,0,0,151.5,16.72Z" fill="#fff" stroke="#fff" stroke-miterlimit="10" stroke-width="0.25"/><path d="M155.3,16.62c.1,0,.14.07.14.14q-.12,1-.15,2l.13,2.52a.19.19,0,0,1-.2.12h-.06a.2.2,0,0,1-.14-.18v-.16c-.07-.94-.11-1.67-.1-2.2v-.07c0-.31,0-.73,0-1.28a.25.25,0,0,0,0-.07v0h0a9.93,9.93,0,0,1-1.19,1.34h0q-.28,0-.6-.69a6.84,6.84,0,0,0-.48-.62c.05.36.11,1.61.18,3.76,0,0,0,.05,0,.16a.37.37,0,0,1-.23.09c-.15,0-.22-.31-.22-.92a19.1,19.1,0,0,0-.26-3.76v0c0-.08.09-.11.2-.11h.06a7.65,7.65,0,0,1,1.3,1.7h0l.72-.87a7.09,7.09,0,0,0,.52-.7A.38.38,0,0,1,155.3,16.62Z" fill="#fff" stroke="#fff" stroke-miterlimit="10" stroke-width="0.25"/></symbol></defs><title>logo--food-e</title><g id="Layer_2" data-name="Layer 2"><g id="Layer_1-2" data-name="Layer 1"><use width="184.29" height="72.32" xlink:href="#logo--food-e"/></g></g></svg>