<?xml version="1.0" encoding="utf-8"?>
<!-- Generator: Adobe Illustrator 23.0.4, SVG Export Plug-In . SVG Version: 6.00 Build 0)  -->
<svg version="1.1" id="Layer_1" xmlns="http://www.w3.org/2000/svg" xmlns:xlink="http://www.w3.org/1999/xlink" x="0px" y="0px"
	 viewBox="0 0 58.9 59" enable-background="new 0 0 58.9 59" xml:space="preserve">
<symbol  id="map-legend--offices" viewBox="-29.45 -33.03 58.9 66.06">
	<circle fill="#D1A950" cx="-0.35" cy="-3.93" r="29.1"/>
	<g>
		<defs>
			<circle id="SVGID_1_" cx="-0.35" cy="-3.93" r="29.1"/>
		</defs>
		<clipPath id="SVGID_2_">
			<use xlink:href="#SVGID_1_"  overflow="visible"/>
		</clipPath>
		<g clip-path="url(#SVGID_2_)">
			<polygon fill="#AB8900" points="-4.04,33.03 -17.9,7.16 -17.44,1.16 -17.44,-13.63 -10.97,-14.55 1.04,-19.17 2.43,-16.86 
				4.85,-17.62 6.12,-17.79 7.97,-14.09 13.51,-14.09 29.45,15.71 			"/>
		</g>
	</g>
	<path fill="#FFFFFF" d="M19.55,5.31"/>
	<path fill="#FFFFFF" d="M15.75-6.65h-1.6v-5.94c0-1.14-0.93-2.07-2.07-2.07H8.2l-1-2.86c-0.19-0.53-0.69-0.88-1.25-0.88
		c-0.15,0-0.31,0.03-0.45,0.08l-2.66,1l-0.45-1.24c-0.19-0.53-0.69-0.88-1.25-0.88c-0.15,0-0.31,0.03-0.45,0.08l-12.97,4.7h-3.55
		c-1.14,0-2.07,0.93-2.07,2.07V6.77c0,1.14,0.93,2.07,2.07,2.07h27.91c1.14,0,2.07-0.93,2.07-2.07V0.83h1.6
		c0.29,0,0.53-0.24,0.54-0.53v-6.41C16.29-6.41,16.05-6.65,15.75-6.65z M3.16-16.34l2.67-1h0.08c0.11,0,0.21,0.07,0.24,0.17
		l0.91,2.5h-8.51l3.6-1.32L3.16-16.34z M1.02-18.34H1.1c0.11,0,0.21,0.07,0.25,0.17l0.45,1.25l-6.35,2.26h-4.62L1.02-18.34z
		 M13.08,6.77c0,0.55-0.45,1-1,1h-27.91c-0.55,0-1-0.45-1-1v-19.36c0-0.55,0.45-1,1-1h27.91c0.55,0,1,0.45,1,1v5.94H9.34
		c-2.07,0-3.74,1.67-3.74,3.74c0,2.07,1.67,3.74,3.74,3.74c0,0,0,0,0,0h3.74L13.08,6.77z M15.22-0.23H9.34
		c-1.47,0-2.67-1.2-2.67-2.67c0-1.47,1.2-2.67,2.67-2.67h5.88L15.22-0.23z"/>
	<path fill="#FFFFFF" d="M9.61-4.78c-1.03,0-1.87,0.84-1.87,1.87c0,1.03,0.84,1.87,1.87,1.87c1.03,0,1.87-0.84,1.87-1.87l0,0
		C11.48-3.94,10.64-4.78,9.61-4.78z M9.61-2.11c-0.44,0-0.8-0.36-0.8-0.8c0-0.44,0.36-0.8,0.8-0.8c0.44,0,0.8,0.36,0.8,0.8v0
		C10.41-2.47,10.05-2.11,9.61-2.11z"/>
	<circle fill="#CDD476" cx="-0.35" cy="-3.93" r="29.1"/>
	<g>
		<defs>
			<circle id="SVGID_3_" cx="-0.35" cy="-3.93" r="29.1"/>
		</defs>
		<clipPath id="SVGID_4_">
			<use xlink:href="#SVGID_3_"  overflow="visible"/>
		</clipPath>
		<g clip-path="url(#SVGID_4_)">
			<polygon fill="#7C8C42" points="-4.04,33.03 -17.9,7.16 -17.44,1.16 -17.44,-13.63 -10.97,-14.55 1.04,-19.17 2.43,-16.86 
				4.85,-17.62 6.12,-17.79 7.97,-14.09 13.51,-14.09 29.45,15.71 			"/>
		</g>
	</g>
	<path fill="#FFFFFF" d="M19.55,5.31"/>
	<path fill="#FFFFFF" d="M15.75-6.65h-1.6v-5.94c0-1.14-0.93-2.07-2.07-2.07H8.2l-1-2.86c-0.19-0.53-0.69-0.88-1.25-0.88
		c-0.15,0-0.31,0.03-0.45,0.08l-2.66,1l-0.45-1.24c-0.19-0.53-0.69-0.88-1.25-0.88c-0.15,0-0.31,0.03-0.45,0.08l-12.97,4.7h-3.55
		c-1.14,0-2.07,0.93-2.07,2.07V6.77c0,1.14,0.93,2.07,2.07,2.07h27.91c1.14,0,2.07-0.93,2.07-2.07V0.83h1.6
		c0.29,0,0.53-0.24,0.54-0.53v-6.41C16.29-6.41,16.05-6.65,15.75-6.65z M3.16-16.34l2.67-1h0.08c0.11,0,0.21,0.07,0.24,0.17
		l0.91,2.5h-8.51l3.6-1.32L3.16-16.34z M1.02-18.34H1.1c0.11,0,0.21,0.07,0.25,0.17l0.45,1.25l-6.35,2.26h-4.62L1.02-18.34z
		 M13.08,6.77c0,0.55-0.45,1-1,1h-27.91c-0.55,0-1-0.45-1-1v-19.36c0-0.55,0.45-1,1-1h27.91c0.55,0,1,0.45,1,1v5.94H9.34
		c-2.07,0-3.74,1.67-3.74,3.74c0,2.07,1.67,3.74,3.74,3.74c0,0,0,0,0,0h3.74L13.08,6.77z M15.22-0.23H9.34
		c-1.47,0-2.67-1.2-2.67-2.67c0-1.47,1.2-2.67,2.67-2.67h5.88L15.22-0.23z"/>
	<path fill="#FFFFFF" d="M9.61-4.78c-1.03,0-1.87,0.84-1.87,1.87c0,1.03,0.84,1.87,1.87,1.87c1.03,0,1.87-0.84,1.87-1.87l0,0
		C11.48-3.94,10.64-4.78,9.61-4.78z M9.61-2.11c-0.44,0-0.8-0.36-0.8-0.8c0-0.44,0.36-0.8,0.8-0.8c0.44,0,0.8,0.36,0.8,0.8v0
		C10.41-2.47,10.05-2.11,9.61-2.11z"/>
</symbol>
<title>map-legend--offices</title>
<g>
	<g id="Layer_1-2">
		
			<use xlink:href="#map-legend--offices"  width="58.9" height="66.06" x="-29.45" y="-33.03" transform="matrix(1 0 0 1 29.45 33.03)" overflow="visible"/>
	</g>
</g>
</svg>
