<svg xmlns="http://www.w3.org/2000/svg" viewBox="0 0 57.59 57.59"><title>factories</title><g id="Layer_2" data-name="Layer 2"><g id="Layer_1-2" data-name="Layer 1"><circle id="bg" cx="28.8" cy="28.8" r="28.8" fill="#b9b8ab"/><path d="M53.78,43.12,42.52,22.21,32.92,29V22.61L23.58,29V13.39H15.73L15,41.15l8.54,16a29.51,29.51,0,0,0,5.27.48A28.79,28.79,0,0,0,53.78,43.12Z" fill="#676260"/><polygon points="15.55 13.39 15.55 41.15 42.04 41.15 42.04 22.61 32.74 28.97 32.74 22.61 23.4 28.97 23.4 13.39 15.55 13.39" fill="none" stroke="#fff" stroke-linejoin="round" stroke-width="1.09"/><rect x="23.4" y="33.19" width="5.12" height="2.69" fill="none" stroke="#fff" stroke-linejoin="round" stroke-width="1.09"/><rect x="32.66" y="33.19" width="5.12" height="2.69" fill="none" stroke="#fff" stroke-linejoin="round" stroke-width="1.09"/><line x1="15.55" y1="17.75" x2="23.4" y2="17.75" fill="none" stroke="#fff" stroke-linejoin="round" stroke-width="1.09"/></g></g></svg>