<svg xmlns="http://www.w3.org/2000/svg" xmlns:xlink="http://www.w3.org/1999/xlink" viewBox="0 0 113.22 126.99"><defs><clipPath id="clip-path"><circle id="SVGID" cx="55.94" cy="55.94" r="55.94" fill="#cdd476"/></clipPath></defs><title>offices</title><g id="Layer_2" data-name="Layer 2"><g id="Layer_1-2" data-name="Layer 1"><circle id="SVGID-2" data-name="SVGID" cx="55.94" cy="55.94" r="55.94" fill="#cdd476"/><g clip-path="url(#clip-path)"><polygon points="48.84 126.98 22.2 77.26 23.09 65.71 23.09 37.3 35.52 35.52 58.61 26.64 61.27 31.08 65.94 29.63 68.38 29.3 71.93 36.41 82.58 36.41 113.22 93.69 48.84 126.98" fill="#7c8c42"/></g><path d="M86.89,50.71H83.81V39.29a4,4,0,0,0-4-4H72.36l-2-5.5A2.55,2.55,0,0,0,68,28.12a2.61,2.61,0,0,0-.86.16L62,30.15l-.87-2.39a2.54,2.54,0,0,0-2.39-1.69,2.43,2.43,0,0,0-.87.16L33,35.31H26.18a4,4,0,0,0-4,4V76.51a4,4,0,0,0,4,4H79.83a4,4,0,0,0,4-4V65.09h3.08a1,1,0,0,0,1-1V51.74A1,1,0,0,0,86.89,50.71ZM62.69,32.08l5.12-1.87.16,0a.5.5,0,0,1,.47.33l1.74,4.8H53.84l6.93-2.53Zm-4.12-3.92a.47.47,0,0,1,.16,0,.49.49,0,0,1,.46.33l.87,2.4-12.2,4.46H39ZM81.75,76.51a1.93,1.93,0,0,1-1.92,1.93H26.18a1.94,1.94,0,0,1-1.93-1.93V39.29a1.93,1.93,0,0,1,1.93-1.92H79.83a1.92,1.92,0,0,1,1.92,1.92V50.71H74.56a7.19,7.19,0,0,0,0,14.38h7.19ZM85.86,63H74.56a5.13,5.13,0,1,1,0-10.26h11.3ZM75.08,54.31a3.59,3.59,0,1,0,3.59,3.59A3.6,3.6,0,0,0,75.08,54.31Zm0,5.13a1.54,1.54,0,1,1,1.54-1.54A1.54,1.54,0,0,1,75.08,59.44Z" fill="#fff"/></g></g></svg>