<svg xmlns="http://www.w3.org/2000/svg" viewBox="0 0 454.83 800.83"><title>pan</title><g id="Layer_2" data-name="Layer 2"><g id="Layer_1-2" data-name="Layer 1"><path d="M439.94,493S394.72,354.72,231.8,345.75c-25,0-181.24,7.1-227.2,177.88C-1,564.73-20.06,691.78,119.32,774.36c0,0,80,49.7,188.34,11.59,50.44-20.18,133-71,146.1-188C453.76,598,458.62,541.19,439.94,493Z" fill="none" stroke="#8da077" stroke-miterlimit="10"/><path d="M271,359.58s-38.12-10.84-87.07,0S50.19,409.28,15.81,515.4C7.22,554.64,3.22,611.69,33.37,675c26.54,43.72,68.39,93.79,153.59,114S366.32,759,401.08,708.22s49.1-94.33,44.84-152.46-31.39-117.33-91.55-161C315.5,369.3,271,359.58,271,359.58Z" fill="none" stroke="#8da077" stroke-miterlimit="10"/><path d="M377.53,507.93s-51.07-101.64-149.41-96S88.31,493.73,88.31,493.73,40.1,581.92,101,659.27,227.31,725,249.74,723.92,366.09,693,382,605.84C394.47,537.7,377.53,507.93,377.53,507.93Z" fill="none" stroke="#8da077" stroke-miterlimit="10"/><path d="M267.86,347.62s9.53,0,16.81-27.28c7.1-21.11,37.19-126.49,37.19-126.49L363.71,39.34s4.61-18.44,7.22-22.05c1.37-4.24,14.58-22.17,36.25-15.2s21.17,25,20.93,27a113.8,113.8,0,0,1-3.37,14.7C422.87,50.05,388,151.69,388,151.69s-52.94,156.7-54.19,159.44-16.31,43.49-14.45,49.57a34.64,34.64,0,0,0,1.87,4" fill="none" stroke="#8da077" stroke-miterlimit="10"/><path d="M209.11,347.11s4.5-11.57,22.07-11.45,37.24,2.13,45.71,4.18" fill="none" stroke="#8da077" stroke-miterlimit="10"/><path d="M320.08,353.26s30.18,13.54,39.14,21.64,14.08,12.58,14.08,16.19a21.11,21.11,0,0,1-1.55,7.23" fill="none" stroke="#8da077" stroke-miterlimit="10"/><line x1="383.14" y1="75.58" x2="316.62" y2="299.79" fill="none" stroke="#8da077" stroke-miterlimit="10"/><path d="M405.75,15.42s-12.86-4.85-19.43,1.5c-10.84,10.46-12.71,29.89-12.71,29.89s-.75,20.93,9.53,27.84,28-20.93,30.08-27.65S421.25,23.64,405.75,15.42Z" fill="none" stroke="#8da077" stroke-miterlimit="10"/><path d="M381.29,33.94s-4.13,29.31,4.46,32.68S409.11,47,410,43.07s4.86-19.8-8.59-24.85S381.29,33.94,381.29,33.94Z" fill="none" stroke="#8da077" stroke-miterlimit="10"/></g></g></svg>