<svg xmlns="http://www.w3.org/2000/svg" viewBox="0 0 484.58 595.12"><title>pot-2</title><g id="Layer_2" data-name="Layer 2"><g id="Layer_1-2" data-name="Layer 1"><path d="M102.86,499.66S193.51,568,314.52,532c22.21-6.61,127.11-43.37,161.75-171.29,3.66-13.51,24-86.19-20.64-174.6C445.58,166.25,392.28,76.32,274.69,59.85c-15.1-2.12-93.95-11.28-166.24,37.45C82.36,114.89,43.1,150.94,18.37,206.64c0,0-34.89,85.67-7.17,167.64C22.58,407.91,47.51,462.24,102.86,499.66Z" fill="none" stroke="#8da077" stroke-miterlimit="10"/><path d="M86.24,114.5s7.64-7.24,2.82-21.15S71.15,52.24,90.36,32C97,25,126.81,8.05,148.91,3.06s40.31-3.84,52.61,14.13C211.71,32.06,214.61,44.37,216.81,49s6.41,9.27,9.36,9.21" fill="none" stroke="#8da077" stroke-miterlimit="10"/><path d="M124,87.74S97.49,83.16,96.52,60.26s33.54-33.17,42.3-36.62,40-14,49.9,7.06-.08,27.86-4.63,33.85" fill="none" stroke="#8da077" stroke-miterlimit="10"/><path d="M264.52,541.58s3.25-.69,12.69,21.88,29.7,32.39,44.23,31,41.24-10.3,59.28-21.07,28.55-27,27.4-42.42-9.48-29.3-9.7-31.63-3.36-7.59-1.74-12.29" fill="none" stroke="#8da077" stroke-miterlimit="10"/><path d="M297.52,536.46s-7.7,18.2,2.71,28.95,16.15,15.78,47.67,4.92S388.59,544.7,389.13,538s2.38-22.29-18.77-31.81" fill="none" stroke="#8da077" stroke-miterlimit="10"/><path d="M188.62,510.92s98.23,25.55,187.9-40.42c35.41-26.06,86.21-88.95,84.73-170.59-.68-37.64-22.62-141-117.56-194.75C315.69,89.31,192,62.81,90.51,143.34c-26.43,21-71.73,107.38-54,198C46.69,393.62,77.12,470.35,188.62,510.92Z" fill="none" stroke="#8da077" stroke-miterlimit="10"/><path d="M363.72,455.87s78-58.73,76-146.9c-1.35-56.91-43.52-141-112-182.09C299.16,109.76,198.41,104,137,146.9c-28.27,19.75-96,106.14-69.17,210C79,400,121.16,475.91,209.53,490.07S363.72,455.87,363.72,455.87Z" fill="none" stroke="#8da077" stroke-miterlimit="10"/><path d="M324.66,212s-70.3-60.69-144.59-8.9c0,0-79.2,69.83-23.29,160,20.53,33.11,81,62.33,139.76,27.82S375.53,267,324.66,212Z" fill="none" stroke="#8da077" stroke-miterlimit="10"/><path d="M218.62,371s97.22,10.77,103.65-76.4c5.43-73.6-82.19-79.7-98.28-73.14-14,5.7-80.52,32.64-49.46,110.57C188.89,368,218.62,371,218.62,371Z" fill="none" stroke="#8da077" stroke-miterlimit="10"/><path d="M277.28,250.73s-.92-.54-2.6-1.35c-9.64-4.66-44-18.32-67.8,10.13C196.75,271.62,177.8,291.68,202,329s71.69,14.4,71.69,14.4,37.15-19.75,23-68.54C291.49,256.88,277.28,250.73,277.28,250.73Z" fill="none" stroke="#8da077" stroke-miterlimit="10"/></g></g></svg>