<svg xmlns="http://www.w3.org/2000/svg" viewBox="0 0 595.54 710.71"><title>pot</title><g id="Layer_2" data-name="Layer 2"><g id="Layer_1-2" data-name="Layer 1"><path d="M210.51,640.46S29.88,594.57,1.54,386.68C-4.17,318.49,7.74,152.43,192,78.47c33.27-13.22,134.18-47.55,261.13,23.32,0,0,118.31,65.91,138.71,206.58,4.6,36.53,20.79,173.7-109.41,281.2-45.48,34-109.62,69.06-216.08,62.91C231.29,645.31,223.28,644.56,210.51,640.46Z" fill="none" stroke="#8da077" stroke-miterlimit="10"/><path d="M95.31,563.66s121.27,126.19,302.61,63.63c30.14-10.54,153.48-63.77,183.6-216C589.73,366.84,611.87,202.69,431.6,100,395.37,82.72,234.28,16.84,89.14,154.51,55.4,191.67-27.41,299.39,27,459.2,37.47,484.54,50.7,517,95.31,563.66Z" fill="none" stroke="#8da077" stroke-miterlimit="10"/><path d="M231.69,89.33S84.4,115.75,33.56,277.81c-9.31,31-57.15,222.7,151.53,332.06,36.65,15.75,223.58,80.93,350.63-112,44.23-79.09,76.82-232.21-57.43-350.09C429.56,110.57,360,62.88,231.69,89.33Z" fill="none" stroke="#8da077" stroke-miterlimit="10"/><path d="M284.52,180.5S156.08,187.44,123.7,323.34c0,0-35.73,150.54,134.26,206.84,39.83,10.51,152.17,13.69,206.22-119.9,47.17-140.23-66.42-202.8-91.89-212.7S327,178.57,284.52,180.5Z" fill="none" stroke="#8da077" stroke-miterlimit="10"/><path d="M437.76,426.52c-22.6,43.1-54.51,71.34-94.85,83.92-30.91,9.64-61.51,8-80.06,3.22C199,492.39,159,455,144.05,402.4c-11.44-40.08-3.67-74.8-3.59-75.14a190.08,190.08,0,0,1,16.25-44.14c17.34-33.06,44-57.45,79.36-72.48,26.31-11.2,48.07-12.87,49.37-13,35.88-1.6,53.39,5.27,75.55,14l5.07,2c1.29.5,128.39,51.71,82,190.68-3.15,7.75-6.61,15.22-10.26,22.2Z" fill="none" stroke="#8da077" stroke-miterlimit="10"/><path d="M246.17,431.58s-7.92,4.92-5.46,13.82,11.35,13.24,20.71,17.33,21.74.23,25-11.32c2-8.17-.5-10.79-.5-10.79" fill="none" stroke="#8da077" stroke-miterlimit="10"/><path d="M301.38,272.52s-2.9-12.7,6.77-18.8c6.6-3,11.06-4.41,22-.6s16.24,12.56,16.09,14.1c.47,2.19-.28,4.55-4.92,12.16" fill="none" stroke="#8da077" stroke-miterlimit="10"/><path d="M245.63,439.4s-.09-5.07,2.63-13,15.19-46.28,22.78-67.24,23.74-70.63,26.82-77.11,3.57-12.06,8.76-18.57" fill="none" stroke="#8da077" stroke-miterlimit="10"/><path d="M281.53,450.93s15.41-40.83,26.72-75.06,32.33-90.41,33.07-99.85" fill="none" stroke="#8da077" stroke-miterlimit="10"/><path d="M134.41,604.22s-5,51.41,7,67.92c9.82,13.52,17.35,20.78,51.9,30.35S250,716.83,272.9,691.72c16.58-22,25.64-38.61,25.64-38.61" fill="none" stroke="#8da077" stroke-miterlimit="10"/><path d="M158.54,619.4S156.4,638,165,646.84c6.4,8.06,22.46,17,35.1,20.49s36.11,11.26,52.7,2.88c13-7.5,17.68-17.51,17.68-17.51" fill="none" stroke="#8da077" stroke-miterlimit="10"/><path d="M463.17,106.88s3-51.7-3.93-62.81-10.67-20.29-36.82-29.74C405.46,9.28,379-4,349,2c-12,4.58-17.25,6.09-29.21,22.4s-22.17,34-22.17,34" fill="none" stroke="#8da077" stroke-miterlimit="10"/><path d="M325.92,60S334.62,35.5,363,37.36s50.07,13,54.4,16.13,17.9,8.53,20.78,25.8c.51,7.09.53,14.79.53,14.79" fill="none" stroke="#8da077" stroke-miterlimit="10"/></g></g></svg>