<svg xmlns="http://www.w3.org/2000/svg" xmlns:xlink="http://www.w3.org/1999/xlink" viewBox="0 0 237.07 647.51"><defs><symbol id="spoon" data-name="spoon" viewBox="0 0 237.07 647.51"><path d="M8.21,11.91S42-7.18,64,4c5.54,4.56,6.76,13.51,9,24.37s22.29,189.37,39.56,249.76c0,0,30.25,119.72,32.86,125.59s3.08,11.92,14.62,14.38,45.1,5.77,64.77,52.29c8.42,28.34,22,71-.7,143.35-6.79,14.47-14.59,30.66-23.11,32.87s-24-5.78-35.11-14.9S109.76,575,96.64,524.29C92.3,504.7,81,463.66,118.05,430.08c6.2-4.14,8.52-12,7.44-19S77.92,239.88,71,217.33,13.83,62.42,9.47,51.19-7.61,18.82,8.21,11.91Z" fill="none" stroke="#8da077" stroke-miterlimit="10"/><path d="M66.19,6.41S49.7,4.44,40.78,9.3s-10.5,2.95-15.13,3.3S9.08,11.43.51,23.4" fill="none" stroke="#8da077" stroke-miterlimit="10"/><path d="M32.73,12.49s90.74,359.87,92.67,367.36" fill="none" stroke="#8da077" stroke-miterlimit="10"/><path d="M230.35,545.29S232.66,432,159.49,425.9c-12.05-1.61-25.75,3-31.52,6s-50.68,31.64-24.42,102.25" fill="none" stroke="#8da077" stroke-miterlimit="10"/><path d="M172.26,629.72s-39.69-32.6-62.82-85.49" fill="none" stroke="#8da077" stroke-miterlimit="10"/><path d="M142.3,411.45A8.1,8.1,0,0,0,131,412.57" fill="none" stroke="#8da077" stroke-miterlimit="10"/></symbol></defs><title>spoon</title><g id="Layer_2" data-name="Layer 2"><g id="Layer_1-2" data-name="Layer 1"><use width="237.07" height="647.51" xlink:href="#spoon"/></g></g></svg>