<svg xmlns="http://www.w3.org/2000/svg" viewBox="0 0 295.15 22.05"><title>thermolon</title><g id="Layer_2" data-name="Layer 2"><g id="Layer_1-2" data-name="Layer 1"><path d="M13.21.27a37.11,37.11,0,0,0-13,2.2.3.3,0,0,0-.2.28v2A.31.31,0,0,0,.13,5,.33.33,0,0,0,.42,5,28.51,28.51,0,0,1,6,3.42a39.14,39.14,0,0,1,6-.59V21.68a.3.3,0,0,0,.31.3h1.84a.29.29,0,0,0,.3-.3V2.83a38.76,38.76,0,0,1,6,.59A28.61,28.61,0,0,1,26,5a.31.31,0,0,0,.28,0,.31.31,0,0,0,.13-.25V2.75a.29.29,0,0,0-.19-.28A37,37,0,0,0,13.21.27Z" fill="#231f20"/><path d="M56.83.33H55a.31.31,0,0,0-.31.31V9.93H33.19V.64a.31.31,0,0,0-.31-.31H31a.3.3,0,0,0-.3.31V21.75a.29.29,0,0,0,.3.3h1.87a.3.3,0,0,0,.31-.3v-9.3H54.68v9.3a.3.3,0,0,0,.31.3h1.84a.29.29,0,0,0,.3-.3V.64A.3.3,0,0,0,56.83.33Z" fill="#231f20"/><path d="M74.64.33a37.11,37.11,0,0,0-13,2.21.29.29,0,0,0-.2.28V19.57a.3.3,0,0,0,.2.28,37.07,37.07,0,0,0,13,2.2,37,37,0,0,0,13-2.2.29.29,0,0,0,.19-.28V17.62a.29.29,0,0,0-.13-.25.28.28,0,0,0-.28,0,35,35,0,0,1-12.8,2.19A36.91,36.91,0,0,1,63.91,18V12.45h21.8a.3.3,0,0,0,.31-.3V10.24a.31.31,0,0,0-.31-.31H63.91V4.35a37.35,37.35,0,0,1,10.73-1.5,34.75,34.75,0,0,1,12.8,2.2.31.31,0,0,0,.28,0,.29.29,0,0,0,.13-.25V2.82a.28.28,0,0,0-.19-.28A37,37,0,0,0,74.64.33Z" fill="#231f20"/><path d="M110.24,14.29a35.61,35.61,0,0,0,3.92-.65,33,33,0,0,0,4.2-1.24.28.28,0,0,0,.2-.28V2.48a.29.29,0,0,0-.19-.28,39.63,39.63,0,0,0-26,0,.31.31,0,0,0-.19.28v19.2a.3.3,0,0,0,.3.3h1.87a.3.3,0,0,0,.31-.3V13.13a38.45,38.45,0,0,0,10.73,1.44h1.37l8.47,7.34a.29.29,0,0,0,.2.07h2.89a.3.3,0,0,0,.13-.57ZM94.62,4a39.27,39.27,0,0,1,21.5,0v6.56a37.4,37.4,0,0,1-10.77,1.47,37.17,37.17,0,0,1-10.73-1.47Z" fill="#231f20"/><path d="M158.27,2.19a69.37,69.37,0,0,0-8.19-1.4,78.13,78.13,0,0,0-8.47-.46h-1.85a78.36,78.36,0,0,0-16.68,1.86.3.3,0,0,0-.24.29V21.75a.3.3,0,0,0,.31.3H125a.3.3,0,0,0,.31-.3V4.18c2.18-.4,4.47-.71,6.79-.92s4.8-.34,7.35-.37V21.75a.29.29,0,0,0,.3.3h1.84a.3.3,0,0,0,.3-.3V2.89c2.55,0,5,.15,7.35.37s4.61.52,6.8.92V21.75a.29.29,0,0,0,.3.3h1.84a.3.3,0,0,0,.3-.3V2.48A.3.3,0,0,0,158.27,2.19Z" fill="#231f20"/><path d="M176,.33a37.11,37.11,0,0,0-13,2.21.29.29,0,0,0-.2.28V19.57a.3.3,0,0,0,.2.28,37.11,37.11,0,0,0,13,2.2,36.93,36.93,0,0,0,13-2.2.3.3,0,0,0,.2-.28V2.82a.29.29,0,0,0-.2-.28A37,37,0,0,0,176,.33Zm-10.73,4a39.27,39.27,0,0,1,21.5,0V18A37.13,37.13,0,0,1,176,19.53,37,37,0,0,1,165.26,18Z" fill="#231f20"/><path d="M219.51,17.34a34.9,34.9,0,0,1-12.79,2.19A36.91,36.91,0,0,1,196,18V.64a.31.31,0,0,0-.31-.31h-1.87a.3.3,0,0,0-.3.31V19.57a.29.29,0,0,0,.19.28,37.13,37.13,0,0,0,13,2.2,36.88,36.88,0,0,0,13-2.2.3.3,0,0,0,.2-.28V17.62a.31.31,0,0,0-.13-.25A.3.3,0,0,0,219.51,17.34Z" fill="#231f20"/><path d="M237.43.33a37.13,37.13,0,0,0-13,2.21.29.29,0,0,0-.2.28V19.57a.3.3,0,0,0,.2.28,37.13,37.13,0,0,0,13,2.2,37,37,0,0,0,13-2.2.3.3,0,0,0,.2-.28V2.82a.29.29,0,0,0-.2-.28A37,37,0,0,0,237.43.33Zm-10.74,4a39.27,39.27,0,0,1,21.5,0V18a37,37,0,0,1-10.76,1.5A37,37,0,0,1,226.69,18Z" fill="#231f20"/><path d="M268.15.33a37.13,37.13,0,0,0-13,2.21.28.28,0,0,0-.19.28V21.75a.29.29,0,0,0,.3.3h1.87a.3.3,0,0,0,.31-.3V4.35a39.23,39.23,0,0,1,21.49,0v17.4a.3.3,0,0,0,.31.3h1.84a.3.3,0,0,0,.3-.3V2.82a.29.29,0,0,0-.2-.28A36.91,36.91,0,0,0,268.15.33Z" fill="#231f20"/><polygon points="289 0.67 284.07 0.67 284.07 1.26 286.22 1.26 286.22 5.78 286.86 5.79 286.85 1.26 289.01 1.26 289 0.67" fill="#231f20"/><polygon points="294.57 0.67 292.49 3.8 290.44 0.67 289.85 0.67 289.85 5.78 290.46 5.78 290.47 1.79 292.5 4.81 294.52 1.79 294.52 5.78 295.15 5.79 295.15 0.67 294.57 0.67" fill="#231f20"/></g></g></svg>