<svg xmlns="http://www.w3.org/2000/svg" viewBox="0 0 297.56 339.43"><title>wok-2</title><g id="Layer_2" data-name="Layer 2"><g id="Layer_1-2" data-name="Layer 1"><path d="M41.41,112.07s2.12,3.15,1.44,5.21-1.44,6.79,2.47,7.27c3.06.38,8.37-1.71,11.59-2.88s8-3.63,8.51-4.87,2.81-3-1.51-6.59c-.32-.26-2.75-1.64-6-11.38S46.79,63,35.57,35.13c-3.23-8.05-12.65-31.8-12.65-31.8S21.68,0,19.11.55,2.75,5.91,2.34,6.63s-2.16.92-1.14,3.8,17.19,47.12,19,52.12,15.85,36.69,16.47,38.33S41.41,112.07,41.41,112.07Z" fill="none" stroke="#8da077" stroke-miterlimit="10"/><line x1="56.5" y1="151.38" x2="45.32" y2="124.55" fill="none" stroke="#8da077" stroke-miterlimit="10"/><line x1="64.83" y1="117.5" x2="74.27" y2="144.38" fill="none" stroke="#8da077" stroke-miterlimit="10"/><path d="M45.32,120.71s15.27-3.15,19.69-9.47" fill="none" stroke="#8da077" stroke-miterlimit="10"/><path d="M137.45,149.87s-29-13.9-65.45-4.63c-14.51,5.45-28.19,9.57-50,33.65,0,0-24.9,33-21.09,65.24,1,8.51,2.36,60.09,54.64,84.68,14.3,5.77,53.71,22.44,97.14-6,9.26-6.9,15.43-11.22,21.81-20.17" fill="none" stroke="#8da077" stroke-miterlimit="10"/><path d="M172.85,301.65s-18.94,25.93-57.42,33.24c-42.64,8.09-73.48-17.5-75.12-19S13.66,297.74,4.7,257.4c0,0-6.79-34.16,9-59.68,11.93-24.29,27.06-34.17,44.55-43.84,13.17-6.07,31.08-13,61.13-7.51a163,163,0,0,1,17.28,5" fill="none" stroke="#8da077" stroke-miterlimit="10"/><path d="M250.44,129.29S206,95.12,153.09,134.43c-11.73,9.88-25.25,20.92-33.75,66.89-.83,9.33-1.38,47.33,25.79,78.62,9.74,9.87,30.8,31,65.69,31,13.39,0,47.85-3.81,72.34-42.71,5.88-9.34,20.17-34.88,10.8-79.33C290.1,170.55,272.32,142.87,250.44,129.29Z" fill="none" stroke="#8da077" stroke-miterlimit="10"/><path d="M264.74,150.07s-22.7-25.83-55.47-30c-10-1.28-38.38,2.37-58.14,19.45-6.27,5.43-25.52,27.27-28.91,64.73-.75,8.2,0,39.72,19.65,66.37,5.4,7.31,26.87,35.82,66.2,36.63,10.58.22,37.56-4.34,60.44-30.22,8.05-9.1,24.5-30.54,20.51-72.78C286.51,177.57,264.74,150.07,264.74,150.07Z" fill="none" stroke="#8da077" stroke-miterlimit="10"/><path d="M180.39,303.12s25.45,13,61.06-.82c16-6.21,49-32.52,51.72-77.79.71-11.67,2-42.37-19.34-69.29-11-13.86-28.95-33.86-63.63-37.77" fill="none" stroke="#8da077" stroke-miterlimit="10"/><path d="M227.5,304.06s46.05-9.86,60.32-59.25C290.7,233.56,298.66,196,276.3,163c-4.8-7.27-15.91-26.42-51.45-40.89" fill="none" stroke="#8da077" stroke-miterlimit="10"/><path d="M215.19,174.51s-4.75-12.71-6-13.26a8.89,8.89,0,0,0-8.1,0c-3.84,1.93-4.25,3.3-4,4.39a125.13,125.13,0,0,0,5.08,11.67c.68,1,3.57,4.39,7.54,4.39s7.69,2.19,11.12,9.19,12.48,33.48,12.89,36.63,1.93,8.37-1.64,11.12-6.86,5.21-6.18,7.68,2.2,13.58,2.89,14.13,3.43.83,6.58-1,6-2.88,4.94-6.72-2.74-8.23-2.74-8.23a19.65,19.65,0,0,1,3-4c1.54-1.44,9.78-10.36,0-31.63C236.1,199,228.41,178.68,222,176.62c-4.53-1.1-9.75-2.61-10.57-3.29" fill="none" stroke="#8da077" stroke-miterlimit="10"/><path d="M227.87,246.05s11.51-8.87,6.1-17.21" fill="none" stroke="#8da077" stroke-miterlimit="10"/><path d="M205.84,178.68S217,180.33,219,187.6" fill="none" stroke="#8da077" stroke-miterlimit="10"/><path d="M232.39,254s.83-2.88,3.57-2.6,1.58,3.15,1.58,3.15-.69,1.79-2.13,2S232.39,256.47,232.39,254Z" fill="none" stroke="#8da077" stroke-miterlimit="10"/><path d="M234.8,256.59s-2.87-2.3-.44-4.95" fill="none" stroke="#8da077" stroke-miterlimit="10"/><path d="M202.62,166.33s1.09-2.26,3.22-1.65a2.36,2.36,0,0,1,1.86,2.54,3.19,3.19,0,0,1-1.31,1.72c-.89.41-1.85.75-2.26.41A3.4,3.4,0,0,1,202.62,166.33Z" fill="none" stroke="#8da077" stroke-miterlimit="10"/><path d="M205.84,168.8s-3.16-.9-2-3.84" fill="none" stroke="#8da077" stroke-miterlimit="10"/><path d="M176.31,299.79s28.44-45.67,14.85-95.18c-3.75-13.67-21.61-37.73-49.93-53.74" fill="none" stroke="#8da077" stroke-miterlimit="10"/><path d="M140.05,152.56s39.38,21.39,49.88,53.9c4.11,12.76,7.13,49.4-14.61,91.38" fill="none" stroke="#8da077" stroke-miterlimit="10"/><path d="M164.07,292.19c11.82-15.88,16-32.28,16.32-35.6.67-6.47,7.18-65-46.37-93.82" fill="none" stroke="#8da077" stroke-miterlimit="10"/><path d="M130.66,161.49s-46.72-10.62-85.34,15.95c-31.66,20.28-28.47,67.31-28.06,74.2S35.78,326,99.58,324.8c30.52-.59,50.17-14.69,62.45-30" fill="none" stroke="#8da077" stroke-miterlimit="10"/><path d="M4.22,6.76S5,6.92,20.45.63" fill="none" stroke="#8da077" stroke-miterlimit="10"/><path d="M22.68,21.72l-3.09-8.51s-2.54-3.84-5.63-3-4,3-2.88,6.11,3.16,8.09,3.16,8.09,2.06,3.23,5.62,2A4.11,4.11,0,0,0,22.68,21.72Z" fill="none" stroke="#8da077" stroke-miterlimit="10"/><path d="M14,10.26S8.2,12.39,9.51,16.5s3.91,10,4.39,10.23,2.81,2.6,5.9,1.44,3.36-4,2.88-6.45" fill="none" stroke="#8da077" stroke-miterlimit="10"/></g></g></svg>