<svg xmlns="http://www.w3.org/2000/svg" viewBox="0 0 560.29 651.81"><title>wok</title><g id="Layer_2" data-name="Layer 2"><g id="Layer_1-2" data-name="Layer 1"><path d="M111.56,213.18s3.1,6.42,1.27,10-4.48,12.21,2.64,14.14c5.58,1.52,16-.94,22.26-2.24s15.72-4.61,17.07-6.75,6-4.72-1-12.62c-.51-.57-4.64-3.78-8-22.7S134.65,123.7,121.32,69c-3.85-15.78-15-62.32-15-62.32S105,.24,100,.51,68.28,6.05,67.33,7.28,63.07,8.42,64.21,14,83.47,106,85.57,115.73,105.13,188,105.84,191.2,111.56,213.18,111.56,213.18Z" fill="none" stroke="#8da077" stroke-miterlimit="10"/><line x1="129.02" y1="290.08" x2="115.47" y2="237.37" fill="none" stroke="#8da077" stroke-miterlimit="10"/><line x1="153.52" y1="229.52" x2="163.83" y2="281.86" fill="none" stroke="#8da077" stroke-miterlimit="10"/><path d="M116.49,230.25s29.16-1.76,39-12.28" fill="none" stroke="#8da077" stroke-miterlimit="10"/><path d="M279.49,308.93s-50.08-33.51-120.08-26.08c-28.36,6.23-54.83,10.2-101.71,49,0,0-55,54.58-56.55,115.3-.41,16.05-11.68,112,78.65,171.6,25,14.51,93.57,56,181.67,14.91,19-10.3,31.61-16.67,45.83-31.56" fill="none" stroke="#8da077" stroke-miterlimit="10"/><path d="M304.52,599.76s-42,43-115.33,46.26C108,649.62,57.67,593.94,55,590.64S10.47,549.94,4.66,472.78c0,0-3.45-65.15,32.56-108.25,28.62-41.82,59.3-56.09,94.31-69.34,26-7.74,61.08-15.73,115.32,2.41a307.24,307.24,0,0,1,30.71,13.91" fill="none" stroke="#8da077" stroke-miterlimit="10"/><path d="M494.44,301s-73.28-75.21-181.83-16.49c-24.39,15.18-52.4,32-80.45,115-4,17.07-15.2,87.38,26.79,152.63,15.42,20.91,48.81,65.67,113.48,75,24.83,3.57,89.72,5.73,145.52-59.82,13.41-15.76,46.72-59.27,41.24-144.18C556.94,388.09,531.37,332,494.44,301Z" fill="none" stroke="#8da077" stroke-miterlimit="10"/><path d="M515.39,343.35s-35.17-54-94.78-70.53c-18.2-5.06-71.78-5.88-113,20.51-13.09,8.38-54.6,43.72-70.91,112.25-3.58,15-10.67,73.62,18.68,128.29,8,15,40.24,73.58,112.92,85.61,19.56,3.23,70.79,2,120.12-39.86C505.8,564.9,542,529.55,545.94,450.18,548.4,400.13,515.39,343.35,515.39,343.35Z" fill="none" stroke="#8da077" stroke-miterlimit="10"/><path d="M318.12,604.51s43.68,31,113.4,14.8c31.24-7.25,99.49-47.18,116.68-130.38,4.43-21.43,15-78-17.33-133.61-16.65-28.63-44.62-70.5-107.85-87" fill="none" stroke="#8da077" stroke-miterlimit="10"/><path d="M405.19,618.84s88-6,127.66-93.7c8.35-20.08,33.16-87.65.5-154.67-7-14.76-22.43-53.22-84.44-89.55" fill="none" stroke="#8da077" stroke-miterlimit="10"/><path d="M417,375.4s-5.41-24.82-7.55-26.17a16.57,16.57,0,0,0-15-2.17c-7.63,2.54-8.76,5-8.55,7.08s5.28,21,6.3,23,5.43,9.1,12.81,10.16,13.66,6.12,18.14,20,14.2,65.4,14.12,71.36,1.32,16-6,20.16-14.11,7.83-13.5,12.59.44,25.77,1.57,27,6.13,2.44,12.46,0,12-3.73,11-11.14-2.88-16-2.88-16a37,37,0,0,1,6.61-6.69c3.25-2.27,20.89-16.6,8.46-58.64-5.69-19.51-14.5-59.21-25.91-64.74-8.1-3.25-17.36-7.44-18.7-8.93" fill="none" stroke="#8da077" stroke-miterlimit="10"/><path d="M421.38,511.4s23.71-13.36,15.91-30.27" fill="none" stroke="#8da077" stroke-miterlimit="10"/><path d="M398.56,380.63s20.28,6,22,20.05" fill="none" stroke="#8da077" stroke-miterlimit="10"/><path d="M427.64,527.36s2.3-5.12,7.31-3.88,2.08,6.27,2.08,6.27-1.74,3.13-4.47,3.12S427,531.94,427.64,527.36Z" fill="none" stroke="#8da077" stroke-miterlimit="10"/><path d="M431.41,532.8s-4.69-5,.51-9.3" fill="none" stroke="#8da077" stroke-miterlimit="10"/><path d="M395.89,356.88s2.62-3.91,6.41-2.19a4.41,4.41,0,0,1,2.77,5.2s-1.12,2.3-2.88,2.83-3.63.9-4.31.16A6.38,6.38,0,0,1,395.89,356.88Z" fill="none" stroke="#8da077" stroke-miterlimit="10"/><path d="M401.2,362.32s-5.61-2.51-2.65-7.66" fill="none" stroke="#8da077" stroke-miterlimit="10"/><path d="M311.44,597.23s64.92-77.05,53-172.46c-3.3-26.34-30-75.72-78.19-113" fill="none" stroke="#8da077" stroke-miterlimit="10"/><path d="M283.6,314.63s67.27,50.16,78,113.25c4.22,24.74,0,93.47-51.52,165.48" fill="none" stroke="#8da077" stroke-miterlimit="10"/><path d="M290.78,579.88C317,553.6,329,524.31,330.56,518.26c3-11.83,30.68-118.61-60.87-186.33" fill="none" stroke="#8da077" stroke-miterlimit="10"/><path d="M263.79,328.67S180,296.48,101.32,335.42c-64.1,29.11-70.77,117.15-71.85,130s14.45,142.86,133,157.63c56.73,7.06,96.94-13.81,123.78-38.86" fill="none" stroke="#8da077" stroke-miterlimit="10"/><path d="M70.79,8s1.36.48,31.71-7" fill="none" stroke="#8da077" stroke-miterlimit="10"/><path d="M101,40.69,97.55,24.1s-3.68-7.8-9.64-7-8.31,4.51-7,10.54,3.68,15.85,3.68,15.85,2.95,6.53,9.9,5.2A7.71,7.71,0,0,0,101,40.69Z" fill="none" stroke="#8da077" stroke-miterlimit="10"/><path d="M87.91,17.13S76.66,19.53,78,27.51,82.56,47,83.38,47.64s4.52,5.57,10.55,4.24,7.3-6.48,7.07-11.19" fill="none" stroke="#8da077" stroke-miterlimit="10"/></g></g></svg>