<svg xmlns="http://www.w3.org/2000/svg" viewBox="0 0 500.24 569.28"><title>asset</title><g id="Layer_2" data-name="Layer 2"><g id="Laag_1" data-name="Laag 1"><rect x="25.51" y="2.83" width="449.21" height="541.29" fill="#231f20" stroke="#ebca9f" stroke-miterlimit="10" stroke-width="5.67"/><rect x="24.99" y="94.39" width="450.25" height="358.17" transform="translate(523.6 23.36) rotate(90)" fill="#0daadb"/><rect x="2.83" y="544.12" width="494.57" height="22.32" fill="#231f20" stroke="#ebca9f" stroke-miterlimit="10" stroke-width="5.67"/><path d="M344.19,414.74s-35.88-12.09-49.56-17.48c-8.77-3.45-16.1-9.58-16.42-18.86a34.11,34.11,0,0,0,4.51-5.58l9.1-14.15a57.89,57.89,0,0,0,9-25.9c2.36-.59,3.64-2,5-4.21a4.21,4.21,0,0,0,.33-.63l5.66-13.28c1.48-4.32-.6-9-5-11.22l-.56-.29a5.83,5.83,0,0,0-4.07-.46,167.19,167.19,0,0,1,1.92-18.59c2.4-12.09,1.22-34.52-10.19-37.27-9.82-2.36-7.6-9.57-22.26-9.57-8.67,0-15-6.21-22.23-5.33,1.22,2.05,3,5.06.13,6.09-4.83,1.72-24.87-8.7-42.14-6.21,8.63,22.45-8.15,22-5.18,30.39,3.34,9.43-7,12.43-6.53,22.09.14,2.79,1.47,11.7,2.51,18.37a5.8,5.8,0,0,0-3.91.49l-.56.29c-4.41,2.25-6.49,6.9-5,11.22l5.66,13.28a5.41,5.41,0,0,0,.33.63c1.39,2.2,2.67,3.64,5.06,4.22a58,58,0,0,0,9.31,26.09l9.36,14.23a33.83,33.83,0,0,0,6.32,7.14c-1.21,8.22-8,13.85-16.3,16.87-12.85,4.68-51.73,17.8-51.73,17.8a48.76,48.76,0,0,0-13.48,7.15C129,432.84,122.16,451,125,468.68l7.29,45.45H371.14L376.26,466a48.2,48.2,0,0,0-32.07-51.27Z" fill="#231f20"/><path d="M333.19,479.23l-82.67,22.16a.86.86,0,0,1-.45,0L167.4,479.23a.88.88,0,0,1-.65-.84v-5.07a.88.88,0,0,1,1.1-.85l82.22,22a.86.86,0,0,0,.45,0l82.22-22a.87.87,0,0,1,1.1.85v5.07A.86.86,0,0,1,333.19,479.23Z" fill="none" stroke="#fff" stroke-linecap="round" stroke-miterlimit="10" stroke-width="2.83"/><path d="M174.87,474.35s50.93,1.06,75.43,20.21" fill="none" stroke="#fff" stroke-linecap="round" stroke-miterlimit="10" stroke-width="2.83"/><path d="M325.73,474.35s-50.94,1.06-75.43,20.21" fill="none" stroke="#fff" stroke-linecap="round" stroke-miterlimit="10" stroke-width="2.83"/></g></g></svg>